<svg width="24" height="24" viewBox="0 0 24 24" fill="none" xmlns="http://www.w3.org/2000/svg">
<path d="M22.3894 1.79348C22.3808 1.75202 22.3606 1.71386 22.3311 1.68348C22.3017 1.65309 22.2641 1.63174 22.223 1.62192C19.4775 0.950668 13.1339 3.3427 9.69702 6.77817C9.08403 7.38621 8.5252 8.04652 8.02687 8.7516C6.96702 8.65785 5.90718 8.73614 5.0039 9.12989C2.4553 10.2516 1.71327 13.1785 1.50655 14.4375C1.49483 14.5065 1.49925 14.5772 1.51948 14.6441C1.5397 14.711 1.57517 14.7723 1.6231 14.8232C1.67103 14.8741 1.73012 14.9131 1.7957 14.9373C1.86129 14.9615 1.9316 14.9701 2.00109 14.9625L6.09374 14.5111C6.09666 14.8197 6.11528 15.1279 6.14952 15.4346C6.17012 15.6475 6.26465 15.8466 6.41671 15.9971L8.00155 17.5782C8.15221 17.73 8.35116 17.8245 8.56405 17.8454C8.86901 17.8795 9.1755 17.8981 9.48234 17.9011L9.03327 21.9886C9.02578 22.0581 9.03449 22.1284 9.0587 22.1939C9.08292 22.2594 9.12199 22.3185 9.17285 22.3664C9.22371 22.4143 9.28498 22.4498 9.35185 22.47C9.41872 22.4903 9.48938 22.4948 9.55827 22.4832C10.815 22.2816 13.747 21.5396 14.8622 18.991C15.2559 18.0877 15.3366 17.033 15.2456 15.9783C15.9524 15.48 16.6144 14.921 17.2242 14.3077C20.6719 10.8774 23.0503 4.67536 22.3894 1.79348ZM13.7845 10.2155C13.4697 9.9009 13.2553 9.49999 13.1683 9.06349C13.0814 8.627 13.1259 8.17452 13.2961 7.7633C13.4664 7.35208 13.7548 7.00059 14.1248 6.7533C14.4948 6.506 14.9299 6.374 15.375 6.374C15.8201 6.374 16.2551 6.506 16.6252 6.7533C16.9952 7.00059 17.2836 7.35208 17.4539 7.7633C17.6241 8.17452 17.6686 8.627 17.5816 9.06349C17.4947 9.49999 17.2803 9.9009 16.9655 10.2155C16.7567 10.4246 16.5088 10.5904 16.2359 10.7036C15.963 10.8167 15.6704 10.875 15.375 10.875C15.0796 10.875 14.787 10.8167 14.5141 10.7036C14.2412 10.5904 13.9933 10.4246 13.7845 10.2155Z" fill="white"/>
<path d="M7.89375 18.7233C7.63687 18.9806 7.22484 19.0809 6.72891 19.1667C5.61469 19.3566 4.63078 18.3938 4.83094 17.2673C4.90734 16.8403 5.13328 16.2417 5.27391 16.1011C5.30464 16.071 5.3251 16.0319 5.33238 15.9895C5.33965 15.947 5.33337 15.9034 5.31443 15.8647C5.29549 15.8261 5.26485 15.7943 5.22686 15.7741C5.18887 15.7538 5.14547 15.7461 5.10281 15.7519C4.47973 15.8281 3.90006 16.1106 3.45609 16.5544C2.35406 17.6573 2.25 21.75 2.25 21.75C2.25 21.75 6.345 21.6459 7.44703 20.543C7.89218 20.0994 8.17503 19.5188 8.25 18.8948C8.26734 18.6989 8.02875 18.5822 7.89375 18.7233Z" fill="white"/>
</svg>
