<svg width="40" height="40" viewBox="0 0 40 40" fill="none" xmlns="http://www.w3.org/2000/svg">
<g clip-path="url(#clip0_3385_904)">
<path d="M0 39.9984H24.6485V15.354H0V39.9984ZM17.1801 28.8687C19.199 28.8687 20.8416 30.5112 20.8416 32.5302C20.8416 34.5491 19.1991 36.1915 17.1801 36.1915C15.1613 36.1915 13.5188 34.5491 13.5188 32.5302C13.5188 30.5113 15.1613 28.8687 17.1801 28.8687ZM7.46827 19.1609C9.48717 19.1609 11.1297 20.8034 11.1297 22.8223C11.1297 24.8412 9.48725 26.4837 7.46827 26.4837C5.44938 26.4837 3.80692 24.8413 3.80692 22.8223C3.80692 20.8035 5.44946 19.1609 7.46827 19.1609Z" fill="#C031CD"/>
<path d="M17.1802 33.8476C17.9066 33.8476 18.4977 33.2566 18.4977 32.5302C18.4977 31.8037 17.9067 31.2126 17.1802 31.2126C16.4537 31.2126 15.8627 31.8036 15.8627 32.5302C15.8627 33.2566 16.4537 33.8476 17.1802 33.8476Z" fill="#C031CD"/>
<path d="M7.46826 24.1396C8.19472 24.1396 8.78577 23.5486 8.78577 22.8221C8.78577 22.0956 8.19479 21.5046 7.46826 21.5046C6.7418 21.5046 6.15082 22.0956 6.15082 22.8221C6.15082 23.5486 6.74188 24.1396 7.46826 24.1396Z" fill="#C031CD"/>
<path d="M32.5317 6.15234C31.8052 6.15234 31.2142 6.74332 31.2142 7.46978C31.2142 8.19624 31.8052 8.7873 32.5317 8.7873C33.2581 8.7873 33.8492 8.19632 33.8492 7.46978C33.8492 6.74332 33.2582 6.15234 32.5317 6.15234Z" fill="#C031CD"/>
<path d="M15.3515 0.00146484V13.0101H26.9923V24.646H39.9999V0.00146484H15.3515ZM32.5316 11.1312C30.5128 11.1312 28.8703 9.48871 28.8703 7.46974C28.8703 5.45084 30.5128 3.80838 32.5316 3.80838C34.5505 3.80838 36.1931 5.45084 36.1931 7.46974C36.1931 9.48864 34.5506 11.1312 32.5316 11.1312Z" fill="#C031CD"/>
</g>
<defs>
<clipPath id="clip0_3385_904">
<rect width="40" height="40" fill="white"/>
</clipPath>
</defs>
</svg>
