<svg width="173" height="75" viewBox="0 0 173 75" fill="none" xmlns="http://www.w3.org/2000/svg">
<g clip-path="url(#clip0_1_9423)">
<path d="M23.5684 28.7322H61.485V23.6851L42.525 15.4038L23.5684 23.6851V28.7322Z" fill="#516389"/>
<path d="M25.8266 30.0718H33.9382V32.1915H32.6516V47.1864H33.9382V49.2312H25.8266V47.1864H27.2667L27.2155 32.1677H25.7754L25.8266 30.0718Z" fill="#516389"/>
<path d="M38.4789 30.0718H46.5939V32.1915H45.304V47.1864H46.5939V49.2312H38.4789V47.1864H39.919L39.8678 32.1677H38.4277L38.4789 30.0718Z" fill="#516389"/>
<path d="M51.1177 30.0718H59.2293V32.1915H57.9427V47.1864H59.2293V49.2312H51.1177V47.1864H52.5577L52.5066 32.1677H51.0665L51.1177 30.0718Z" fill="#516389"/>
<path d="M61.485 50.7437H23.5684V52.4613H61.485V50.7437Z" fill="#516389"/>
<path d="M64.2662 53.978H20.7871V55.6956H64.2662V53.978Z" fill="#516389"/>
<path d="M72.3888 28.2071H69.6509L69.6362 26.699H71.9349C72.34 26.699 72.6719 26.6478 72.9305 26.5453C73.1892 26.4379 73.382 26.2842 73.5089 26.0841C73.6406 25.8791 73.7065 25.6302 73.7065 25.3374C73.7065 25.0055 73.6431 24.7371 73.5162 24.5321C73.3942 24.3271 73.2014 24.1783 72.9378 24.0855C72.6792 23.9928 72.3449 23.9464 71.9349 23.9464H70.4122V32.885H68.216V22.2261H71.9349C72.5547 22.2261 73.1087 22.2846 73.5967 22.4018C74.0896 22.5189 74.5069 22.697 74.8485 22.9362C75.1902 23.1753 75.4513 23.4779 75.6319 23.8439C75.8124 24.2051 75.9027 24.6346 75.9027 25.1324C75.9027 25.5716 75.8027 25.9767 75.6026 26.3476C75.4074 26.7185 75.0975 27.0211 74.6729 27.2554C74.2531 27.4897 73.7041 27.619 73.0257 27.6434L72.3888 28.2071ZM72.2936 32.885H69.0506L69.9071 31.172H72.2936C72.6792 31.172 72.994 31.111 73.238 30.989C73.482 30.8621 73.6626 30.6912 73.7797 30.4765C73.8969 30.2618 73.9554 30.0153 73.9554 29.7371C73.9554 29.4248 73.9017 29.1539 73.7944 28.9245C73.6919 28.6951 73.5259 28.5194 73.2966 28.3974C73.0672 28.2705 72.7646 28.2071 72.3888 28.2071H70.2731L70.2878 26.699H72.9232L73.4283 27.292C74.0774 27.2822 74.5996 27.3969 74.995 27.6361C75.3952 27.8703 75.6856 28.1754 75.8661 28.5512C76.0516 28.927 76.1443 29.3296 76.1443 29.7591C76.1443 30.4423 75.9955 31.0182 75.6978 31.4868C75.4 31.9504 74.9632 32.2994 74.3873 32.5336C73.8163 32.7679 73.1184 32.885 72.2936 32.885Z" fill="#516389"/>
<path d="M82.1253 24.0489L79.2263 32.885H76.891L80.8515 22.2261H82.3376L82.1253 24.0489ZM84.5338 32.885L81.6275 24.0489L81.3933 22.2261H82.894L86.8765 32.885H84.5338ZM84.4021 28.9172V30.6376H78.7724V28.9172H84.4021Z" fill="#516389"/>
<path d="M96.5398 22.2261V32.885H94.3436L90.061 25.74V32.885H87.8648V22.2261H90.061L94.3509 29.3784V22.2261H96.5398Z" fill="#516389"/>
<path d="M100.647 22.2261V32.885H98.4505V22.2261H100.647ZM107.03 22.2261L102.806 27.4897L100.369 30.1105L99.9732 28.0314L101.62 25.7766L104.336 22.2261H107.03ZM104.534 32.885L101.393 27.9582L103.019 26.5965L107.133 32.885H104.534Z" fill="#516389"/>
<path d="M72.9818 43.1693V53.8282H70.7929V43.1693H72.9818ZM76.2614 43.1693V44.8896H67.5645V43.1693H76.2614Z" fill="#516389"/>
<path d="M77.5133 43.1693H81.4884C82.3035 43.1693 83.0038 43.2913 83.5895 43.5353C84.18 43.7793 84.6339 44.1405 84.9511 44.6188C85.2683 45.0971 85.427 45.6852 85.427 46.3831C85.427 46.9541 85.3294 47.4446 85.1341 47.8545C84.9438 48.2596 84.6729 48.5988 84.3215 48.8721C83.975 49.1405 83.5675 49.3553 83.099 49.5163L82.4035 49.8824H78.9481L78.9335 48.1693H81.5031C81.8886 48.1693 82.2083 48.101 82.4621 47.9643C82.7159 47.8277 82.9062 47.6373 83.0331 47.3933C83.1649 47.1493 83.2308 46.8662 83.2308 46.5441C83.2308 46.2025 83.1673 45.9072 83.0404 45.6583C82.9135 45.4094 82.7207 45.2191 82.4621 45.0873C82.2034 44.9555 81.8789 44.8896 81.4884 44.8896H79.7095V53.8282H77.5133V43.1693ZM83.4723 53.8282L81.0419 49.0771L83.3625 49.0624L85.8223 53.7257V53.8282H83.4723Z" fill="#516389"/>
<path d="M91.4519 44.9921L88.5529 53.8282H86.2176L90.1781 43.1693H91.6642L91.4519 44.9921ZM93.8604 53.8282L90.9541 44.9921L90.7198 43.1693H92.2206L96.203 53.8282H93.8604ZM93.7286 49.8604V51.5808H88.099V49.8604H93.7286Z" fill="#516389"/>
<path d="M105.866 43.1693V53.8282H103.67L99.3875 46.6832V53.8282H97.1913V43.1693H99.3875L103.677 50.3216V43.1693H105.866Z" fill="#516389"/>
<path d="M113.326 51.039C113.326 50.8487 113.297 50.6779 113.238 50.5266C113.185 50.3704 113.082 50.2289 112.931 50.102C112.78 49.9702 112.567 49.8409 112.294 49.714C112.021 49.5871 111.667 49.4553 111.232 49.3187C110.749 49.1625 110.291 48.9868 109.856 48.7916C109.427 48.5964 109.046 48.3694 108.714 48.1108C108.387 47.8472 108.128 47.5422 107.938 47.1957C107.753 46.8491 107.66 46.4465 107.66 45.9877C107.66 45.5436 107.758 45.141 107.953 44.7798C108.148 44.4138 108.421 44.1014 108.773 43.8428C109.124 43.5792 109.539 43.3767 110.017 43.2352C110.5 43.0936 111.03 43.0229 111.606 43.0229C112.392 43.0229 113.077 43.1644 113.663 43.4475C114.249 43.7305 114.702 44.1185 115.025 44.6115C115.352 45.1044 115.515 45.6681 115.515 46.3025H113.333C113.333 45.9902 113.268 45.7169 113.136 45.4826C113.009 45.2435 112.814 45.0556 112.55 44.9189C112.291 44.7823 111.965 44.7139 111.569 44.7139C111.189 44.7139 110.871 44.7725 110.617 44.8896C110.364 45.0019 110.173 45.1556 110.046 45.3508C109.92 45.5412 109.856 45.7559 109.856 45.9951C109.856 46.1756 109.9 46.3391 109.988 46.4856C110.081 46.632 110.217 46.7686 110.398 46.8955C110.578 47.0224 110.801 47.142 111.064 47.2542C111.328 47.3665 111.633 47.4763 111.979 47.5837C112.56 47.7594 113.07 47.957 113.509 48.1766C113.953 48.3963 114.324 48.6427 114.622 48.916C114.92 49.1893 115.144 49.4992 115.295 49.8458C115.447 50.1923 115.522 50.5851 115.522 51.0244C115.522 51.488 115.432 51.9029 115.251 52.2689C115.071 52.6349 114.81 52.9449 114.468 53.1986C114.127 53.4524 113.719 53.6452 113.246 53.777C112.772 53.9087 112.243 53.9746 111.657 53.9746C111.13 53.9746 110.61 53.9063 110.098 53.7697C109.585 53.6281 109.119 53.4158 108.699 53.1328C108.285 52.8497 107.953 52.4885 107.704 52.0493C107.455 51.61 107.331 51.0903 107.331 50.49H109.534C109.534 50.8218 109.585 51.1025 109.688 51.3319C109.79 51.5612 109.934 51.7467 110.12 51.8882C110.31 52.0298 110.535 52.1323 110.793 52.1957C111.057 52.2591 111.345 52.2909 111.657 52.2909C112.038 52.2909 112.35 52.2372 112.594 52.1298C112.843 52.0224 113.026 51.8736 113.143 51.6833C113.265 51.4929 113.326 51.2782 113.326 51.039Z" fill="#516389"/>
<path d="M119.212 43.1693V53.8282H117.016V43.1693H119.212ZM123.458 47.7228V49.4358H118.612V47.7228H123.458ZM123.97 43.1693V44.8896H118.612V43.1693H123.97Z" fill="#516389"/>
<path d="M132.397 52.1152V53.8282H126.723V52.1152H132.397ZM127.44 43.1693V53.8282H125.244V43.1693H127.44ZM131.657 47.5105V49.1796H126.723V47.5105H131.657ZM132.389 43.1693V44.8896H126.723V43.1693H132.389Z" fill="#516389"/>
<path d="M133.678 43.1693H137.653C138.468 43.1693 139.168 43.2913 139.754 43.5353C140.344 43.7793 140.798 44.1405 141.116 44.6188C141.433 45.0971 141.591 45.6852 141.591 46.3831C141.591 46.9541 141.494 47.4446 141.299 47.8545C141.108 48.2596 140.837 48.5988 140.486 48.8721C140.139 49.1405 139.732 49.3553 139.263 49.5163L138.568 49.8824H135.113L135.098 48.1693H137.667C138.053 48.1693 138.373 48.101 138.626 47.9643C138.88 47.8277 139.071 47.6373 139.198 47.3933C139.329 47.1493 139.395 46.8662 139.395 46.5441C139.395 46.2025 139.332 45.9072 139.205 45.6583C139.078 45.4094 138.885 45.2191 138.626 45.0873C138.368 44.9555 138.043 44.8896 137.653 44.8896H135.874V53.8282H133.678V43.1693ZM139.637 53.8282L137.206 49.0771L139.527 49.0624L141.987 53.7257V53.8282H139.637Z" fill="#516389"/>
<path d="M148.832 51.039C148.832 50.8487 148.802 50.6779 148.744 50.5266C148.69 50.3704 148.588 50.2289 148.436 50.102C148.285 49.9702 148.073 49.8409 147.799 49.714C147.526 49.5871 147.172 49.4553 146.738 49.3187C146.255 49.1625 145.796 48.9868 145.362 48.7916C144.932 48.5964 144.551 48.3694 144.22 48.1108C143.893 47.8472 143.634 47.5422 143.444 47.1957C143.258 46.8491 143.165 46.4465 143.165 45.9877C143.165 45.5436 143.263 45.141 143.458 44.7798C143.653 44.4138 143.927 44.1014 144.278 43.8428C144.629 43.5792 145.044 43.3767 145.523 43.2352C146.006 43.0936 146.535 43.0229 147.111 43.0229C147.897 43.0229 148.583 43.1644 149.168 43.4475C149.754 43.7305 150.208 44.1185 150.53 44.6115C150.857 45.1044 151.02 45.6681 151.02 46.3025H148.839C148.839 45.9902 148.773 45.7169 148.641 45.4826C148.514 45.2435 148.319 45.0556 148.056 44.9189C147.797 44.7823 147.47 44.7139 147.075 44.7139C146.694 44.7139 146.377 44.7725 146.123 44.8896C145.869 45.0019 145.679 45.1556 145.552 45.3508C145.425 45.5412 145.362 45.7559 145.362 45.9951C145.362 46.1756 145.405 46.3391 145.493 46.4856C145.586 46.632 145.723 46.7686 145.903 46.8955C146.084 47.0224 146.306 47.142 146.569 47.2542C146.833 47.3665 147.138 47.4763 147.485 47.5837C148.065 47.7594 148.575 47.957 149.015 48.1766C149.459 48.3963 149.83 48.6427 150.127 48.916C150.425 49.1893 150.65 49.4992 150.801 49.8458C150.952 50.1923 151.028 50.5851 151.028 51.0244C151.028 51.488 150.937 51.9029 150.757 52.2689C150.576 52.6349 150.315 52.9449 149.974 53.1986C149.632 53.4524 149.224 53.6452 148.751 53.777C148.278 53.9087 147.748 53.9746 147.162 53.9746C146.635 53.9746 146.116 53.9063 145.603 53.7697C145.091 53.6281 144.625 53.4158 144.205 53.1328C143.79 52.8497 143.458 52.4885 143.209 52.0493C142.96 51.61 142.836 51.0903 142.836 50.49H145.039C145.039 50.8218 145.091 51.1025 145.193 51.3319C145.296 51.5612 145.44 51.7467 145.625 51.8882C145.815 52.0298 146.04 52.1323 146.299 52.1957C146.562 52.2591 146.85 52.2909 147.162 52.2909C147.543 52.2909 147.855 52.2372 148.099 52.1298C148.348 52.0224 148.531 51.8736 148.649 51.6833C148.771 51.4929 148.832 51.2782 148.832 51.039Z" fill="#516389"/>
</g>
<defs>
<clipPath id="clip0_1_9423">
<rect width="131" height="44.2102" fill="white" transform="translate(20.75 15.395)"/>
</clipPath>
</defs>
</svg>
