<svg width="132" height="56" viewBox="0 0 132 56" fill="none" xmlns="http://www.w3.org/2000/svg">
<path d="M4.74463 18.8856H42.0824V13.927L23.4119 5.79102L4.74463 13.927V18.8856Z" fill="#516389"/>
<path d="M6.96838 20.2012H14.9561V22.2837H13.6892V37.0156H14.9561V39.0244H6.96838V37.0156H8.38648L8.33607 22.2603H6.91797L6.96838 20.2012Z" fill="#516389"/>
<path d="M19.4274 20.2012H27.4185V22.2837H26.1482V37.0156H27.4185V39.0244H19.4274V37.0156H20.8455L20.7951 22.2603H19.377L19.4274 20.2012Z" fill="#516389"/>
<path d="M31.8732 20.2012H39.8609V22.2837H38.594V37.0156H39.8609V39.0244H31.8732V37.0156H33.2913L33.2409 22.2603H31.8228L31.8732 20.2012Z" fill="#516389"/>
<path d="M42.0824 40.5107H4.74463V42.1982H42.0824V40.5107Z" fill="#516389"/>
<path d="M44.8212 43.6885H2.00586V45.3759H44.8212V43.6885Z" fill="#516389"/>
<path d="M52.82 18.3712H50.1239L50.1095 16.8896H52.3731C52.772 16.8896 53.0988 16.8392 53.3535 16.7386C53.6082 16.6331 53.798 16.482 53.923 16.2854C54.0528 16.0841 54.1176 15.8395 54.1176 15.5518C54.1176 15.2258 54.0552 14.9621 53.9302 14.7607C53.8101 14.5593 53.6202 14.4131 53.3607 14.322C53.106 14.2309 52.7768 14.1853 52.3731 14.1853H50.8736V22.9671H48.7109V12.4951H52.3731C52.9834 12.4951 53.5289 12.5527 54.0095 12.6677C54.4949 12.7828 54.9058 12.9578 55.2422 13.1928C55.5786 13.4277 55.8358 13.725 56.0136 14.0846C56.1914 14.4394 56.2803 14.8614 56.2803 15.3504C56.2803 15.782 56.1818 16.18 55.9847 16.5444C55.7925 16.9088 55.4873 17.2061 55.0692 17.4362C54.6559 17.6664 54.1152 17.7934 53.4472 17.8174L52.82 18.3712ZM52.7263 22.9671H49.5327L50.3762 21.2841H52.7263C53.106 21.2841 53.416 21.2241 53.6563 21.1043C53.8966 20.9796 54.0744 20.8118 54.1897 20.6008C54.3051 20.3898 54.3627 20.1477 54.3627 19.8744C54.3627 19.5675 54.3099 19.3014 54.2041 19.076C54.1032 18.8507 53.9398 18.6781 53.7139 18.5582C53.4881 18.4335 53.1901 18.3712 52.82 18.3712H50.7366L50.7511 16.8896H53.3463L53.8437 17.4722C54.4829 17.4626 54.9971 17.5753 55.3864 17.8102C55.7805 18.0404 56.0664 18.34 56.2443 18.7092C56.4269 19.0784 56.5182 19.474 56.5182 19.896C56.5182 20.5672 56.3716 21.133 56.0785 21.5933C55.7853 22.0488 55.3552 22.3917 54.7881 22.6218C54.2258 22.852 53.5385 22.9671 52.7263 22.9671Z" fill="#516389"/>
<path d="M62.4079 14.286L59.5532 22.9671H57.2535L61.1536 12.4951H62.617L62.4079 14.286ZM64.7796 22.9671L61.9177 14.286L61.687 12.4951H63.1648L67.0865 22.9671H64.7796ZM64.6499 19.0689V20.759H59.1062V19.0689H64.6499Z" fill="#516389"/>
<path d="M76.6023 12.4951V22.9671H74.4396L70.2224 15.9474V22.9671H68.0597V12.4951H70.2224L74.4468 19.522V12.4951H76.6023Z" fill="#516389"/>
<path d="M80.6465 12.4951V22.9671H78.4838V12.4951H80.6465ZM86.9327 12.4951L82.7731 17.6664L80.3726 20.2412L79.9833 18.1986L81.6053 15.9834L84.2798 12.4951H86.9327ZM84.4745 22.9671L81.3818 18.1267L82.9822 16.7889L87.0336 22.9671H84.4745Z" fill="#516389"/>
<path d="M53.4039 33.0709V43.5428H51.2485V33.0709H53.4039ZM56.6336 33.0709V34.7611H48.0693V33.0709H56.6336Z" fill="#516389"/>
<path d="M57.8663 33.0709H61.7807C62.5833 33.0709 63.273 33.1908 63.8497 33.4305C64.4312 33.6703 64.8782 34.0251 65.1906 34.495C65.5029 34.9649 65.6591 35.5426 65.6591 36.2283C65.6591 36.7893 65.563 37.2712 65.3708 37.6739C65.1833 38.0719 64.9166 38.4052 64.5706 38.6737C64.2294 38.9374 63.8281 39.1484 63.3667 39.3066L62.6818 39.6662H59.2792L59.2648 37.9832H61.7951C62.1748 37.9832 62.4896 37.9161 62.7395 37.7818C62.9894 37.6476 63.1769 37.4606 63.3018 37.2208C63.4316 36.9811 63.4965 36.703 63.4965 36.3865C63.4965 36.0509 63.434 35.7608 63.309 35.5163C63.1841 35.2717 62.9942 35.0847 62.7395 34.9553C62.4848 34.8258 62.1652 34.7611 61.7807 34.7611H60.029V43.5428H57.8663V33.0709ZM63.7344 43.5428L61.341 38.8751L63.6262 38.8607L66.0484 43.4421V43.5428H63.7344Z" fill="#516389"/>
<path d="M71.5921 34.8618L68.7374 43.5428H66.4377L70.3377 33.0709H71.8011L71.5921 34.8618ZM73.9638 43.5428L71.1019 34.8618L70.8712 33.0709H72.349L76.2707 43.5428H73.9638ZM73.8341 39.6446V41.3348H68.2904V39.6446H73.8341Z" fill="#516389"/>
<path d="M85.7865 33.0709V43.5428H83.6238L79.4066 36.5232V43.5428H77.2439V33.0709H79.4066L83.631 40.0977V33.0709H85.7865Z" fill="#516389"/>
<path d="M93.1324 40.8026C93.1324 40.6156 93.1035 40.4478 93.0459 40.2991C92.993 40.1457 92.8921 40.0066 92.7431 39.882C92.5941 39.7525 92.3851 39.6255 92.1159 39.5008C91.8468 39.3761 91.4984 39.2467 91.0706 39.1124C90.5948 38.959 90.1431 38.7864 89.7154 38.5946C89.2924 38.4028 88.9176 38.1798 88.5908 37.9257C88.2688 37.6668 88.014 37.3671 87.8266 37.0266C87.644 36.6862 87.5527 36.2906 87.5527 35.8399C87.5527 35.4036 87.6488 35.008 87.841 34.6532C88.0333 34.2936 88.3024 33.9867 88.6484 33.7326C88.9945 33.4737 89.403 33.2747 89.8739 33.1356C90.3497 32.9966 90.8712 32.927 91.4383 32.927C92.212 32.927 92.8873 33.0661 93.464 33.3442C94.0407 33.6223 94.4877 34.0035 94.8049 34.4878C95.1269 34.9721 95.2879 35.5259 95.2879 36.1492H93.1396C93.1396 35.8423 93.0747 35.5738 92.945 35.3437C92.82 35.1087 92.6278 34.9241 92.3682 34.7898C92.1135 34.6556 91.7915 34.5885 91.4022 34.5885C91.0274 34.5885 90.715 34.646 90.4651 34.7611C90.2152 34.8714 90.0277 35.0224 89.9028 35.2142C89.7778 35.4012 89.7154 35.6122 89.7154 35.8471C89.7154 36.0245 89.7586 36.1851 89.8451 36.329C89.9364 36.4728 90.071 36.6071 90.2488 36.7318C90.4266 36.8564 90.6453 36.9739 90.9048 37.0842C91.1643 37.1945 91.4647 37.3023 91.8059 37.4078C92.3778 37.5804 92.8801 37.7746 93.3126 37.9904C93.75 38.2062 94.1152 38.4483 94.4084 38.7168C94.7015 38.9853 94.9226 39.2898 95.0716 39.6302C95.2206 39.9707 95.2951 40.3567 95.2951 40.7882C95.2951 41.2437 95.2062 41.6513 95.0283 42.0109C94.8505 42.3705 94.5934 42.675 94.257 42.9243C93.9206 43.1736 93.5193 43.363 93.0531 43.4925C92.5869 43.622 92.0655 43.6867 91.4888 43.6867C90.9697 43.6867 90.4579 43.6196 89.9532 43.4853C89.4486 43.3463 88.9897 43.1377 88.5763 42.8596C88.1678 42.5815 87.841 42.2267 87.5959 41.7951C87.3508 41.3636 87.2283 40.8529 87.2283 40.2632H89.3982C89.3982 40.5892 89.4486 40.8649 89.5495 41.0903C89.6505 41.3156 89.7922 41.4978 89.9749 41.6369C90.1623 41.7759 90.3834 41.8766 90.6381 41.939C90.8976 42.0013 91.1812 42.0325 91.4888 42.0325C91.8636 42.0325 92.1712 41.9797 92.4115 41.8742C92.6566 41.7687 92.8368 41.6225 92.9522 41.4355C93.0723 41.2485 93.1324 41.0375 93.1324 40.8026Z" fill="#516389"/>
<path d="M98.9284 33.0709V43.5428H96.7657V33.0709H98.9284ZM103.11 37.5445V39.2275H98.3372V37.5445H103.11ZM103.614 33.0709V34.7611H98.3372V33.0709H103.614Z" fill="#516389"/>
<path d="M111.912 41.8598V43.5428H106.325V41.8598H111.912ZM107.031 33.0709V43.5428H104.869V33.0709H107.031ZM111.184 37.3359V38.9757H106.325V37.3359H111.184ZM111.904 33.0709V34.7611H106.325V33.0709H111.904Z" fill="#516389"/>
<path d="M113.173 33.0709H117.088C117.89 33.0709 118.58 33.1908 119.157 33.4305C119.738 33.6703 120.185 34.0251 120.497 34.495C120.81 34.9649 120.966 35.5426 120.966 36.2283C120.966 36.7893 120.87 37.2712 120.678 37.6739C120.49 38.0719 120.224 38.4052 119.878 38.6737C119.536 38.9374 119.135 39.1484 118.674 39.3066L117.989 39.6662H114.586L114.572 37.9832H117.102C117.482 37.9832 117.797 37.9161 118.046 37.7818C118.296 37.6476 118.484 37.4606 118.609 37.2208C118.739 36.9811 118.803 36.703 118.803 36.3865C118.803 36.0509 118.741 35.7608 118.616 35.5163C118.491 35.2717 118.301 35.0847 118.046 34.9553C117.792 34.8258 117.472 34.7611 117.088 34.7611H115.336V43.5428H113.173V33.0709ZM119.041 43.5428L116.648 38.8751L118.933 38.8607L121.355 43.4421V43.5428H119.041Z" fill="#516389"/>
<path d="M128.096 40.8026C128.096 40.6156 128.067 40.4478 128.009 40.2991C127.956 40.1457 127.855 40.0066 127.706 39.882C127.557 39.7525 127.348 39.6255 127.079 39.5008C126.81 39.3761 126.462 39.2467 126.034 39.1124C125.558 38.959 125.106 38.7864 124.679 38.5946C124.256 38.4028 123.881 38.1798 123.554 37.9257C123.232 37.6668 122.977 37.3671 122.79 37.0266C122.607 36.6862 122.516 36.2906 122.516 35.8399C122.516 35.4036 122.612 35.008 122.804 34.6532C122.997 34.2936 123.266 33.9867 123.612 33.7326C123.958 33.4737 124.366 33.2747 124.837 33.1356C125.313 32.9966 125.835 32.927 126.402 32.927C127.175 32.927 127.851 33.0661 128.427 33.3442C129.004 33.6223 129.451 34.0035 129.768 34.4878C130.09 34.9721 130.251 35.5259 130.251 36.1492H128.103C128.103 35.8423 128.038 35.5738 127.908 35.3437C127.783 35.1087 127.591 34.9241 127.332 34.7898C127.077 34.6556 126.755 34.5885 126.366 34.5885C125.991 34.5885 125.678 34.646 125.428 34.7611C125.179 34.8714 124.991 35.0224 124.866 35.2142C124.741 35.4012 124.679 35.6122 124.679 35.8471C124.679 36.0245 124.722 36.1851 124.808 36.329C124.9 36.4728 125.034 36.6071 125.212 36.7318C125.39 36.8564 125.609 36.9739 125.868 37.0842C126.128 37.1945 126.428 37.3023 126.769 37.4078C127.341 37.5804 127.843 37.7746 128.276 37.9904C128.713 38.2062 129.079 38.4483 129.372 38.7168C129.665 38.9853 129.886 39.2898 130.035 39.6302C130.184 39.9707 130.258 40.3567 130.258 40.7882C130.258 41.2437 130.169 41.6513 129.992 42.0109C129.814 42.3705 129.557 42.675 129.22 42.9243C128.884 43.1736 128.483 43.363 128.016 43.4925C127.55 43.622 127.029 43.6867 126.452 43.6867C125.933 43.6867 125.421 43.6196 124.917 43.4853C124.412 43.3463 123.953 43.1377 123.54 42.8596C123.131 42.5815 122.804 42.2267 122.559 41.7951C122.314 41.3636 122.192 40.8529 122.192 40.2632H124.361C124.361 40.5892 124.412 40.8649 124.513 41.0903C124.614 41.3156 124.756 41.4978 124.938 41.6369C125.126 41.7759 125.347 41.8766 125.601 41.939C125.861 42.0013 126.145 42.0325 126.452 42.0325C126.827 42.0325 127.135 41.9797 127.375 41.8742C127.62 41.7687 127.8 41.6225 127.915 41.4355C128.036 41.2485 128.096 41.0375 128.096 40.8026Z" fill="#516389"/>
</svg>
