<svg width="118" height="56" viewBox="0 0 118 56" fill="none" xmlns="http://www.w3.org/2000/svg">
<path fill-rule="evenodd" clip-rule="evenodd" d="M103.382 38.8115C110.169 38.8115 115.671 33.3097 115.671 26.5229C115.671 19.7362 110.169 14.2344 103.382 14.2344C96.5955 14.2344 91.0938 19.7362 91.0938 26.5229C91.0938 33.3097 96.5955 38.8115 103.382 38.8115ZM104.78 27.0499C104.836 27.0469 104.872 27.045 104.889 27.045C107.865 26.907 110.111 26.3946 110.111 25.7639C110.111 25.1332 107.885 24.6207 104.889 24.4828V26.5128C104.872 26.5128 104.834 26.5148 104.775 26.518C104.574 26.5286 104.129 26.5522 103.412 26.5522C102.623 26.5522 102.072 26.5325 101.875 26.5128V24.4828C98.8794 24.6207 96.6527 25.1332 96.6527 25.7639C96.6527 26.3946 98.8794 26.907 101.875 27.045C102.072 27.0647 102.604 27.0844 103.392 27.0844C104.143 27.0844 104.584 27.0605 104.78 27.0499ZM104.889 22.4528V24.266C108.259 24.4237 110.801 25.1135 110.821 25.9018C110.821 26.7099 108.279 27.38 104.889 27.5377V33.3715H101.875V27.5377C98.4853 27.38 95.9434 26.7099 95.9434 25.9018C95.9434 25.0938 98.4853 24.4237 101.875 24.266V22.4528H97.6971V19.6738H109.047V22.4528H104.889Z" fill="#516389"/>
<circle cx="103.625" cy="26.6032" r="12.0192" stroke="#516389" stroke-width="0.686813"/>
<g clip-path="url(#clip0_2498_1073)">
<g clip-path="url(#clip1_2498_1073)">
<path fill-rule="evenodd" clip-rule="evenodd" d="M13.7697 38.5081C20.4727 38.5081 25.9065 33.0742 25.9065 26.3712C25.9065 19.6682 20.4727 14.2344 13.7697 14.2344C7.06667 14.2344 1.63281 19.6682 1.63281 26.3712C1.63281 33.0742 7.06667 38.5081 13.7697 38.5081ZM13.3095 21.4214C13.3095 20.1724 13.9706 18.988 15.087 18.3321H15.0873C15.6106 18.0059 16.2717 17.8717 16.8614 17.8751C17.4542 17.8751 18.1103 18.0059 18.637 18.3355C19.7568 18.9915 20.4145 20.1759 20.4145 21.4248C20.4145 22.6737 19.7534 23.8581 18.637 24.5139C18.0439 24.8436 17.32 24.9744 16.664 24.9744C15.8772 24.9744 15.2841 25.5641 15.2841 26.3542C15.2841 27.3415 16.0709 27.734 16.664 27.734C17.3863 27.734 18.0439 27.8649 18.637 28.1945C19.7568 28.8521 20.4145 30.0365 20.4145 31.2854C20.4145 32.5344 19.7534 33.7188 18.6368 34.3747C17.5203 35.0306 16.2033 35.0306 15.0869 34.3747C13.9653 33.7187 13.3094 32.5361 13.3094 31.2854C13.3094 30.6296 13.5065 29.9719 13.8361 29.3789C14.1624 28.723 13.9653 27.8649 13.3094 27.4723C12.39 26.9456 11.6661 27.5386 11.4027 27.9991C11.0763 28.5922 10.6159 29.1155 10.0229 29.4452C8.90634 30.101 7.58932 30.101 6.47289 29.4452C5.35323 28.7875 4.69727 27.6035 4.69727 26.3542C4.69727 25.1049 5.35662 23.9175 6.47314 23.2617C7.58966 22.6058 8.90668 22.6058 10.0231 23.2617C10.6162 23.6542 11.0767 24.181 11.4693 24.7077C11.8618 25.3653 12.7199 25.627 13.3759 25.2345C14.2951 24.774 14.166 23.8547 13.9026 23.3279C13.5729 22.7382 13.3095 22.0773 13.3095 21.4214Z" fill="#516389"/>
<circle cx="13.652" cy="26.6052" r="12.0192" stroke="#516389" stroke-width="0.686813"/>
</g>
</g>
<g clip-path="url(#clip2_2498_1073)">
<path fill-rule="evenodd" clip-rule="evenodd" d="M81.7528 40.779C89.6254 40.779 96.0074 34.3969 96.0074 26.5242C96.0074 18.6516 89.6253 12.2695 81.7528 12.2695C73.8801 12.2695 67.498 18.6516 67.498 26.5242C67.498 34.3969 73.8801 40.779 81.7528 40.779ZM81.8449 26.8452L80.919 30.3316H88.2444L87.4922 33.1337H75.7577L76.956 28.6314L75.2598 29.251L75.8207 27.1387L77.5182 26.5185L79.5514 18.8789H83.9605L82.4058 24.7329L84.5636 23.9446L84.5822 23.9955L84.037 26.0444L81.8449 26.8452Z" fill="#516389"/>
<circle cx="81.8213" cy="26.7822" r="14.2548" stroke="#516389" stroke-width="0.686813"/>
</g>
<g clip-path="url(#clip3_2498_1073)">
<path fill-rule="evenodd" clip-rule="evenodd" d="M33.5829 40.779C41.4555 40.779 47.8376 34.3969 47.8376 26.5243C47.8376 18.6516 41.4555 12.2695 33.5829 12.2695C25.7102 12.2695 19.3281 18.6516 19.3281 26.5243C19.3281 34.3969 25.7102 40.779 33.5829 40.779ZM34.0254 15.8328V23.7345L34.0256 23.7346L27.3457 26.7191L34.0254 15.8328ZM34.0256 15.8324L34.0254 15.8328V15.832L34.0256 15.8324ZM34.0258 15.8328L34.0256 15.8324L34.0258 15.832V15.8328ZM34.0258 15.8328V23.7345L34.0256 23.7346L40.7046 26.7191L34.0258 15.8328ZM34.0254 37.2111V37.2117L34.0256 37.2114L34.0258 37.2117V37.2111L40.7091 27.9648L34.0258 31.8419V31.8412L27.3457 27.9648L34.0254 37.2111ZM34.0254 37.2111V31.8421L34.0258 31.8419V37.2111L34.0256 37.2114L34.0254 37.2111ZM34.0258 30.599L40.7046 26.7211L34.0258 23.7385V23.7383L34.0256 23.7384L34.0254 23.7383V23.7385L27.3457 26.7211L34.0254 30.599V30.5993L34.0256 30.5991L34.0258 30.5993V30.599ZM34.0258 30.599V23.7385L34.0256 23.7384L34.0254 23.7385V30.599L34.0256 30.5991L34.0258 30.599Z" fill="#516389"/>
<circle cx="33.745" cy="26.7822" r="14.2548" stroke="#516389" stroke-width="0.686813"/>
</g>
<g clip-path="url(#clip4_2498_1073)">
<path fill-rule="evenodd" clip-rule="evenodd" d="M53.8633 42.2726C62.2822 44.3743 70.8241 39.2493 72.9257 30.8183C75.0274 22.3872 69.8899 13.8457 61.471 11.7564C53.0398 9.65469 44.5103 14.7798 42.4087 23.2107C40.307 31.6295 45.4321 40.171 53.8633 42.2726ZM61.6899 21.0853C63.8773 21.8349 65.4625 22.9655 65.1553 25.0545C64.9341 26.5783 64.0862 27.3279 62.9433 27.586C64.4917 28.397 65.2782 29.6382 64.5286 31.7764C63.6069 34.443 61.395 34.6642 58.4457 34.1112L57.733 36.9745L56.0126 36.5444L56.713 33.718C56.2707 33.6074 55.8037 33.4845 55.3367 33.3616L54.624 36.2003L52.9036 35.7702L53.6163 32.9069C53.3839 32.8435 53.1514 32.7842 52.9166 32.7242C52.7419 32.6796 52.5658 32.6346 52.3875 32.5874L50.1387 32.0222L50.9989 30.0437C50.9989 30.0437 52.2646 30.3755 52.2523 30.3509C52.7316 30.4738 52.9528 30.1543 53.0388 29.9454L54.1693 25.4232C54.2308 25.4478 54.2922 25.4601 54.3536 25.4724L54.3536 25.4724C54.2889 25.44 54.2336 25.4265 54.1878 25.4154C54.1814 25.4139 54.1753 25.4124 54.1693 25.4109L54.9804 22.179C55.0049 21.8104 54.8821 21.3434 54.1816 21.1714C54.2062 21.1591 52.9282 20.8641 52.9282 20.8641L53.3829 19.0209L55.7668 19.6107V19.623C56.1232 19.709 56.4919 19.795 56.8728 19.8811L57.5732 17.0547L59.2936 17.4848L58.6055 20.262C59.0725 20.3603 59.5394 20.4709 59.9941 20.5815L60.6823 17.8166L62.4027 18.2467L61.6899 21.0853ZM56.2162 31.355C57.6128 31.7273 60.7234 32.5563 61.2107 30.5844C61.7177 28.5785 58.745 27.9071 57.2844 27.5771C57.1165 27.5392 56.9686 27.5058 56.8482 27.4754L55.902 31.2726C55.9928 31.2955 56.0984 31.3237 56.2162 31.355ZM57.5663 25.8035C58.7341 26.119 61.2999 26.8121 61.7514 25.0177C62.2031 23.1997 59.7306 22.6462 58.5148 22.374C58.3746 22.3427 58.2512 22.315 58.1508 22.2896L57.2906 25.7304C57.3698 25.7505 57.4625 25.7755 57.5663 25.8035Z" fill="#516389"/>
<circle cx="57.8804" cy="26.8804" r="15.728" stroke="#516389" stroke-width="0.686813"/>
</g>
<defs>
<clipPath id="clip0_2498_1073">
<rect width="25.4121" height="25.4121" fill="white" transform="translate(0.945312 13.8984)"/>
</clipPath>
<clipPath id="clip1_2498_1073">
<rect width="26.7857" height="25.4121" fill="white" transform="translate(-0.427734 13.8984)"/>
</clipPath>
<clipPath id="clip2_2498_1073">
<rect width="29.533" height="30.2198" fill="white" transform="translate(67.5664 11.8398)"/>
</clipPath>
<clipPath id="clip3_2498_1073">
<rect width="28.8462" height="30.2198" fill="white" transform="translate(18.8027 11.8398)"/>
</clipPath>
<clipPath id="clip4_2498_1073">
<rect width="32.967" height="32.967" fill="white" transform="translate(41.4668 10.4648)"/>
</clipPath>
</defs>
</svg>
