<svg width="56" height="56" viewBox="0 0 56 56" fill="none" xmlns="http://www.w3.org/2000/svg">
<path fill-rule="evenodd" clip-rule="evenodd" d="M4.8515 1H50.2519C52.6551 1 54.6034 2.97421 54.6034 5.40952V51.5576C54.6034 53.9929 52.6551 55.9671 50.2519 55.9671H4.8515C2.44823 55.9671 0.5 53.9929 0.5 51.5576V5.40952C0.5 2.97421 2.44823 1 4.8515 1ZM5.7492 19.2843V34.9781L2.96721 35.6417V19.8732L5.7492 19.2843ZM9.98877 32.4084V27.6502C9.99126 27.2155 10.1264 26.6678 10.4231 26.2709C10.8897 25.647 11.9661 25.2775 12.2575 26.1974C12.3739 26.5652 12.3729 26.7915 12.3715 27.1323L12.3713 27.1771L12.3711 27.2549V33.3977L15.0305 32.763V25.6678C15.0305 24.9982 14.923 24.4741 14.7095 24.0922C14.4974 23.7127 14.1883 23.463 13.7889 23.3493C13.386 23.2346 12.9025 23.2322 12.3377 23.3669C11.3022 23.6137 10.4098 24.3438 9.88089 25.3164L9.84156 25.3252L9.84161 24.2427L7.31138 24.8461L7.28685 31.9701C7.59485 31.8312 7.95253 31.7605 8.31015 31.7605C8.85913 31.7605 9.51823 32.0117 9.98877 32.4084ZM15.7381 22.8086L17.0694 22.5251L17.0527 20.3184L19.7579 19.6654L19.752 21.8604L21.6522 21.4157V23.4317L19.752 23.8882L19.7578 29.0993C19.7586 29.886 19.8508 30.752 20.233 31.4584C20.2444 31.4795 20.2573 31.4975 20.2705 31.5131L17.4154 32.1942C17.3656 32.0901 17.3252 31.9719 17.2982 31.8385C16.9936 30.3377 17.0201 28.3636 17.0446 26.5411C17.0542 25.8313 17.0634 25.1444 17.0527 24.5175L15.7381 24.8488V22.8086ZM29.8355 24.8928L29.8375 24.7471C29.8617 22.9998 29.8967 20.4788 27.7409 20.0684C27.2414 19.9735 26.6583 19.9603 25.8938 20.1447C25.1854 20.3156 24.5908 20.5523 24.107 20.8501C23.622 21.1488 23.3255 21.5062 23.0287 21.9011C22.7319 22.2959 22.5045 22.727 22.3514 23.1929C22.1986 23.6578 22.0804 24.1337 22.0306 24.6433C22.0242 24.7092 22.0176 24.7752 22.011 24.8413C21.9663 25.2861 21.921 25.7375 21.9296 26.1967L21.9297 26.2008C21.9387 26.6921 21.9477 27.1825 21.9933 27.667C22.0653 28.4329 22.4035 29.5689 23.0008 30.076C23.335 30.36 23.6675 30.5423 24.081 30.6258C24.5791 30.7264 25.2129 30.6669 25.971 30.4841C26.7973 30.2848 27.5604 29.9903 28.0952 29.5855C28.6309 29.1801 29.0679 28.6823 29.3321 28.0879C29.5963 27.4935 29.6674 26.7535 29.6819 25.9843L27.2397 26.5684C27.3426 27.1131 27.0519 28.3349 25.9442 28.4647C24.6228 28.6195 24.5868 27.1753 24.6367 26.0989L29.8355 24.8928ZM24.7112 23.6158L24.6964 23.7005C24.6475 23.9807 24.6349 24.0526 24.6425 24.4628L27.2768 23.8359C27.2823 23.6071 27.2791 23.3893 27.2688 23.1885C27.2492 22.8059 27.1782 22.2828 26.8183 22.0508C26.6206 21.9234 26.3537 21.8867 25.9938 21.9752C25.7321 22.0395 25.5135 22.1521 25.3403 22.3097C25.1672 22.4673 25.031 22.6514 24.9312 22.8658C24.8309 23.0809 24.7632 23.309 24.7229 23.5474L24.7112 23.6158ZM33.4977 28.433L30.8375 29.062V19.232L33.3586 18.6186L33.3469 19.9104L33.3854 19.9012C33.6136 19.3821 33.896 18.971 34.209 18.6363C34.7737 18.0328 35.4618 17.72 36.2459 17.7589L36.2574 20.2428L36.2576 20.2779L36.2373 20.2815C36.2291 20.2829 36.221 20.2841 36.2129 20.2848C36.1535 20.2897 36.0966 20.2939 36.0414 20.298C35.7456 20.3199 35.4991 20.3381 35.1927 20.4477C34.8759 20.561 34.5316 20.7345 34.3631 20.873C33.7051 21.414 33.5293 22.2159 33.4977 23.1359V28.433ZM39.3545 20.2595V19.9898C39.3545 19.7353 39.3916 19.4711 39.4857 19.2632C39.5796 19.0553 39.7161 18.8776 39.9009 18.7351C40.0857 18.5928 40.2773 18.4714 40.5536 18.4366C41.0583 18.3732 41.399 18.366 41.5734 18.9588C41.6005 19.0509 41.6005 19.1569 41.6005 19.2701V19.2784C41.6005 19.4929 41.568 19.6824 41.4998 19.8423C41.4317 20.0023 41.3174 20.1469 41.1624 20.275C41.1455 20.289 41.129 20.3028 41.1126 20.3165C40.9772 20.4297 40.851 20.5353 40.6118 20.6406L39.0758 21.3169C38.6113 21.5213 38.2161 21.7579 37.8818 21.993C37.5477 22.2279 37.2718 22.4868 37.0578 22.7688C36.8439 23.0508 36.6711 23.381 36.5691 23.737C36.4669 24.0942 36.446 24.5649 36.446 25.0255C36.446 25.3589 36.5296 25.6742 36.6199 25.9822C36.7111 26.2929 36.8888 26.5211 37.0866 26.7515C37.2845 26.982 37.5504 27.1909 37.8743 27.2866C38.199 27.3825 38.6498 27.4442 39.117 27.3477C39.5419 27.2599 39.9183 27.146 40.2395 27.0051C40.5638 26.8628 40.8528 26.6711 41.1026 26.433C41.3523 26.1948 41.5999 25.8561 41.8044 25.4761L41.8403 25.4708C41.8493 25.511 41.8575 25.5489 41.8654 25.5857C41.8889 25.6944 41.9104 25.794 41.9467 25.9197C41.9954 26.088 42.0634 26.2402 42.1479 26.3798L44.6003 25.7957C44.5784 25.7559 44.5568 25.7185 44.536 25.6824C44.4703 25.5687 44.4121 25.4677 44.3752 25.3422C44.3265 25.1768 44.2954 24.9866 44.2779 24.7781C44.2729 24.7193 44.266 24.6551 44.2587 24.5867C44.2398 24.4095 44.2178 24.2035 44.2168 23.9872L44.1933 18.8683C44.1914 18.4276 44.0941 18.0257 43.992 17.684C43.8899 17.3422 43.6799 17.0668 43.4106 16.8576C43.1414 16.6486 42.8957 16.5277 42.3961 16.4891C41.8964 16.4503 41.2653 16.4871 40.4735 16.6523C39.9644 16.7587 39.4704 16.9427 39.0285 17.1412C38.5849 17.3406 38.2181 17.6394 37.8807 17.9447C37.5434 18.2499 37.3026 18.7214 37.1126 19.1475C36.9232 19.5719 36.8707 20.0781 36.8707 20.6362V20.8695L39.3545 20.2595ZM41.542 23.4393C41.5374 23.7095 41.4287 23.9633 41.3277 24.1753C41.2753 24.2852 41.2157 24.3871 41.1463 24.4798C40.7672 24.987 39.9164 25.4088 39.3555 24.9738C39.2682 24.906 39.2023 24.8128 39.1557 24.6931C38.9844 24.2531 39.0706 23.6313 39.334 23.2556C39.3719 23.2014 39.4098 23.1471 39.4479 23.0931C39.7568 22.7685 40.1488 22.528 40.5982 22.3458C40.6109 22.3407 40.724 22.2826 40.8676 22.1947C41.1543 22.0195 41.5661 21.7509 41.5712 21.7261L41.542 23.4393ZM52.8733 15.5043C53.1327 16.0259 53.1761 16.7038 53.1829 17.4822L50.6164 18.0823C50.6166 18.0602 50.6159 18.0382 50.6152 18.0161C50.6139 17.9752 50.6126 17.9343 50.6166 17.894C50.6287 17.7728 50.6169 17.5294 50.5856 17.2828C50.5032 16.6362 50.3135 16.179 49.5619 16.3215C49.0218 16.424 48.5401 16.9187 48.3556 17.4324C48.2474 17.7337 48.1621 18.1018 48.1261 18.5348C48.0904 18.965 48.0781 19.4638 48.083 20.031C48.09 20.8405 48.1021 21.137 48.1825 21.6268C48.2627 22.1165 48.3535 22.4677 48.5693 22.6589C48.7832 22.8489 49.0897 22.8946 49.4961 22.8041C49.6747 22.7644 49.8404 22.7093 49.976 22.6122C50.5952 22.1692 50.6056 21.5301 50.6166 20.8546C50.6186 20.7285 50.6207 20.6011 50.6268 20.4735L53.1699 19.8794C53.1726 21.4308 52.9944 22.822 51.6542 23.8937C51.0742 24.3575 50.3758 24.6906 49.4157 24.908C48.7327 25.0628 48.1348 25.1133 47.6252 25.0532C47.1124 24.9925 46.7611 24.7791 46.4202 24.4584C46.0779 24.1364 45.8299 23.6686 45.6558 23.0375C45.4816 22.4066 45.3578 21.6192 45.3508 20.6332C45.3438 19.6251 45.385 18.762 45.5904 18.0434C45.7957 17.3247 46.0496 16.7172 46.4296 16.2419C46.8115 15.7645 47.2887 15.3681 47.8118 15.0864C48.335 14.8046 48.9329 14.6244 49.5628 14.4881C50.4012 14.3065 51.1096 14.2936 51.6811 14.4707C52.2734 14.6543 52.6228 15.0006 52.8733 15.5043ZM16.1376 53.8699H10.9924C10.9416 53.8741 10.8857 53.8758 10.8245 53.8764C10.2873 53.8817 9.54814 53.6016 8.89229 53.2692C6.8596 52.2387 6.50756 50.0869 6.50756 48.0721V34.3897C6.50756 33.4115 7.29731 32.6112 8.26265 32.6112C9.228 32.6112 9.99582 33.4117 10.0177 34.3897C10.0401 35.386 10.0151 36.6195 9.98958 37.8746C9.95262 39.6965 9.91473 41.5639 10.0195 42.8168C10.0446 43.117 10.2493 43.2276 10.4181 43.2209C10.5755 43.2146 10.7277 43.1169 10.7528 42.8714C10.8265 42.1526 10.7966 40.7247 10.7663 39.279C10.7397 38.0116 10.7129 36.7306 10.7553 35.9018C12.1314 36.8552 13.5017 37.7793 14.8891 38.7117C15.7688 39.3028 16.1907 39.7677 16.1907 41.4087L16.1376 53.8699ZM1.94521 36.953C2.00289 36.8164 2.08595 36.7075 2.21697 36.6745L5.7835 35.8292L5.78344 38.6333L3.83572 39.0918C3.24445 39.2319 2.76101 39.1147 2.41719 38.8352C1.89219 38.4081 1.67807 37.5851 1.94521 36.953ZM2.21701 40.3011C2.08599 40.3341 2.00293 40.443 1.94526 40.5795C1.67811 41.2116 1.89223 42.0345 2.41723 42.4616C2.76105 42.7413 3.24449 42.8584 3.83577 42.7183L5.78349 42.2598L5.78354 39.4558L2.21701 40.3011ZM1.94526 44.1832C2.00293 44.0466 2.08599 43.9378 2.21701 43.9048L5.78354 43.0594L5.78349 45.8635L3.83577 46.3219C3.24449 46.4621 2.76105 46.345 2.41723 46.0653C1.89223 45.6382 1.67811 44.8152 1.94526 44.1832ZM51.5337 9.87801C50.6193 9.87801 49.8781 10.6318 49.8781 11.5616C49.8781 12.4914 50.6193 13.2451 51.5337 13.2451C52.448 13.2451 53.1892 12.4914 53.1892 11.5616C53.1892 10.6318 52.448 9.87801 51.5337 9.87801ZM50.0798 11.5615C50.0798 10.745 50.7308 10.0832 51.5337 10.0832C52.3367 10.0832 52.9875 10.745 52.9875 11.5615C52.9875 12.378 52.3367 13.0399 51.5337 13.0399C50.7308 13.0399 50.0798 12.378 50.0798 11.5615ZM51.3074 12.6212H50.9225V10.5895H51.6335C51.739 10.5895 51.8295 10.6089 51.9052 10.6478C51.981 10.6872 52.0393 10.7456 52.0799 10.8228C52.1205 10.9006 52.1409 10.9974 52.1413 11.1131C52.1413 11.2037 52.1302 11.2833 52.107 11.3521C52.0839 11.4213 52.0491 11.4782 52.0019 11.5228C51.9551 11.5669 51.8954 11.5973 51.8232 11.6139V11.6196C51.8883 11.6286 51.9409 11.6456 51.981 11.6717C52.0211 11.6974 52.0518 11.7343 52.0733 11.7822C52.0946 11.8306 52.1092 11.8918 52.1173 11.9667C52.1253 12.0417 52.1297 12.1327 52.1307 12.2399C52.1311 12.311 52.1338 12.3708 52.1378 12.4201C52.1423 12.4694 52.1507 12.5093 52.1627 12.5391C52.1747 12.5695 52.1926 12.5908 52.2161 12.6041V12.6212H51.7992C51.7809 12.5923 51.7685 12.5595 51.7622 12.523C51.7555 12.4865 51.7519 12.4481 51.7511 12.4078L51.7404 12.0179C51.7381 11.9373 51.719 11.8747 51.6829 11.8301C51.6468 11.7851 51.5902 11.7624 51.5132 11.7618H51.3074V12.6212ZM51.3074 10.8911H51.4891C51.5764 10.8911 51.6424 10.9144 51.6878 10.9613C51.7332 11.0082 51.7564 11.0789 51.7564 11.1728C51.7564 11.2454 51.7448 11.3042 51.7226 11.3493C51.7003 11.3938 51.6674 11.4265 51.6246 11.4469C51.5818 11.4673 51.5292 11.4778 51.4678 11.4773H51.3074V10.8911Z" fill="#516389"/>
</svg>
