<svg width="74" height="56" viewBox="0 0 74 56" fill="none" xmlns="http://www.w3.org/2000/svg">
<g clip-path="url(#clip0_2498_1061)">
<path d="M13.833 54.8791V51.216C13.833 49.8118 12.9827 48.8961 11.525 48.8961C10.7962 48.8961 10.0065 49.1402 9.45986 49.9339C9.03471 49.2623 8.42732 48.8961 7.51624 48.8961C6.90886 48.8961 6.30147 49.0793 5.81556 49.7507V49.0182H4.54004V54.8791H5.81556V51.6434C5.81556 50.6055 6.36221 50.117 7.21254 50.117C8.06289 50.117 8.48807 50.6665 8.48807 51.6434V54.8791H9.76359V51.6434C9.76359 50.6055 10.3709 50.117 11.1606 50.117C12.0109 50.117 12.436 50.6665 12.436 51.6434V54.8791H13.833ZM32.7228 49.0182H30.6577V47.2477H29.3822V49.0182H28.2282V50.1781H29.3822V52.8643C29.3822 54.2075 29.9288 55.0011 31.3866 55.0011C31.9333 55.0011 32.5406 54.818 32.9658 54.5737L32.6014 53.4748C32.2369 53.7191 31.8117 53.7801 31.5081 53.7801C30.9007 53.7801 30.6577 53.4139 30.6577 52.8034V50.1781H32.7228V49.0182ZM43.5343 48.8961C42.8055 48.8961 42.3195 49.2623 42.0158 49.7507V49.0182H40.7404V54.8791H42.0158V51.5823C42.0158 50.6055 42.4411 50.0561 43.2306 50.0561C43.4736 50.0561 43.7773 50.117 44.0203 50.1781L44.3846 48.9571C44.1417 48.8961 43.7773 48.8961 43.5343 48.8961ZM27.1956 49.5066C26.5883 49.0792 25.7378 48.8961 24.8268 48.8961C23.3691 48.8961 22.3973 49.6286 22.3973 50.7886C22.3973 51.7654 23.1262 52.315 24.4016 52.498L25.009 52.5591C25.6772 52.6812 26.0416 52.8643 26.0416 53.1696C26.0416 53.597 25.5556 53.9023 24.7053 53.9023C23.8549 53.9023 23.1868 53.597 22.7617 53.2918L22.1543 54.2685C22.8224 54.7569 23.7335 55.0011 24.6446 55.0011C26.3453 55.0011 27.3171 54.2075 27.3171 53.1086C27.3171 52.0707 26.5275 51.5212 25.3127 51.3381L24.7053 51.277C24.1587 51.216 23.7335 51.0939 23.7335 50.7275C23.7335 50.3002 24.1587 50.0561 24.8268 50.0561C25.5556 50.0561 26.2845 50.3613 26.6489 50.5445L27.1956 49.5066ZM61.0879 48.8961C60.359 48.8961 59.8731 49.2623 59.5694 49.7507V49.0182H58.2939V54.8791H59.5694V51.5823C59.5694 50.6055 59.9945 50.0561 60.7842 50.0561C61.0271 50.0561 61.3309 50.117 61.5738 50.1781L61.9382 48.9571C61.6952 48.8961 61.3309 48.8961 61.0879 48.8961ZM44.8099 51.9486C44.8099 53.7191 46.0246 55.0011 47.9075 55.0011C48.7579 55.0011 49.3653 54.818 49.9726 54.3296L49.3653 53.2918C48.8794 53.658 48.3934 53.8412 47.8467 53.8412C46.8143 53.8412 46.0854 53.1086 46.0854 51.9486C46.0854 50.8497 46.8143 50.1171 47.8467 50.0561C48.3934 50.0561 48.8794 50.2391 49.3653 50.6055L49.9726 49.5677C49.3653 49.0792 48.7579 48.8961 47.9075 48.8961C46.0246 48.8961 44.8099 50.1781 44.8099 51.9486ZM56.5932 51.9486V49.0182H55.3177V49.7507C54.8925 49.2013 54.2851 48.8961 53.4955 48.8961C51.8555 48.8961 50.5801 50.1781 50.5801 51.9486C50.5801 53.7191 51.8555 55.0011 53.4955 55.0011C54.3459 55.0011 54.9532 54.6959 55.3177 54.1464V54.8791H56.5932V51.9486ZM51.9163 51.9486C51.9163 50.9107 52.5844 50.0561 53.6777 50.0561C54.7103 50.0561 55.4392 50.8497 55.4392 51.9486C55.4392 52.9864 54.7103 53.8412 53.6777 53.8412C52.5844 53.7802 51.9163 52.9864 51.9163 51.9486ZM36.6708 48.8961C34.9702 48.8961 33.7554 50.117 33.7554 51.9486C33.7554 53.7802 34.9702 55.0011 36.7316 55.0011C37.582 55.0011 38.4323 54.7569 39.1004 54.2075L38.4931 53.2918C38.0072 53.658 37.3997 53.9023 36.7924 53.9023C36.0027 53.9023 35.2132 53.5359 35.0309 52.498H39.3434C39.3434 52.315 39.3434 52.1928 39.3434 52.0096C39.4041 50.117 38.3108 48.8961 36.6708 48.8961ZM36.6708 49.995C37.4605 49.995 38.0071 50.4834 38.1286 51.3991H35.0916C35.2132 50.6055 35.7597 49.995 36.6708 49.995ZM68.3158 51.9486V46.6982H67.0402V49.7507C66.6151 49.2013 66.0078 48.8961 65.2181 48.8961C63.5782 48.8961 62.3027 50.1781 62.3027 51.9486C62.3027 53.7191 63.5782 55.0011 65.2181 55.0011C66.0684 55.0011 66.6759 54.6959 67.0402 54.1464V54.8791H68.3158V51.9486ZM63.6389 51.9486C63.6389 50.9107 64.307 50.0561 65.4003 50.0561C66.4329 50.0561 67.1618 50.8497 67.1618 51.9486C67.1618 52.9864 66.4329 53.8412 65.4003 53.8412C64.307 53.7802 63.6389 52.9864 63.6389 51.9486ZM21.0003 51.9486V49.0182H19.7247V49.7507C19.2996 49.2013 18.6922 48.8961 17.9026 48.8961C16.2626 48.8961 14.9871 50.1781 14.9871 51.9486C14.9871 53.7191 16.2626 55.0011 17.9026 55.0011C18.7529 55.0011 19.3603 54.6959 19.7247 54.1464V54.8791H21.0003V51.9486ZM16.2626 51.9486C16.2626 50.9107 16.9307 50.0561 18.024 50.0561C19.0566 50.0561 19.7855 50.8497 19.7855 51.9486C19.7855 52.9864 19.0566 53.8412 18.024 53.8412C16.9307 53.7802 16.2626 52.9864 16.2626 51.9486Z" fill="#516389"/>
<path d="M45.9018 4.51172H26.769V39.0666H45.9018V4.51172Z" fill="#576B95"/>
<path d="M27.9844 21.7889C27.9844 14.768 31.2643 8.54083 36.3055 4.51147C32.6005 1.58103 27.9236 -0.189453 22.8215 -0.189453C10.7345 -0.189453 0.955566 9.63974 0.955566 21.7889C0.955566 33.938 10.7345 43.7672 22.8215 43.7672C27.9236 43.7672 32.6005 41.9967 36.3055 39.0662C31.2643 35.098 27.9844 28.8097 27.9844 21.7889Z" fill="#323F5B"/>
<path d="M71.7142 21.7889C71.7142 33.938 61.9353 43.7672 49.8483 43.7672C44.7462 43.7672 40.0693 41.9967 36.3643 39.0662C41.4663 35.0369 44.6854 28.8097 44.6854 21.7889C44.6854 14.768 41.4055 8.54083 36.3643 4.51147C40.0693 1.58103 44.7462 -0.189453 49.8483 -0.189453C61.9353 -0.189453 71.7142 9.70079 71.7142 21.7889Z" fill="#516389"/>
</g>
<defs>
<clipPath id="clip0_2498_1061">
<rect width="74" height="56" fill="white"/>
</clipPath>
</defs>
</svg>
