<svg width="208" height="56" viewBox="0 0 208 56" fill="none" xmlns="http://www.w3.org/2000/svg">
<path d="M58.7002 20.9729C58.7952 21.0994 58.8814 21.2324 58.9581 21.3708C58.7499 20.4973 58.4311 19.6541 58.0094 18.8613C54.5338 12.4872 44.8634 14.3933 35.2191 21.6199C32.6788 23.5195 30.3965 25.7415 28.4297 28.2301C29.5975 28.9333 30.7124 29.7209 31.7654 30.5865C32.407 31.0541 33.0871 31.4665 33.7983 31.8194C34.4103 31.1112 35.0486 30.4146 35.7131 29.7297C44.3038 20.8811 55.2377 16.365 58.7002 20.9729Z" fill="url(#paint0_linear_2498_1135)"/>
<path d="M59.3068 26.3812L59.486 26.3287C59.7964 24.3352 59.6696 22.6083 58.957 21.3711C59.3376 23.0122 59.4557 24.7032 59.3068 26.3812Z" fill="url(#paint1_linear_2498_1135)"/>
<g style="mix-blend-mode:soft-light">
<g style="mix-blend-mode:soft-light">
<path d="M58.936 21.34C58.8592 21.2016 58.773 21.0687 58.678 20.9422L58.6387 20.8984C58.7174 21.1389 58.7873 21.3837 58.8485 21.6373C58.955 21.8162 59.0471 22.0033 59.1239 22.1969C59.0715 21.904 59.0059 21.6198 58.936 21.34Z" fill="#E7E6E6" fill-opacity="0.5"/>
</g>
<g style="mix-blend-mode:soft-light">
<path d="M35.1229 22.0089C44.7409 14.7299 54.3939 12.7669 57.9001 19.1235C58.2056 19.6813 58.4574 20.2668 58.6521 20.8723C58.6628 20.8888 58.6761 20.9036 58.6914 20.916C58.7849 21.0436 58.871 21.1764 58.9493 21.3138C58.7363 20.442 58.4146 19.6004 57.9919 18.8088C54.4945 12.4521 44.824 14.4151 35.2104 21.6942C31.6839 24.3428 28.6817 27.6252 26.3574 31.3734C26.3777 31.3956 26.3966 31.419 26.4143 31.4433C28.7194 27.7952 31.6706 24.5981 35.1229 22.0089Z" fill="#E7E6E6" fill-opacity="0.5"/>
</g>
</g>
<path d="M32.377 28.3124C31.5027 27.5605 30.5846 26.8522 29.754 26.0391C28.0805 28.0168 26.2326 29.8399 24.2324 31.4863C15.6286 38.5949 6.35597 40.9513 3.52741 36.7325C3.48369 36.667 3.44434 36.597 3.405 36.5314C2.8628 35.7291 2.4566 34.8428 2.20275 33.9083C1.73123 32.1338 1.7615 30.2632 2.29019 28.5048C0.978639 31.1628 0.611406 33.7903 1.44642 36.0374C3.63233 41.9743 13.399 42.9755 23.2356 38.2714C27.8172 36.0855 31.6032 33.0252 34.1258 29.8032C33.54 29.3048 32.9672 28.7889 32.377 28.3124Z" fill="url(#paint2_linear_2498_1135)"/>
<path d="M11.5274 19.4121C11.0669 19.4513 10.6122 19.5422 10.1721 19.6832L10.1983 19.7487L10.1196 19.7094C8.22226 21.0647 8.15668 21.0734 10.1983 19.7487C9.00024 20.4937 7.87726 21.3532 6.84514 22.315C5.16833 23.9469 3.7462 25.8215 2.62633 27.876C2.50975 28.0945 2.39608 28.3131 2.28533 28.5317C1.75664 30.2901 1.72637 32.1607 2.19789 33.9353C2.45175 34.8698 2.85794 35.756 3.40014 36.5584C2.65663 35.2426 2.2609 33.759 2.25035 32.2478C2.28533 28.5055 5.4549 23.5566 7.60146 21.7117C8.52952 20.8491 9.7122 20.3107 10.9721 20.1772C11.1123 19.8924 11.3001 19.6337 11.5274 19.4121Z" fill="url(#paint3_linear_2498_1135)"/>
<path style="mix-blend-mode:multiply" opacity="0.71" d="M19.7324 34.7708C23.7632 32.2702 27.3919 28.8208 28.5242 27.3387L29.1756 26.6218C29.6871 26.1409 30.321 25.1659 30.8237 24.6982C32.109 24.0293 34.4961 22.3592 36.9967 20.6979C38.0722 19.9853 39.1564 19.2815 39.7685 18.9492L42.7063 23.8107C40.8745 24.9998 36.1836 28.9563 34.5267 30.3684C34.0064 30.8056 34.6272 29.835 34.1376 30.2985L30.6401 33.4418C28.2268 35.4839 25.5472 37.1885 22.6747 38.5087L19.7324 34.7708Z" fill="url(#paint4_linear_2498_1135)"/>
<path d="M57.3542 17.8955C64.5109 31.4481 48.2215 37.796 39.6746 28.4491C36.0897 23.9417 35.6744 21.6684 33.4272 19.3601C23.8092 10.0262 9.98117 15.8276 2.78516 27.5266C3.74258 26.3812 9.82378 19.4431 18.668 20.5317C25.5055 21.4061 26.6203 30.1497 36.7323 35.3041C48.2084 41.1798 68.839 33.245 57.3542 17.8955Z" fill="url(#paint5_linear_2498_1135)"/>
<g style="mix-blend-mode:darken" opacity="0.57">
<path d="M37.0369 34.9718C26.9249 29.8043 25.8057 21.0519 18.9726 20.1994C10.5349 19.1327 4.61112 25.4106 3.25586 27.0019C5.04831 25.0259 10.7492 19.5699 18.6665 20.5623C25.504 21.4148 26.6189 30.1803 36.7309 35.3303C43.8395 38.9589 54.4499 37.2976 58.778 31.859C54.275 37.009 43.9794 38.5173 37.0369 34.9718Z" fill="#AAADB1"/>
</g>
<g style="mix-blend-mode:soft-light">
<path d="M57.7026 18.3368C57.5889 18.1751 57.4753 18.0133 57.3528 17.8516C64.3478 31.1157 48.8803 37.4898 40.2109 28.9604C48.7666 37.7477 64.4133 31.5222 57.7026 18.3368Z" fill="#516389"/>
</g>
<path d="M94.0547 15.7105C93.9346 15.6613 93.8102 15.6233 93.6831 15.5968C92.6776 15.3389 90.1856 15.2558 89.3812 15.9116L89.3375 15.9509C89.2046 16.0753 89.0963 16.2236 89.0184 16.3881C86.6819 19.4892 84.5217 22.7193 82.5481 26.063L76.5281 16.4056L76.5062 16.3575C76.4263 16.1919 76.315 16.0434 76.1783 15.9203L76.1346 15.8854C75.4351 15.3039 73.341 15.3214 72.2 15.5181C71.9292 15.5466 71.6633 15.6098 71.4087 15.7061C71.1877 15.8005 70.9987 15.9568 70.8645 16.1562C70.7303 16.3555 70.6566 16.5894 70.6523 16.8297V37.2067C70.6523 37.6133 70.8403 38.3259 72.0994 38.5183C72.5181 38.5747 72.9404 38.601 73.3629 38.597C74.2372 38.597 76.0778 38.597 76.0778 37.2067V25.4553C76.4712 26.0761 77.2188 27.2914 78.0451 28.8172C79.1934 30.9419 79.9643 32.3307 80.3578 32.9835L80.5895 33.4207C80.7963 33.7352 81.0602 34.0081 81.3677 34.2251C82.0255 34.6154 82.8082 34.7375 83.5536 34.5661C83.738 34.5166 83.9104 34.4303 84.0607 34.3126C84.3972 34.0873 84.6928 33.8064 84.9351 33.4819L85.4597 32.5639C85.7133 32.1179 86.3078 31.0148 87.2434 29.2544C88.179 27.494 88.8916 26.2101 89.3812 25.4028C89.3812 25.4028 89.3812 27.6106 89.3812 27.7374V37.2198C89.3812 38.6101 91.213 38.6101 92.0918 38.6101C92.9705 38.6101 94.8067 38.6101 94.8067 37.2198V16.834C94.8027 16.5943 94.7297 16.3607 94.5963 16.1614C94.4629 15.9621 94.2749 15.8055 94.0547 15.7105Z" fill="#516389"/>
<path d="M100.641 23.7969C98.8924 23.7969 98.6738 24.1073 98.6738 24.4439V37.4544C98.6738 37.7911 98.9099 38.1015 100.641 38.1015C102.372 38.1015 102.608 37.7911 102.608 37.4544V24.4439C102.608 24.1073 102.368 23.7969 100.641 23.7969Z" fill="#516389"/>
<path d="M100.645 38.8457C99.7702 38.8457 97.9297 38.8457 97.9297 37.4555V24.4449C97.9297 23.0547 99.7615 23.0547 100.645 23.0547C101.528 23.0547 103.355 23.0547 103.355 24.4449V37.4555C103.355 38.8457 101.523 38.8457 100.645 38.8457ZM99.4205 37.2587C100.23 37.387 101.055 37.387 101.864 37.2587V24.6417C101.055 24.5134 100.23 24.5134 99.4205 24.6417V37.2587Z" fill="#516389"/>
<path d="M120.466 16.4336H109.134C107.945 16.4729 107.342 16.5822 107.342 17.0719V37.4533C107.342 37.7899 107.578 38.1003 109.296 38.1003C111.014 38.1003 111.25 37.7899 111.25 37.4533V29.0376H119.351C119.976 29.0376 120.379 28.3249 120.379 27.2276C120.379 26.1303 119.976 25.4177 119.351 25.4177H111.25V20.0491H120.466C121.091 20.0491 121.498 19.3409 121.498 18.2435C121.498 17.1462 121.096 16.4336 120.466 16.4336Z" fill="#516389"/>
<path d="M109.296 38.8446C108.421 38.8446 106.594 38.8446 106.594 37.4543V17.0729C106.594 15.7614 108.111 15.722 109.112 15.6914H120.479C121.296 15.6914 122.254 16.3603 122.254 18.2446C122.254 20.1288 121.296 20.7977 120.479 20.7977H111.993V24.6755H119.351C120.168 24.6755 121.126 25.3444 121.126 27.2286C121.126 29.1129 120.168 29.7818 119.351 29.7818H111.993V37.4543C111.993 38.8446 110.17 38.8446 109.296 38.8446ZM108.085 37.2576C108.887 37.3858 109.704 37.3858 110.507 37.2576V28.3129H119.351C119.429 28.2866 119.635 27.9719 119.635 27.2505C119.635 26.5292 119.429 26.2144 119.355 26.1838H110.507V19.3069H120.466C120.514 19.3069 120.75 19.0227 120.75 18.2446C120.75 17.4664 120.514 17.1953 120.474 17.1778V16.4346V17.1778H109.138C108.785 17.1805 108.432 17.2127 108.085 17.274V37.2576Z" fill="#516389"/>
<path d="M150.092 16.4336C148.369 16.4336 148.138 16.7702 148.138 17.0981V30.5415L138.856 16.8139L138.812 16.7615C138.375 16.3243 135.958 16.3986 135.402 16.6303C135.299 16.6591 135.208 16.72 135.142 16.8041C135.076 16.8882 135.039 16.9912 135.035 17.0981V37.4271C135.035 37.6457 135.035 38.0916 136.994 38.0916C138.952 38.0916 138.948 37.6544 138.948 37.4271V23.9837L148.229 37.6938C148.448 37.9954 149.252 38.1003 150.035 38.1003C150.551 38.112 151.066 38.0606 151.569 37.9473C151.963 37.8205 152.046 37.5932 152.046 37.4271V17.0981C152.046 16.7702 151.814 16.4336 150.092 16.4336Z" fill="#516389"/>
<path d="M150.035 38.8446C148.334 38.8446 147.849 38.4336 147.626 38.1276L139.7 26.4155V37.4281C139.7 38.8402 137.877 38.8402 137.003 38.8402C136.128 38.8402 134.301 38.8402 134.301 37.4281V17.0991C134.304 16.8449 134.385 16.5978 134.533 16.3909C134.681 16.1839 134.888 16.0268 135.127 15.9406C135.687 15.7089 138.537 15.4247 139.35 16.2335L139.486 16.3996L147.399 28.1074V17.0991C147.399 15.6914 149.292 15.6914 150.101 15.6914C150.909 15.6914 152.798 15.6914 152.798 17.0991V37.4281C152.788 37.7129 152.686 37.9868 152.507 38.2085C152.328 38.4301 152.082 38.5874 151.806 38.6566C151.226 38.7941 150.631 38.8573 150.035 38.8446ZM148.802 37.2095C149.202 37.3266 149.619 37.3754 150.035 37.3538C150.46 37.3606 150.885 37.3254 151.303 37.2489V17.2827C150.502 17.1429 149.682 17.1429 148.881 17.2827V32.9732L138.297 17.3134C137.466 17.1615 136.614 17.1615 135.783 17.3134V37.2663C136.583 37.4067 137.401 37.4067 138.2 37.2663V21.5584L148.802 37.2095Z" fill="#516389"/>
<path d="M159.182 16.4316C157.455 16.4316 157.215 16.742 157.215 17.0743V37.4557C157.215 37.7924 157.455 38.1028 159.182 38.1028C160.909 38.1028 161.149 37.7924 161.149 37.4557V17.0743C161.149 16.742 160.913 16.4316 159.182 16.4316Z" fill="#516389"/>
<path d="M159.181 38.8455C158.307 38.8455 156.471 38.8455 156.471 37.4553V17.0738C156.471 15.6836 158.303 15.6836 159.181 15.6836C160.06 15.6836 161.896 15.6836 161.896 17.0738V37.4553C161.896 38.8455 160.064 38.8455 159.181 38.8455ZM157.961 37.2585C158.771 37.3868 159.596 37.3868 160.405 37.2585V17.2706C160.002 17.193 159.592 17.1607 159.181 17.1744C158.772 17.1603 158.363 17.1926 157.961 17.2706V37.2585Z" fill="#516389"/>
<path d="M127.817 16.4297C126.09 16.4297 125.85 16.7401 125.85 17.0723V37.4538C125.85 37.7904 126.09 38.1008 127.817 38.1008C129.544 38.1008 129.784 37.7904 129.784 37.4538V17.0723C129.784 16.7401 129.548 16.4297 127.817 16.4297Z" fill="#516389"/>
<path d="M127.82 38.8455C126.946 38.8455 125.109 38.8455 125.109 37.4553V17.0738C125.109 15.6836 126.941 15.6836 127.82 15.6836C128.699 15.6836 130.53 15.6836 130.53 17.0738V37.4553C130.522 38.8455 128.699 38.8455 127.82 38.8455ZM126.596 37.2585C127.407 37.3868 128.233 37.3868 129.044 37.2585V17.2706C128.233 17.1423 127.407 17.1423 126.596 17.2706V37.2585Z" fill="#516389"/>
<path d="M182.108 16.4336H166.229C165.892 16.4336 165.582 16.6697 165.582 18.3878C165.582 20.1059 165.892 20.342 166.229 20.342H172.21V37.4533C172.21 37.7899 172.446 38.1003 174.164 38.1003C175.882 38.1003 176.118 37.7899 176.118 37.4533V20.342H182.108C182.44 20.342 182.75 20.1059 182.75 18.3878C182.75 16.6697 182.435 16.4336 182.108 16.4336Z" fill="#516389"/>
<path d="M174.164 38.8446C173.29 38.8446 171.467 38.8446 171.467 37.4543V21.0906H166.221C164.826 21.0906 164.826 19.2632 164.826 18.3888C164.826 17.5145 164.826 15.6914 166.221 15.6914H182.108C183.498 15.6914 183.498 17.5145 183.498 18.3888C183.498 19.2632 183.498 21.0906 182.108 21.0906H176.862V37.4543C176.862 38.8446 175.043 38.8446 174.164 38.8446ZM172.953 37.2576C173.756 37.3858 174.573 37.3858 175.375 37.2576V19.5998H181.907C182.035 18.7976 182.035 17.9801 181.907 17.1778H166.422C166.294 17.9801 166.294 18.7976 166.422 19.5998H172.953V37.2576Z" fill="#516389"/>
<path d="M204.788 16.6362C204.058 16.3827 201.316 16.3171 200.796 16.9641L195.852 24.6629L190.894 16.9729C190.417 16.3346 187.685 16.3827 186.959 16.6319C186.548 16.7674 186.461 16.9991 186.461 17.174V17.2833L193.893 28.873V37.3805C193.893 37.5641 193.893 38.1194 195.86 38.1194C197.828 38.1194 197.828 37.5641 197.828 37.3805V28.873L205.26 17.2833V17.174C205.277 17.0035 205.177 16.7761 204.788 16.6362Z" fill="#516389"/>
<path d="M195.844 38.8642C195.171 38.8642 193.133 38.8642 193.133 37.3821V29.0757L185.701 17.486V17.1625C185.707 16.8722 185.808 16.5919 185.99 16.3656C186.172 16.1393 186.424 15.9798 186.707 15.9121C187.424 15.6717 190.663 15.4181 191.485 16.5154L191.516 16.5592L195.848 23.2786L200.22 16.4892C201.094 15.4094 204.356 15.6848 205.029 15.9253C205.303 15.9989 205.545 16.1592 205.72 16.3823C205.895 16.6053 205.993 16.8791 206 17.1625V17.4904L198.567 29.0801V37.3865C198.554 38.8642 196.535 38.8642 195.844 38.8642ZM194.62 37.2379C195.424 37.4185 196.259 37.4185 197.064 37.2379V28.6516L204.369 17.2849C203.604 17.1275 201.789 17.1712 201.379 17.4335L195.857 26.0416L190.309 17.4466C189.898 17.1843 188.123 17.1362 187.341 17.298L194.62 28.6647V37.2379Z" fill="#516389"/>
<path d="M101.278 15.8789H99.8224C98.6466 15.8789 97.6934 16.8321 97.6934 18.008V19.5031C97.6934 20.679 98.6466 21.6322 99.8224 21.6322H101.278C102.454 21.6322 103.407 20.679 103.407 19.5031V18.008C103.407 16.8321 102.454 15.8789 101.278 15.8789Z" fill="#516389"/>
<defs>
<linearGradient id="paint0_linear_2498_1135" x1="61.8679" y1="33.4491" x2="27.6038" y2="22.2845" gradientUnits="userSpaceOnUse">
<stop offset="0.01" stop-color="#4B5162"/>
<stop offset="1" stop-color="#646B7E"/>
</linearGradient>
<linearGradient id="paint1_linear_2498_1135" x1="26.4052" y1="23.5321" x2="59.6555" y2="23.8803" gradientUnits="userSpaceOnUse">
<stop offset="0.01" stop-color="#FFA220"/>
<stop offset="0.04" stop-color="#FFA61C"/>
<stop offset="0.34" stop-color="#FFC000"/>
<stop offset="0.61" stop-color="#FDC200"/>
<stop offset="0.74" stop-color="#F6C900"/>
<stop offset="0.75" stop-color="#F5CB00"/>
<stop offset="0.78" stop-color="#F3C200"/>
<stop offset="0.84" stop-color="#F0B100"/>
<stop offset="0.89" stop-color="#EFAB00"/>
<stop offset="1" stop-color="#B74600"/>
</linearGradient>
<linearGradient id="paint2_linear_2498_1135" x1="37.2832" y1="42.7085" x2="1.62164" y2="28.748" gradientUnits="userSpaceOnUse">
<stop offset="0.01" stop-color="#4B5162"/>
<stop offset="1" stop-color="#646B7E"/>
</linearGradient>
<linearGradient id="paint3_linear_2498_1135" x1="12.4483" y1="38.219" x2="0.574104" y2="37.0172" gradientUnits="userSpaceOnUse">
<stop offset="0.01" stop-color="#3B3B3B"/>
<stop offset="1" stop-color="#797979"/>
</linearGradient>
<linearGradient id="paint4_linear_2498_1135" x1="30.3633" y1="6.48647" x2="8.66929" y2="19.0108" gradientUnits="userSpaceOnUse">
<stop offset="0.11" stop-color="white"/>
<stop offset="0.61" stop-color="#878787"/>
<stop offset="0.95" stop-color="white"/>
</linearGradient>
<linearGradient id="paint5_linear_2498_1135" x1="66.2465" y1="39.4267" x2="6.96898" y2="12.0373" gradientUnits="userSpaceOnUse">
<stop offset="0.01" stop-color="#4B5162"/>
<stop offset="1" stop-color="#646B7E"/>
</linearGradient>
</defs>
</svg>
