<svg width="164" height="56" viewBox="0 0 164 56" fill="none" xmlns="http://www.w3.org/2000/svg">
<path d="M1.74485 44.7802V15.7241C1.74485 13.0942 3.88903 11.184 6.78339 11.184C9.67776 11.184 11.3662 12.2682 12.6524 14.6643L20.2367 29.1795H20.3437V11.7309H28.8394V40.5031C28.8731 41.1041 28.7833 41.7056 28.5752 42.2732C28.3671 42.8409 28.0448 43.3634 27.6266 43.8112C27.2085 44.2589 26.7028 44.623 26.1383 44.8827C25.5738 45.1423 24.9617 45.2924 24.3369 45.3244C22.1392 45.3244 20.5332 44.3445 18.2791 40.1426L10.3744 25.4187H10.2673V44.7545H1.74414L1.74485 44.7802ZM44.277 35.7049L41.0875 30.8064L47.9201 26.4236C46.9703 25.8137 45.8451 25.5069 44.7038 25.5468C41.2734 25.5468 39.3976 28.9755 39.3976 31.9164C39.3976 34.9846 41.6517 38.1809 45.0258 38.1809C48.1617 38.1809 51.2167 35.4739 52.4762 32.6123L58.453 35.629C56.0679 41.2492 50.7342 45.323 44.4355 45.323C37.4676 45.323 31.357 39.4447 31.357 32.329C31.357 25.1876 37.4408 19.3351 44.4355 19.3351C50.2777 19.3351 54.1104 22.4033 56.8441 27.2496L44.277 35.7049ZM66.4943 32.3277C66.4943 29.4661 68.6385 27.068 71.5597 27.068C74.4808 27.068 76.625 29.4654 76.625 32.3277C76.625 35.1899 74.4808 37.5873 71.5597 37.5873C68.6385 37.5873 66.4943 35.1899 66.4943 32.3277ZM58.4544 32.3277C58.4544 39.4691 64.565 45.3217 71.5597 45.3217C78.5543 45.3217 84.6649 39.4454 84.6649 32.3304C84.6649 25.189 78.5543 19.3364 71.5597 19.3364C64.565 19.3364 58.4544 25.1863 58.4544 32.3304V32.3277ZM86.3801 37.6903H94.2863C95.2513 37.6903 95.7338 37.2262 95.7338 36.5818C95.7338 34.2616 86.6471 35.1378 86.6471 27.043C86.6471 22.4284 90.7474 20.1076 94.6603 20.1076H102.648V26.6303H96.2156C95.2506 26.6303 94.5251 27.1202 94.5251 27.7904C94.5251 29.75 104.12 30.24 104.12 36.8142C104.12 41.7899 100.93 44.497 95.5436 44.497H86.3513V37.6903H86.3801ZM114.788 34.2101C114.788 36.3243 115.887 37.6388 117.683 37.6388C119.478 37.6388 120.577 36.3243 120.577 34.2101V20.1333H128.698V34.2101C128.698 40.5797 124.866 45.3474 117.684 45.3474C110.528 45.3474 106.669 40.6041 106.669 34.2101V20.1333H114.788V34.2101ZM138.346 24.2071H138.453C139.685 20.7513 142.045 20.134 145.609 20.134V27.4516C139.927 27.6548 139.418 28.8441 139.418 33.0717V44.5187H131.217V20.1333H138.346L138.346 24.2071ZM147.324 44.5227V18.3539C147.324 13.3009 151.397 9.5625 157.83 9.5625H162.549V16.8584H158.58C156.436 16.8584 155.903 18.0185 155.903 20.0554H160.888V27.3513H155.9V44.5214L147.324 44.5227Z" fill="#516389"/>
</svg>
