<svg width="184" height="56" viewBox="0 0 184 56" fill="none" xmlns="http://www.w3.org/2000/svg">
<path d="M177.503 15.0821C175.211 13.5214 171.773 12.7324 167.262 12.7324H155.436L151.039 36.6425H135.541L136.538 31.2172H145.874L146.983 25.1264H137.653L138.649 19.7241H148.266L149.544 12.7324H130.018L125.842 35.4117H118.68L122.882 12.7324H112.676L108.505 35.4117H101.521L105.729 12.7324H95.5307L91.1248 36.6425H75.5154L76.5037 31.2172H85.8739L86.9826 25.1608H77.6209L78.6034 19.7385H88.3433L89.6037 12.7324H28.7585L25.3037 31.6677L18.4056 12.7324H7.80639L2.11719 43.6514H12.2294L15.667 24.1854L22.3617 43.6514H58.6168L63.0226 19.7385H68.6917L64.2802 43.6514H159.645L162.409 28.5548L166.883 43.6514H177.001L172.366 31.3148L173.423 31.0939C175.758 30.5947 177.58 29.5159 178.849 27.9036C180.118 26.2912 180.76 24.1739 180.76 21.6693C180.768 18.7372 179.703 16.5855 177.503 15.0821ZM49.8137 36.6425H34.3445L35.3443 31.2172H45.0555L46.1584 25.1063H36.5274L37.4556 19.7385H52.9247L49.8137 36.6425ZM169.161 26.2166C168.144 26.9281 166.669 27.2753 164.652 27.2753H162.647L164.179 18.9782H165.652C167.327 18.9782 168.548 19.2479 169.39 19.7987C170.049 20.2262 170.822 21.0783 170.822 22.6906C170.845 24.6444 169.929 25.6887 169.161 26.2166Z" fill="#516389"/>
</svg>
