<svg width="134" height="56" viewBox="0 0 134 56" fill="none" xmlns="http://www.w3.org/2000/svg">
<path d="M110.477 22.2961C110.645 21.3247 110.779 20.8221 110.812 20.2861C110.846 17.1372 110.008 14.3231 107.06 12.7822C104.012 11.1741 100.829 11.5761 98.2832 13.7536C93.9282 17.5056 92.0857 22.4636 93.0572 28.1587C93.8277 32.6477 98.2161 34.8921 102.27 32.8151C104.447 31.7096 106.424 30.0012 108.166 28.2592C111.047 25.3782 113.693 22.2961 116.407 19.2476C118.249 17.1707 120.46 15.7636 123.241 15.3952C127.261 14.8257 130.878 16.9697 131.816 20.9227C132.989 25.7801 132.386 30.4367 129.371 34.6242C126.356 38.8452 119.924 41.2907 114.598 36.6006C113.794 40.3861 112.99 44.0377 112.186 47.7561C110.142 47.7561 108.166 47.7561 106.055 47.7561C106.591 45.1431 107.094 42.6641 107.63 40.1517C107.697 39.8502 107.864 39.5151 108.065 39.2807C110.544 36.5001 113.057 33.7531 115.603 30.9726C115.77 31.1737 115.871 31.2406 115.904 31.3412C116.742 33.1837 117.948 34.6242 120.159 34.5906C122.47 34.5237 123.944 33.0832 124.882 31.1066C125.954 28.7951 126.624 26.3832 126.29 23.8037C126.055 21.8606 124.547 20.7552 122.872 21.7266C120.762 22.9662 118.718 24.5407 117.043 26.3161C114.799 28.6947 112.856 31.4081 110.846 33.9876C106.759 39.1801 101.231 39.9842 95.3016 38.6441C90.0422 37.4381 86.6922 33.1837 86.4911 27.0866C86.2567 20.4872 88.2331 14.4906 93.5931 10.1356C98.6182 6.04863 106.558 5.37864 111.449 8.62816C112.588 9.39861 113.66 10.3702 114.497 11.4421C117.077 14.6582 117.01 15.5627 114.263 18.6112C113.459 19.5156 112.621 20.4537 111.784 21.3247C111.516 21.5926 111.114 21.8271 110.477 22.2961Z" fill="#516389"/>
<path d="M5.38672 38.3407C7.59768 27.7882 9.80879 17.3697 11.9863 6.95118C17.2792 6.95118 22.5388 6.61617 27.7313 7.05167C33.2253 7.48718 35.7712 12.0766 34.2302 17.7382C32.6558 23.4667 29.0042 26.0796 22.0362 26.2807C19.5238 26.3477 17.0448 26.2807 14.4318 26.2807C13.9627 28.4246 13.5272 30.4012 13.0917 32.4112C12.6562 34.3541 12.2543 36.3307 11.8523 38.3407C9.77517 38.3407 7.73169 38.3407 5.38672 38.3407ZM15.4368 21.2892C18.4853 21.0548 21.1318 20.9877 23.7782 20.5856C26.4248 20.1836 28.2672 17.6712 28.1332 15.0916C28.0328 13.4836 27.2622 12.3782 25.6542 12.2442C22.9407 12.0097 20.2273 11.9427 17.4803 11.8422C16.7768 15.0582 16.1402 18.0061 15.4368 21.2892Z" fill="#516389"/>
<path d="M37.6814 21.4249C38.6195 18.6444 40.3281 16.869 42.8405 15.8974C46.023 14.658 49.2724 14.6244 52.522 15.6294C55.47 16.5339 57.011 18.9794 56.5755 22.095C56.1735 24.9425 55.4365 27.7899 55.001 30.6375C54.6326 33.083 54.4986 35.562 54.2306 38.2419C52.79 38.2419 50.9475 38.2419 48.8706 38.2419C48.7031 37.6389 48.502 36.9019 48.2676 36.0309C47.7985 36.3995 47.3295 36.7679 46.8605 37.103C44.683 38.711 42.2375 39.314 39.5911 38.6105C36.8775 37.8735 35.169 35.4614 35.0685 32.48C34.9344 29.3979 36.509 26.6174 39.3231 25.7799C41.869 25.0429 44.549 24.842 47.1955 24.373C47.7315 24.2725 48.301 24.1385 48.8369 24.1385C50.2105 24.1385 50.646 23.3344 50.7466 22.1284C50.8135 20.9225 50.3111 20.1184 49.172 19.6495C47.2626 18.8454 45.1185 19.5154 43.879 21.224C43.6446 21.5255 43.276 21.76 42.9076 21.894C42.673 21.9944 42.3715 21.827 42.1035 21.7935C40.6965 21.6929 39.256 21.5589 37.6814 21.4249ZM49.4401 27.589C47.1286 28.125 44.9845 28.46 42.9411 29.0964C41.1991 29.6325 40.5961 30.9724 41.065 32.48C41.5005 33.8534 42.9411 34.557 44.5825 34.222C47.5975 33.6525 48.904 31.9105 49.4401 27.589Z" fill="#516389"/>
<path d="M60.0586 47.6566C61.7002 44.742 63.2411 42.129 64.6147 39.4156C65.0502 38.5446 65.2176 37.4056 65.0836 36.434C64.0117 29.7676 62.8056 23.1345 61.6331 16.5015C61.5996 16.2335 61.5996 15.9656 61.5662 15.6305C63.5762 15.6305 65.5191 15.6305 67.6632 15.6305C68.4002 21.158 69.1371 26.7191 69.8741 32.2465C72.1522 27.925 74.6311 23.7375 76.5742 19.3156C77.9142 16.2335 79.7567 14.927 83.0396 15.5301C83.6426 15.6305 84.2457 15.5301 85.0162 15.5301C84.8822 15.8985 84.8487 16.2335 84.7147 16.468C78.8521 26.451 72.9562 36.434 67.0937 46.4171C66.5912 47.2881 66.0217 47.6901 64.9831 47.623C63.4087 47.5895 61.8677 47.6566 60.0586 47.6566Z" fill="#516389"/>
<path d="M2.94141 50.0669C3.30998 48.3585 3.64493 46.784 3.97988 45.2095C22.8739 44.3719 41.6339 43.568 60.5949 42.7305C59.7575 44.305 59.0874 45.7119 58.2499 46.9849C57.9819 47.3869 57.2783 47.6884 56.7759 47.7219C46.2905 48.2245 35.8049 48.6934 25.3195 49.1624C18.4519 49.4639 11.6179 49.7654 4.75048 50.0669C4.21444 50.0669 3.64493 50.0669 2.94141 50.0669Z" fill="#516389"/>
</svg>
