<svg width="190" height="56" viewBox="0 0 190 56" fill="none" xmlns="http://www.w3.org/2000/svg">
<path d="M35.5886 26.0958C35.5703 25.4821 35.2591 25.1665 34.6734 25.1489H31.5254C30.775 25.184 30.3906 25.5873 30.3723 26.3237V31.7416C30.3906 32.4956 30.8116 32.8813 31.6352 32.9164H34.5087C34.8016 32.9164 35.0578 32.8112 35.2591 32.6008C35.4604 32.443 35.5703 32.2326 35.5703 31.9696L35.5886 26.0958ZM26.3457 25.3243C26.364 23.9742 26.6752 22.9397 27.2974 22.2383C27.6086 21.9403 28.0112 21.6948 28.5054 21.4844C29.0179 21.274 29.4938 21.1688 29.9696 21.1688H35.735C38.2791 21.1863 39.5786 22.5189 39.6152 25.1665V33.3197C39.5969 34.2665 39.2125 35.0731 38.4621 35.7569C37.73 36.4758 36.8515 36.844 35.8265 36.8615H30.3723V42.7353H26.3457V25.3243ZM46.9179 32.1099C46.9179 32.3378 47.0278 32.5131 47.2474 32.6534C47.4304 32.8112 47.6866 32.8989 47.9795 32.8989H51.0726C51.7682 32.8989 52.1342 32.6359 52.1525 32.1099V31.0052C52.1525 30.3915 51.7865 30.0935 51.036 30.0935H47.9612C47.5585 30.0935 47.284 30.1636 47.1193 30.2863C46.9728 30.4266 46.8996 30.7072 46.8996 31.128L46.9179 32.1099ZM52.1708 25.9906C52.1891 25.3944 51.8231 25.1139 51.091 25.1314H42.9646V21.1688H52.1159C54.7881 21.2038 56.1425 22.4487 56.1791 24.8859V33.197C56.1608 34.249 55.813 35.1081 55.1725 35.8095C54.4953 36.5284 53.6167 36.879 52.5369 36.879H47.0094C44.319 36.8615 42.9463 35.6867 42.9096 33.3372V30.1285C42.9279 27.6738 44.2274 26.4289 46.8264 26.3938H52.1891L52.1708 25.9906ZM67.5085 38.7727C67.8196 38.7552 68.1125 38.65 68.3321 38.4396C68.5517 38.2467 68.6615 38.0363 68.6615 37.8083V36.8615H63.5002C62.823 36.8615 62.2922 36.7738 61.8895 36.616C61.4686 36.4758 61.0476 36.1952 60.6084 35.792C60.2057 35.3711 59.9128 34.9328 59.7298 34.4769C59.5468 34.0561 59.4553 33.5301 59.4553 32.8813V21.1688H63.5002V31.6364C63.5002 32.4781 63.8662 32.8989 64.58 32.8989H67.4353C67.783 32.8989 68.0759 32.7937 68.3138 32.5833C68.5517 32.3904 68.6615 32.18 68.6615 31.917V21.1688H72.6698V38.4746C72.6515 39.7546 72.3038 40.7891 71.6449 41.5606C70.9677 42.332 70.0525 42.7353 68.8812 42.7529H59.4553V38.7727H67.5085ZM75.8362 32.8989H83.0292C83.6881 32.8813 84.0358 32.6183 84.0541 32.1449V31.7943C84.0541 31.689 84.0175 31.5838 83.9626 31.4611C83.7979 31.163 83.5965 31.0052 83.3769 31.0052H79.7896C78.728 30.9877 77.8312 30.637 77.0625 29.9532C76.2938 29.322 75.9094 28.568 75.8728 27.6563V24.6931C75.9094 22.3786 77.2272 21.2038 79.8079 21.1688H88.1539V25.1489H81.0891C80.2655 25.1489 79.8445 25.3944 79.8445 25.8854V26.2711C79.8445 26.7796 80.2654 27.0251 81.1257 27.0251H84.6764C85.6281 27.0426 86.4335 27.3933 87.1107 28.0771C87.7879 28.7609 88.1356 29.5675 88.1722 30.5143V33.4074C88.1539 34.2139 87.7513 35.038 87.0008 35.8446C86.6348 36.2478 86.2504 36.5108 85.8844 36.6686C85.5 36.8089 84.9692 36.879 84.292 36.879H75.8545L75.8362 32.8989ZM95.0723 32.1099C95.0723 32.3378 95.1822 32.5131 95.4018 32.6534C95.5848 32.8112 95.8227 32.8989 96.1339 32.8989H99.2453C99.9408 32.8989 100.307 32.6359 100.325 32.1099V31.0052C100.325 30.3915 99.9592 30.0935 99.2087 30.0935H96.1339C95.7312 30.0935 95.4567 30.1636 95.292 30.2863C95.1455 30.4266 95.0723 30.7072 95.0723 31.128V32.1099ZM100.325 25.9906C100.344 25.3944 99.9775 25.1139 99.2271 25.1314H91.1006V21.1688H100.252C102.924 21.2038 104.279 22.4487 104.315 24.8859V33.197C104.297 34.249 103.949 35.1081 103.309 35.8095C102.631 36.5284 101.753 36.879 100.673 36.879H95.1272C92.4367 36.8615 91.064 35.6867 91.0274 33.3372V30.1285C91.0457 27.6738 92.3452 26.4289 94.9442 26.3938H100.325V25.9906ZM107.61 18.9069C107.628 17.8374 108.049 16.9782 108.854 16.3295C109.641 15.6807 110.666 15.33 111.947 15.3125H114.51V19.1524H112.954C112.094 19.1699 111.673 19.5557 111.655 20.3272V21.1688H114.51V25.1489H111.655V36.879H107.61V18.9069ZM125.986 25.9204V25.8328C125.986 25.6224 125.894 25.447 125.729 25.3243C125.546 25.2016 125.308 25.1314 125.034 25.1314H122.215C121.849 25.1314 121.556 25.2366 121.337 25.4295C121.062 25.6048 120.916 25.8503 120.916 26.1484V27.7439L125.986 25.9204ZM120.989 31.5488V31.7943C120.989 32.1099 121.08 32.3729 121.245 32.5482C121.373 32.7761 121.538 32.8989 121.776 32.8989H130.067V36.879H121.245C120.44 36.879 119.818 36.8089 119.378 36.6686C118.902 36.5108 118.463 36.2654 118.079 35.9147C117.64 35.4939 117.328 35.0731 117.182 34.6172C117.017 34.1613 116.926 33.5476 116.926 32.7937L116.889 24.8333C116.926 22.4312 118.244 21.2038 120.824 21.1688H126.278C128.786 21.2038 130.067 22.4838 130.104 24.9736V28.1122L120.989 31.5488ZM138.651 36.879C138.047 36.879 137.48 36.8264 136.967 36.7212C136.436 36.6336 135.906 36.4056 135.375 36.0024C134.826 35.5465 134.441 35.0205 134.222 34.4419C134.002 33.8808 133.892 33.232 133.892 32.5307V25.1139C133.874 24.5177 133.929 23.9742 134.075 23.5183C134.203 23.0624 134.496 22.6066 134.936 22.1682C135.43 21.7123 135.924 21.3967 136.455 21.2389C136.967 21.1162 137.535 21.046 138.175 21.046H144.362V21.9753H138.322C137.26 21.9753 136.418 22.1857 135.796 22.6066C135.174 23.0624 134.844 23.8514 134.844 24.9736V32.3904C134.844 32.9164 134.936 33.4249 135.1 33.9158C135.265 34.3892 135.558 34.8276 135.961 35.1958C136.4 35.5114 136.839 35.7218 137.26 35.792C137.699 35.8796 138.175 35.9322 138.688 35.9322H144.453V36.8615H138.651V36.879ZM160.285 27.253H152.177C151.207 27.2705 150.438 27.5686 149.889 28.1122C149.322 28.6732 149.047 29.4447 149.047 30.4266V32.7937C149.047 33.2496 149.102 33.6704 149.193 34.0561C149.303 34.4594 149.541 34.8101 149.944 35.1081C150.639 35.6692 151.426 35.9322 152.268 35.9322H157.21C159.26 35.9147 160.303 34.8802 160.303 32.8112L160.285 27.253ZM161.255 32.6008C161.255 33.197 161.2 33.723 161.127 34.1788C160.999 34.6873 160.724 35.1607 160.321 35.6166C159.48 36.4758 158.418 36.8966 157.173 36.8615H152.341C151.079 36.8615 150.072 36.5108 149.285 35.792C148.48 35.0906 148.077 34.1087 148.077 32.8463V30.4617C148.114 27.7615 149.523 26.3763 152.287 26.3237H160.321V25.2717C160.321 24.4125 160.065 23.6586 159.534 23.0098C159.205 22.589 158.821 22.3085 158.381 22.1682C157.942 22.063 157.43 21.9929 156.881 21.9929H148.114V21.0636H156.423C157.192 21.0636 157.869 21.1162 158.491 21.2214C158.802 21.274 159.095 21.3967 159.37 21.5721C159.663 21.7299 159.919 21.9753 160.157 22.2909C160.907 23.2202 161.273 24.2723 161.255 25.4646V32.6008ZM170.333 21.9929C168.082 22.0279 166.965 23.2027 167.02 25.5172V36.8615H166.05V25.5347C165.995 22.5539 167.478 21.0636 170.498 21.0636H171.578V21.9929H170.333ZM186.677 21.9929H179.027C178.478 21.9929 177.984 22.0455 177.544 22.1682C177.087 22.2734 176.629 22.5364 176.208 22.9748C175.806 23.378 175.549 23.7813 175.439 24.1671C175.293 24.5703 175.238 25.0437 175.256 25.6048V32.8463C175.256 34.0561 175.623 34.8627 176.355 35.301C176.721 35.5114 177.123 35.6517 177.563 35.7569C178.002 35.8621 178.514 35.9322 179.045 35.9322H182.395C183.639 35.9322 184.664 35.6517 185.451 35.1081C186.238 34.5821 186.641 33.6879 186.677 32.4079V21.9929ZM187.647 32.4781C187.556 35.4763 185.909 36.9492 182.687 36.879H179.1C178.35 36.879 177.672 36.8089 177.068 36.7037C176.446 36.5459 175.86 36.1952 175.293 35.6341C174.872 35.1257 174.598 34.6172 174.488 34.0912C174.341 33.5652 174.268 32.9865 174.305 32.3553V25.6048C174.341 22.5715 175.952 21.046 179.1 21.0811H186.696V15.9437H187.666V32.4781" fill="#516389"/>
<path d="M3.92621 20.5698C4.23736 20.4295 4.56681 20.3243 4.87795 20.2717C5.46364 17.6066 7.9345 15.6077 10.8812 15.6077C13.8463 15.6077 16.2988 17.6066 16.8845 20.2717C17.7997 20.4295 18.5501 20.7802 19.1174 21.3062C19.1357 20.7977 19.1174 20.3068 19.0625 19.8334C18.6965 15.8006 15.1641 12.6445 10.8629 12.6445C6.43368 12.6445 2.82805 16.011 2.64502 20.2016C2.62672 20.5698 2.60842 20.938 2.62672 21.3413C2.99278 21.0432 3.41374 20.7802 3.92621 20.5698Z" fill="#516389"/>
<path d="M15.6766 21.166H5.81143C5.33556 21.166 4.84139 21.2712 4.34722 21.4816C3.85305 21.692 3.45039 21.9375 3.13924 22.2356C2.53525 22.9369 2.2058 23.9714 2.1875 25.3215V32.7032C2.2058 34.0533 2.51695 35.0878 3.13924 35.7892C3.46869 36.0873 3.85305 36.3327 4.34722 36.5431C4.85969 36.7535 5.35387 36.8587 5.81143 36.8587H15.6766C18.2207 36.8412 19.5202 35.4911 19.5568 32.8435V25.1637C19.5202 22.5161 18.2207 21.1835 15.6766 21.166Z" fill="#516389"/>
</svg>
