<svg width="211" height="75" viewBox="0 0 211 75" fill="none" xmlns="http://www.w3.org/2000/svg">
<g clip-path="url(#clip0_1_9481)">
<path d="M52.4518 16.8979L36.6067 57.8189H42.5473L48.5892 41.8779H51.4368L48.3589 57.8189H54.0363C54.0363 57.8189 56.1498 46.4296 56.8105 41.3173C59.453 40.3787 60.7717 37.3597 60.7717 37.3597L66.4846 21.2696C67.2389 19.1429 65.6873 16.8979 63.4624 16.8979H52.4518ZM55.2918 37.3597H50.0092L56.1498 21.9305H61.1033L55.2918 37.3597Z" fill="#516389"/>
<path d="M75.1491 22.0385L61.6985 57.8189H67.3759L73.3747 41.9885H78.47L72.5268 57.8189H78.27L91.5359 22.077C92.4648 19.5724 90.6424 16.8979 88.0099 16.8979H82.4996C79.2369 16.8979 76.3134 18.9423 75.1491 22.0385ZM74.6327 37.3597L80.4342 21.7273H85.98L79.9381 37.3597H74.6327Z" fill="#516389"/>
<path d="M102.67 45.2239C105.953 45.2264 108.386 42.8169 109.553 39.7028L116.283 21.7277C117.212 19.223 115.898 16.9009 113.266 16.9009H102.339L86.9543 57.8218H92.6318L97.4739 45.2264H102.569L102.67 45.2239ZM99.1039 40.4485L105.69 21.7302H110.476L103.65 40.4485H99.1039Z" fill="#516389"/>
<path d="M126.142 16.9009H131.49L117.131 57.8193H111.286L126.142 16.9009Z" fill="#516389"/>
<path d="M141 16.9009L126.21 57.8218H137.927C140.489 57.8218 142.779 56.2018 143.67 53.7614L155.352 21.7251C156.205 19.3876 154.501 16.9009 152.048 16.9009H141ZM138.755 53.3242H133.67L144.895 21.7277H149.98L138.755 53.3242Z" fill="#516389"/>
<path d="M157.242 57.8214V32.8979L147.833 57.8188L157.242 57.8214Z" fill="#516389"/>
<path d="M172.833 18.8336V17.0181H173.577V21.4463H172.833V19.6539H162.587V18.8336H172.833Z" fill="#516389"/>
<path d="M167.87 23.1235H162.587V22.3032H173.577V23.9542C173.577 25.6179 172.836 26.32 171.13 26.32H170.57C169.214 26.32 168.475 25.9034 168.242 25.1834C168.011 25.9317 167.444 26.23 165.989 26.23C165.04 26.23 163.301 26.2145 162.587 26.3431V25.5382C163.286 25.4019 165.164 25.4199 165.913 25.4199C167.394 25.4199 167.867 25.1962 167.867 24.0159V23.1235H167.87ZM168.581 23.1235V24.0853C168.581 25.2502 169.368 25.4868 170.53 25.4868H171.097C172.206 25.4868 172.866 25.1396 172.866 23.9233V23.1235H168.581Z" fill="#516389"/>
<path d="M166.486 28.7134L162.585 28.0808V27.2554L173.576 29.1146V30.2949L162.585 32.2339V31.375L166.486 30.7064V28.7134ZM167.227 30.5881C170.029 30.1046 171.968 29.8012 172.867 29.7086V29.67C172.057 29.634 169.5 29.1892 167.227 28.8343V30.5881Z" fill="#516389"/>
<path d="M162.587 33.2856H173.577V34.304C171.208 35.0137 165.215 36.7187 164.101 36.9449V36.9758C165.665 36.9192 167.212 36.8935 168.994 36.8935H173.577V37.6881H162.587V36.6981C165.169 35.9369 171.231 34.2577 172.393 33.9774V33.962C171.074 34.0314 169.135 34.0854 167.146 34.0854H162.587V33.2856Z" fill="#516389"/>
<path d="M165.583 39.7433H164.976C163.791 39.7433 163.168 40.1856 163.168 41.0574C163.168 41.9445 163.7 42.3586 165.242 42.3586C166.601 42.3586 167.193 42.0526 168.074 40.8902C168.985 39.6996 169.509 39.1184 171.124 39.1184C172.478 39.1184 173.726 39.5273 173.713 41.0985C173.701 42.4846 172.858 43.0092 171.321 43.0092H170.863V42.1914H171.299C172.314 42.1914 172.989 41.9754 172.989 41.0779C172.989 40.1702 172.202 39.9387 171.248 39.9387C170.056 39.9387 169.666 40.1856 168.864 41.2374C167.755 42.7032 167.155 43.1789 165.34 43.1789C163.804 43.1789 162.445 42.8034 162.445 41.0574C162.445 39.4373 163.515 38.9204 164.963 38.9204H165.581V39.7433H165.583Z" fill="#516389"/>
<path d="M173.577 44.5177V48.0844H172.833V45.3355H168.781V47.9096H168.037V45.3355H162.587V44.5151H173.577V44.5177Z" fill="#516389"/>
<path d="M168.116 52.4693V49.9312H163.327V52.783L162.585 52.6621V49.1108H173.576V52.6158H172.831V49.9286H168.855V52.4667H168.116V52.4693Z" fill="#516389"/>
<path d="M167.87 54.6294H162.587V53.8091H173.577V55.46C173.577 57.1238 172.836 57.8259 171.13 57.8259H170.57C169.214 57.8259 168.475 57.4093 168.242 56.6892C168.011 57.4375 167.444 57.7384 165.989 57.7384C165.04 57.7384 163.301 57.7204 162.587 57.8516V57.0415C163.286 56.9052 165.164 56.9232 165.913 56.9232C167.394 56.9232 167.867 56.6995 167.867 55.5192V54.6294H167.87ZM168.581 54.6294V55.5912C168.581 56.7561 169.368 56.9952 170.53 56.9952H171.097C172.206 56.9952 172.866 56.6481 172.866 55.4317V54.632H168.581V54.6294Z" fill="#516389"/>
</g>
<defs>
<clipPath id="clip0_1_9481">
<rect width="138" height="41.9111" fill="white" transform="translate(36.3 16.5444)"/>
</clipPath>
</defs>
</svg>
