<svg width="140" height="56" viewBox="0 0 140 56" fill="none" xmlns="http://www.w3.org/2000/svg">
<path d="M18.1517 7.39844L2.30664 48.3194H8.24729L14.2892 32.3784H17.1367L14.0588 48.3194H19.7363C19.7363 48.3194 21.8498 36.93 22.5104 31.8178C25.153 30.8792 26.4717 27.8602 26.4717 27.8602L32.1845 11.7701C32.9388 9.64339 31.3872 7.39844 29.1623 7.39844H18.1517ZM20.9917 27.8602H15.7092L21.8498 12.4309H26.8033L20.9917 27.8602Z" fill="#516389"/>
<path d="M40.849 12.539L27.3984 48.3194H33.0758L39.0747 32.489H44.1699L38.2268 48.3194H43.97L57.2358 12.5775C58.1647 10.0728 56.3423 7.39844 53.7099 7.39844H48.1996C44.9369 7.39844 42.0134 9.44281 40.849 12.539ZM40.3327 27.8602L46.1341 12.2278H51.6799L45.638 27.8602H40.3327Z" fill="#516389"/>
<path d="M68.3703 35.7253C71.6532 35.7279 74.0857 33.3184 75.2526 30.2042L81.9829 12.2291C82.9119 9.72445 81.5982 7.40234 78.9658 7.40234H68.0387L52.6543 48.3233H58.3317L63.1738 35.7279H68.2691L68.3703 35.7253ZM64.8039 30.95L71.39 12.2317H76.1764L69.3499 30.95H64.8039Z" fill="#516389"/>
<path d="M91.8417 7.40234H97.1901L82.8308 48.3207H76.9863L91.8417 7.40234Z" fill="#516389"/>
<path d="M106.7 7.40234L91.9102 48.3233H103.627C106.188 48.3233 108.479 46.7032 109.37 44.2629L121.052 12.2266C121.905 9.88903 120.201 7.40234 117.748 7.40234H106.7ZM104.455 43.8257H99.3695L110.595 12.2291H115.68L104.455 43.8257Z" fill="#516389"/>
<path d="M122.942 48.3218V23.3984L113.533 48.3193L122.942 48.3218Z" fill="#516389"/>
<path d="M138.533 9.33504V7.51953H139.277V11.9477H138.533V10.1554H128.287V9.33504H138.533Z" fill="#516389"/>
<path d="M133.57 13.625H128.287V12.8047H139.277V14.4556C139.277 16.1194 138.536 16.8214 136.83 16.8214H136.27C134.914 16.8214 134.175 16.4048 133.942 15.6848C133.711 16.4331 133.144 16.7314 131.689 16.7314C130.74 16.7314 129.001 16.716 128.287 16.8446V16.0397C128.986 15.9034 130.864 15.9214 131.613 15.9214C133.094 15.9214 133.567 15.6977 133.567 14.5173V13.625H133.57ZM134.281 13.625V14.5868C134.281 15.7517 135.068 15.9883 136.23 15.9883H136.797C137.906 15.9883 138.566 15.6411 138.566 14.4248V13.625H134.281Z" fill="#516389"/>
<path d="M132.186 19.2159L128.285 18.5833V17.7578L139.275 19.617V20.7974L128.285 22.7363V21.8774L132.186 21.2088V19.2159ZM132.927 21.0905C135.729 20.6071 137.668 20.3036 138.567 20.2111V20.1725C137.757 20.1365 135.2 19.6916 132.927 19.3367V21.0905Z" fill="#516389"/>
<path d="M128.287 23.7871H139.277V24.8054C136.908 25.5152 130.914 27.2201 129.801 27.4464V27.4773C131.365 27.4207 132.912 27.395 134.693 27.395H139.277V28.1896H128.287V27.1995C130.869 26.4384 136.931 24.7592 138.093 24.4789V24.4634C136.774 24.5329 134.835 24.5869 132.846 24.5869H128.287V23.7871Z" fill="#516389"/>
<path d="M131.283 30.2448H130.676C129.491 30.2448 128.868 30.6871 128.868 31.5588C128.868 32.446 129.4 32.86 130.941 32.86C132.301 32.86 132.893 32.554 133.774 31.3917C134.685 30.2011 135.209 29.6199 136.824 29.6199C138.178 29.6199 139.426 30.0288 139.413 31.6C139.401 32.986 138.558 33.5106 137.021 33.5106H136.563V32.6929H136.999C138.014 32.6929 138.689 32.4769 138.689 31.5794C138.689 30.6716 137.902 30.4402 136.948 30.4402C135.756 30.4402 135.366 30.6871 134.564 31.7388C133.455 33.2046 132.855 33.6804 131.04 33.6804C129.504 33.6804 128.145 33.3049 128.145 31.5588C128.145 29.9388 129.215 29.4219 130.663 29.4219H131.281V30.2448H131.283Z" fill="#516389"/>
<path d="M139.277 35.0182V38.5849H138.533V35.8359H134.481V38.4101H133.737V35.8359H128.287V35.0156H139.277V35.0182Z" fill="#516389"/>
<path d="M133.816 42.9717V40.4336H129.027V43.2854L128.285 43.1646V39.6133H139.275V43.1183H138.531V40.431H134.555V42.9691H133.816V42.9717Z" fill="#516389"/>
<path d="M133.57 45.1309H128.287V44.3105H139.277V45.9615C139.277 47.6253 138.536 48.3273 136.83 48.3273H136.27C134.914 48.3273 134.175 47.9107 133.942 47.1907C133.711 47.939 133.144 48.2399 131.689 48.2399C130.74 48.2399 129.001 48.2219 128.287 48.353V47.543C128.986 47.4067 130.864 47.4247 131.613 47.4247C133.094 47.4247 133.567 47.201 133.567 46.0206V45.1309H133.57ZM134.281 45.1309V46.0926C134.281 47.2575 135.068 47.4967 136.23 47.4967H136.797C137.906 47.4967 138.566 47.1495 138.566 45.9332V45.1334H134.281V45.1309Z" fill="#516389"/>
</svg>
