<svg width="132" height="56" viewBox="0 0 132 56" fill="none" xmlns="http://www.w3.org/2000/svg">
<path d="M93.4372 16.2224C96.2006 16.2224 98.438 13.8759 98.438 10.9826C98.438 8.0893 96.1991 5.73828 93.4372 5.73828C90.6754 5.73828 88.4408 8.08777 88.4408 10.9826C88.4406 11.6708 88.5697 12.3524 88.8207 12.9883C89.0717 13.6242 89.4397 14.202 89.9037 14.6887C90.3677 15.1754 90.9186 15.5615 91.5249 15.8249C92.1311 16.0883 92.781 16.2239 93.4372 16.2239V16.2224ZM55.1353 19.0485C54.9095 19.6595 53.2853 24.4563 49.3567 29.4409V8.12138L38.8904 10.2906V48.9396H49.3581V36.9935C52.3909 41.7597 53.8884 48.9396 53.8884 48.9396H66.426C65.1878 43.5318 59.7617 33.564 59.7617 33.564C62.9855 29.2033 65.4704 24.2938 67.1078 19.05L55.1353 19.0485ZM82.652 18.6452C73.2783 18.9614 68.5178 23.3717 68.5178 32.1403V48.938H78.7466V35.2413C78.7466 29.9924 79.4021 27.756 85.3425 27.5268V18.8041C84.3432 18.581 82.652 18.6513 82.652 18.6513V18.6452ZM21.3374 23.3106C20.0555 23.2235 17.0868 23.0203 17.0868 20.2187C17.0868 16.838 21.3593 16.838 22.9631 16.838C25.7817 16.838 29.4307 17.7088 32.0382 18.5291C32.9262 18.9165 33.8238 19.2792 34.7301 19.6168L34.8467 19.6504V10.3868L34.6893 10.338C31.6128 9.20752 28.0367 8.12291 21.4044 8.12291C9.96949 8.12291 5.91992 15.1072 5.91992 21.0925C5.91992 24.5418 7.32999 32.6612 20.4241 33.5976C21.5341 33.6694 24.4795 33.8466 24.4795 36.7445C24.4795 39.1353 22.0672 40.5453 18.0118 40.5453C13.5689 40.5453 9.2528 39.3568 6.63515 38.2294V47.7663C10.5565 48.8433 14.9761 49.3826 20.1575 49.3826C31.3375 49.3826 36.3441 42.7741 36.3441 36.2236C36.3441 28.7963 30.7417 23.972 21.3403 23.3106H21.3374ZM88.3709 48.9441H98.5152V19.0852H88.368L88.3709 48.9441ZM117.618 10.0279V48.9441H127.765V8.12596L117.618 10.0279ZM102.814 10.0279L112.949 8.12596V48.9441H102.814V10.0248V10.0279Z" fill="#516389"/>
</svg>
