<svg width="122" height="56" viewBox="0 0 122 56" fill="none" xmlns="http://www.w3.org/2000/svg">
<path d="M51.79 45.3555H42.3224L48.2425 8.84668H57.7073L51.79 45.3555Z" fill="#516389"/>
<path d="M86.0992 9.742C83.391 8.70176 80.5118 8.17463 77.6099 8.18774C68.263 8.18774 61.6804 13.1586 61.6403 20.2664C61.5627 25.5102 66.3533 28.4221 69.9355 30.1712C73.5976 31.9578 74.842 33.1237 74.842 34.7167C74.8049 37.1628 71.8827 38.2899 69.1577 38.2899C66.082 38.3759 63.032 37.7091 60.2743 36.3478L59.0277 35.7646L57.7034 43.9602C59.923 44.9687 64.0135 45.8642 68.2593 45.9036C78.191 45.9036 84.6565 41.0095 84.7319 33.4352C84.7695 29.2794 82.2404 26.0945 76.7898 23.4924C73.4793 21.8219 71.4521 20.6954 71.4521 18.9862C71.4909 17.4325 73.1669 15.8407 76.9039 15.8407C79.3299 15.7699 81.7404 16.2477 83.9547 17.2382L84.8108 17.626L86.0979 9.74273L86.0992 9.742Z" fill="#516389"/>
<path d="M98.68 32.4214C99.4593 30.3238 102.459 22.2067 102.459 22.2067C102.419 22.2848 103.236 20.0705 103.704 18.7116L104.365 21.8571C104.365 21.8571 106.158 30.596 106.547 32.4214H98.68ZM110.364 8.84668H103.042C100.784 8.84668 99.0694 9.50619 98.0952 11.876L84.0347 45.3549H93.9653C93.9653 45.3549 95.6002 40.8487 95.952 39.8782H108.105C108.376 41.1603 109.234 45.3549 109.234 45.3549H118L110.364 8.84668Z" fill="#516389"/>
<path d="M34.4179 8.84863L25.1474 33.744L24.1344 28.6952C22.4206 22.8694 17.046 16.5396 11.0482 13.3918L19.5386 45.3186H29.5481L44.4256 8.84863H34.4179Z" fill="#516389"/>
<path d="M16.5409 8.84832H1.31263L1.15674 9.58594C13.0357 12.6158 20.9032 19.9184 24.1359 28.6961L20.8256 11.9153C20.2808 9.58357 18.6059 8.92279 16.5414 8.84668L16.5409 8.84832Z" fill="#516389"/>
</svg>
