<svg width="102" height="49" viewBox="0 0 102 49" fill="none" xmlns="http://www.w3.org/2000/svg">
<path d="M7.68614 35.9695L7.17011 33.6353H4.42317L3.92731 35.9695H1.20129L4.42317 22.0684H7.27253L10.5774 35.9695H7.68614ZM6.7565 31.489C6.4671 30.1555 6.1784 28.8423 5.972 27.4877C5.889 26.8832 5.80669 26.2583 5.74462 25.6538C5.62047 27.613 5.22859 29.5509 4.83597 31.4897H6.7565V31.489Z" fill="#516389"/>
<path d="M17.1944 25.2147C16.6364 24.7355 15.9963 24.3189 15.2327 24.3189C14.4273 24.3189 13.8693 24.8608 13.8693 25.6736C13.8693 28.0704 17.9999 28.0289 17.9999 31.9049C17.9999 34.3017 16.5751 36.1982 14.0757 36.1982C13.2292 36.1982 12.4028 35.9688 11.7005 35.4896V32.8633C12.3198 33.2799 12.9607 33.6134 13.7243 33.6134C14.6538 33.6134 15.3352 33.0301 15.3352 32.0709C15.3352 31.8211 15.294 31.5917 15.1908 31.3622C14.9433 30.8415 14.179 30.3827 13.7243 30.0702C12.1754 28.9865 11.1837 27.9858 11.1837 25.9648C11.1837 23.7763 12.4439 21.8594 14.7772 21.8594C15.7069 21.8594 16.3882 22.0677 17.1936 22.5265V25.2147H17.1944Z" fill="#516389"/>
<path d="M24.3897 35.9695L21.8492 28.9042V35.9695H19.1232V22.0684H21.8492V28.2793L24.1414 22.0684H26.9295L24.3889 28.4876L27.2391 35.9695H24.3897Z" fill="#516389"/>
<path d="M36.423 28.2372C36.444 28.5911 36.444 28.9458 36.444 29.2998C36.444 30.2793 36.4028 31.28 36.1964 32.2384C35.7417 34.3847 34.3581 36.1982 32.024 36.1982C28.3063 36.1982 27.1292 32.1547 27.1292 29.0703C27.1292 25.8818 28.162 21.8594 32.024 21.8594C34.1308 21.8594 35.4934 23.1929 36.0723 25.152L33.4285 26.1943C33.3044 25.3815 33.0778 24.2766 32.045 24.2766C30.1865 24.2766 30.0414 27.7157 30.0414 29.0288C30.0414 30.4046 30.1035 33.6973 32.0651 33.6973C33.5519 33.6973 33.7172 31.8219 33.7382 30.6959H32.0031V28.2364H36.423V28.2372Z" fill="#516389"/>
<path d="M43.1275 35.9695L42.6115 33.6353H39.8645L39.3687 35.9695H36.6427L39.8645 22.0684H42.7147L46.0196 35.9695H43.1275ZM42.1987 31.489C41.9092 30.1555 41.6206 28.8423 41.4141 27.4877C41.3311 26.8832 41.2489 26.2583 41.1868 25.6538C41.0626 27.613 40.6708 29.5509 40.2781 31.4897H42.1987V31.489Z" fill="#516389"/>
<path d="M56.4773 35.9695L55.7956 25.9655C55.7336 27.0492 55.5684 28.1118 55.383 29.1751L54.1646 35.9695H52.078L50.7977 29.6755C50.6533 28.988 50.5083 28.2997 50.4469 27.5911L50.2816 25.9655L49.8479 35.9695H46.9357L48.1338 22.0684H51.7274L53.0697 30.28L54.1646 22.0684H57.8411L59.2658 35.9695H56.4773Z" fill="#516389"/>
<path d="M63.3058 22.0684C64.0292 22.0684 65.2475 22.1099 66.1975 23.048C66.9405 23.7777 67.3335 24.9233 67.3335 26.0493C67.3335 26.7368 67.1892 27.4251 66.6931 28.0295C66.4658 28.3005 66.1152 28.6341 65.5982 28.8423C66.4861 29.1759 66.9197 29.8008 67.0849 30.0717C67.4778 30.7388 67.5601 31.5101 67.5601 32.0309C67.5601 33.0731 67.2912 34.0111 66.5273 34.7816C65.4741 35.8442 64.0894 35.9695 63.2844 35.9695H60.3927V22.0684H63.3058ZM63.1198 27.779C63.5533 27.7579 64.0495 27.5707 64.3178 27.2998C64.7102 26.9036 64.7514 26.3202 64.7514 26.0078C64.7514 25.6742 64.7102 25.1535 64.3178 24.7573C64.0906 24.5279 63.7185 24.3407 63.1198 24.3407V27.779ZM63.1198 33.5938C63.5533 33.5938 64.0495 33.4481 64.359 33.1561C64.6482 32.8851 64.8748 32.4059 64.8748 31.8014C64.8748 31.1343 64.6476 30.6339 64.3381 30.3426C64.0077 30.0506 63.5116 29.9049 63.1198 29.9049V33.5938Z" fill="#516389"/>
<path d="M68.8771 35.9695V22.0684H71.6036V33.3644H74.4535V35.9695H68.8771Z" fill="#516389"/>
<path d="M75.5763 35.9695V22.0684H81.049V24.6524H78.3022V27.6537H80.7186V30.28H78.3022V33.4059H81.0901V35.9695H75.5763Z" fill="#516389"/>
<path d="M87.5506 35.9695L85.1342 29.5713V35.9695H82.4083V22.0684H85.362C86.3734 22.0684 87.4886 22.1521 88.3563 22.7355C89.4512 23.4653 89.9879 24.8199 89.9879 26.1119C89.9879 27.696 89.3688 28.8212 88.0265 29.6551L90.422 35.9702H87.5506V35.9695ZM85.1336 28.0499C85.278 28.071 85.4432 28.071 85.5886 28.071C86.7652 28.071 87.3437 27.2582 87.3437 26.133C87.3437 25.0078 86.8475 24.2366 85.6507 24.2366H85.1342V28.0499H85.1336Z" fill="#516389"/>
<path d="M97.0361 25.2147C96.478 24.7355 95.8381 24.3189 95.0741 24.3189C94.2691 24.3189 93.7109 24.8608 93.7109 25.6736C93.7109 28.0704 97.8412 28.0289 97.8412 31.9049C97.8412 34.3017 96.4159 36.1982 93.9172 36.1982C93.071 36.1982 92.2445 35.9688 91.542 35.4896V32.8633C92.1616 33.2799 92.8021 33.6134 93.566 33.6134C94.4957 33.6134 95.1767 33.0301 95.1767 32.0709C95.1767 31.8211 95.1356 31.5917 95.0324 31.3622C94.7849 30.8415 94.0204 30.3827 93.566 30.0702C92.0167 28.9865 91.0256 27.9858 91.0256 25.9648C91.0256 23.7763 92.2856 21.8594 94.6186 21.8594C95.5483 21.8594 96.2299 22.0677 97.035 22.5265V25.2147H97.0361Z" fill="#516389"/>
<path d="M99.9516 25.7454C100.942 25.7454 101.746 24.9352 101.746 23.9357C101.746 22.9362 100.942 22.126 99.9516 22.126C98.9611 22.126 98.1583 22.9362 98.1583 23.9357C98.1583 24.9352 98.9611 25.7454 99.9516 25.7454Z" fill="#516389"/>
<path d="M15.3439 19.923V12.8018H18.1432C18.7458 12.8018 19.261 12.9035 19.6887 13.107C20.1228 13.3104 20.4565 13.602 20.6898 13.9818C20.9231 14.3617 21.0397 14.8127 21.0397 15.3349C21.0397 15.8571 20.9231 16.3081 20.6898 16.6879C20.4565 17.0609 20.1228 17.3491 19.6887 17.5526C19.261 17.7493 18.7458 17.8477 18.1432 17.8477H16.0437L16.6075 17.2474V19.923H15.3439ZM19.7956 19.923L18.0752 17.339H19.4262L21.1564 19.923H19.7956ZM16.6075 17.3899L16.0437 16.7591H18.0849C18.6421 16.7591 19.0601 16.6337 19.3388 16.3827C19.6239 16.1318 19.7665 15.7825 19.7665 15.3349C19.7665 14.8805 19.6239 14.5312 19.3388 14.2871C19.0601 14.0429 18.6421 13.9208 18.0849 13.9208H16.0437L16.6075 13.2697V17.3899Z" fill="#516389"/>
<path d="M23.7661 15.7622H27.1486V16.8507H23.7661V15.7622ZM23.8633 18.8141H27.7027V19.923H22.5997V12.8018H27.5666V13.9106H23.8633V18.8141Z" fill="#516389"/>
<path d="M31.1756 19.923L28.2013 12.8018H29.5718L32.2253 19.2414H31.438L34.1207 12.8018H35.3843L32.4197 19.923H31.1756Z" fill="#516389"/>
<path d="M36.7404 19.923V12.8018H38.004V19.923H36.7404Z" fill="#516389"/>
<path d="M41.0239 15.7622H44.4065V16.8507H41.0239V15.7622ZM41.1211 18.8141H44.9605V19.923H39.8575V12.8018H44.8244V13.9106H41.1211V18.8141Z" fill="#516389"/>
<path d="M48.1007 19.923L46.3497 12.8018H47.6619L49.1699 19.2414H48.5186L50.1697 12.8018H51.3361L53.097 19.2414H52.4652L53.9346 12.8018H55.1401L53.4761 19.923H52.1349L50.5488 14.1141H50.8987L49.4517 19.923H48.1007Z" fill="#516389"/>
<path d="M58.344 15.7622H61.7266V16.8507H58.344V15.7622ZM58.4414 18.8141H62.2807V19.923H57.1779V12.8018H62.1445V13.9106H58.4414V18.8141Z" fill="#516389"/>
<path d="M63.4532 19.923V12.8018H66.4278C67.1668 12.8018 67.8148 12.9509 68.3718 13.2494C68.9288 13.5478 69.3635 13.9615 69.6742 14.4905C69.9854 15.0195 70.1408 15.6435 70.1408 16.3624C70.1408 17.0745 69.9854 17.6985 69.6742 18.2343C69.3635 18.7632 68.9288 19.1769 68.3718 19.4754C67.8148 19.7738 67.1668 19.923 66.4278 19.923H63.4532ZM64.7174 18.804H66.3693C66.8816 18.804 67.3221 18.7022 67.6913 18.4987C68.0675 18.2953 68.3556 18.0104 68.5567 17.6442C68.7636 17.278 68.8674 16.8507 68.8674 16.3624C68.8674 15.8673 68.7636 15.44 68.5567 15.0805C68.3556 14.7143 68.0675 14.4295 67.6913 14.226C67.3221 14.0225 66.8816 13.9208 66.3693 13.9208H64.7174V18.804Z" fill="#516389"/>
<path d="M74.8419 19.923V12.8018H78.0304C78.847 12.8018 79.4689 12.9713 79.8967 13.3104C80.3244 13.6427 80.5377 14.0903 80.5377 14.6533C80.5377 15.0331 80.4537 15.3586 80.285 15.6299C80.1169 15.8944 79.8897 16.1012 79.6051 16.2505C79.3264 16.3929 79.0215 16.4641 78.6911 16.4641L78.8661 16.0979C79.2487 16.0979 79.5918 16.1725 79.8967 16.3217C80.201 16.4641 80.4409 16.6744 80.616 16.9524C80.7974 17.2305 80.8878 17.5763 80.8878 17.9901C80.8878 18.6005 80.6641 19.0752 80.2172 19.4143C79.7703 19.7534 79.1061 19.923 78.2245 19.923H74.8419ZM76.1055 18.8853H78.1468C78.6198 18.8853 78.9826 18.804 79.2354 18.6411C79.4881 18.4784 79.6144 18.2173 79.6144 17.8578C79.6144 17.5052 79.4881 17.2474 79.2354 17.0847C78.9826 16.9151 78.6198 16.8303 78.1468 16.8303H76.0087V15.8029H77.8941C78.3346 15.8029 78.672 15.7215 78.905 15.5587C79.1449 15.3959 79.2649 15.1518 79.2649 14.8262C79.2649 14.4939 79.1449 14.2464 78.905 14.0836C78.672 13.9208 78.3346 13.8394 77.8941 13.8394H76.1055V18.8853Z" fill="#516389"/>
<path d="M84.0952 19.923V17.105L84.3768 17.9188L81.422 12.8018H82.7731L85.1448 16.9219H84.3867L86.7776 12.8018H88.022L85.0672 17.9188L85.3587 17.105V19.923H84.0952Z" fill="#516389"/>
</svg>
