<svg width="102" height="49" viewBox="0 0 102 49" fill="none" xmlns="http://www.w3.org/2000/svg">
<path fill-rule="evenodd" clip-rule="evenodd" d="M96.383 8.52441H6.0531V40.4751H96.383V8.52441ZM89.475 35.2135L92.5693 35.2134V23.329L89.475 24.4829V35.2135ZM42.4363 35.2135V24.457L45.5289 23.4565V35.2135H42.4363ZM28.897 35.2135V34.572C28.8728 34.6257 28.8627 34.5873 28.8471 34.5283C28.8189 34.4212 28.7728 34.2464 28.5926 34.4315C28.3206 34.7186 27.9579 34.9792 27.5046 35.2135C27.1896 35.371 26.4636 35.3096 25.847 35.2575C25.5763 35.2346 25.3266 35.2135 25.1422 35.2135C24.3222 35.2135 23.4942 34.6718 22.8403 34.244L22.8399 34.2437C22.7709 34.1986 22.7039 34.1547 22.639 34.113C21.959 33.6672 21.4523 32.8406 21.0745 32.1001C20.6967 31.3521 20.4487 30.4523 20.4487 29.5456C20.4487 28.6389 20.6967 27.5547 21.0745 26.8143C21.4523 26.0663 22.225 25.3447 22.9049 24.899C23.585 24.4532 25.143 23.8396 26.0496 23.8396C26.1706 23.8396 26.283 23.8373 26.3895 23.8352H26.39C26.7956 23.8271 27.1159 23.8207 27.498 23.9462C27.6325 23.9904 27.7193 24.0232 27.7983 24.0529C27.9181 24.098 28.0199 24.1364 28.2431 24.1978C28.342 24.2251 28.4304 24.2403 28.5087 24.2539C28.6944 24.2859 28.8225 24.3081 28.897 24.457V23.6518H31.8565V35.2135H28.897ZM23.562 29.5456C23.572 31.0437 24.7942 32.276 26.2919 32.2409C27.7554 32.2067 28.8873 31.0095 28.897 29.5456C28.9068 28.0716 27.7655 26.8487 26.2919 26.8143C24.7843 26.779 23.552 28.0376 23.562 29.5456ZM15.7097 32.3086C17.1391 32.331 17.9942 31.189 17.9942 31.189L20.4487 32.8337C19.9266 33.6902 18.5901 35.4345 15.7097 35.4858C12.4565 35.5436 9.81655 32.799 9.86733 29.5456C9.9173 26.3427 12.5064 23.7974 15.7097 23.788C17.7823 23.782 19.1194 24.5334 20.4487 26.1775L17.9942 27.9514C17.9942 27.9514 17.0888 26.8131 15.7097 26.8143C14.1941 26.8156 12.9614 28.03 12.9527 29.5456C12.9439 31.0699 14.1856 32.2847 15.7097 32.3086ZM41.0112 23.6518H36.2973C34.3734 23.6518 33.0458 25.9085 33.0458 27.3193C33.0458 28.9132 33.926 29.8002 34.3845 30.1441C35.8204 31.221 37.8048 31.0597 37.8048 31.0597C37.8048 31.0597 38.2591 31.0597 38.2591 31.5899C38.2591 32.1767 37.8048 32.1767 37.8048 32.1767H32.9975V35.2135H38.4058C39.6883 35.2135 41.3686 33.5369 41.3686 31.4137C41.3686 28.5712 38.526 27.8896 36.8024 27.8896C36.8024 27.8896 36.2141 27.8756 36.221 27.3242C36.228 26.7728 36.8024 26.7728 36.8024 26.7728H41.0112V23.6518ZM57.5449 28.6843C57.5449 26.2678 54.9105 23.9794 52.4453 23.9794C51.0539 23.9794 50.6552 24.3905 50.3723 24.6821L50.3377 24.7176V23.6941H47.2776V35.2135H50.3377V29.0503C50.3377 27.9639 51.1784 27.1487 52.46 27.1487C53.6145 27.1487 54.4598 27.9939 54.4598 28.9223V35.2135H57.5449V28.6843ZM74.1868 35.2135H71.1421V29.3135C71.1421 27.2301 73.4516 23.5869 77.7767 23.5869V26.6781C75.3433 26.6781 74.7355 28.2673 74.495 28.8948L74.4859 28.9183C74.4722 28.9539 74.4601 28.986 74.4485 29.0141C74.3126 29.3466 74.1868 30.1803 74.1868 30.475V35.2135ZM64.1538 35.314C60.9741 35.2838 58.4251 32.7227 58.4099 29.5429C58.3943 26.3475 60.9585 23.7459 64.1538 23.7155C67.3794 23.6847 70.0239 26.3171 70.0082 29.5429C69.9926 32.7532 67.3642 35.3446 64.1538 35.314ZM64.1538 32.3733C65.7125 32.3852 66.9898 31.1015 66.9686 29.5429C66.9469 28.0054 65.6913 26.7779 64.1538 26.7896C62.6279 26.8012 61.4031 28.0173 61.3819 29.5429C61.3607 31.0899 62.6066 32.3615 64.1538 32.3733ZM82.797 32.3488C82.0088 32.3488 80.4899 31.7479 80.4899 30.9673H88.5494V30.2448C88.5494 26.2947 86.0397 23.8305 82.797 23.8305C79.8513 23.8305 77.0961 26.5018 77.0961 29.5845C77.0961 32.7994 79.6032 35.3235 82.797 35.3235C85.8397 35.3235 87.0265 33.5657 87.0265 33.5657L84.8478 31.3723C84.1869 32.1235 83.9267 32.3488 82.797 32.3488ZM82.797 26.802C83.7327 26.802 85.1682 27.2096 85.199 28.1892H80.4899C80.547 27.1934 81.8294 26.802 82.797 26.802ZM80.6415 16.3635C81.1761 16.3635 81.6096 15.9302 81.6096 15.3957C81.6096 14.8612 81.1761 14.428 80.6415 14.428C80.1069 14.428 79.6739 14.8612 79.6739 15.3957C79.6739 15.9302 80.1069 16.3635 80.6415 16.3635ZM80.6415 15.88C80.9093 15.88 81.1261 15.6632 81.1261 15.3957C81.1261 15.1283 80.9093 14.9114 80.6415 14.9114C80.3742 14.9114 80.1575 15.1283 80.1575 15.3957C80.1575 15.6632 80.3742 15.88 80.6415 15.88ZM86.6168 14.5883C86.6168 15.1823 86.1352 15.6638 85.541 15.6638C84.9474 15.6638 84.4658 15.1823 84.4658 14.5883C84.4658 13.9944 84.9474 13.5129 85.541 13.5129C86.1352 13.5129 86.6168 13.9944 86.6168 14.5883ZM86.0155 14.5883C86.0155 14.8504 85.8033 15.0629 85.541 15.0629C85.2793 15.0629 85.0666 14.8504 85.0666 14.5883C85.0666 14.3262 85.2793 14.1138 85.541 14.1138C85.8033 14.1138 86.0155 14.3262 86.0155 14.5883ZM77.615 20.1672C77.5549 19.817 77.5458 18.4616 77.615 17.9814C77.6842 17.5012 77.8833 16.9399 78.1991 16.5233C78.4911 16.1387 79.7113 16.4834 80.1853 16.868C80.6587 17.2526 81.8365 17.3627 82.0077 16.9517C82.032 16.8937 82.0568 16.7911 82.0881 16.6614C82.2336 16.0614 82.5191 14.8844 83.5175 14.8844C84.3628 14.8844 84.671 15.7841 84.8655 16.3507C84.9368 16.559 84.9928 16.7222 85.0545 16.7793C85.299 17.0062 85.7209 16.9517 85.8998 16.7793C85.9847 16.6977 86.0554 16.4985 86.1383 16.2644C86.3176 15.7597 86.5546 15.0927 87.1129 15.0927C87.9309 15.0927 88.516 16.6049 88.516 17.1082C88.516 17.1584 88.5165 17.2266 88.5176 17.31C88.5287 18.2592 88.562 21.1761 87.7228 21.9443C86.9714 22.6323 82.6312 22.6386 80.1893 22.3557C77.9111 22.0918 77.7443 21.0048 77.6377 20.3103C77.6301 20.2604 77.6231 20.2126 77.615 20.1672ZM87.6536 20.8161C85.0333 19.8833 79.5148 20.3774 78.4451 20.8657C78.4345 20.8588 78.4239 20.8526 78.4138 20.8466C78.2592 20.7544 78.1885 20.7124 78.1885 19.1318C78.1885 17.2124 78.6973 16.7612 79.0009 16.8975C79.0989 16.9414 79.2146 16.9994 79.345 17.0645C79.8771 17.3304 80.6476 17.7158 81.3979 17.7506C82.5645 17.8049 82.851 16.6372 82.851 16.1758C82.851 15.7145 84.1809 14.9547 84.2622 16.1758C84.3274 17.1527 85.0302 17.4087 85.4193 17.4358C85.6638 17.4358 86.3955 17.2195 86.638 16.3695C86.9376 15.3201 87.5651 15.8482 87.7627 16.6372C87.8931 17.1581 87.7622 19.6402 87.6536 20.8161ZM78.9196 21.5051C80.0751 20.6175 85.7058 20.6175 87.1978 21.5051C86.925 22.073 79.5562 22.2277 78.9196 21.5051ZM88.658 14.2337C88.658 14.285 88.6474 14.3338 88.6277 14.3778C88.6616 14.3669 88.6984 14.361 88.7358 14.361C88.9319 14.361 89.0905 14.5197 89.0905 14.7156C89.0905 14.9115 88.9319 15.0703 88.7358 15.0703C88.6964 15.0703 88.6585 15.0638 88.6227 15.0518C88.6454 15.0985 88.658 15.1509 88.658 15.2063C88.658 15.4022 88.4994 15.561 88.3033 15.561C88.1078 15.561 87.9486 15.4022 87.9486 15.2063C87.9486 15.1509 87.9618 15.0985 87.984 15.0518C87.9486 15.0638 87.9107 15.0703 87.8708 15.0703C87.6753 15.0703 87.5161 14.9115 87.5161 14.7156C87.5161 14.5197 87.6753 14.361 87.8708 14.361C87.9087 14.361 87.9451 14.3669 87.9795 14.3778C87.9597 14.3338 87.9486 14.285 87.9486 14.2337C87.9486 14.0378 88.1078 13.879 88.3033 13.879C88.4994 13.879 88.658 14.0378 88.658 14.2337ZM88.1901 14.8702C88.226 14.8582 88.2639 14.8517 88.3033 14.8517C88.3432 14.8517 88.3811 14.8582 88.417 14.8702C88.3943 14.8234 88.3816 14.771 88.3816 14.7156C88.3816 14.6643 88.3923 14.6155 88.412 14.5715C88.3776 14.5824 88.3412 14.5883 88.3033 14.5883C88.2654 14.5883 88.229 14.5824 88.1952 14.5715C88.2149 14.6155 88.2255 14.6643 88.2255 14.7156C88.2255 14.771 88.2129 14.8234 88.1901 14.8702Z" fill="#516389"/>
</svg>
