<svg width="102" height="49" viewBox="0 0 102 49" fill="none" xmlns="http://www.w3.org/2000/svg">
<path fill-rule="evenodd" clip-rule="evenodd" d="M20.1103 11.3701H94.9952V37.6306H20.1103H19.8842V37.6286C12.7406 37.5079 6.98669 31.6764 6.98669 24.5003C6.98669 17.3242 12.7406 11.4927 19.8842 11.372V11.3701H20.1103Z" fill="#2B292A"/>
<mask id="mask0_1_9920" style="mask-type:luminance" maskUnits="userSpaceOnUse" x="6" y="11" width="89" height="27">
<path fill-rule="evenodd" clip-rule="evenodd" d="M20.1103 11.3701H94.9952V37.6306H20.1103H19.8842V37.6286C12.7406 37.5079 6.98669 31.6764 6.98669 24.5003C6.98669 17.3242 12.7406 11.4927 19.8842 11.372V11.3701H20.1103Z" fill="white"/>
</mask>
<g mask="url(#mask0_1_9920)">
<path d="M94.9966 11.3705H95.5019V10.8652H94.9966V11.3705ZM94.9966 37.6309V38.1362H95.5019V37.6309H94.9966ZM19.8856 37.6309H19.3803V38.1362H19.8856V37.6309ZM19.8856 37.629H20.3909V37.1322L19.8941 37.1238L19.8856 37.629ZM19.8856 11.3724L19.8941 11.8776L20.3909 11.8692V11.3724H19.8856ZM19.8856 11.3705V10.8652H19.3803V11.3705H19.8856ZM20.1117 11.8758H94.9966V10.8652H20.1117V11.8758ZM94.4913 11.3705V37.6309H95.5019V11.3705H94.4913ZM94.9966 37.1257H20.1117V38.1362H94.9966V37.1257ZM20.1117 37.1257H19.8856V38.1362H20.1117V37.1257ZM20.3909 37.6309V37.629H19.3803V37.6309H20.3909ZM19.8941 37.1238C13.0259 37.0078 7.49331 31.4008 7.49331 24.5007H6.48279C6.48279 31.9527 12.4579 38.0088 19.8771 38.1342L19.8941 37.1238ZM7.49331 24.5007C7.49331 17.6006 13.0259 11.9937 19.8941 11.8776L19.8771 10.8672C12.4579 10.9926 6.48279 17.0487 6.48279 24.5007H7.49331ZM20.3909 11.3724V11.3705H19.3803V11.3724H20.3909ZM19.8856 11.8758H20.1117V10.8652H19.8856V11.8758Z" fill="white"/>
</g>
<path d="M34.9319 17.2471C35.1771 17.2471 35.4027 17.2777 35.6085 17.339C35.8186 17.3959 36.031 17.4879 36.2456 17.6149L36.3967 17.4901C36.5018 17.4069 36.5872 17.3499 36.6528 17.3193C36.7229 17.2887 36.8017 17.2733 36.8893 17.2733C36.9944 17.2733 37.0776 17.2974 37.1389 17.3456C37.2002 17.3894 37.2309 17.455 37.2309 17.5427C37.2309 17.5777 37.2243 17.6149 37.2112 17.6543L36.9353 18.5608C36.9047 18.6659 36.8653 18.7403 36.8171 18.7841C36.7732 18.8278 36.7054 18.8498 36.6134 18.8498C36.5171 18.8498 36.4317 18.8213 36.3573 18.7644C36.2872 18.703 36.1755 18.5805 36.0223 18.3965C35.869 18.2214 35.7289 18.0987 35.6019 18.0287C35.4793 17.9542 35.3523 17.917 35.2209 17.917C35.1246 17.917 35.0436 17.9499 34.9779 18.0156C34.9122 18.0769 34.8794 18.1535 34.8794 18.2455C34.8794 18.3506 34.9319 18.4491 35.037 18.541C35.1421 18.6286 35.3063 18.7403 35.5296 18.876C35.7574 19.0118 35.9456 19.1344 36.0945 19.2439C36.2434 19.3533 36.3704 19.4891 36.4755 19.6511C36.5806 19.8131 36.6331 19.9992 36.6331 20.2094C36.6331 20.3451 36.6113 20.4809 36.5675 20.6167C36.4624 20.967 36.2587 21.2341 35.9566 21.418C35.6544 21.5975 35.3019 21.6873 34.8991 21.6873C34.5969 21.6873 34.3429 21.6523 34.1371 21.5822C33.9313 21.5121 33.7212 21.3939 33.5066 21.2275L33.2701 21.4246C33.1606 21.5165 33.0709 21.58 33.0008 21.6151C32.9307 21.6457 32.8519 21.661 32.7643 21.661C32.6636 21.661 32.5826 21.6369 32.5213 21.5888C32.4644 21.5406 32.4359 21.4749 32.4359 21.3917C32.4359 21.3479 32.4447 21.302 32.4622 21.2538L32.784 20.2751C32.8191 20.1612 32.8673 20.0802 32.9285 20.0321C32.9898 19.9839 33.0687 19.9598 33.165 19.9598C33.2657 19.9598 33.3555 19.9948 33.4343 20.0649C33.5175 20.135 33.6248 20.262 33.7562 20.4459C33.8963 20.6473 34.0255 20.7875 34.1437 20.8663C34.2663 20.9451 34.4108 20.9845 34.5772 20.9845C34.6954 20.9845 34.7852 20.967 34.8465 20.932C34.9122 20.8925 34.9582 20.8312 34.9845 20.748C34.9932 20.7261 34.9976 20.6933 34.9976 20.6495C34.9976 20.5444 34.9472 20.4481 34.8465 20.3605C34.7458 20.2729 34.5904 20.1678 34.3802 20.0452C34.1568 19.9095 33.9751 19.7891 33.835 19.684C33.6949 19.5745 33.5723 19.4387 33.4672 19.2767C33.3665 19.1147 33.3161 18.9242 33.3161 18.7053C33.3161 18.552 33.3402 18.4009 33.3883 18.252C33.4803 17.9499 33.6686 17.7069 33.9532 17.5229C34.2378 17.339 34.5641 17.2471 34.9319 17.2471Z" fill="white"/>
<path d="M40.9662 17.2871C41.1282 17.2871 41.253 17.3221 41.3406 17.3922C41.4325 17.4622 41.4785 17.5586 41.4785 17.6812C41.4785 17.7425 41.4697 17.8016 41.4522 17.8586L41.2815 18.4694C41.2508 18.5877 41.2048 18.6708 41.1435 18.719C41.0866 18.7628 41.0034 18.7847 40.8939 18.7847C40.7888 18.7847 40.7056 18.7628 40.6443 18.719C40.5874 18.6708 40.5436 18.5942 40.513 18.4891L40.4079 18.1147C40.3859 18.0359 40.3597 17.9834 40.329 17.9571C40.2984 17.9308 40.2393 17.9177 40.1517 17.9177H39.462L39.1336 19.0869H39.4226C39.4532 19.0869 39.4949 19.0649 39.5474 19.0212L39.7707 18.8241C39.8364 18.7672 39.8933 18.7256 39.9415 18.6993C39.9897 18.673 40.0488 18.6599 40.1189 18.6599C40.1977 18.6599 40.2611 18.6818 40.3093 18.7256C40.3619 18.765 40.3882 18.8176 40.3882 18.8832C40.3882 18.9007 40.3838 18.927 40.375 18.9621L40.1057 19.8751C40.0794 19.9714 40.0335 20.0436 39.9678 20.0918C39.9064 20.1356 39.8386 20.1575 39.7642 20.1575C39.6415 20.1575 39.5496 20.094 39.4883 19.967L39.3766 19.7371C39.346 19.6714 39.2978 19.6386 39.2321 19.6386H38.976L38.5884 21.0311H39.1664C39.2496 21.0311 39.3219 21.0157 39.3832 20.9851C39.4489 20.9501 39.5189 20.8909 39.5934 20.8078L39.9875 20.3743C40.0575 20.2998 40.1232 20.2472 40.1845 20.2166C40.2502 20.1816 40.329 20.1641 40.421 20.1641C40.5173 20.1641 40.5961 20.186 40.6575 20.2298C40.7188 20.2735 40.7494 20.3392 40.7494 20.4268C40.7494 20.4618 40.7429 20.5034 40.7297 20.5516L40.5392 21.215C40.491 21.3814 40.421 21.4975 40.329 21.5631C40.2371 21.6288 40.1035 21.6617 39.9284 21.6617H36.7952C36.7033 21.6617 36.6332 21.6463 36.585 21.6157C36.5325 21.585 36.5062 21.5434 36.5062 21.4909C36.5062 21.4646 36.5128 21.4361 36.5259 21.4055C36.5434 21.3573 36.5719 21.3201 36.6113 21.2938C36.6507 21.2676 36.6748 21.2522 36.6836 21.2479C36.7536 21.2041 36.8105 21.1603 36.8544 21.1165C36.8981 21.0683 36.9353 20.9917 36.966 20.8866L37.7739 18.0556C37.7914 17.9987 37.8002 17.9461 37.8002 17.898C37.8002 17.8454 37.7914 17.8016 37.7739 17.7666C37.7608 17.7315 37.7389 17.6943 37.7082 17.6549C37.6688 17.598 37.6491 17.552 37.6491 17.517C37.6491 17.5039 37.6535 17.4798 37.6623 17.4448C37.6798 17.3878 37.7192 17.3484 37.7805 17.3265C37.8418 17.3002 37.9316 17.2871 38.0498 17.2871H40.9662Z" fill="white"/>
<path d="M44.7693 20.8861C44.7518 20.9429 44.743 20.9999 44.743 21.0568C44.743 21.105 44.7496 21.1466 44.7627 21.1816C44.7759 21.2123 44.789 21.2385 44.8021 21.2605C44.8196 21.2779 44.8306 21.2911 44.835 21.2999C44.8787 21.3436 44.9007 21.3874 44.9007 21.4312C44.9007 21.44 44.8963 21.4619 44.8875 21.4969C44.87 21.5582 44.8306 21.602 44.7693 21.6283C44.7124 21.6502 44.6226 21.6611 44.5 21.6611H42.9433C42.8513 21.6611 42.7791 21.6458 42.7265 21.6152C42.6783 21.5845 42.6543 21.5429 42.6543 21.4904C42.6543 21.4641 42.6608 21.4356 42.674 21.405C42.6871 21.3699 42.7046 21.3436 42.7265 21.3261C42.7528 21.3042 42.7878 21.2802 42.8316 21.2539C42.9016 21.2145 42.9586 21.1707 43.0024 21.1225C43.0462 21.0743 43.0834 20.9955 43.1141 20.8861L43.2848 20.3212H42.2602L42.0828 20.6956C42.0083 20.8576 41.9712 20.9846 41.9712 21.0765C41.9712 21.1291 41.9799 21.1728 41.9974 21.2079C42.0149 21.2385 42.0412 21.2714 42.0763 21.3064C42.1069 21.3414 42.1266 21.3721 42.1354 21.3984C42.1485 21.4203 42.1507 21.4509 42.1419 21.4904C42.1244 21.556 42.0872 21.602 42.0303 21.6283C41.9777 21.6502 41.8923 21.6611 41.7741 21.6611H40.7954C40.6947 21.6611 40.6181 21.6436 40.5655 21.6086C40.513 21.5692 40.4867 21.5188 40.4867 21.4575C40.4867 21.3874 40.513 21.3327 40.5655 21.2933C40.6137 21.2495 40.6881 21.2035 40.7888 21.1554C40.9202 21.0897 41.0253 21.0262 41.1041 20.9649C41.1829 20.8992 41.2508 20.8094 41.3077 20.6956L42.4769 18.2718C42.6564 17.8952 42.8666 17.6237 43.1075 17.4573C43.3527 17.2866 43.6746 17.2012 44.0731 17.2012C44.5197 17.2012 44.8656 17.2931 45.1109 17.477C45.3561 17.6566 45.4787 17.9083 45.4787 18.2324C45.4787 18.3681 45.4568 18.5083 45.413 18.6528L44.7693 20.8861ZM43.4819 19.6643L43.83 18.5083C43.8475 18.4557 43.8563 18.401 43.8563 18.3441C43.8563 18.2609 43.8322 18.1996 43.784 18.1602C43.7402 18.1164 43.6767 18.0945 43.5936 18.0945C43.4885 18.0945 43.3987 18.1251 43.3243 18.1864C43.2498 18.2477 43.1754 18.3572 43.1009 18.5149L42.5623 19.6643H43.4819Z" fill="white"/>
<path d="M48.7806 19.967C48.9031 19.967 48.9951 19.9933 49.0564 20.0458C49.1221 20.094 49.155 20.1641 49.155 20.256C49.155 20.2954 49.1484 20.3392 49.1353 20.3874L48.9185 21.1559C48.8615 21.3442 48.7806 21.4755 48.6755 21.55C48.5747 21.6244 48.4236 21.6617 48.2222 21.6617H45.1351C45.0431 21.6617 44.973 21.6463 44.9249 21.6157C44.8723 21.585 44.8461 21.5434 44.8461 21.4909C44.8461 21.4646 44.8526 21.4361 44.8658 21.4055C44.8789 21.3704 44.9008 21.342 44.9315 21.3201C44.9621 21.2938 44.9949 21.2697 45.03 21.2479C45.1 21.2041 45.157 21.1603 45.2008 21.1165C45.2445 21.0683 45.2818 20.9917 45.3124 20.8866L46.1138 18.0556C46.1313 17.9987 46.1401 17.944 46.1401 17.8914C46.1401 17.8432 46.1313 17.8038 46.1138 17.7732C46.1006 17.7381 46.0809 17.6987 46.0547 17.6549C46.0153 17.598 45.9955 17.552 45.9955 17.517C45.9955 17.5039 45.9999 17.4798 46.0087 17.4448C46.0262 17.3878 46.0634 17.3484 46.1203 17.3265C46.1816 17.3002 46.2736 17.2871 46.3962 17.2871H47.9398C48.0318 17.2871 48.1018 17.3024 48.15 17.3331C48.2025 17.3594 48.2288 17.3988 48.2288 17.4513C48.2288 17.4732 48.2222 17.5016 48.2091 17.5367C48.196 17.5673 48.1763 17.5958 48.15 17.6221C48.1281 17.644 48.1062 17.6615 48.0843 17.6746C48.0668 17.6834 48.0536 17.6921 48.0449 17.7009C47.9748 17.7403 47.9179 17.7841 47.8741 17.8323C47.8303 17.8804 47.7931 17.9549 47.7624 18.0556L46.9151 21.0311H47.3224C47.4231 21.0311 47.5085 21.0136 47.5785 20.9786C47.653 20.9435 47.7296 20.8778 47.8084 20.7815L48.2616 20.2429C48.3448 20.1465 48.4236 20.0765 48.4981 20.0327C48.5769 19.9889 48.6711 19.967 48.7806 19.967Z" fill="white"/>
<path d="M36.697 31.7923C36.6796 31.8492 36.6708 31.9061 36.6708 31.9631C36.6708 32.0112 36.6773 32.0528 36.6905 32.0879C36.7036 32.1185 36.7167 32.1448 36.7299 32.1667C36.7474 32.1842 36.7584 32.1973 36.7627 32.2061C36.8065 32.2499 36.8284 32.2937 36.8284 32.3375C36.8284 32.3462 36.8241 32.3681 36.8153 32.4032C36.7978 32.4645 36.7584 32.5083 36.697 32.5345C36.6401 32.5564 36.5504 32.5674 36.4277 32.5674H34.871C34.7791 32.5674 34.7068 32.552 34.6543 32.5214C34.6061 32.4907 34.582 32.4491 34.582 32.3966C34.582 32.3703 34.5886 32.3418 34.6017 32.3112C34.6148 32.2761 34.6324 32.2499 34.6543 32.2324C34.6805 32.2105 34.7156 32.1864 34.7594 32.1601C34.8294 32.1207 34.8864 32.0769 34.9301 32.0288C34.9739 31.9806 35.0112 31.9017 35.0418 31.7923L35.2126 31.2274H34.1879L34.0106 31.6018C33.9361 31.7638 33.8989 31.8908 33.8989 31.9828C33.8989 32.0353 33.9077 32.0791 33.9252 32.1142C33.9427 32.1448 33.969 32.1776 34.004 32.2127C34.0347 32.2477 34.0544 32.2784 34.0631 32.3046C34.0762 32.3265 34.0785 32.3572 34.0697 32.3966C34.0522 32.4623 34.015 32.5083 33.958 32.5345C33.9055 32.5564 33.8201 32.5674 33.7018 32.5674H32.7231C32.6224 32.5674 32.5458 32.5498 32.4933 32.5148C32.4407 32.4754 32.4144 32.425 32.4144 32.3638C32.4144 32.2937 32.4407 32.239 32.4933 32.1995C32.5415 32.1557 32.6159 32.1098 32.7166 32.0616C32.8479 31.9959 32.953 31.9324 33.0319 31.8711C33.1107 31.8054 33.1786 31.7157 33.2355 31.6018L34.4047 29.1781C34.5842 28.8015 34.7944 28.53 35.0352 28.3636C35.2805 28.1928 35.6023 28.1074 36.0008 28.1074C36.4474 28.1074 36.7934 28.1994 37.0386 28.3833C37.2839 28.5628 37.4064 28.8146 37.4064 29.1387C37.4064 29.2744 37.3846 29.4145 37.3407 29.559L36.697 31.7923ZM35.4096 30.5706L35.7578 29.4145C35.7753 29.362 35.784 29.3072 35.784 29.2503C35.784 29.1671 35.76 29.1058 35.7118 29.0664C35.668 29.0226 35.6045 29.0007 35.5213 29.0007C35.4162 29.0007 35.3265 29.0313 35.252 29.0927C35.1776 29.154 35.1031 29.2635 35.0287 29.4211L34.49 30.5706H35.4096Z" fill="white"/>
<path d="M40.9096 28.1924C41.3738 28.1924 41.7307 28.2931 41.9803 28.4945C42.2343 28.6959 42.3612 28.9631 42.3612 29.2959C42.3612 29.4272 42.3415 29.5652 42.3021 29.7097C42.1796 30.1475 41.9365 30.4716 41.573 30.6818C41.214 30.892 40.7586 30.9971 40.2068 30.9971H39.5303L39.3069 31.7919C39.2982 31.8182 39.2938 31.8532 39.2938 31.897C39.2938 31.9583 39.3069 32.0086 39.3332 32.048C39.3639 32.0875 39.4077 32.1334 39.4646 32.186C39.5128 32.2297 39.5456 32.2626 39.5631 32.2845C39.5806 32.3064 39.5894 32.3327 39.5894 32.3633C39.5894 32.4378 39.5544 32.4903 39.4843 32.521C39.4142 32.5516 39.3113 32.5669 39.1756 32.5669H37.5269C37.4131 32.5669 37.3277 32.5472 37.2707 32.5078C37.2138 32.464 37.1941 32.4049 37.2116 32.3305C37.2204 32.2911 37.2379 32.2604 37.2642 32.2385C37.2861 32.2123 37.3211 32.1838 37.3692 32.1531C37.4437 32.1093 37.5028 32.0634 37.5466 32.0152C37.5904 31.967 37.6254 31.8926 37.6517 31.7919L38.453 28.9609C38.4706 28.9039 38.4793 28.8492 38.4793 28.7967C38.4793 28.7485 38.4706 28.7091 38.453 28.6784C38.4399 28.6434 38.4202 28.604 38.3939 28.5602C38.3545 28.5033 38.3348 28.4573 38.3348 28.4223C38.3348 28.4091 38.3392 28.385 38.3479 28.35C38.3655 28.2931 38.4027 28.2537 38.4596 28.2318C38.5209 28.2055 38.6129 28.1924 38.7355 28.1924H40.9096ZM40.7388 29.5915C40.7871 29.4294 40.8111 29.2871 40.8111 29.1645C40.8111 28.9105 40.6929 28.7835 40.4564 28.7835H40.1608L39.6945 30.4059H39.9835C40.1674 30.4059 40.3163 30.349 40.4301 30.2352C40.5484 30.1169 40.6513 29.9023 40.7388 29.5915Z" fill="white"/>
<path d="M45.558 28.1924C46.0222 28.1924 46.3791 28.2931 46.6287 28.4945C46.8826 28.6959 47.0096 28.9631 47.0096 29.2959C47.0096 29.4272 46.9899 29.5652 46.9505 29.7097C46.8279 30.1475 46.5849 30.4716 46.2214 30.6818C45.8624 30.892 45.407 30.9971 44.8552 30.9971H44.1787L43.9553 31.7919C43.9465 31.8182 43.9422 31.8532 43.9422 31.897C43.9422 31.9583 43.9553 32.0086 43.9816 32.048C44.0122 32.0875 44.056 32.1334 44.113 32.186C44.1611 32.2297 44.194 32.2626 44.2115 32.2845C44.229 32.3064 44.2378 32.3327 44.2378 32.3633C44.2378 32.4378 44.2027 32.4903 44.1327 32.521C44.0626 32.5516 43.9597 32.5669 43.824 32.5669H42.1753C42.0614 32.5669 41.976 32.5472 41.9191 32.5078C41.8622 32.464 41.8425 32.4049 41.86 32.3305C41.8688 32.2911 41.8863 32.2604 41.9126 32.2385C41.9344 32.2123 41.9695 32.1838 42.0177 32.1531C42.0921 32.1093 42.1512 32.0634 42.195 32.0152C42.2388 31.967 42.2738 31.8926 42.3001 31.7919L43.1014 28.9609C43.1189 28.9039 43.1277 28.8492 43.1277 28.7967C43.1277 28.7485 43.1189 28.7091 43.1014 28.6784C43.0883 28.6434 43.0686 28.604 43.0423 28.5602C43.0029 28.5033 42.9832 28.4573 42.9832 28.4223C42.9832 28.4091 42.9876 28.385 42.9963 28.35C43.0138 28.2931 43.0511 28.2537 43.108 28.2318C43.1693 28.2055 43.2613 28.1924 43.3839 28.1924H45.558ZM45.3873 29.5915C45.4354 29.4294 45.4595 29.2871 45.4595 29.1645C45.4595 28.9105 45.3413 28.7835 45.1048 28.7835H44.8092L44.3429 30.4059H44.6319C44.8158 30.4059 44.9647 30.349 45.0785 30.2352C45.1968 30.1169 45.2996 29.9023 45.3873 29.5915Z" fill="white"/>
<path d="M51.6843 29.5258C51.6141 29.7797 51.4827 29.979 51.2902 30.1235C51.0977 30.2636 50.8546 30.3512 50.5612 30.3862C50.7714 30.4037 50.9291 30.4651 51.0341 30.5701C51.1391 30.6752 51.1917 30.8132 51.1917 30.984C51.1917 31.0496 51.1806 31.1306 51.1589 31.227L51.0866 31.5488C51.078 31.5926 51.0735 31.6233 51.0735 31.6408C51.0735 31.6977 51.0866 31.7415 51.1129 31.7722C51.1391 31.7984 51.1765 31.8116 51.2245 31.8116C51.3165 31.8116 51.3822 31.8247 51.4216 31.851C51.4655 31.8773 51.4807 31.9254 51.4676 31.9955C51.4499 32.0962 51.3973 32.1947 51.3099 32.2911C51.2225 32.3874 51.0977 32.4684 50.9356 32.5341C50.778 32.5954 50.5853 32.6261 50.3576 32.6261C50.0686 32.6261 49.8387 32.5626 49.6679 32.4356C49.4971 32.3042 49.4118 32.1181 49.4118 31.8773C49.4118 31.7853 49.4249 31.6868 49.4512 31.5817L49.5563 31.1613C49.5737 31.1044 49.5825 31.0452 49.5825 30.984C49.5825 30.8832 49.5475 30.811 49.4774 30.7672C49.4118 30.7234 49.3044 30.7015 49.1556 30.7015H48.906L48.6038 31.7919C48.595 31.8182 48.5907 31.851 48.5907 31.8904C48.5907 31.9517 48.606 32.0042 48.6367 32.048C48.6673 32.0918 48.7089 32.1378 48.7615 32.186C48.8009 32.2166 48.8315 32.2473 48.8534 32.2779C48.8753 32.3042 48.8863 32.3327 48.8863 32.3633C48.8863 32.4378 48.8512 32.4903 48.7812 32.521C48.7111 32.5516 48.6082 32.5669 48.4725 32.5669H46.8238C46.7099 32.5669 46.6245 32.5472 46.5676 32.5078C46.5107 32.464 46.491 32.4049 46.5085 32.3305C46.5173 32.2911 46.5348 32.2604 46.5611 32.2385C46.5829 32.2123 46.618 32.1838 46.6662 32.1531C46.7406 32.1093 46.7997 32.0634 46.8435 32.0152C46.8873 31.967 46.9223 31.8926 46.9486 31.7919L47.7499 28.9609C47.7674 28.9039 47.7762 28.8492 47.7762 28.7967C47.7762 28.7485 47.7674 28.7091 47.7499 28.6784C47.7368 28.6434 47.7171 28.604 47.6908 28.5602C47.6514 28.5033 47.6317 28.4573 47.6317 28.4223C47.6317 28.4091 47.6361 28.385 47.6448 28.35C47.6623 28.2931 47.6996 28.2537 47.7565 28.2318C47.8178 28.2055 47.9098 28.1924 48.0324 28.1924H50.2328C50.535 28.1924 50.7977 28.2384 51.0209 28.3303C51.2488 28.4223 51.4216 28.5493 51.5398 28.7113C51.6626 28.8689 51.7237 29.0484 51.7237 29.2499C51.7237 29.3419 51.7106 29.4338 51.6843 29.5258ZM50.0029 29.4601C50.0248 29.3593 50.0358 29.2827 50.0358 29.2302C50.0358 28.9981 49.9087 28.8821 49.6548 28.8821H49.3789L49.0899 30.0447H49.3658C49.5366 30.0447 49.6701 30.003 49.7664 29.9199C49.8671 29.8367 49.946 29.6834 50.0029 29.4601Z" fill="white"/>
<path d="M54.8837 28.0938C55.4355 28.0938 55.8665 28.2251 56.1777 28.4879C56.4884 28.7462 56.6441 29.1206 56.6441 29.6111C56.6441 29.8431 56.6087 30.0927 56.539 30.3599C56.4076 30.8503 56.204 31.2663 55.9281 31.6079C55.6522 31.9494 55.3238 32.2078 54.9428 32.3829C54.5619 32.5581 54.1481 32.6457 53.7014 32.6457C53.1537 32.6457 52.7247 32.5165 52.414 32.2581C52.1027 31.9954 51.9476 31.6188 51.9476 31.1284C51.9476 30.905 51.9845 30.6489 52.0593 30.3599C52.1861 29.8738 52.3852 29.4622 52.657 29.125C52.9329 28.7834 53.2588 28.5273 53.6357 28.3565C54.0167 28.1813 54.4325 28.0938 54.8837 28.0938ZM54.7655 28.7375C54.6341 28.7375 54.5159 28.79 54.4108 28.8951C54.3057 29.0002 54.2006 29.1731 54.0955 29.414C53.9945 29.6505 53.8853 29.9811 53.7671 30.4058C53.5918 31.0189 53.5043 31.4414 53.5043 31.6735C53.5043 31.8093 53.5281 31.9078 53.5766 31.9691C53.6246 32.0304 53.7014 32.0611 53.8065 32.0611C53.9379 32.0611 54.0561 32.0085 54.1612 31.9034C54.2663 31.7939 54.3689 31.621 54.4699 31.3845C54.5705 31.1481 54.6821 30.8218 54.8049 30.4058C54.9757 29.8015 55.0611 29.3768 55.0611 29.1316C55.0611 28.9914 55.0368 28.8907 54.9888 28.8294C54.9403 28.7681 54.866 28.7375 54.7655 28.7375Z" fill="white"/>
<path d="M61.796 28.8229C61.796 28.9805 61.7606 29.1162 61.6909 29.2301C61.6252 29.3439 61.5398 29.4315 61.4347 29.4928C61.3296 29.5497 61.2245 29.5782 61.1194 29.5782C61.0143 29.5782 60.9178 29.5563 60.8304 29.5125C60.747 29.4687 60.6768 29.4096 60.6202 29.3352L59.0372 32.002C58.919 32.2034 58.8093 32.3479 58.7088 32.4355C58.6077 32.5231 58.4941 32.5669 58.3672 32.5669C58.2313 32.5669 58.1217 32.5231 58.0388 32.4355C57.96 32.3435 57.9029 32.199 57.868 32.002L57.3163 28.9674C57.3031 28.8885 57.2789 28.825 57.244 28.7769C57.2087 28.7287 57.1627 28.6761 57.1061 28.6192C57.0621 28.5798 57.0313 28.5492 57.0141 28.5273C56.9965 28.501 56.9879 28.4703 56.9879 28.4353C56.9656 28.2733 57.0621 28.1923 57.2769 28.1923H58.919C59.0195 28.1923 59.0963 28.2142 59.1489 28.258C59.2014 28.2974 59.2252 28.3521 59.2211 28.4222C59.2211 28.4616 59.212 28.4944 59.1949 28.5207C59.1817 28.547 59.1575 28.5798 59.1226 28.6192C59.0832 28.663 59.0524 28.7046 59.0306 28.744C59.0084 28.7834 58.9978 28.8316 58.9978 28.8885C58.9978 28.9148 58.9998 28.9367 59.0044 28.9542L59.254 30.4847L60.1276 28.9345C60.2807 28.6543 60.4317 28.4572 60.5808 28.3434C60.7293 28.2251 60.9133 28.166 61.1325 28.166C61.3336 28.166 61.4938 28.2251 61.612 28.3434C61.7343 28.4572 61.796 28.617 61.796 28.8229Z" fill="white"/>
<path d="M64.5466 31.7913C64.529 31.8482 64.5204 31.9052 64.5204 31.9621C64.5204 32.0103 64.5269 32.0518 64.5401 32.0869C64.5532 32.1175 64.5664 32.1438 64.5795 32.1657C64.5972 32.1832 64.6078 32.1964 64.6123 32.2051C64.6563 32.2489 64.678 32.2927 64.678 32.3365C64.678 32.3453 64.6735 32.3671 64.6649 32.4022C64.6472 32.4635 64.6078 32.5073 64.5466 32.5336C64.4896 32.5554 64.4001 32.5664 64.2773 32.5664H62.7206C62.6287 32.5664 62.5564 32.551 62.5039 32.5204C62.4559 32.4898 62.4316 32.4482 62.4316 32.3956C62.4316 32.3694 62.4382 32.3409 62.4513 32.3102C62.4645 32.2752 62.4821 32.2489 62.5039 32.2314C62.5301 32.2095 62.565 32.1854 62.609 32.1592C62.6792 32.1198 62.7358 32.0759 62.7797 32.0278C62.8237 31.9796 62.8606 31.9008 62.8914 31.7913L63.0622 31.2264H62.0375L61.8602 31.6008C61.7859 31.7628 61.7485 31.8899 61.7485 31.9818C61.7485 32.0344 61.7571 32.0781 61.7748 32.1132C61.7925 32.1438 61.8187 32.1766 61.8536 32.2117C61.8844 32.2467 61.9041 32.2774 61.9127 32.3037C61.9258 32.3255 61.9279 32.3562 61.9193 32.3956C61.9016 32.4613 61.8647 32.5073 61.8076 32.5336C61.7551 32.5554 61.6697 32.5664 61.5515 32.5664H60.5728C60.4722 32.5664 60.3954 32.5489 60.3429 32.5139C60.2903 32.4744 60.264 32.4241 60.264 32.3628C60.264 32.2927 60.2903 32.238 60.3429 32.1986C60.3909 32.1548 60.4656 32.1088 60.5662 32.0606C60.6976 31.995 60.8026 31.9314 60.8815 31.8702C60.9603 31.8045 61.028 31.7147 61.0851 31.6008L62.2543 29.1771C62.4336 28.8005 62.6438 28.529 62.8848 28.3626C63.1299 28.1918 63.4517 28.1064 63.8504 28.1064C64.297 28.1064 64.6432 28.1984 64.8882 28.3823C65.1333 28.5618 65.256 28.8136 65.256 29.1377C65.256 29.2734 65.2343 29.4136 65.1904 29.5581L64.5466 31.7913ZM63.2592 30.5696L63.6074 29.4136C63.6251 29.361 63.6336 29.3062 63.6336 29.2494C63.6336 29.1661 63.6094 29.1048 63.5614 29.0654C63.5174 29.0216 63.4543 28.9998 63.3709 28.9998C63.2658 28.9998 63.1759 29.0304 63.1016 29.0917C63.0273 29.153 62.9525 29.2625 62.8783 29.4201L62.3397 30.5696H63.2592Z" fill="white"/>
<path d="M68.9837 30.8723C69.1065 30.8723 69.1984 30.8986 69.2596 30.9511C69.3252 30.9993 69.3581 31.0694 69.3581 31.1613C69.3581 31.2007 69.3515 31.2445 69.3384 31.2927L69.1216 32.0612C69.0645 32.2494 68.9837 32.3808 68.8786 32.4553C68.778 32.5297 68.627 32.5669 68.4254 32.5669H65.3382C65.2462 32.5669 65.176 32.5516 65.128 32.521C65.0755 32.4903 65.0492 32.4487 65.0492 32.3962C65.0492 32.3699 65.0558 32.3414 65.0689 32.3108C65.082 32.2757 65.1038 32.2473 65.1346 32.2254C65.1654 32.1991 65.1983 32.175 65.2331 32.1531C65.3033 32.1093 65.3599 32.0655 65.4039 32.0218C65.4478 31.9736 65.4847 31.897 65.5156 31.7919L66.3169 28.9609C66.3346 28.9039 66.3432 28.8492 66.3432 28.7967C66.3432 28.7485 66.3346 28.7091 66.3169 28.6784C66.3038 28.6434 66.2841 28.604 66.2578 28.5602C66.2184 28.5033 66.1987 28.4573 66.1987 28.4223C66.1987 28.4091 66.2032 28.385 66.2118 28.35C66.2295 28.2931 66.2664 28.2537 66.3235 28.2318C66.3846 28.2055 66.4766 28.1924 66.5993 28.1924H68.1429C68.2349 28.1924 68.3051 28.2077 68.3531 28.2384C68.4057 28.2646 68.4319 28.304 68.4319 28.3566C68.4319 28.3785 68.4254 28.4069 68.4122 28.442C68.3991 28.4726 68.3794 28.5011 68.3531 28.5274C68.3314 28.5492 68.3092 28.5668 68.2874 28.5799C68.2697 28.5887 68.2566 28.5974 68.248 28.6062C68.1778 28.6456 68.1212 28.6894 68.0772 28.7376C68.0333 28.7857 67.9964 28.8601 67.9656 28.9609L67.1182 31.9364H67.5255C67.626 31.9364 67.7114 31.9188 67.7817 31.8838C67.8559 31.8488 67.9327 31.7831 68.0116 31.6868L68.4648 31.1482C68.5481 31.0518 68.627 30.9817 68.7012 30.938C68.7801 30.8942 68.874 30.8723 68.9837 30.8723Z" fill="white"/>
<path d="M35.6614 23.9922C36.1271 23.9922 36.4695 24.0864 36.6886 24.2747C36.9112 24.463 37.0225 24.7096 37.0225 25.0143C37.0225 25.1171 37.0088 25.2317 36.9814 25.3585C36.9164 25.6392 36.7948 25.8858 36.6167 26.0981C36.4387 26.3069 36.2195 26.4696 35.9593 26.5861C35.7025 26.699 35.4234 26.7555 35.1221 26.7555C34.6461 26.7555 34.2934 26.6614 34.064 26.473C33.838 26.2813 33.725 26.0279 33.725 25.7129C33.725 25.6067 33.7387 25.4886 33.7661 25.3585C33.8311 25.0913 33.9544 24.8551 34.1359 24.6496C34.3208 24.4408 34.5451 24.2798 34.8088 24.1668C35.0758 24.0504 35.3601 23.9922 35.6614 23.9922ZM35.646 24.4493C35.574 24.4493 35.497 24.5144 35.4148 24.6445C35.3361 24.7712 35.2419 25.0126 35.1323 25.3687C35.0227 25.7248 34.968 25.9748 34.968 26.1186C34.968 26.194 34.9799 26.2453 35.0039 26.2727C35.0279 26.2967 35.0604 26.3087 35.1015 26.3087C35.1734 26.3155 35.247 26.2539 35.3224 26.1238C35.4011 25.9936 35.4988 25.7402 35.6152 25.3636C35.7213 25.0314 35.7744 24.79 35.7744 24.6394C35.7744 24.5674 35.7624 24.5178 35.7384 24.4904C35.7179 24.463 35.6871 24.4493 35.646 24.4493Z" fill="white"/>
<path d="M38.9767 23.0781C39.3431 23.0781 39.617 23.1346 39.7985 23.2476C39.9834 23.3572 40.2381 23.3281 40.2381 23.489C40.2381 23.6192 40.1833 23.7202 40.0737 23.7921C39.9676 23.8606 39.8272 23.8948 39.6526 23.8948C39.4916 23.8948 39.3667 23.8554 39.2776 23.7767C39.1886 23.6979 39.1441 23.6003 39.1441 23.4839C39.1441 23.412 39.1663 23.3367 39.2108 23.2579C39.1081 23.2579 39.0225 23.2836 38.954 23.335C38.8855 23.3829 38.8324 23.4668 38.7948 23.5866C38.7742 23.662 38.764 23.7321 38.764 23.7972C38.764 23.8794 38.7777 23.9445 38.805 23.9924C38.8359 24.0369 38.8787 24.0591 38.9335 24.0591H39.2365C39.4145 24.0591 39.5036 24.114 39.5036 24.2235C39.5036 24.2373 39.5002 24.2578 39.4933 24.2851C39.4728 24.3605 39.43 24.417 39.3649 24.4547C39.3033 24.4923 39.2091 24.5112 39.0824 24.5112H38.9283L38.4198 26.1753C38.4096 26.2164 38.4044 26.2524 38.4044 26.2832C38.4044 26.3277 38.413 26.3637 38.4301 26.3911C38.4472 26.415 38.4712 26.439 38.502 26.463C38.526 26.4869 38.5431 26.5075 38.5534 26.5246C38.5636 26.5383 38.5654 26.5572 38.5585 26.5811C38.5414 26.6256 38.5071 26.6582 38.4558 26.6787C38.4044 26.6992 38.3257 26.7095 38.2195 26.7095H37.0484C36.9594 26.7095 36.8943 26.6958 36.8532 26.6684C36.8121 26.6376 36.7984 26.5982 36.8121 26.5503C36.8258 26.5092 36.8618 26.4732 36.92 26.4424C36.9714 26.415 37.0142 26.3825 37.0484 26.3449C37.0827 26.3072 37.1118 26.2472 37.1358 26.1651L37.5364 24.8502C37.5535 24.7988 37.5621 24.7457 37.5621 24.6909C37.5621 24.6225 37.5466 24.5694 37.5158 24.5317C37.4884 24.4906 37.4456 24.4461 37.3874 24.3982C37.3497 24.3674 37.3206 24.3417 37.3001 24.3211C37.283 24.2972 37.2744 24.2697 37.2744 24.2389C37.271 24.1739 37.2933 24.1277 37.3412 24.1003C37.3925 24.0728 37.4884 24.0591 37.6288 24.0591H37.7572C37.7333 23.9736 37.7213 23.888 37.7213 23.8024C37.7213 23.7167 37.7367 23.6277 37.7675 23.5352C37.8326 23.3606 37.809 23.3777 38.0213 23.2579C38.237 23.138 38.5555 23.0781 38.9767 23.0781Z" fill="white"/>
<path d="M74.3804 24.4874C73.2582 23.8794 71.4211 25.6031 70.8168 26.441C74.6416 25.9329 74.9089 30.3729 77.0659 35.3461C80.6674 28.1392 85.5108 20.8931 92.243 14.5303C84.5165 17.7969 77.5353 29.4329 77.4767 28.8483C77.4185 28.2637 76.0038 25.3666 74.3804 24.4874Z" fill="#F9D20A"/>
<path d="M14.669 29.984C14.6154 30.0555 13.7831 29.0609 13.4556 28.4654L18.7257 21.0739H20.0209V24.6023H20.4031C21.6158 22.3563 22.6882 21.1998 24.0895 19.8457H25.6483V20.6496C23.1651 23.8832 25.0161 27.7626 26.1997 29.2216H24.1987C22.7059 27.5065 22.6106 25.2831 22.4359 24.2826C21.4672 25.2196 20.6562 27.7477 20.4031 29.2216H18.7257V23.24C17.3412 25.5178 14.7226 29.9126 14.669 29.984Z" fill="#F9D20A"/>
<path fill-rule="evenodd" clip-rule="evenodd" d="M20.8383 35.2981C26.5029 34.9544 30.9908 30.2515 30.9908 24.5004C30.9908 18.7493 26.5029 14.0464 20.8383 13.7027C21.0583 13.6894 21.2801 13.6826 21.5035 13.6826C27.478 13.6826 32.3213 18.5259 32.3213 24.5004C32.3213 30.4749 27.478 35.3182 21.5035 35.3182C21.2801 35.3182 21.0583 35.3114 20.8383 35.2981Z" fill="#F9D20A"/>
<path fill-rule="evenodd" clip-rule="evenodd" d="M21.1317 35.6924C27.3128 35.6924 32.3236 30.6816 32.3236 24.5005C32.3236 18.3193 27.3128 13.3086 21.1317 13.3086C14.9506 13.3086 9.93982 18.3193 9.93982 24.5005C9.93982 30.6816 14.9506 35.6924 21.1317 35.6924ZM21.1317 35.3115C27.1024 35.3115 31.9427 30.4712 31.9427 24.5005C31.9427 18.5297 27.1024 13.6894 21.1317 13.6894C15.1609 13.6894 10.3206 18.5297 10.3206 24.5005C10.3206 30.4712 15.1609 35.3115 21.1317 35.3115Z" fill="white"/>
<path fill-rule="evenodd" clip-rule="evenodd" d="M20.3716 16.5754C20.4173 16.5747 20.4631 16.5743 20.509 16.5743C21.0967 16.5743 21.6702 16.635 22.2235 16.7505L22.449 15.8237C21.8233 15.6909 21.1744 15.6211 20.5091 15.6211C20.4632 15.6211 20.4174 15.6214 20.3716 15.6221V16.5754ZM17.6784 16.0596C15.5588 16.736 13.7693 18.1516 12.613 20.0033L13.3478 20.6287C14.3397 18.9783 15.886 17.6989 17.7291 17.0483L17.6784 16.0596ZM12.4283 22.8161C12.1147 22.7791 11.791 22.7404 11.4738 22.7022C11.3065 23.3848 11.2146 24.097 11.2074 24.8296C11.4901 24.829 11.818 24.8294 12.1606 24.8304C12.1682 24.1353 12.2607 23.4606 12.4283 22.8161ZM12.5123 27.3304L11.539 27.3953C12.1936 29.7761 13.7707 31.7749 15.862 32.9832L16.1941 32.0722C14.4437 31.0133 13.1134 29.3297 12.5123 27.3304ZM17.9706 32.8793L17.8634 33.8438C18.6806 34.0858 19.5446 34.2186 20.4388 34.2252C20.4412 33.9401 20.438 33.6109 20.4315 33.2719C19.5742 33.264 18.7477 33.127 17.9706 32.8793ZM22.4205 33.0524L22.4772 34.0169C24.9949 33.4746 27.1337 31.9132 28.4407 29.7859L27.6613 29.2325C26.5164 31.1287 24.6387 32.5328 22.4205 33.0524ZM28.5243 27.2677C28.8258 27.3655 29.1369 27.4676 29.4309 27.565C29.644 26.8441 29.7721 26.0868 29.8037 25.3045H28.8494C28.8189 25.9831 28.7074 26.6406 28.5243 27.2677ZM28.5723 22.75H29.5561C28.9708 20.3047 27.4199 18.2346 25.3289 16.9655C25.187 17.2094 25.0334 17.4683 24.8862 17.7165C24.8723 17.74 24.8583 17.7635 24.8445 17.7868C26.6526 18.8876 28.0094 20.6562 28.5723 22.75Z" fill="white"/>
</svg>
