<svg width="102" height="49" viewBox="0 0 102 49" fill="none" xmlns="http://www.w3.org/2000/svg">
<path d="M16.5865 30.9667C16.5622 31.4811 16.4205 31.9363 16.1611 32.3322C15.9018 32.7248 15.5369 33.0293 15.0666 33.246C14.5998 33.4626 14.0654 33.5708 13.4637 33.5708C12.4712 33.5708 11.6897 33.2544 11.1191 32.6215C10.5485 31.9887 10.2632 31.0953 10.2632 29.9413V29.5758C10.2632 28.8516 10.3912 28.2187 10.647 27.6773C10.9064 27.1324 11.2782 26.7128 11.7623 26.4184C12.2464 26.1206 12.8067 25.9717 13.443 25.9717C14.3594 25.9717 15.096 26.2085 15.6528 26.6823C16.2095 27.1527 16.526 27.8025 16.602 28.6316H14.7865C14.7727 28.1815 14.6568 27.8583 14.4389 27.6621C14.2211 27.4658 13.8891 27.3676 13.443 27.3676C12.9899 27.3676 12.658 27.5334 12.447 27.8651C12.2361 28.1968 12.1254 28.7264 12.115 29.454V29.9769C12.115 30.7654 12.2153 31.3288 12.4159 31.6673C12.6199 32.0056 12.9692 32.1748 13.4637 32.1748C13.8822 32.1748 14.2021 32.0784 14.4234 31.8855C14.6447 31.6926 14.7623 31.3863 14.7761 30.9667H16.5865Z" fill="#516389"/>
<path d="M22.1623 32.0884H19.6672L19.2315 33.4692H17.2863L20.0563 26.0781H21.768L24.5588 33.4692H22.6032L22.1623 32.0884ZM20.1029 30.7128H21.7266L20.9121 28.1492L20.1029 30.7128Z" fill="#516389"/>
<path d="M29.4344 31.5046C29.4344 31.244 29.3393 31.041 29.1492 30.8955C28.9624 30.7499 28.6321 30.5994 28.1584 30.4437C27.6846 30.288 27.2973 30.1374 26.9964 29.9919C26.0177 29.5215 25.5284 28.8751 25.5284 28.0528C25.5284 27.6433 25.6495 27.2829 25.8915 26.9715C26.1371 26.6568 26.4829 26.4131 26.929 26.2406C27.3751 26.0646 27.8766 25.9766 28.4333 25.9766C28.9763 25.9766 29.4621 26.0713 29.8909 26.2608C30.3232 26.4503 30.6586 26.7211 30.8973 27.073C31.1359 27.4216 31.2552 27.821 31.2552 28.2711H29.4396C29.4396 27.9699 29.3446 27.7363 29.1543 27.5705C28.9676 27.4047 28.7134 27.3218 28.3918 27.3218C28.0667 27.3218 27.8091 27.3929 27.6189 27.535C27.4322 27.6737 27.3388 27.8514 27.3388 28.068C27.3388 28.2575 27.4425 28.4301 27.6501 28.5858C27.8575 28.7381 28.2224 28.8971 28.7446 29.063C29.2667 29.2254 29.6956 29.4013 30.031 29.5909C30.8471 30.0511 31.2552 30.6857 31.2552 31.4945C31.2552 32.1408 31.0062 32.6485 30.5082 33.0174C30.0102 33.3862 29.3272 33.5707 28.4592 33.5707C27.8472 33.5707 27.2921 33.4641 26.7941 33.2508C26.2996 33.0343 25.9261 32.7399 25.6737 32.3676C25.4247 31.9919 25.3002 31.5605 25.3002 31.0732H27.1261C27.1261 31.4691 27.2299 31.7618 27.4373 31.9513C27.6483 32.1374 27.9889 32.2305 28.4592 32.2305C28.7601 32.2305 28.997 32.1679 29.1699 32.0427C29.3463 31.9141 29.4344 31.7347 29.4344 31.5046Z" fill="#516389"/>
<path d="M34.5531 33.4692H32.7375V26.0781H34.5531V33.4692Z" fill="#516389"/>
<path d="M42.5531 33.4692H40.7427L38.0661 28.8701V33.4692H36.2454V26.0781H38.0661L40.7375 30.6772V26.0781H42.5531V33.4692Z" fill="#516389"/>
<path d="M50.5239 29.9259C50.5239 30.6468 50.3873 31.2847 50.1141 31.8396C49.8409 32.3947 49.4519 32.8228 48.9469 33.124C48.4455 33.4218 47.8732 33.5707 47.23 33.5707C46.5868 33.5707 46.0162 33.4268 45.5182 33.1392C45.0202 32.8481 44.6311 32.4336 44.351 31.8955C44.0744 31.3574 43.9291 30.7398 43.9153 30.0427V29.6264C43.9153 28.9022 44.0502 28.2643 44.3199 27.7126C44.5931 27.1577 44.9821 26.7296 45.4871 26.4284C45.9954 26.1272 46.5729 25.9766 47.2196 25.9766C47.8594 25.9766 48.43 26.1255 48.9314 26.4233C49.4328 26.7211 49.8219 27.1458 50.0985 27.6974C50.3786 28.2457 50.5204 28.8751 50.5239 29.5858V29.9259ZM48.672 29.6163C48.672 28.8819 48.5458 28.3252 48.2933 27.9462C48.0443 27.5637 47.6865 27.3726 47.2196 27.3726C46.3066 27.3726 45.8242 28.0426 45.7723 29.3827L45.7672 29.9259C45.7672 30.6501 45.8899 31.2068 46.1355 31.596C46.381 31.9852 46.7458 32.1798 47.23 32.1798C47.6899 32.1798 48.0443 31.9885 48.2933 31.6062C48.5423 31.2237 48.6685 30.6738 48.672 29.9564V29.6163Z" fill="#516389"/>
<path d="M55.784 31.5046C55.784 31.244 55.689 31.041 55.499 30.8955C55.3121 30.7499 54.9816 30.5994 54.5082 30.4437C54.0342 30.288 53.6467 30.1374 53.3461 29.9919C52.3674 29.5215 51.8783 28.8751 51.8783 28.0528C51.8783 27.6433 51.999 27.2829 52.2411 26.9715C52.4866 26.6568 52.8327 26.4131 53.2789 26.2406C53.725 26.0646 54.2262 25.9766 54.783 25.9766C55.3257 25.9766 55.8118 26.0713 56.2407 26.2608C56.6727 26.4503 57.0082 26.7211 57.2467 27.073C57.4857 27.4216 57.6049 27.821 57.6049 28.2711H55.7895C55.7895 27.9699 55.694 27.7363 55.5041 27.5705C55.3171 27.4047 55.063 27.3218 54.7416 27.3218C54.4162 27.3218 54.1585 27.3929 53.9686 27.535C53.7816 27.6737 53.6886 27.8514 53.6886 28.068C53.6886 28.2575 53.7922 28.4301 53.9999 28.5858C54.207 28.7381 54.5718 28.8971 55.0943 29.063C55.6162 29.2254 56.0452 29.4013 56.3807 29.5909C57.1967 30.0511 57.6049 30.6857 57.6049 31.4945C57.6049 32.1408 57.3558 32.6485 56.8577 33.0174C56.36 33.3862 55.6769 33.5707 54.8088 33.5707C54.1969 33.5707 53.6417 33.4641 53.144 33.2508C52.6493 33.0343 52.2759 32.7399 52.0233 32.3676C51.7742 31.9919 51.6499 31.5605 51.6499 31.0732H53.4759C53.4759 31.4691 53.5795 31.7618 53.7872 31.9513C53.9979 32.1374 54.3384 32.2305 54.8088 32.2305C55.1099 32.2305 55.3464 32.1679 55.5197 32.0427C55.6961 31.9141 55.784 31.7347 55.784 31.5046Z" fill="#516389"/>
<path d="M63.8549 32.0985H67.0244V33.4692H62.0344V26.0781H63.8549V32.0985Z" fill="#516389"/>
<path d="M70.1567 33.4692H68.3413V26.0781H70.1567V33.4692Z" fill="#516389"/>
<path d="M75.7428 31.5046C75.7428 31.244 75.6478 31.041 75.4579 30.8955C75.2709 30.7499 74.9405 30.5994 74.467 30.4437C73.9931 30.288 73.6061 30.1374 73.3049 29.9919C72.3262 29.5215 71.8371 28.8751 71.8371 28.0528C71.8371 27.6433 71.9579 27.2829 72.1999 26.9715C72.4455 26.6568 72.7916 26.4131 73.2377 26.2406C73.6839 26.0646 74.1851 25.9766 74.7419 25.9766C75.2846 25.9766 75.7706 26.0713 76.1996 26.2608C76.6316 26.4503 76.9671 26.7211 77.2056 27.073C77.4446 27.4216 77.5638 27.821 77.5638 28.2711H75.7484C75.7484 27.9699 75.6529 27.7363 75.4629 27.5705C75.276 27.4047 75.0218 27.3218 74.7005 27.3218C74.3751 27.3218 74.1179 27.3929 73.9274 27.535C73.741 27.6737 73.6475 27.8514 73.6475 28.068C73.6475 28.2575 73.7511 28.4301 73.9587 28.5858C74.1659 28.7381 74.5307 28.8971 75.0531 29.063C75.5751 29.2254 76.0041 29.4013 76.3395 29.5909C77.1555 30.0511 77.5638 30.6857 77.5638 31.4945C77.5638 32.1408 77.3147 32.6485 76.817 33.0174C76.3188 33.3862 75.6357 33.5707 74.7677 33.5707C74.1558 33.5707 73.6005 33.4641 73.1028 33.2508C72.6082 33.0343 72.2348 32.7399 71.9822 32.3676C71.7331 31.9919 71.6088 31.5605 71.6088 31.0732H73.4348C73.4348 31.4691 73.5384 31.7618 73.746 31.9513C73.9567 32.1374 74.2973 32.2305 74.7677 32.2305C75.0688 32.2305 75.3058 32.1679 75.4786 32.0427C75.6549 31.9141 75.7428 31.7347 75.7428 31.5046Z" fill="#516389"/>
<path d="M84.8512 27.4538H82.5846V33.4692H80.7636V27.4538H78.5385V26.0781H84.8512V27.4538Z" fill="#516389"/>
<path d="M89.862 31.5046C89.862 31.244 89.767 31.041 89.5765 30.8955C89.3901 30.7499 89.0596 30.5994 88.5857 30.4437C88.1122 30.288 87.7247 30.1374 87.4241 29.9919C86.4454 29.5215 85.9558 28.8751 85.9558 28.0528C85.9558 27.6433 86.077 27.2829 86.3191 26.9715C86.5646 26.6568 86.9102 26.4131 87.3564 26.2406C87.8025 26.0646 88.3042 25.9766 88.861 25.9766C89.4037 25.9766 89.8898 26.0713 90.3182 26.2608C90.7507 26.4503 91.0862 26.7211 91.3247 27.073C91.5632 27.4216 91.6829 27.821 91.6829 28.2711H89.867C89.867 27.9699 89.772 27.7363 89.5821 27.5705C89.3951 27.4047 89.141 27.3218 88.8191 27.3218C88.4942 27.3218 88.2365 27.3929 88.0466 27.535C87.8596 27.6737 87.7661 27.8514 87.7661 28.068C87.7661 28.2575 87.8702 28.4301 88.0774 28.5858C88.285 28.7381 88.6498 28.8971 89.1723 29.063C89.6942 29.2254 90.1232 29.4013 90.4587 29.5909C91.2747 30.0511 91.6829 30.6857 91.6829 31.4945C91.6829 32.1408 91.4338 32.6485 90.9357 33.0174C90.438 33.3862 89.7549 33.5707 88.8868 33.5707C88.2744 33.5707 87.7197 33.4641 87.2215 33.2508C86.7273 33.0343 86.3534 32.7399 86.1013 32.3676C85.8522 31.9919 85.7279 31.5605 85.7279 31.0732H87.5534C87.5534 31.4691 87.6575 31.7618 87.8647 31.9513C88.0759 32.1374 88.4164 32.2305 88.8868 32.2305C89.1874 32.2305 89.4244 32.1679 89.5972 32.0427C89.7741 31.9141 89.862 31.7347 89.862 31.5046Z" fill="#516389"/>
<path d="M42.0696 15.4414L43.2638 21.5207H51.7313L52.8171 15.4414L49.5602 19.3496L47.4976 15.4414L45.3264 19.3496L42.0696 15.4414Z" fill="#516389"/>
<path d="M51.7324 22.6064H43.2649C43.2649 22.9683 43.3951 23.6921 43.9162 23.6921H51.0812C51.6021 23.6921 51.7324 22.9683 51.7324 22.6064Z" fill="#516389"/>
</svg>
