<svg width="102" height="49" viewBox="0 0 102 49" fill="none" xmlns="http://www.w3.org/2000/svg">
<g clip-path="url(#clip0_1_9534)">
<path fill-rule="evenodd" clip-rule="evenodd" d="M101.055 18.5H1.05481V30.5H101.055V18.5ZM13.7468 23.148C14.0268 22.6398 14.428 22.3089 15.0362 22.3118C15.6102 22.3146 16.039 22.6412 16.2755 23.0679L18.2943 26.5899H17.3444L15.5 23.5954C15.3389 23.3472 15.2695 23.2435 15.0362 23.2344C14.7832 23.2245 14.7148 23.3352 14.5409 23.6165L14.5214 23.6481L12.7131 26.5899H11.7816L13.7468 23.148ZM6.30577 25.1275C6.30577 25.2255 6.38181 25.401 6.50191 25.5317C6.66803 25.7125 6.97039 25.7988 7.08268 25.7988H11.0488V26.5899H7.08268C6.74079 26.5899 6.22055 26.4651 5.86442 26.1098C5.58759 25.8337 5.42327 25.5527 5.42327 25.2255V23.7903C5.42327 23.4632 5.63176 23.1885 5.92357 22.9186C6.27722 22.5914 6.82617 22.4468 7.08268 22.4468H11.0488V23.2452H7.08268C6.97039 23.2452 6.75224 23.3648 6.59758 23.5127C6.42957 23.6733 6.30577 23.9158 6.30577 24.0232V25.1275ZM26.1935 26.5899H27.0202V22.4345H26.1935V26.5899ZM29.8063 23.2755C29.8063 23.2755 29.7666 23.2513 29.3737 23.2562V26.5899H28.5048V22.4345H29.3315C29.8129 22.4428 30.3587 22.54 30.801 23.0319L32.724 25.319C32.8617 25.5082 32.9561 25.5941 33.1133 25.7089C33.2371 25.7992 33.364 25.8571 33.6345 25.8522V22.4345H34.5383V26.5899H33.5891C33.1684 26.5899 32.9587 26.4929 32.724 26.3805C32.4943 26.2633 32.2597 26.0599 32.0046 25.7768L30.1239 23.4456C30.0275 23.328 29.8063 23.2755 29.8063 23.2755ZM42.7846 25.0365H45.2083V24.2381H42.7846V25.0365ZM68.797 25.0965C68.797 25.3503 69.082 25.7603 69.2883 25.7603L72.4175 25.7989C72.8496 25.7989 73.0618 25.3722 73.0618 25.0965V22.4802H73.896V25.4032C73.896 25.8833 73.0998 26.5899 72.656 26.5899H69.2102C68.5585 26.5899 67.9702 25.8571 67.9702 25.0965V22.4802H68.797V25.0965ZM82.7458 25.7989H81.9189V26.59H82.7458V25.7989ZM61.7968 23.2755C61.7968 23.2755 61.7572 23.2513 61.3641 23.2562V26.5899H60.4955V22.4345H61.3219C61.8036 22.4428 62.3493 22.54 62.7915 23.0319L64.7144 25.319C64.8521 25.5082 64.9465 25.5941 65.1038 25.7089C65.2278 25.7992 65.3544 25.8571 65.6251 25.8522V22.4345H66.5291V26.5899H65.5798C65.1592 26.5899 64.9492 26.4929 64.7144 26.3805C64.4848 26.2633 64.2505 26.0599 63.9951 25.7768L62.1145 23.4456C62.0179 23.328 61.7968 23.2755 61.7968 23.2755ZM23.2742 26.5899C24.4606 26.5899 24.929 26.0838 24.8901 25.2977C24.8527 24.5407 24.1334 24.1251 23.2742 24.1251H20.5208C20.1569 24.1251 19.9804 24.0317 19.9804 23.6798C19.9804 23.332 20.3121 23.2847 21.0204 23.2847H24.785V22.4801H20.4481C19.6508 22.4801 19.0495 23.0285 19.0495 23.6798C19.0495 24.3761 19.658 24.9473 20.5208 24.9077H23.2742C23.6759 24.9077 23.9771 25.0913 23.9771 25.3753C23.9771 25.6858 23.6889 25.7989 23.2742 25.7989H19.1704V26.5899H23.2742ZM41.8867 24.5018C41.9204 25.8909 41.1571 26.6882 39.827 26.6882H37.7786C36.4959 26.6882 35.7807 25.8209 35.7807 24.5018C35.7807 23.1828 36.5228 22.4488 37.7786 22.4488H39.827C41.1133 22.4488 41.853 23.1128 41.8867 24.5018ZM40.9662 24.5018C40.9662 23.3598 40.3051 23.2685 39.5398 23.2685H37.9687C37.1491 23.2685 36.7086 23.5048 36.7086 24.5018C36.7086 25.6045 37.1214 25.8208 37.9687 25.8208H39.5398C40.7867 25.8208 40.9662 25.3843 40.9662 24.5018ZM57.2144 26.6882C58.5447 26.6882 59.3077 25.8909 59.2745 24.5018C59.2407 23.1128 58.5009 22.4488 57.2144 22.4488H55.1659C53.9106 22.4488 53.1681 23.1828 53.1681 24.5018C53.1681 25.8209 53.8837 26.6882 55.1659 26.6882H57.2144ZM56.9273 23.2685C57.6925 23.2685 58.3537 23.3598 58.3537 24.5018C58.3537 25.3843 58.1742 25.8208 56.9273 25.8208H55.3564C54.509 25.8208 54.0963 25.6045 54.0963 24.5018C54.0963 23.5048 54.5364 23.2685 55.3564 23.2685H56.9273ZM80.9269 25.2977C80.9659 26.0838 80.4974 26.5899 79.3111 26.5899H75.2073V25.7989H79.3111C79.7253 25.7989 80.014 25.6858 80.014 25.3753C80.014 25.0913 79.7127 24.9077 79.3111 24.9077H76.5577C75.6949 24.9473 75.0865 24.3761 75.0865 23.6798C75.0865 23.0285 75.6875 22.4802 76.4848 22.4802H80.8219V23.2847H77.0574C76.3487 23.2847 76.0173 23.332 76.0173 23.6798C76.0173 24.0317 76.1936 24.1252 76.5577 24.1252H79.3111C80.1702 24.1252 80.8894 24.5407 80.9269 25.2977ZM84.894 25.5318C84.7737 25.4012 84.6977 25.2257 84.6977 25.1277V24.0234C84.6977 23.9159 84.8217 23.6734 84.9895 23.5128C85.1441 23.3649 85.3621 23.2453 85.4744 23.2453H89.4405V22.4469H85.4744C85.218 22.4469 84.6692 22.5915 84.3157 22.9187C84.0238 23.1887 83.8154 23.4633 83.8154 23.7905V25.2257C83.8154 25.5529 83.9795 25.8338 84.2566 26.11C84.6122 26.4653 85.1325 26.59 85.4744 26.59H89.4405V25.7989H85.4744C85.3621 25.7989 85.0597 25.7127 84.894 25.5318ZM92.1386 23.1481C92.4188 22.64 92.8198 22.309 93.4282 22.312C94.0023 22.3148 94.4308 22.6414 94.6672 23.068L96.6861 26.59H95.7363L93.892 23.5956C93.7306 23.3473 93.6614 23.2436 93.4282 23.2345C93.1749 23.2246 93.1069 23.3353 92.9327 23.6166L92.9132 23.6482L91.1048 26.59H90.1735L92.1386 23.1481ZM51.9661 25.3584C51.9661 25.927 51.4964 26.6882 50.5447 26.6882H46.3158V24.1154H47.1502C47.6299 24.1154 48.3468 24.1179 49.3012 24.1228H50.681C50.9559 24.1228 51.0373 23.8797 51.0373 23.653C51.0373 23.4645 50.9048 23.2722 50.681 23.2722H49.3012H47.1502H46.3158V22.4738H50.681C51.2975 22.4738 51.956 23.0081 51.9661 23.653C51.9661 23.9752 51.8304 24.2592 51.5998 24.5018C51.8088 24.7265 51.9661 24.912 51.9661 25.3584ZM50.681 24.912H49.3012H47.1502V25.8898C47.6299 25.8898 48.3468 25.8922 49.3012 25.8971H50.681C50.8773 25.8971 51.0373 25.6427 51.0373 25.3584C51.0373 25.1528 50.9007 24.912 50.681 24.912Z" fill="#516389"/>
</g>
<defs>
<clipPath id="clip0_1_9534">
<rect width="101.053" height="48" fill="white" transform="translate(0.46106 0.5)"/>
</clipPath>
</defs>
</svg>
