<svg width="101" height="49" viewBox="0 0 101 49" fill="none" xmlns="http://www.w3.org/2000/svg">
<path d="M21.1542 27.7627C21.0382 27.5886 20.9222 27.4724 20.7481 27.5886C19.9711 28.0298 19.0885 28.2506 18.1953 28.2273C16.2219 28.2273 14.8886 26.7758 14.8886 24.5697C14.8886 22.3635 16.2219 20.912 18.1953 20.912C19.0885 20.8888 19.9711 21.1096 20.7481 21.5507C20.7848 21.5743 20.8267 21.5885 20.8702 21.5922C20.9136 21.5958 20.9573 21.5887 20.9974 21.5715C21.0375 21.5543 21.0728 21.5276 21.1001 21.4936C21.1274 21.4596 21.146 21.4194 21.1542 21.3766L22.6046 18.3C22.6628 18.1259 22.6046 18.0096 22.4305 17.8936C21.0285 17.0533 19.4237 16.6115 17.7891 16.616C13.2054 16.5584 10.1304 19.7515 10.1304 24.5702C10.1304 29.3889 13.2054 32.5817 17.7891 32.5817C19.4238 32.5864 21.0287 32.1447 22.4308 31.3044C22.6049 31.1884 22.7209 31.0721 22.6049 30.898L21.1542 27.7627Z" fill="#516389"/>
<path d="M32.1295 26.4276H29.7508L30.9692 22.1894L32.1295 26.4276ZM33.6962 17.1966C33.6377 17.1108 33.56 17.0399 33.4692 16.9895C33.3785 16.9391 33.2772 16.9106 33.1735 16.9062H28.6484C28.5448 16.9107 28.4436 16.9392 28.353 16.9896C28.2623 17.0401 28.1847 17.1109 28.1263 17.1966L23.0785 31.9434C23.062 31.9734 23.0536 32.0072 23.0543 32.0415C23.0549 32.0758 23.0645 32.1092 23.0822 32.1386C23.0998 32.168 23.1248 32.1923 23.1547 32.209C23.1846 32.2256 23.2184 32.2342 23.2526 32.2338H27.662C27.7588 32.2337 27.8537 32.2065 27.9358 32.1551C28.0178 32.1038 28.0839 32.0304 28.1263 31.9434L28.7644 29.621H32.942L33.5802 31.9434C33.6284 32.0256 33.6958 32.095 33.7767 32.1455C33.8575 32.1961 33.9494 32.2264 34.0444 32.2338H38.4535C38.6277 32.2338 38.7437 32.0596 38.6277 31.9434L33.6962 17.1966Z" fill="#516389"/>
<path d="M39.4511 30.7233C39.4268 30.8007 39.431 30.8842 39.463 30.9587C39.4949 31.0333 39.5524 31.0939 39.6252 31.1297C40.7276 32.0007 42.7001 32.5812 44.557 32.5812C47.9802 32.5812 50.2429 30.6079 50.2429 27.6465C50.2429 22.7699 43.9761 22.8278 43.9761 21.5507C43.9761 21.0862 44.4404 20.7379 45.1364 20.7379C45.8906 20.7961 47.1671 21.2603 48.2695 21.899C48.4436 22.015 48.6175 21.9571 48.6756 21.7249L50.0687 18.5896C50.0927 18.5124 50.0883 18.4292 50.0564 18.3549C50.0245 18.2806 49.9671 18.2201 49.8946 18.1843C48.502 17.2542 46.4714 16.5576 44.9036 16.5576C41.5396 16.5576 39.2769 18.531 39.2769 21.4923C39.2769 26.3689 45.5436 26.2529 45.5436 27.5881C45.5436 28.1105 45.0794 28.459 44.3834 28.459C43.296 28.332 42.248 27.9758 41.3084 27.414C41.1343 27.298 40.9604 27.3558 40.9023 27.5881L39.4511 30.7233Z" fill="#516389"/>
<path d="M51.6405 16.9061C51.556 16.8996 51.4725 16.9263 51.4075 16.9805C51.3425 17.0347 51.3015 17.1121 51.2925 17.1962V31.8848C51.2975 31.9602 51.3295 32.0313 51.383 32.0847C51.436 32.1381 51.507 32.1703 51.5825 32.1752H55.528C55.6095 32.1712 55.688 32.1407 55.7505 32.0883C55.8135 32.0359 55.8575 31.9645 55.876 31.8848V17.1962C55.878 17.15 55.87 17.1038 55.8535 17.0607C55.8365 17.0176 55.811 16.9785 55.7785 16.9458C55.7455 16.913 55.7065 16.8874 55.6635 16.8706C55.6205 16.8538 55.574 16.846 55.528 16.8479H51.6405V16.9061Z" fill="#516389"/>
<path d="M66.2707 16.9061C66.1862 16.9149 66.1092 16.9562 66.0547 17.0213C66.0007 17.0863 65.9742 17.1699 65.9807 17.2543V24.105L62.0932 17.1962C62.0382 17.1071 61.9617 17.0336 61.8702 16.9828C61.7787 16.9319 61.6757 16.9055 61.5712 16.9061H57.7417C57.6577 16.9149 57.5802 16.9562 57.5262 17.0213C57.4717 17.0863 57.4452 17.1699 57.4517 17.2543V31.9427C57.4492 31.9814 57.4552 32.0202 57.4687 32.0565C57.4827 32.0928 57.5037 32.1258 57.5312 32.1532C57.5587 32.1807 57.5917 32.202 57.6277 32.2157C57.6642 32.2295 57.7032 32.2354 57.7417 32.2331H61.6872C61.7687 32.2291 61.8467 32.1986 61.9097 32.1462C61.9727 32.0938 62.0167 32.0223 62.0352 31.9427V25.0346L65.9222 31.9435C65.9707 32.0257 66.0382 32.0951 66.1187 32.1456C66.1997 32.1962 66.2917 32.2265 66.3867 32.2339H70.2162C70.2977 32.2299 70.3757 32.1994 70.4387 32.147C70.5012 32.0946 70.5452 32.0231 70.5642 31.9435V31.5363C68.7652 29.8525 67.7787 27.4141 67.7787 24.5114C67.7787 21.6088 68.8232 19.1701 70.5642 17.4866V17.1962C70.5657 17.15 70.5582 17.1038 70.5412 17.0607C70.5247 17.0176 70.4992 16.9785 70.4662 16.9458C70.4337 16.913 70.3947 16.8874 70.3512 16.8706C70.3082 16.8538 70.2622 16.846 70.2162 16.8479H66.2707V16.9061Z" fill="#516389"/>
<path d="M77.019 32.5233C72.2615 32.5233 69.1285 29.3302 69.1285 24.5115C69.1285 19.6928 72.2615 16.5 77.019 16.5C81.1385 16.5 84.0975 18.9384 84.736 22.7699C84.635 22.7547 84.5325 22.7754 84.4455 22.8281C84.3565 22.7811 84.256 22.7609 84.1555 22.7699H83.459V22.7118C83.4555 22.5128 83.375 22.3229 83.2345 22.1822C83.094 22.0414 82.904 21.9608 82.705 21.9571H81.893C81.694 21.9608 81.504 22.0414 81.3635 22.1822C81.2225 22.3229 81.142 22.5128 81.1385 22.7118V22.8278C80.8935 22.7565 80.64 22.7175 80.3845 22.7118C80.184 22.6937 79.9825 22.7341 79.8045 22.8278C79.588 22.285 79.211 21.8214 78.7235 21.4996C78.236 21.1778 77.6615 21.0132 77.0775 21.028C75.2785 21.028 74.0025 22.4795 74.0025 24.5694C74.0025 26.6593 75.221 28.1108 77.0775 28.1108C77.566 28.1271 78.05 28.0117 78.4785 27.7768C78.9075 27.542 79.265 27.1961 79.514 26.7756H79.8045C79.9235 26.7847 80.0425 26.7647 80.1525 26.7174C80.262 26.7647 80.3815 26.7847 80.5005 26.7756H81.3125C81.413 26.7907 81.5155 26.7701 81.6025 26.7174C81.692 26.7643 81.7925 26.7845 81.893 26.7756H82.705C82.8055 26.7907 82.9085 26.7701 82.995 26.7174C83.0845 26.7643 83.185 26.7845 83.2855 26.7756H84.0975C84.198 26.7907 84.301 26.7701 84.388 26.7174C84.456 26.7635 84.538 26.7842 84.62 26.7756C83.8655 30.3169 80.9645 32.523 77.0195 32.523" fill="url(#paint0_linear_1_9566)"/>
<path fill-rule="evenodd" clip-rule="evenodd" d="M88.5641 24.5699C88.5576 24.5227 88.5616 24.4745 88.5771 24.4292C88.5921 24.3839 88.6176 24.3428 88.6511 24.309C88.6851 24.2752 88.7261 24.2498 88.7716 24.2347C88.8166 24.2196 88.8651 24.2152 88.9121 24.2219C89.0861 24.2219 89.2021 24.3379 89.2021 24.5699H88.5641ZM89.7246 25.2662C89.7246 25.2585 89.7231 25.2509 89.7206 25.2437C89.7176 25.2366 89.7131 25.2301 89.7076 25.2247C89.7026 25.2193 89.6961 25.215 89.6886 25.2121C89.6816 25.2093 89.6741 25.2079 89.6661 25.2081C89.4511 25.32 89.2126 25.3796 88.9701 25.3822C88.5641 25.3822 88.5641 25.0921 88.5641 25.0921H90.0726C90.1306 25.0921 90.1306 25.0921 90.1306 25.0339V24.8019C90.1306 23.9315 89.6661 23.4686 88.9121 23.4686C88.7261 23.4563 88.5396 23.484 88.3651 23.5496C88.1906 23.6153 88.0321 23.7174 87.9001 23.8493C87.7686 23.9811 87.6661 24.1396 87.6006 24.3141C87.5351 24.4886 87.5076 24.6751 87.5196 24.8611C87.5196 25.6734 88.1001 26.1945 88.9121 26.1945C89.2611 26.1875 89.6016 26.0873 89.8991 25.9043C89.9066 25.9045 89.9141 25.9032 89.9211 25.9003C89.9286 25.8974 89.9351 25.8932 89.9406 25.8877C89.9456 25.8823 89.9501 25.8758 89.9531 25.8687C89.9556 25.8615 89.9571 25.8539 89.9571 25.8462L89.7246 25.2662ZM85.3731 23.5257C85.3731 23.518 85.3716 23.5103 85.3691 23.5032C85.3661 23.4961 85.3616 23.4896 85.3561 23.4842C85.3511 23.4787 85.3446 23.4744 85.3371 23.4716C85.3301 23.4687 85.3226 23.4673 85.3146 23.4675H84.7926C84.7346 23.4675 84.7346 23.4675 84.7346 23.5257V25.9619C84.7346 25.9696 84.7356 25.9773 84.7386 25.9844C84.7416 25.9915 84.7456 25.998 84.7511 26.0035C84.7566 26.0089 84.7631 26.0132 84.7701 26.016C84.7776 26.0189 84.7851 26.0203 84.7926 26.0201H85.6041C85.6116 26.0203 85.6196 26.0189 85.6266 26.016C85.6336 26.0132 85.6401 26.0089 85.6456 26.0035C85.6511 25.998 85.6556 25.9915 85.6581 25.9844C85.6611 25.9773 85.6626 25.9696 85.6621 25.9619V24.5699C85.6621 24.5699 85.7206 24.2798 85.9526 24.2798C86.1266 24.2798 86.1846 24.3958 86.1846 24.5699V25.9619C86.1846 26.0201 86.1846 26.0201 86.2426 26.0201H87.0546C87.0626 26.0203 87.0701 26.0189 87.0771 26.016C87.0846 26.0132 87.0911 26.0089 87.0961 26.0035C87.1016 25.998 87.1061 25.9915 87.1091 25.9844C87.1116 25.9773 87.1131 25.9696 87.1131 25.9619V24.3958C87.1131 23.6417 86.7651 23.3515 86.1261 23.3515C85.8471 23.3494 85.5776 23.453 85.3721 23.6417L85.3731 23.5257ZM83.2841 23.5257C83.2766 23.5255 83.2686 23.5269 83.2616 23.5297C83.2546 23.5326 83.2481 23.5369 83.2426 23.5423C83.2371 23.5477 83.2331 23.5542 83.2301 23.5613C83.2271 23.5685 83.2256 23.5761 83.2261 23.5838V26.0206C83.2256 26.0283 83.2271 26.0359 83.2301 26.0431C83.2331 26.0502 83.2371 26.0567 83.2426 26.0621C83.2481 26.0676 83.2546 26.0718 83.2616 26.0747C83.2686 26.0776 83.2766 26.0789 83.2841 26.0787H84.0966C84.1041 26.0789 84.1116 26.0776 84.1191 26.0747C84.1261 26.0718 84.1326 26.0676 84.1381 26.0621C84.1436 26.0567 84.1476 26.0502 84.1506 26.0431C84.1536 26.0359 84.1546 26.0283 84.1546 26.0206V23.5835C84.1546 23.5758 84.1536 23.5682 84.1506 23.5611C84.1476 23.5539 84.1436 23.5475 84.1381 23.542C84.1326 23.5366 84.1261 23.5323 84.1191 23.5295C84.1116 23.5266 84.1041 23.5252 84.0966 23.5254L83.2841 23.5257ZM81.8341 22.6553C81.8266 22.6551 81.8191 22.6565 81.8116 22.6593C81.8046 22.6622 81.7981 22.6664 81.7926 22.6719C81.7871 22.6773 81.7831 22.6838 81.7801 22.6909C81.7771 22.6981 81.7761 22.7057 81.7761 22.7134V25.9619C81.7761 25.9696 81.7771 25.9773 81.7801 25.9844C81.7831 25.9915 81.7871 25.998 81.7926 26.0035C81.7981 26.0089 81.8046 26.0132 81.8116 26.016C81.8191 26.0189 81.8266 26.0203 81.8341 26.0201H82.6466C82.6541 26.0203 82.6621 26.0189 82.6691 26.016C82.6761 26.0132 82.6826 26.0089 82.6881 26.0035C82.6936 25.998 82.6976 25.9915 82.7006 25.9844C82.7036 25.9773 82.7051 25.9696 82.7046 25.9619V22.7134C82.7051 22.7057 82.7036 22.6981 82.7006 22.6909C82.6976 22.6838 82.6936 22.6773 82.6881 22.6719C82.6826 22.6664 82.6761 22.6622 82.6691 22.6593C82.6621 22.6565 82.6541 22.6551 82.6466 22.6553H81.8341ZM79.5141 23.5257C79.5146 23.518 79.5131 23.5103 79.5101 23.5032C79.5071 23.4961 79.5031 23.4896 79.4976 23.4842C79.4921 23.4787 79.4856 23.4744 79.4786 23.4716C79.4716 23.4687 79.4636 23.4673 79.4561 23.4675H78.9341C78.8756 23.4675 78.8756 23.4675 78.8756 23.5257V25.9619C78.8756 25.9696 78.8771 25.9773 78.8801 25.9844C78.8826 25.9915 78.8871 25.998 78.8926 26.0035C78.8981 26.0089 78.9046 26.0132 78.9116 26.016C78.9186 26.0189 78.9261 26.0203 78.9341 26.0201H79.7461C79.7541 26.0203 79.7616 26.0189 79.7686 26.016C79.7761 26.0132 79.7821 26.0089 79.7876 26.0035C79.7931 25.998 79.7976 25.9915 79.8001 25.9844C79.8031 25.9773 79.8046 25.9696 79.8046 25.9619V24.5699C79.8046 24.5699 79.8626 24.2798 80.0946 24.2798C80.2686 24.2798 80.3266 24.3958 80.3266 24.5699V25.9619C80.3266 26.0201 80.3266 26.0201 80.3846 26.0201H81.1971C81.2046 26.0203 81.2121 26.0189 81.2196 26.016C81.2266 26.0132 81.2331 26.0089 81.2386 26.0035C81.2441 25.998 81.2481 25.9915 81.2511 25.9844C81.2541 25.9773 81.2551 25.9696 81.2551 25.9619V24.3958C81.2551 23.6417 80.9071 23.3515 80.2686 23.3515C79.9891 23.3492 79.7191 23.453 79.5136 23.6419L79.5141 23.5257ZM77.0776 24.2798C77.1431 24.2808 77.2081 24.2954 77.2676 24.3228C77.3276 24.3502 77.3806 24.3896 77.4246 24.4387C77.4681 24.4878 77.5011 24.5455 77.5211 24.608C77.5416 24.6705 77.5486 24.7366 77.5416 24.8019C77.5496 24.8676 77.5436 24.9341 77.5236 24.9972C77.5041 25.0603 77.4711 25.1184 77.4271 25.1679C77.3836 25.2173 77.3296 25.2569 77.2691 25.284C77.2091 25.3111 77.1436 25.3251 77.0776 25.3251C77.0116 25.3251 76.9461 25.3111 76.8861 25.284C76.8256 25.2569 76.7716 25.2173 76.7281 25.1679C76.6841 25.1184 76.6511 25.0603 76.6316 24.9972C76.6116 24.9341 76.6056 24.8676 76.6136 24.8019C76.6066 24.7367 76.6136 24.6707 76.6336 24.6083C76.6541 24.5458 76.6866 24.4882 76.7301 24.4391C76.7741 24.39 76.8271 24.3505 76.8866 24.3231C76.9466 24.2957 77.0111 24.2809 77.0766 24.2798H77.0776ZM77.0776 23.4094C76.8911 23.397 76.7046 23.4246 76.5301 23.4902C76.3556 23.5558 76.1971 23.6579 76.0651 23.7897C75.9331 23.9216 75.8311 24.0801 75.7651 24.2547C75.6996 24.4292 75.6716 24.6158 75.6841 24.8019C75.6841 25.6142 76.2646 26.1353 77.0766 26.1353C77.2626 26.1475 77.4491 26.1199 77.6236 26.0543C77.7981 25.9886 77.9566 25.8865 78.0886 25.7546C78.2201 25.6228 78.3226 25.4643 78.3881 25.2898C78.4536 25.1153 78.4816 24.9288 78.4691 24.7427C78.4701 24.5623 78.4346 24.3836 78.3641 24.2174C78.2936 24.0513 78.1901 23.9012 78.0596 23.7764C77.9296 23.6517 77.7751 23.5548 77.6061 23.4916C77.4371 23.4285 77.2571 23.4006 77.0766 23.4094H77.0776Z" fill="#516389"/>
<defs>
<linearGradient id="paint0_linear_1_9566" x1="83.8615" y1="32.5233" x2="68.7575" y2="18.4032" gradientUnits="userSpaceOnUse">
<stop stop-color="#F8A53F"/>
<stop offset="0.404" stop-color="#F7600A"/>
<stop offset="1" stop-color="#F75A05"/>
</linearGradient>
</defs>
</svg>
