<svg width="102" height="49" viewBox="0 0 102 49" fill="none" xmlns="http://www.w3.org/2000/svg">
<path fill-rule="evenodd" clip-rule="evenodd" d="M95.9467 11.2471H5.56848V37.7522H95.9467V11.2471ZM87.583 33.5676H90.1786V19.7169L87.583 20.6852V33.5676ZM68.4831 23.9965H71.8289L68.0299 28.1975L71.5707 33.5676L68.4831 33.647L66.2933 30.0702L65.3151 31.0657V33.5676H62.5801V19.7427H65.3151V27.5564L68.4831 23.9965ZM71.5707 33.5676V28.6165C71.5707 26.8681 73.5084 23.8108 77.1352 23.8108V26.405C75.095 26.405 74.5846 27.7386 74.3835 28.2651C74.3689 28.3029 74.3563 28.3365 74.3441 28.3652C74.2305 28.6442 74.1249 29.3439 74.1249 29.5912V33.5676H71.5707ZM38.6524 33.5676V24.541L41.2461 23.7014V33.5676H38.6524ZM27.297 33.5676V33.0293C27.2767 33.0743 27.2682 33.0421 27.2552 32.9926C27.2315 32.9027 27.1928 32.756 27.0417 32.9113C26.8135 33.1523 26.5094 33.371 26.1292 33.5676C25.865 33.6998 25.2561 33.6483 24.739 33.6045C24.5119 33.5853 24.3025 33.5676 24.1478 33.5676C23.4601 33.5676 22.7657 33.113 22.2173 32.7541C22.1593 32.7161 22.1029 32.6792 22.0484 32.6441C21.4781 32.27 21.0531 31.5763 20.7362 30.955C20.4194 30.3272 20.2114 29.5721 20.2114 28.8113C20.2114 28.0504 20.4194 27.1406 20.7362 26.5192C21.0531 25.8915 21.7011 25.286 22.2715 24.9119C22.8418 24.5378 24.1484 24.0229 24.9088 24.0229C25.0105 24.0229 25.1049 24.021 25.1944 24.0192C25.5346 24.0124 25.8032 24.007 26.1236 24.1124C26.2365 24.1495 26.3093 24.177 26.3755 24.2019C26.476 24.2398 26.5614 24.2719 26.7486 24.3235C26.8315 24.3464 26.9057 24.3592 26.9713 24.3705C27.127 24.3975 27.2345 24.416 27.297 24.541V23.8654H29.7792V33.5676H27.297ZM22.8226 28.8113C22.8309 30.0684 23.8559 31.1025 25.1121 31.0731C26.3395 31.0444 27.2888 30.0397 27.297 28.8113C27.3052 27.5743 26.348 26.5481 25.1121 26.5192C23.8476 26.4896 22.8142 27.5457 22.8226 28.8113ZM16.2368 31.1299C17.4356 31.1487 18.1528 30.1903 18.1528 30.1903L20.2114 31.5706C19.7734 32.2893 18.6526 33.7531 16.2368 33.7961C13.5083 33.8446 11.2942 31.5414 11.3368 28.8113C11.3787 26.1234 13.5502 23.9875 16.2368 23.9797C17.9751 23.9745 19.0964 24.6051 20.2114 25.9848L18.1528 27.4734C18.1528 27.4734 17.3934 26.5182 16.2368 26.5192C14.9657 26.5203 13.9317 27.5394 13.9244 28.8113C13.9171 30.0904 14.9585 31.1098 16.2368 31.1299ZM37.4572 23.8654H33.5036C31.89 23.8654 30.7766 25.7591 30.7766 26.943C30.7766 28.2806 31.5149 29.0249 31.8994 29.3135C33.1037 30.2172 34.768 30.0818 34.768 30.0818C34.768 30.0818 35.149 30.0818 35.149 30.5268C35.149 31.0192 34.768 31.0192 34.768 31.0192H30.736V33.5676H35.2719C36.3476 33.5676 37.7569 32.1606 37.7569 30.3789C37.7569 27.9936 35.3728 27.4216 33.9272 27.4216C33.9272 27.4216 33.4338 27.4098 33.4397 26.9471C33.4455 26.4844 33.9272 26.4844 33.9272 26.4844H37.4572V23.8654ZM51.3238 28.0885C51.3238 26.0606 49.1147 24.1402 47.0468 24.1402C45.88 24.1402 45.5456 24.4852 45.3083 24.73L45.2793 24.7597V23.9008H42.7128V33.5676H45.2793V28.3956C45.2793 27.4839 45.9844 26.7998 47.0591 26.7998C48.0278 26.7998 48.7367 27.5091 48.7367 28.2882V33.5676H51.3238V28.0885ZM81.6366 33.652C78.9698 33.6266 76.8321 31.4774 76.8189 28.809C76.8058 26.1274 78.9567 23.9442 81.6366 23.9187C84.3418 23.893 86.5599 26.1019 86.5467 28.809C86.5336 31.503 84.3292 33.6776 81.6366 33.652ZM81.6366 31.1842C82.9437 31.1942 84.0149 30.117 83.9972 28.809C83.979 27.5188 82.926 26.4886 81.6366 26.4984C80.3568 26.5082 79.3296 27.5287 79.3119 28.809C79.2937 30.1072 80.3391 31.1743 81.6366 31.1842ZM80.1976 22.5488H81.7826C82.5143 21.7254 83.9578 20.0813 83.8744 20.0917C83.791 20.1021 82.7138 20.096 82.1853 20.0917L80.1976 22.5488ZM52.0494 28.809C52.062 31.4774 54.1998 33.6266 56.8671 33.652C59.5591 33.6776 61.7641 31.503 61.7772 28.809C61.7904 26.1019 59.5723 23.893 56.8671 23.9187C54.1872 23.9442 52.0363 26.1274 52.0494 28.809ZM59.2272 28.809C59.2454 30.117 58.1742 31.1942 56.8671 31.1842C55.5696 31.1743 54.5242 30.1072 54.5419 28.809C54.5596 27.5287 55.5873 26.5082 56.8671 26.4984C58.1565 26.4886 59.2095 27.5188 59.2272 28.809ZM70.6032 17.5261C71.0387 17.5261 71.3919 17.1729 71.3919 16.7372C71.3919 16.3015 71.0387 15.9483 70.6032 15.9483C70.1676 15.9483 69.815 16.3015 69.815 16.7372C69.815 17.1729 70.1676 17.5261 70.6032 17.5261ZM70.6032 17.132C70.8209 17.132 70.9978 16.9552 70.9978 16.7372C70.9978 16.5192 70.8209 16.3424 70.6032 16.3424C70.3854 16.3424 70.2086 16.5192 70.2086 16.7372C70.2086 16.9552 70.3854 17.132 70.6032 17.132ZM75.4709 16.0791C75.4709 16.5632 75.0788 16.9557 74.5947 16.9557C74.1112 16.9557 73.7186 16.5632 73.7186 16.0791C73.7186 15.5949 74.1112 15.2024 74.5947 15.2024C75.0788 15.2024 75.4709 15.5949 75.4709 16.0791ZM74.9813 16.0791C74.9813 16.2927 74.8085 16.4659 74.5947 16.4659C74.3815 16.4659 74.2082 16.2927 74.2082 16.0791C74.2082 15.8654 74.3815 15.6923 74.5947 15.6923C74.8085 15.6923 74.9813 15.8654 74.9813 16.0791ZM68.1375 20.6267C68.0885 20.3413 68.0809 19.2364 68.1375 18.845C68.1941 18.4535 68.3558 17.996 68.6134 17.6564C68.8509 17.3429 69.8453 17.6238 70.2313 17.9374C70.6168 18.2509 71.5768 18.3406 71.7163 18.0056C71.736 17.9584 71.7562 17.8747 71.7819 17.769C71.9002 17.2799 72.1331 16.3204 72.9461 16.3204C73.6348 16.3204 73.8864 17.0539 74.0445 17.5157C74.1026 17.6855 74.1481 17.8185 74.1981 17.865C74.3977 18.05 74.7413 18.0056 74.8873 17.865C74.956 17.7986 75.0136 17.6362 75.0813 17.4453C75.2273 17.0339 75.4203 16.4902 75.8756 16.4902C76.542 16.4902 77.0185 17.7229 77.0185 18.1332C77.0185 18.1738 77.019 18.2289 77.02 18.2963V18.2977C77.0286 19.0714 77.0559 21.4492 76.3723 22.0754C75.7599 22.6362 72.2246 22.6413 70.2348 22.4108C68.3785 22.1956 68.2431 21.3095 68.1562 20.7434V20.7428C68.1496 20.7024 68.1441 20.6636 68.1375 20.6267ZM76.3162 21.1557C74.1814 20.3953 69.6851 20.7981 68.814 21.1962C68.8049 21.1905 68.7964 21.1854 68.7883 21.1805C68.662 21.1054 68.6049 21.0712 68.6049 19.7827C68.6049 18.2181 69.0192 17.8503 69.2668 17.9615C69.3461 17.9972 69.4406 18.0444 69.5467 18.0974C69.9802 18.3142 70.6082 18.6284 71.2191 18.6569C72.17 18.7011 72.4034 17.7492 72.4034 17.3731C72.4034 16.9971 73.4867 16.3777 73.5529 17.3731C73.6059 18.1695 74.1789 18.3781 74.4957 18.4002C74.6948 18.4002 75.291 18.2239 75.4886 17.531C75.7326 16.6756 76.2439 17.1061 76.4046 17.7492C76.5107 18.1739 76.4046 20.1972 76.3162 21.1557ZM69.2006 21.7173C70.1414 20.9938 74.7292 20.9938 75.9448 21.7173C75.7225 22.1804 69.719 22.3064 69.2006 21.7173ZM77.1342 15.7899C77.1342 15.8318 77.1256 15.8716 77.1094 15.9075C77.1372 15.8985 77.167 15.8937 77.1979 15.8937C77.3575 15.8937 77.4869 16.0231 77.4869 16.1828C77.4869 16.3424 77.3575 16.4719 77.1979 16.4719C77.1655 16.4719 77.1347 16.4666 77.1054 16.4568C77.1241 16.4949 77.1342 16.5377 77.1342 16.5829C77.1342 16.7425 77.0049 16.8719 76.8452 16.8719C76.686 16.8719 76.5567 16.7425 76.5567 16.5829C76.5567 16.5377 76.5668 16.4949 76.5855 16.4568C76.5562 16.4666 76.5254 16.4719 76.493 16.4719C76.3334 16.4719 76.204 16.3424 76.204 16.1828C76.204 16.0231 76.3334 15.8937 76.493 15.8937C76.5238 15.8937 76.5537 15.8985 76.5814 15.9075C76.5653 15.8716 76.5567 15.8318 76.5567 15.7899C76.5567 15.6303 76.686 15.5009 76.8452 15.5009C77.0049 15.5009 77.1342 15.6303 77.1342 15.7899ZM76.7532 16.3088C76.782 16.299 76.8134 16.2937 76.8452 16.2937C76.8775 16.2937 76.9089 16.299 76.9377 16.3088C76.9195 16.2707 76.9089 16.228 76.9089 16.1828C76.9089 16.1409 76.918 16.1012 76.9336 16.0653C76.9058 16.0743 76.876 16.0791 76.8452 16.0791C76.8144 16.0791 76.7851 16.0743 76.7573 16.0653C76.7729 16.1012 76.782 16.1409 76.782 16.1828C76.782 16.228 76.7714 16.2707 76.7532 16.3088Z" fill="#516389"/>
</svg>
