<svg width="199" height="49" viewBox="0 0 199 49" fill="none" xmlns="http://www.w3.org/2000/svg">
<path d="M76.7585 26.5C76.4326 26.5 76.1363 26.6301 75.8993 26.8577C75.6326 27.1504 75.4252 27.5406 75.3067 27.8984L75.2771 27.9634H75.0104L74.8623 26.6626H73.4104V34.5H75.1289V30.7276C75.1289 29.9472 75.2771 29.3618 75.5734 28.9715C75.8697 28.5813 76.3734 28.3862 76.9956 28.3862H77.4104V26.6301C77.203 26.565 76.9956 26.5325 76.7882 26.5325C76.7882 26.5 76.7882 26.5 76.7585 26.5Z" fill="#516389"/>
<path d="M78.0348 15.2627C77.7759 15.0085 77.4429 14.8107 76.962 14.6977C76.481 14.5847 76.0001 14.5 75.3712 14.5H73.4104V19.5H75.0012V18.0593H75.4082C76.0001 18.0593 76.518 18.0028 76.962 17.8616C77.4059 17.7203 77.7759 17.5508 78.0348 17.2684C78.2938 17.0141 78.4048 16.6751 78.4048 16.2514C78.4418 15.8559 78.2938 15.5169 78.0348 15.2627ZM76.444 16.9011C76.222 17.0141 75.8891 17.0706 75.4821 17.0706H75.0012V15.6864H75.5191C75.9261 15.6864 76.222 15.7429 76.444 15.8559C76.666 15.9689 76.777 16.1384 76.777 16.3644C76.814 16.6186 76.703 16.7881 76.444 16.9011Z" fill="#516389"/>
<path d="M68.5629 32.3354C68.0884 32.7012 67.4443 32.9146 66.6307 32.9146C64.5968 32.9146 63.546 31.8476 63.546 29.7134V29.2866C63.546 28.25 63.7833 27.4573 64.2918 26.9085C64.8002 26.3598 65.5799 26.0549 66.6307 26.0549C67.3765 26.0549 68.0206 26.2378 68.4951 26.6341C68.9358 27 69.1731 27.4878 69.207 28.128H71.3765C71.3765 27.4268 71.1731 26.7561 70.7324 26.1768C70.3257 25.628 69.7494 25.2012 69.0375 24.9268C68.2918 24.6524 67.5121 24.5 66.6985 24.5C66.6646 24.5 66.6307 24.5 66.5968 24.5C64.9697 24.5 63.6816 24.9268 62.7663 25.75C61.8511 26.5732 61.4104 27.8232 61.4104 29.5C61.4104 32.8537 63.1392 34.5 66.6307 34.5H66.7324C67.546 34.5 68.3257 34.3476 69.1053 34.0732C69.8172 33.8293 70.3935 33.372 70.8002 32.8232C71.207 32.2744 71.4104 31.6341 71.4104 30.872H69.3426C69.2748 31.4817 69.0375 31.9695 68.5629 32.3354Z" fill="#516389"/>
<path d="M130.41 18.4548H127.82V17.5508H130.214V16.5056H127.82V15.6864H130.41V14.5H126.41V19.5H130.41V18.4548Z" fill="#516389"/>
<path d="M156.276 19.387C156.545 19.3023 156.784 19.2175 156.933 19.0763C157.112 18.935 157.231 18.7938 157.291 18.596C157.351 18.3983 157.41 18.2288 157.41 18.0311C157.41 17.7203 157.321 17.4661 157.172 17.2401C157.022 17.0424 156.754 16.8729 156.425 16.7881C156.664 16.7034 156.843 16.5621 156.963 16.3927C157.082 16.2232 157.142 15.9972 157.142 15.7712C157.142 15.3757 156.992 15.065 156.664 14.839C156.336 14.613 155.828 14.5 155.142 14.5H153.41V19.5H155.261C155.679 19.5 156.007 19.4718 156.276 19.387ZM154.694 15.6864H155.142C155.321 15.6864 155.44 15.7147 155.56 15.7429C155.649 15.7712 155.739 15.8277 155.798 15.8842C155.858 15.9407 155.858 16.0537 155.858 16.1384C155.858 16.2514 155.828 16.3362 155.798 16.4209C155.769 16.5056 155.679 16.5621 155.56 16.5904C155.44 16.6186 155.321 16.6469 155.112 16.6469H154.664V15.6864H154.694ZM154.694 17.4943H155.291C155.56 17.4943 155.769 17.5508 155.918 17.6356C156.067 17.7203 156.127 17.8616 156.127 18.0311C156.127 18.1441 156.097 18.2288 156.037 18.3136C155.978 18.3983 155.888 18.4548 155.769 18.5113C155.649 18.5678 155.5 18.5678 155.291 18.5678H154.664V17.4943H154.694Z" fill="#516389"/>
<path d="M164.682 19.5H166.139V17.8333L168.41 14.5H166.817L165.461 16.7599L164.071 14.5H162.41L164.682 17.8616V19.5Z" fill="#516389"/>
<path d="M118.283 19.5L120.41 14.5H118.918L117.522 18.4548L116.029 14.5H114.41L116.633 19.5H118.283Z" fill="#516389"/>
<path d="M49.3274 15.6791L37.5094 8.78974C36.8404 8.40342 35.9804 8.40342 35.3114 8.78974L23.4934 15.6791C22.8245 16.0654 22.4104 16.8058 22.4104 17.6107V31.3893C22.4104 32.1942 22.8245 32.9024 23.4934 33.3209L35.3114 40.2103C35.9804 40.5966 36.8404 40.5966 37.5094 40.2103L49.3274 33.3209C49.9963 32.9346 50.4104 32.1942 50.4104 31.3893V17.6107C50.4104 16.8058 49.9963 16.0654 49.3274 15.6791ZM43.2432 28.4598V28.492C43.0202 29.329 42.5742 30.1016 41.9371 30.6811C41.8416 30.7777 41.746 30.8742 41.6504 30.9386C41.3 31.2606 40.8541 31.5181 40.2489 31.7757C40.1533 31.8078 40.1214 31.9044 40.1214 32.001V34.7052C40.1214 34.7374 40.0896 34.7696 40.0577 34.7696H37.6368C37.6049 34.7696 37.5731 34.7374 37.5731 34.7052V32.6771C37.5731 32.6127 37.5412 32.5483 37.5094 32.4839C37.4775 32.4517 37.4138 32.4195 37.3501 32.4195C37.3501 32.4195 37.3501 32.4195 37.3183 32.4195C37.159 32.4517 36.9679 32.4517 36.7767 32.4517H36.7449C36.3626 32.4517 35.9804 32.4195 35.5981 32.3873H35.5663C35.5026 32.3873 35.4707 32.4195 35.407 32.4517C35.3433 32.4839 35.3433 32.5483 35.3433 32.6127V34.7052C35.3433 34.7374 35.3114 34.7696 35.2796 34.7696H32.8586C32.8268 34.7696 32.7949 34.7374 32.7949 34.7052V31.7757C32.7949 31.6791 32.7312 31.5825 32.6675 31.5503C32.126 31.2606 31.6482 30.9064 31.2659 30.4879C31.0429 30.2626 30.8518 30.005 30.6607 29.7153L30.5014 29.4256L30.3421 29.1036C30.3421 29.1036 30.2147 28.8461 30.1829 28.7495C29.6732 27.5905 29.4502 26.1419 29.4502 24.4356C29.4502 22.9869 29.6413 21.7314 29.9917 20.7012V20.669C30.2784 19.832 30.7562 19.0594 31.3296 18.4155C31.7119 18.0292 32.1578 17.6751 32.6994 17.3531C32.7631 17.3209 32.8268 17.2243 32.8268 17.16V14.1338C32.8268 14.1016 32.8586 14.0694 32.8905 14.0694H35.3114C35.3433 14.0694 35.3751 14.1016 35.3751 14.1338V16.2907C35.3751 16.3551 35.407 16.4195 35.4388 16.4517C35.4707 16.4839 35.5344 16.5161 35.5981 16.5161H35.63C36.0122 16.4839 36.3945 16.4517 36.7767 16.4517C36.7767 16.4517 36.7767 16.4517 36.8086 16.4517C36.9997 16.4517 37.159 16.4517 37.3501 16.4839H37.382C37.4457 16.4839 37.4775 16.4517 37.5412 16.4195C37.6049 16.3873 37.6049 16.3229 37.6049 16.2586V14.166C37.6049 14.1338 37.6368 14.1016 37.6686 14.1016H40.0577C40.0896 14.1016 40.1214 14.1338 40.1214 14.166V16.9346C40.1214 17.0312 40.1851 17.1278 40.2807 17.1922C40.6948 17.3853 41.0771 17.6107 41.4275 17.9004C41.5867 18.0292 41.6186 18.2867 41.4593 18.4477L40.4081 19.4779L40.3763 19.5101C40.2807 19.6066 40.0577 19.7032 39.7073 19.4457C39.6755 19.4135 39.6755 19.4135 39.6436 19.4135C38.911 18.834 37.9553 18.5121 36.8086 18.5121C35.1522 18.5121 33.9098 18.995 33.1135 19.9608C32.8905 20.2183 32.6994 20.5402 32.5401 20.8622C32.349 21.2485 32.1897 21.6992 32.126 22.1177V22.1499C31.9986 22.7616 31.9349 23.4698 31.9349 24.2103V24.6932C31.9349 25.4658 31.9986 26.174 32.1578 26.8179C32.1578 26.8501 32.1578 26.8823 32.1578 26.8823C32.3171 27.6227 32.6357 28.3632 33.1135 28.9748C33.9098 29.9406 35.1522 30.4235 36.8086 30.4235C36.936 30.4235 37.0634 30.4235 37.159 30.4235H37.2545L37.7005 30.3913C38.5924 30.2626 39.2932 29.9406 39.8666 29.4899C40.1533 29.2324 40.3763 28.9427 40.5355 28.6207L40.5993 28.5241C40.6311 28.4276 40.663 28.3632 40.6948 28.2988C40.7267 28.2666 40.7267 28.2022 40.7585 28.1378C40.7904 28.0734 40.8222 28.0091 40.8222 27.9125V27.8803C40.8541 27.7837 40.8859 27.6227 40.9178 27.5262L40.9496 27.4296L40.9815 27.2686C40.9815 27.172 41.0134 27.0755 41.0134 26.9789V26.8823L43.5299 26.8501C43.4343 27.3974 43.3706 27.9447 43.2432 28.4598ZM44.7722 20.508L39.7392 25.4658C39.7073 25.5302 39.6755 25.5302 39.6755 25.5624L38.5287 26.7213C38.465 26.7857 38.3694 26.8179 38.2739 26.8179C38.1783 26.8179 38.0828 26.7857 38.019 26.7213L37.9872 26.6891C37.9553 26.6569 37.9235 26.6569 37.8916 26.6247L36.9679 25.659C36.936 25.6268 36.936 25.5946 36.9041 25.5624L34.8973 23.502C34.7699 23.3732 34.7699 23.1479 34.8973 23.0191L36.0441 21.8602C36.1078 21.7958 36.2033 21.7636 36.2671 21.7636C36.3626 21.7636 36.4582 21.7958 36.5219 21.8602L38.2102 23.5986C38.242 23.6308 38.242 23.6308 38.2739 23.6308C38.3057 23.6308 38.3376 23.6308 38.3376 23.5986L43.1157 18.8662C43.2113 18.7696 43.3387 18.7374 43.4661 18.7374C43.5936 18.7374 43.721 18.8018 43.8165 18.8984L44.7403 19.8642C44.8359 19.9608 44.8677 20.0895 44.8677 20.2183C44.8996 20.2827 44.8359 20.4115 44.7722 20.508Z" fill="#516389"/>
<path d="M51.9505 13.9757L37.8054 5.86221C36.9295 5.37926 35.8589 5.37926 34.9829 5.86221L20.8379 13.9757C19.9619 14.4909 19.4104 15.3924 19.4104 16.4227V32.6176C19.4104 33.6157 19.9619 34.5494 20.8379 35.0645L34.9829 43.1136C35.4047 43.3712 35.9238 43.5 36.4104 43.5C36.897 43.5 37.3837 43.3712 37.8379 43.1136L51.9829 35.0001C52.8589 34.485 53.4104 33.5835 53.4104 32.5532V16.3905C53.3455 15.3924 52.8264 14.4587 51.9505 13.9757ZM52.9562 32.5854C52.9562 33.4225 52.502 34.2274 51.7558 34.6459L37.6108 42.7595C36.8646 43.178 35.9562 43.178 35.21 42.7595L21.065 34.6781C20.3188 34.2596 19.8646 33.4547 19.8646 32.6176V16.3905C19.8646 15.5534 20.3188 14.7485 21.065 14.3299L35.1776 6.21637C35.5344 5.991 35.9562 5.89441 36.378 5.89441C36.7997 5.89441 37.2215 5.991 37.5783 6.21637L51.7234 14.3299C52.4696 14.7485 52.9238 15.5534 52.9238 16.3905V32.5854H52.9562Z" fill="#516389"/>
<path d="M64.2199 18.5678H66.5056L66.9183 19.5H68.4104L66.2199 14.5H64.6009L62.4104 19.5H63.8072L64.2199 18.5678ZM65.3628 15.8277L66.1247 17.5791H64.6326L65.3628 15.8277Z" fill="#516389"/>
<path d="M83.3284 30.3466C83.1645 30.8528 83.0006 31.5613 82.7711 32.5061L82.7383 32.6074H82.476L82.4432 32.5061C82.312 31.7638 82.1153 31.0552 81.8858 30.3466L80.3776 26.5H78.4104L81.5579 34.7331V34.7669C81.4596 35.1043 81.2629 35.4417 80.9678 35.7117C80.7055 35.9141 80.4104 36.0153 80.0825 36.0153C80.0497 36.0153 80.0497 36.0153 80.017 36.0153H79.1317V37.3313C79.5252 37.4663 79.9186 37.5 80.3448 37.5C80.3776 37.5 80.4432 37.5 80.476 37.5C80.5088 37.5 80.5415 37.5 80.5415 37.5C81.0334 37.5 81.5252 37.365 81.9514 37.0951C82.3776 36.8252 82.7055 36.4202 82.9678 36.0153C83.2629 35.4755 83.5252 34.9018 83.7219 34.2607L86.4104 26.5H84.5088L83.3284 30.3466Z" fill="#516389"/>
<path d="M129.544 32.8686C129.41 32.7431 129.344 32.5549 129.344 32.398V28.9471C129.344 28.1627 129.077 27.5667 128.544 27.1275C128.01 26.7196 127.177 26.5 126.077 26.5C125.077 26.5 124.277 26.6882 123.677 27.0961C123.077 27.4725 122.81 27.9431 122.81 28.5706C122.81 28.6333 122.81 28.7275 122.81 28.7902H124.677V28.6647C124.71 28.4137 124.844 28.1941 125.044 28.1C125.277 27.9431 125.644 27.8804 126.144 27.8804C126.644 27.8804 126.977 28.0059 127.144 28.2255C127.344 28.5078 127.444 28.7902 127.41 29.1039V29.7627H127.31C125.71 29.7627 124.51 29.951 123.644 30.3902C122.81 30.798 122.41 31.4569 122.41 32.4294C122.41 33.2451 122.644 33.7784 123.177 34.0608C123.71 34.3431 124.31 34.5 124.91 34.5C124.944 34.5 124.977 34.5 125.01 34.5C125.477 34.5 125.944 34.4059 126.41 34.249C126.81 34.0608 127.177 33.8098 127.41 33.5275L127.444 33.4961H127.677L127.71 33.5588C127.81 33.8412 127.977 34.0922 128.244 34.249C128.544 34.4059 128.877 34.5 129.21 34.5C129.244 34.5 129.244 34.5 129.277 34.5C129.31 34.5 129.344 34.5 129.377 34.5C129.71 34.5 130.077 34.4373 130.41 34.2804V33.0255H130.077C129.844 32.9941 129.677 32.9627 129.544 32.8686ZM127.41 31.1745C127.444 31.6451 127.277 32.1157 126.944 32.5549C126.61 32.9 126.144 33.0569 125.51 33.0569C125.477 33.0569 125.444 33.0569 125.444 33.0569C125.144 33.0569 124.877 32.9627 124.644 32.8059C124.444 32.649 124.344 32.3667 124.344 32.1157C124.344 31.2373 125.31 30.8294 127.277 30.8294H127.377L127.41 31.1745Z" fill="#516389"/>
<path d="M141.41 26.5H140.41V34.5H141.41V26.5Z" fill="#516389"/>
<path d="M141.151 18.0028C141.336 17.6921 141.41 17.3814 141.41 17.0141C141.41 16.6751 141.336 16.3362 141.188 16.0254C141.04 15.7147 140.818 15.4605 140.484 15.2345C140.188 15.0085 139.781 14.839 139.299 14.6977C138.818 14.5565 138.225 14.5 137.559 14.5H135.41V19.5H137.484C138.114 19.5 138.67 19.4435 139.151 19.3023C139.633 19.1893 140.04 18.9915 140.373 18.7655C140.744 18.5678 141.003 18.3136 141.151 18.0028ZM139.559 17.7768C139.373 17.9746 139.151 18.1441 138.818 18.2571C138.484 18.3701 138.077 18.4266 137.559 18.4266H137.04V15.6582H137.596C138.077 15.6582 138.484 15.7147 138.781 15.8277C139.114 15.9407 139.373 16.1102 139.522 16.3079C139.707 16.5057 139.781 16.7599 139.781 17.0424C139.781 17.3249 139.707 17.5791 139.559 17.7768Z" fill="#516389"/>
<path d="M88.0373 17.2966C88.2985 17.0424 88.4104 16.7034 88.4104 16.2797C88.4104 15.8842 88.2985 15.5452 88.0373 15.291C87.7761 15.0367 87.4402 14.839 86.9552 14.726C86.4701 14.613 85.985 14.5 85.388 14.5H83.4104V19.5H85.0149V18.0593H85.4253C86.0223 18.0593 86.5447 18.0028 86.9925 17.8616C87.4403 17.7203 87.7761 17.5508 88.0373 17.2966ZM86.4328 16.9011C86.2089 17.0141 85.8731 17.0706 85.4626 17.0706H84.9776V15.6864H85.5C85.9104 15.6864 86.2089 15.7429 86.4328 15.8559C86.6567 15.9689 86.7686 16.1384 86.7686 16.3644C86.7686 16.6186 86.6567 16.7881 86.4328 16.9011Z" fill="#516389"/>
<path d="M141.41 23.5H140.41V25.5H141.41V23.5Z" fill="#516389"/>
<path d="M167.963 30.881C167.675 30.5635 167.292 30.3095 166.908 30.1508C166.397 29.9921 165.853 29.8333 165.278 29.7063C164.83 29.6429 164.383 29.5159 163.904 29.3254C163.584 29.1984 163.424 28.9762 163.424 28.6587C163.424 28.4048 163.552 28.246 163.872 28.0873C164.191 27.9603 164.479 27.8968 164.799 27.8968C164.83 27.8968 164.862 27.8968 164.894 27.8968C164.926 27.8968 164.958 27.8968 164.99 27.8968C165.31 27.8968 165.662 27.9603 165.949 28.119C166.205 28.246 166.397 28.5317 166.365 28.8175H168.187V28.5635C168.187 27.9286 167.899 27.4524 167.292 27.0714C166.684 26.6905 165.917 26.5 164.958 26.5C163.967 26.5 163.136 26.6905 162.497 27.1032C161.89 27.4524 161.538 28.119 161.57 28.7857C161.538 29.2302 161.698 29.6746 161.986 30.0238C162.273 30.3413 162.625 30.5952 163.041 30.7222C163.52 30.881 164.063 31.0397 164.639 31.1667C165.15 31.2619 165.63 31.4206 166.045 31.6111C166.365 31.7063 166.557 31.9921 166.557 32.3413C166.557 32.627 166.397 32.8492 166.045 32.9762C165.725 33.1032 165.374 33.1349 164.958 33.1349C164.926 33.1349 164.894 33.1349 164.862 33.1349C164.479 33.1349 164.127 33.0397 163.776 32.881C163.424 32.7222 163.232 32.373 163.232 32.0238H161.41V32.0873C161.41 32.7857 161.73 33.4206 162.305 33.8333C162.913 34.2778 163.776 34.5 164.862 34.5C167.26 34.5 168.41 33.7063 168.41 32.0556C168.41 31.6429 168.251 31.1984 167.963 30.881Z" fill="#516389"/>
<path d="M147.883 26.5H147.85C146.91 26.5 146.003 26.9498 145.452 27.6888L145.42 27.7209H145.16L144.998 26.6606H143.41V34.4679H145.29V30.002C145.29 29.5201 145.452 29.0703 145.776 28.6847C146.068 28.3635 146.522 28.1707 146.975 28.1707C147.008 28.1707 147.008 28.1707 147.04 28.1707C147.526 28.1707 147.915 28.2992 148.142 28.5241C148.401 28.749 148.531 29.1667 148.531 29.6807V34.5H150.41V29.2309C150.41 28.2671 150.184 27.5602 149.73 27.1426C149.309 26.7249 148.66 26.5 147.883 26.5Z" fill="#516389"/>
<path d="M156.41 26.5C155.056 26.5 154.056 26.815 153.41 27.4764C152.765 28.1063 152.41 29.1457 152.41 30.5C152.41 31.8543 152.733 32.8937 153.41 33.5236C154.088 34.1535 155.088 34.5 156.41 34.5C157.765 34.5 158.765 34.185 159.41 33.5236C160.056 32.8937 160.41 31.8543 160.41 30.5C160.41 29.1142 160.088 28.1063 159.41 27.4764C158.765 26.815 157.765 26.5 156.41 26.5ZM158.475 30.5945C158.475 31.4134 158.314 31.9803 157.991 32.3898C157.668 32.7992 157.152 32.9882 156.41 32.9882C155.701 32.9882 155.185 32.7677 154.83 32.3898C154.507 32.0118 154.346 31.4134 154.346 30.5945V30.3425C154.346 29.5551 154.507 28.9567 154.83 28.5472C155.152 28.1378 155.668 27.9488 156.41 27.9488C157.12 27.9488 157.636 28.1693 157.991 28.5472C158.314 28.9567 158.475 29.5551 158.475 30.3425V30.5945Z" fill="#516389"/>
<path d="M136.94 30.1508C136.429 29.9921 135.885 29.8333 135.31 29.7063C134.862 29.6429 134.415 29.5159 133.936 29.3254C133.616 29.1984 133.456 28.9762 133.456 28.6587C133.456 28.4048 133.584 28.246 133.904 28.0873C134.223 27.9603 134.511 27.8968 134.83 27.8968C134.862 27.8968 134.894 27.8968 134.926 27.8968C134.958 27.8968 134.99 27.8968 135.022 27.8968C135.342 27.8968 135.694 27.9603 135.981 28.119C136.237 28.246 136.429 28.5317 136.397 28.8175H138.219V28.5635C138.219 27.9286 137.931 27.4524 137.324 27.0714C136.716 26.6905 135.917 26.5 134.99 26.5C133.999 26.5 133.168 26.6905 132.529 27.1032C131.922 27.4524 131.57 28.119 131.602 28.7857C131.57 29.2302 131.73 29.6746 132.018 30.0238C132.305 30.3413 132.657 30.5952 133.041 30.7222C133.52 30.881 134.063 31.0397 134.639 31.1667C135.15 31.2619 135.63 31.4206 136.045 31.6111C136.365 31.7063 136.557 31.9921 136.557 32.3413C136.557 32.627 136.397 32.8492 136.045 32.9762C135.725 33.1032 135.374 33.1349 134.958 33.1349C134.926 33.1349 134.894 33.1349 134.862 33.1349C134.479 33.1349 134.127 33.0397 133.776 32.881C133.424 32.7222 133.232 32.373 133.232 32.0238H131.41V32.0873C131.41 32.7857 131.73 33.4206 132.305 33.8333C132.913 34.2778 133.776 34.5 134.862 34.5C137.228 34.5 138.41 33.6746 138.41 32.0556C138.41 31.4841 138.251 31.0397 137.963 30.754C137.707 30.5635 137.324 30.3095 136.94 30.1508Z" fill="#516389"/>
<path d="M98.4104 19.5L96.3696 17.7022C96.6417 17.6461 96.8458 17.5618 97.0499 17.4775C97.2539 17.3933 97.39 17.2809 97.5601 17.1404C97.6961 17 97.7982 16.8315 97.8662 16.6348C97.9342 16.4663 97.9682 16.2697 97.9682 16.1011C97.9682 15.736 97.8662 15.4551 97.6281 15.2022C97.39 14.9775 97.0839 14.7809 96.6757 14.6685C96.2675 14.5562 95.8254 14.5 95.2811 14.5H93.4104V19.4719H94.873V17.8146L96.6757 19.4719H98.4104V19.5ZM96.1655 16.7753C95.9954 16.8876 95.7233 16.9438 95.3832 16.9438H94.873V15.6798H95.3492C95.6893 15.6798 95.9274 15.736 96.1315 15.8202C96.3356 15.9326 96.4376 16.073 96.4376 16.2416C96.4376 16.4944 96.3356 16.6629 96.1655 16.7753Z" fill="#516389"/>
<path d="M91.4837 26.5C91.0009 26.5 90.5785 26.6009 90.1863 26.8028C89.8242 27.0046 89.4923 27.3073 89.2811 27.711L89.2509 27.7783H89.0095L88.8888 26.6682H87.4104V37.5H89.1604V33.7997H89.4018L89.432 33.867C89.6432 34.237 89.9449 34.5061 90.3069 34.6743C90.6992 34.8761 91.1216 34.9771 91.6044 34.9771C91.6345 34.9771 91.6647 34.9771 91.6949 34.9771C92.4492 34.9771 93.1432 34.607 93.6259 33.9343C94.1388 33.2278 94.4104 32.1514 94.4104 30.7385C94.4104 29.292 94.169 28.2156 93.6561 27.5428C93.113 26.8364 92.419 26.5 91.4837 26.5ZM92.5699 30.9067C92.5699 31.7141 92.4492 32.3196 92.1776 32.7232C91.9061 33.1269 91.4837 33.3287 90.8501 33.3287C89.7337 33.3287 89.1604 32.4878 89.1604 30.8731V30.604C89.1604 28.9893 89.7337 28.182 90.8501 28.182C91.4535 28.182 91.9061 28.3838 92.1776 28.8211C92.4492 29.2248 92.5699 29.8303 92.5699 30.6376V30.9067Z" fill="#516389"/>
<path d="M98.0771 24.5H96.6831L96.3498 26.7222H95.4104V28.1825H96.3195V32.5317C96.3195 33.0714 96.471 33.5794 96.774 33.9603C97.0468 34.3413 97.5316 34.5 98.1983 34.5C98.4104 34.5 98.5922 34.4683 98.8649 34.4365C99.0468 34.4048 99.2286 34.373 99.3801 34.3095V33.0714H98.8043C98.3498 33.0714 98.1074 32.8175 98.1074 32.3413V28.1825H99.4104V26.7222H98.1074V24.5H98.0771Z" fill="#516389"/>
<path d="M104.394 26.5C103.055 26.5 102.043 26.8175 101.39 27.4841C100.737 28.119 100.41 29.1667 100.41 30.5C100.41 31.8651 100.737 32.881 101.39 33.5159C102.043 34.1825 103.023 34.5 104.394 34.5C105.733 34.5 106.745 34.1825 107.398 33.5159C108.051 32.881 108.378 31.8651 108.41 30.5C108.41 29.1349 108.084 28.119 107.398 27.4841C106.745 26.8492 105.733 26.5 104.394 26.5ZM106.484 30.627C106.484 31.4206 106.321 32.0238 105.994 32.4365C105.635 32.8492 105.112 33.0397 104.427 33.0397C103.708 33.0397 103.186 32.8175 102.859 32.4365C102.533 32.0238 102.37 31.4206 102.37 30.627V30.373C102.37 29.5794 102.533 28.9762 102.859 28.5635C103.186 28.1508 103.708 27.9603 104.427 27.9603C105.145 27.9603 105.668 28.1825 106.027 28.5635C106.353 28.9762 106.517 29.5794 106.517 30.373V30.627H106.484Z" fill="#516389"/>
<path d="M107.942 13.8607C107.496 13.5984 106.985 13.5 106.378 13.5C105.804 13.5 105.293 13.6311 104.847 13.8607C104.4 14.0902 104.049 14.4508 103.793 14.9098C103.538 15.3689 103.41 15.8934 103.41 16.4836C103.41 17.0738 103.538 17.5984 103.793 18.0574C104.049 18.5164 104.4 18.8771 104.847 19.1066C105.293 19.3689 105.836 19.5 106.41 19.5C107.017 19.5 107.527 19.3689 107.974 19.1066C108.421 18.8443 108.772 18.5164 109.027 18.0574C109.283 17.5984 109.41 17.0738 109.41 16.4836C109.41 15.8934 109.283 15.3689 109.027 14.9098C108.772 14.4508 108.389 14.0902 107.942 13.8607ZM107.815 17.4344C107.687 17.6967 107.496 17.8934 107.24 18.0246C106.985 18.1557 106.73 18.2213 106.41 18.2213C106.091 18.2213 105.804 18.1557 105.581 18.0246C105.325 17.8934 105.166 17.6967 105.006 17.4344C104.878 17.1721 104.815 16.877 104.815 16.5492C104.815 16.2213 104.878 15.9262 105.006 15.6639C105.134 15.4016 105.325 15.2049 105.581 15.0738C105.836 14.9426 106.091 14.877 106.41 14.877C106.73 14.877 106.985 14.9426 107.24 15.0738C107.496 15.2049 107.687 15.4016 107.815 15.6639C107.942 15.9262 108.038 16.2213 108.038 16.5492C108.006 16.9098 107.942 17.2049 107.815 17.4344Z" fill="#516389"/>
<path d="M118.848 32.3354C118.421 32.7012 117.841 32.9146 117.109 32.9146C115.278 32.9146 114.332 31.8476 114.332 29.7134V29.2866C114.332 28.25 114.546 27.4573 115.004 26.9085C115.461 26.3598 116.163 26.0549 117.109 26.0549C117.78 26.0549 118.36 26.2378 118.787 26.6341C119.183 27 119.397 27.4878 119.427 28.128H121.38C121.38 27.4268 121.197 26.7561 120.8 26.1768C120.434 25.628 119.915 25.2012 119.275 24.9268C118.604 24.6524 117.902 24.5 117.17 24.5C117.139 24.5 117.109 24.5 117.078 24.5C115.614 24.5 114.454 24.9268 113.631 25.75C112.807 26.5732 112.41 27.8232 112.41 29.5C112.41 32.8537 113.966 34.5 117.109 34.5H117.2C117.932 34.5 118.634 34.3476 119.336 34.0732C119.977 33.8293 120.495 33.372 120.861 32.8232C121.227 32.2744 121.41 31.6341 121.41 30.872H119.549C119.488 31.4817 119.275 31.9695 118.848 32.3354Z" fill="#516389"/>
</svg>
