<svg width="102" height="49" viewBox="0 0 102 49" fill="none" xmlns="http://www.w3.org/2000/svg">
<path d="M46.5816 13.0928C47.6665 13.0928 48.5004 13.3869 49.0835 13.9753C49.6734 14.5569 49.9684 15.3921 49.9684 16.4809C49.9684 17.2315 49.8294 17.8875 49.5514 18.4488C49.2734 19.0033 48.8767 19.4327 48.3615 19.737C47.8462 20.0414 47.2427 20.1935 46.5511 20.1935H43.3786C43.1548 20.1935 43.043 20.1022 43.043 19.9196V19.666C43.043 19.4834 43.1548 19.3921 43.3786 19.3921H43.643V13.8942H43.3786C43.1548 13.8942 43.043 13.8029 43.043 13.6203V13.3667C43.043 13.1841 43.1548 13.0928 43.3786 13.0928H46.5816ZM46.4596 19.3921C47.2868 19.3921 47.9207 19.1419 48.3615 18.6415C48.8089 18.1411 49.0327 17.431 49.0327 16.5113C49.0327 15.6254 48.8259 14.9694 48.4123 14.5434C47.9987 14.1106 47.3681 13.8942 46.5206 13.8942H44.5584V19.3921H46.4596Z" fill="white"/>
<path d="M57.1657 19.3921C57.3896 19.3921 57.5012 19.4834 57.5012 19.666V19.9196C57.5012 20.1022 57.3896 20.1935 57.1657 20.1935H55.6909C55.467 20.1935 55.3554 20.1022 55.3554 19.9196V19.666C55.3554 19.4834 55.467 19.3921 55.6909 19.3921H55.9556L55.6909 18.0915H52.0929L51.7336 19.3921H51.9979C52.2217 19.3921 52.3339 19.4834 52.3339 19.666V19.9196C52.3339 20.1022 52.2217 20.1935 51.9979 20.1935H50.6049C50.3878 20.1935 50.2793 20.1022 50.2793 19.9196V19.666C50.2793 19.4834 50.3878 19.3921 50.6049 19.3921H50.8691L52.4056 14.0376H51.9287C51.8094 14.0376 51.7215 13.9673 51.7215 13.8055V13.2649C51.7215 13.1371 51.7539 13.0928 51.8862 13.0928H53.6036C53.6036 13.0928 54.6748 13.1001 55.0027 13.1285C55.3306 13.1569 56.9015 19.3921 56.9015 19.3921H57.1657ZM55.4387 17.0996C55.4387 17.0996 54.7763 14.1973 54.597 14.0376C54.4712 13.9258 53.4323 13.8984 53.2009 14.0376C52.9867 14.1662 52.3339 17.0996 52.3339 17.0996H55.4387Z" fill="white"/>
<path d="M65.0336 13.0928C65.31 13.0928 65.359 13.1428 65.359 13.3667V13.6203C65.359 13.8452 65.313 13.8942 65.0336 13.8942H64.7693V19.3921C64.7693 19.3921 65.2903 19.3921 65.3742 19.3921C65.4363 19.3921 65.5257 19.4224 65.5257 19.5462C65.5257 19.6502 65.5257 19.9795 65.5257 19.9795C65.5257 20.0959 65.506 20.1727 65.3742 20.1727H63.5213C63.1257 20.1727 62.9277 19.9795 62.7791 19.7418L60.0199 14.6651V19.3921H60.2841C60.508 19.3921 60.6196 19.4834 60.6196 19.666V19.9196C60.6196 20.1022 60.508 20.1935 60.2841 20.1935H58.9214C58.6976 20.1935 58.5859 20.1022 58.5859 19.9196V19.666C58.5859 19.4834 58.6976 19.3921 58.9214 19.3921H59.1857V13.8942H58.9214C58.6976 13.8942 58.5859 13.8029 58.5859 13.6203V13.3667C58.5859 13.1841 58.6976 13.0928 58.9214 13.0928H59.8875C59.9961 13.0928 60.0876 13.1401 60.1624 13.2348L63.5213 19.3921H63.9352V13.8942H63.6608C63.444 13.8942 63.3354 13.8556 63.3354 13.6203V13.3667C63.3354 13.1262 63.3854 13.0928 63.6608 13.0928H65.0336Z" fill="white"/>
<path d="M71.7184 16.7339C73.0822 17.5443 72.7431 19.4168 71.4436 20.0408C70.4765 20.4873 68.6278 20.4592 67.6 20.0814C67.2201 19.9326 66.925 19.7264 66.7148 19.4626C66.5117 19.1989 66.4102 18.8912 66.4102 18.5395C66.4102 18.3231 66.4238 18.1611 66.5319 18.0326C66.6471 17.9041 66.7977 17.8291 66.9796 17.9044C67.2888 18.0326 67.1185 18.5357 67.3863 18.901C67.5147 19.0768 67.7016 19.2226 67.9659 19.3308C68.9617 19.7381 71.7184 19.7243 71.7184 18.3175C71.7184 17.8815 71.4694 17.6235 71.0763 17.4274C69.7585 16.7291 67.644 17.2707 66.7558 15.821C66.4278 15.2451 66.4708 14.4486 66.8573 13.9139C67.6369 12.8352 69.7762 13.0072 70.2613 13.0441C70.8928 13.0922 72.4683 13.5367 72.4683 14.7051C72.4683 14.9215 72.4218 15.0899 72.3066 15.2183C72.1979 15.3468 71.9968 15.3494 71.8326 15.2933C71.432 15.1566 71.628 14.7051 71.482 14.4008C71.3193 14.0627 70.6943 13.9028 70.1547 13.7879C69.2416 13.5936 68.0684 13.9065 67.7976 14.1026C67.3924 14.3954 67.3206 14.9818 67.5894 15.4152C68.1937 16.5733 70.5675 16.0502 71.7184 16.7339Z" fill="white"/>
<path d="M79.5092 19.0426C79.5092 19.0426 79.5425 18.8227 79.8255 18.8227C80.0417 18.8227 80.1362 19.0053 80.1362 19.1125C80.1362 19.4655 80.1362 20.1231 79.3076 20.1231C78.721 20.1231 76.707 16.9906 76.707 16.9906H75.1286V19.3921H75.3933C75.6172 19.3921 75.7288 19.4834 75.7288 19.666V19.9196C75.7288 20.1022 75.6172 20.1935 75.3933 20.1935H73.9488C73.7255 20.1935 73.6133 20.1022 73.6133 19.9196V19.666C73.6133 19.4834 73.7255 19.3921 73.9488 19.3921H74.2135V13.8942H73.9488C73.7255 13.8942 73.6133 13.8029 73.6133 13.6203V13.3667C73.6133 13.1841 73.7255 13.0928 73.9488 13.0928H75.3933C75.6172 13.0928 75.7288 13.1841 75.7288 13.3667V13.6203C75.7288 13.8029 75.6172 13.8942 75.3933 13.8942H75.1286V16.1558H76.707C76.707 16.1558 78.3643 13.0928 79.1666 13.0928C79.7204 13.0928 80.1362 13.5839 80.1362 14.0591C80.1362 14.2215 79.9963 14.3663 79.8255 14.3663C79.7032 14.3663 79.5041 14.2352 79.4774 14.0591C79.4774 14.0591 79.4041 13.8942 79.1666 13.8942C78.7417 13.8942 77.2961 16.5194 77.2961 16.5194C77.2961 16.5194 79.0474 19.2826 79.3076 19.2826C79.4935 19.2826 79.5092 19.0426 79.5092 19.0426Z" fill="white"/>
<path d="M86.9746 18.3169C87.0625 18.3169 87.1302 18.3473 87.1777 18.4082C87.2252 18.4623 87.249 18.5435 87.249 18.6516V19.7979C87.249 19.9061 87.2085 20.0008 87.1272 20.0819C87.0524 20.1563 86.9574 20.1935 86.8422 20.1935H81.7749C81.5516 20.1935 81.4395 20.1022 81.4395 19.9196V19.666C81.4395 19.4834 81.5516 19.3921 81.7749 19.3921H82.0397V13.8942H81.7749C81.5516 13.8942 81.4395 13.8029 81.4395 13.6203V13.3667C81.4395 13.1841 81.5516 13.0928 81.7749 13.0928H86.8422C86.9574 13.0928 87.0524 13.1333 87.1272 13.2145C87.2015 13.2889 87.2389 13.3836 87.2389 13.4985V14.4419C87.2389 14.6651 87.1509 14.7767 86.9746 14.7767H86.7099C86.5335 14.7767 86.4456 14.6651 86.4456 14.4419V13.8942H82.9547V16.1157H85.5493C85.6306 16.1157 85.6983 16.1461 85.7529 16.207C85.8135 16.2611 85.8443 16.3287 85.8443 16.4098V16.6228C85.8443 16.704 85.8135 16.775 85.7529 16.8359C85.6983 16.89 85.6306 16.9171 85.5493 16.9171H82.9547V19.3921H86.4456V18.6516C86.4456 18.4285 86.5371 18.3169 86.72 18.3169H86.9746Z" fill="white"/>
<path d="M94.0194 19.3372C94.3074 19.3372 94.4151 18.9877 94.4151 18.9877C94.4151 18.9877 94.4979 18.5925 94.7551 18.5925C94.9446 18.5925 95.0052 18.7402 95.0052 18.9398C95.0052 19.3372 94.7879 20.168 94.0194 20.1889C93.2302 20.2104 92.4102 18.8461 91.8564 17.9959C91.8564 17.9959 90.7686 17.9959 90.4255 17.9959H89.8864V19.3921H90.1506C90.3745 19.3921 90.4866 19.4834 90.4866 19.666V19.9196C90.4866 20.1022 90.3745 20.1935 90.1506 20.1935H88.7066C88.4828 20.1935 88.3711 20.1022 88.3711 19.9196V19.666C88.3711 19.4834 88.4828 19.3921 88.7066 19.3921H88.9708V13.8942H88.7066C88.4828 13.8942 88.3711 13.8029 88.3711 13.6203V13.3667C88.3711 13.1841 88.4828 13.0928 88.7066 13.0928H90.9949C93.4591 13.0928 94.5762 13.7372 94.5762 15.6268C94.5762 17.3568 93.3207 17.71 92.734 17.864C93.2661 18.6795 93.6733 19.3372 94.0194 19.3372ZM91.9979 17.1946C92.9407 17.1946 93.9179 16.6627 93.9179 15.6268C93.9179 14.3004 92.9407 13.8942 91.6326 13.8942H89.8864V17.1946H91.9979Z" fill="white"/>
<path d="M56.7027 29.606C56.9265 29.606 57.0387 29.6973 57.0387 29.8799V30.1335C57.0387 30.3161 56.9265 30.4074 56.7027 30.4074H55.2283C55.0045 30.4074 54.8923 30.3161 54.8923 30.1335V29.8799C54.8923 29.6973 55.0045 29.606 55.2283 29.606H55.4926L55.2283 28.3054H51.6303L51.2706 29.606H51.5354C51.7592 29.606 51.8709 29.6973 51.8709 29.8799V30.1335C51.8709 30.3161 51.7592 30.4074 51.5354 30.4074H50.1419C49.9249 30.4074 49.8164 30.3161 49.8164 30.1335V29.8799C49.8164 29.6973 49.9249 29.606 50.1419 29.606H50.4063L51.9426 24.2514H51.4661C51.3464 24.2514 51.259 24.1812 51.259 24.0194V23.4787C51.259 23.351 51.2908 23.3066 51.4232 23.3066H53.1406C53.1406 23.3066 54.2122 23.314 54.5402 23.3424C54.8681 23.3708 56.4384 29.606 56.4384 29.606H56.7027ZM54.9762 27.3135C54.9762 27.3135 54.3133 24.4111 54.1339 24.2514C54.0086 24.1397 52.9698 24.1122 52.7379 24.2514C52.5237 24.38 51.8709 27.3135 51.8709 27.3135H54.9762Z" fill="white"/>
<path d="M74.9599 23.3066C75.2358 23.3066 75.2853 23.3567 75.2853 23.5805V23.8341C75.2853 24.059 75.2393 24.108 74.9599 24.108H74.6951V29.606C74.6951 29.606 75.2166 29.606 75.3004 29.606C75.3626 29.606 75.452 29.6362 75.452 29.7601C75.452 29.864 75.452 30.1934 75.452 30.1934C75.452 30.3097 75.4318 30.3865 75.3004 30.3865H73.4471C73.052 30.3865 72.854 30.1934 72.7054 29.9557L69.9462 24.879V29.606H70.2104C70.4342 29.606 70.5459 29.6973 70.5459 29.8799V30.1335C70.5459 30.3161 70.4342 30.4074 70.2104 30.4074H68.8477C68.6239 30.4074 68.5117 30.3161 68.5117 30.1335V29.8799C68.5117 29.6973 68.6239 29.606 68.8477 29.606H69.112V24.108H68.8477C68.6239 24.108 68.5117 24.0167 68.5117 23.8341V23.5805C68.5117 23.3979 68.6239 23.3066 68.8477 23.3066H69.8138C69.9224 23.3066 70.0139 23.354 70.0881 23.4486L73.4471 29.606H73.8614V24.108H73.5866C73.3703 24.108 73.2612 24.0694 73.2612 23.8341V23.5805C73.2612 23.3401 73.3117 23.3066 73.5866 23.3066H74.9599Z" fill="white"/>
<path d="M63.3786 26.9477C64.7423 27.7581 64.4033 29.6306 63.1037 30.2547C62.1372 30.7012 60.2884 30.673 59.2602 30.2953C58.8803 30.1465 58.5857 29.9402 58.3755 29.6765C58.1719 29.4127 58.0703 29.105 58.0703 28.7534C58.0703 28.537 58.084 28.3749 58.1926 28.2464C58.3078 28.1179 58.4578 28.043 58.6397 28.1183C58.949 28.2464 58.7787 28.7496 59.0465 29.1148C59.1753 29.2906 59.3618 29.4364 59.6265 29.5446C60.6219 29.9519 63.3786 29.9382 63.3786 28.5313C63.3786 28.0954 63.13 27.8374 62.7364 27.6412C61.4187 26.943 59.3042 27.4845 58.4159 26.0348C58.0885 25.4589 58.1315 24.6624 58.5175 24.1278C59.2976 23.049 61.4364 23.2211 61.9214 23.258C62.553 23.3061 64.1289 23.7506 64.1289 24.919C64.1289 25.1354 64.0819 25.3037 63.9667 25.4322C63.8586 25.5607 63.657 25.5632 63.4928 25.5071C63.0921 25.3705 63.2887 24.9189 63.1421 24.6146C62.9795 24.2765 62.3549 24.1167 61.8148 24.0018C60.9018 23.8074 59.7291 24.1203 59.4578 24.3164C59.0525 24.6092 58.9808 25.1956 59.2501 25.6291C59.8539 26.7871 62.2276 26.264 63.3786 26.9477Z" fill="white"/>
<path d="M48.2118 28.5363C48.3224 28.5363 48.4168 28.5687 48.4948 28.6336C48.5729 28.6985 48.6119 28.7796 48.6119 28.8769C48.6119 29.0132 48.5631 29.1559 48.4655 29.3052C47.9691 30.1131 47.1504 30.512 46.2114 30.512C43.8095 30.512 42.7812 28.9776 42.7812 26.6421C42.7812 24.4878 44.2059 23.2158 46.2309 23.2158C46.9864 23.2158 47.8026 23.4781 48.2899 24.082C48.5046 24.3415 48.5923 24.7004 48.6119 24.865C48.6314 25.0297 48.6543 25.2192 48.5068 25.3456C48.3592 25.472 48.0319 25.4383 47.9336 25.3066C47.8707 25.2224 47.8222 24.984 47.7676 24.8191C47.5491 24.1586 46.9744 23.9847 46.2407 23.9847C44.5577 23.9847 43.5775 24.9694 43.5775 26.6421C43.5775 28.3148 44.225 29.7431 46.2407 29.7431C46.9258 29.7431 47.503 29.4276 47.841 28.8282C47.8996 28.7115 47.9548 28.6336 48.0069 28.5946C48.0589 28.5557 48.1272 28.5363 48.2118 28.5363Z" fill="white"/>
<path d="M65.3614 30.4145C65.1467 30.4145 65.0391 30.3269 65.0391 30.1517V29.9084C65.0391 29.7332 65.1467 29.6456 65.3614 29.6456H65.7257V24.1077H65.3614C65.1467 24.1077 65.0391 24.0202 65.0391 23.8449V23.6017C65.0391 23.4265 65.1467 23.3389 65.3614 23.3389H66.9373C67.1521 23.3389 67.2597 23.4265 67.2597 23.6017V23.8449C67.2597 24.0202 67.1521 24.1077 66.9373 24.1077H66.6039V29.6456H66.9373C67.1521 29.6456 67.2597 29.7332 67.2597 29.9084V30.1517C67.2597 30.3269 67.1521 30.4145 66.9373 30.4145H65.3614Z" fill="white"/>
<path d="M79.7657 30.5543C77.7588 30.5612 76.2314 28.7907 76.2784 26.7897C76.3249 24.8378 77.8083 23.1852 79.7657 23.1983C81.6594 23.211 83.0691 24.721 83.2086 26.6048C83.3597 28.643 81.8151 30.5473 79.7657 30.5543ZM79.7561 29.7425C81.3356 29.7437 82.3107 28.1901 82.3107 26.6145C82.3107 25.2108 81.1946 23.9771 79.7561 23.9672C78.2636 23.957 77.1798 25.3015 77.1414 26.7897C77.102 28.3215 78.2196 29.7413 79.7561 29.7425Z" fill="white"/>
<path d="M41.9163 35.1172H95.0047V36.152H41.9163V35.1172Z" fill="#DE0101"/>
<path fill-rule="evenodd" clip-rule="evenodd" d="M37.9904 12.8486H8.67359C11.8606 12.8487 12.7257 14.4891 12.7257 15.9684C12.7257 17.3415 12.3264 18.9269 8.70052 18.9269H6.04688V23.441H16.4197V12.8487H18.5193V23.441H37.9904V12.8486ZM37.9904 25.5351H25.9113V25.5333C25.9113 25.5333 24.6563 25.5344 23.2597 25.5351H18.5193V28.2078C18.5105 28.3301 18.5059 28.4576 18.5059 28.5906C18.5059 28.7216 18.5105 28.8473 18.5193 28.9678V36.1522L37.9904 36.1522V25.5351ZM18.5193 28.9678C18.6772 31.1172 20.1775 31.6423 20.7208 31.6423H25.9113V29.426L23.9071 29.4145C23.7683 30.0655 23.0274 30.2383 22.4517 30.2383C21.4518 30.2383 20.8397 29.6475 20.8397 28.5906C20.8397 27.5382 21.4593 26.943 22.4517 26.943C23.0494 26.943 23.8247 27.1647 23.9071 27.848H25.9113V25.5351H23.2597C22.3781 25.5356 21.4402 25.5361 20.7258 25.5361C20.1308 25.5361 18.6747 26.0628 18.5193 28.2078V28.9678ZM6.04688 25.5351H16.4197V36.1522L6.04688 36.1522V25.5351ZM7.63941 17.3415H8.63317C9.7025 17.3415 10.7008 17.0873 10.7008 15.9684C10.7008 14.6503 9.7025 14.434 8.5793 14.434H7.63941V17.3415Z" fill="#DE0101"/>
</svg>
