<svg width="153" height="49" viewBox="0 0 153 49" fill="none" xmlns="http://www.w3.org/2000/svg">
<g filter="url(#filter0_d_1_9905)">
<mask id="mask0_1_9905" style="mask-type:luminance" maskUnits="userSpaceOnUse" x="16" y="9" width="121" height="31">
<path d="M121.364 9.5H31.4427C23.1657 9.5 16.4559 16.2098 16.4559 24.4868C16.4559 32.7639 23.1657 39.4737 31.4427 39.4737H121.364C129.641 39.4737 136.351 32.7639 136.351 24.4868C136.351 16.2098 129.641 9.5 121.364 9.5Z" fill="white"/>
</mask>
<g mask="url(#mask0_1_9905)">
<path d="M121.364 9.5H31.4427C23.1657 9.5 16.4559 16.2098 16.4559 24.4868C16.4559 32.7639 23.1657 39.4737 31.4427 39.4737H121.364C129.641 39.4737 136.351 32.7639 136.351 24.4868C136.351 16.2098 129.641 9.5 121.364 9.5Z" fill="#24B36B"/>
<path fill-rule="evenodd" clip-rule="evenodd" d="M16.4559 35.0728C16.4559 35.0728 23.1557 30.7618 23.993 28.0216C24.5126 26.321 25.444 25.3675 26.0634 24.7333C26.2216 24.5713 26.3594 24.4302 26.4649 24.3028C26.9832 23.6765 27.1826 22.2673 27.3022 21.367C27.3068 21.3316 27.3116 21.2923 27.3169 21.2495C27.4163 20.4433 27.6751 18.3425 30.1329 16.7087C33.9604 14.1642 37.5885 17.609 37.5885 17.609C37.5885 17.609 44.0395 15.8944 44.9644 16.2389C46.1148 16.6673 46.2345 17.8761 46.3411 18.9518C46.3593 19.1359 46.3772 19.3162 46.3998 19.4879L46.4169 19.4828C46.9329 19.327 47.6051 19.124 48.4332 18.0787C48.9506 17.4256 49.0179 16.0823 49.0312 15.4951C49.2866 15.8595 49.4363 16.2436 49.5495 16.6695C49.9899 16.4182 50.3601 16.1354 50.6658 15.73C50.6658 15.73 50.2873 17.7054 49.1109 18.7833C47.9149 19.8794 46.3201 20.3492 46.3201 20.3492C46.3201 20.3492 46.2302 21.097 45.9612 21.8366C45.5083 23.082 44.0032 24.5293 42.624 25.8556C42.1822 26.2803 41.7534 26.6928 41.3762 27.0821C41.1335 27.3326 40.8358 27.6285 40.5035 27.9586C38.7065 29.7436 35.9014 32.5304 35.3559 34.5589C35.2771 34.8513 35.2033 35.168 35.127 35.495C34.7129 37.2698 34.2285 39.3459 32.5317 39.4741C32.5317 39.4741 26.2673 38.2485 22.0206 37.6529C19.8565 37.3493 16.4559 35.0728 16.4559 35.0728ZM37.7482 21.7976C37.7482 24.1973 35.7668 26.1427 33.3226 26.1427C30.8784 26.1427 28.8971 24.1973 28.8971 21.7976C28.8971 19.3978 30.8784 17.4524 33.3226 17.4524C35.7668 17.4524 37.7482 19.3978 37.7482 21.7976ZM34.3193 21.2496C33.7452 20.1534 32.6979 19.2531 32.3656 19.0966C32.9371 19.0966 34.2953 19.4097 35.1566 20.6624C36.0177 21.915 35.5153 23.6244 35.1566 24.3029C35.1384 24.2039 35.1197 24.09 35.0991 23.9641C34.9835 23.2595 34.8064 22.1793 34.3193 21.2496Z" fill="white"/>
<path d="M61.6964 18.6915C61.5698 18.4584 61.3867 18.2819 61.1469 18.162C60.9138 18.0354 60.6373 17.9722 60.3176 17.9722C59.7648 17.9722 59.3218 18.1553 58.9888 18.5217C58.6558 18.8814 58.4892 19.3642 58.4892 19.9704C58.4892 20.6165 58.6623 21.1227 59.0087 21.4891C59.3617 21.8488 59.8447 22.0286 60.4575 22.0286C60.8771 22.0286 61.2301 21.922 61.5165 21.7089C61.8096 21.4958 62.0228 21.1893 62.156 20.7897H59.9879V19.5308H63.7046V21.1194C63.578 21.5457 63.3616 21.942 63.0552 22.3084C62.7555 22.6747 62.3725 22.9711 61.9062 23.1976C61.4399 23.4241 60.9138 23.5373 60.3276 23.5373C59.6349 23.5373 59.0154 23.3874 58.4692 23.0877C57.9297 22.7812 57.5068 22.3583 57.2003 21.8188C56.9006 21.2793 56.7507 20.6631 56.7507 19.9704C56.7507 19.2777 56.9006 18.6616 57.2003 18.122C57.5068 17.5758 57.9297 17.1529 58.4692 16.8532C59.0087 16.5467 59.6249 16.3936 60.3176 16.3936C61.1569 16.3936 61.8629 16.5967 62.4357 17.003C63.0152 17.4094 63.3982 17.9722 63.5847 18.6915H61.6964ZM69.5167 22.2484H66.899L66.4794 23.4873H64.691L67.2287 16.4735H69.207L71.7448 23.4873H69.9363L69.5167 22.2484ZM69.0771 20.9296L68.2079 18.3618L67.3486 20.9296H69.0771ZM80.9597 16.4735V23.4873H79.2512V19.281L77.6825 23.4873H76.3038L74.7251 19.271V23.4873H73.0166V16.4735H75.0349L77.0031 21.3292L78.9514 16.4735H80.9597ZM86.9341 19.8905C87.3405 19.9771 87.6669 20.1802 87.9133 20.5C88.1597 20.813 88.2829 21.1727 88.2829 21.579C88.2829 22.1652 88.0765 22.6314 87.6635 22.9778C87.2572 23.3175 86.6877 23.4873 85.955 23.4873H82.6879V16.4735H85.8451C86.5579 16.4735 87.114 16.6366 87.5136 16.9631C87.92 17.2895 88.1231 17.7324 88.1231 18.2919C88.1231 18.7048 88.0132 19.0479 87.7934 19.321C87.5803 19.594 87.2938 19.7839 86.9341 19.8905ZM84.3964 19.311H85.5154C85.7951 19.311 86.0083 19.251 86.1548 19.1312C86.3081 19.0046 86.3846 18.8214 86.3846 18.5816C86.3846 18.3418 86.3081 18.1587 86.1548 18.0321C86.0083 17.9055 85.7951 17.8423 85.5154 17.8423H84.3964V19.311ZM85.6553 22.1085C85.9417 22.1085 86.1615 22.0453 86.3147 21.9187C86.4745 21.7855 86.5545 21.5957 86.5545 21.3492C86.5545 21.1027 86.4712 20.9096 86.3047 20.7697C86.1448 20.6298 85.9217 20.5599 85.6353 20.5599H84.3964V22.1085H85.6553ZM91.4819 22.1685H93.72V23.4873H89.7734V16.4735H91.4819V22.1685ZM96.7429 16.4735V23.4873H95.0344V16.4735H96.7429ZM100.299 22.0886H103.316V23.4873H98.3608V22.1885L101.358 17.8723H98.3608V16.4735H103.316V17.7723L100.299 22.0886ZM109.298 22.2484H106.68L106.261 23.4873H104.472L107.01 16.4735H108.988L111.527 23.4873H109.718L109.298 22.2484ZM108.859 20.9296L107.989 18.3618L107.13 20.9296H108.859ZM116.375 23.4873L114.917 20.8397H114.507V23.4873H112.799V16.4735H115.666C116.219 16.4735 116.688 16.5701 117.075 16.7632C117.467 16.9564 117.76 17.2228 117.954 17.5625C118.147 17.8955 118.244 18.2686 118.244 18.6815C118.244 19.1478 118.11 19.5641 117.844 19.9304C117.584 20.2968 117.198 20.5566 116.685 20.7098L118.304 23.4873H116.375ZM114.507 19.6307H115.566C115.879 19.6307 116.112 19.5541 116.265 19.4009C116.425 19.2477 116.505 19.0312 116.505 18.7515C116.505 18.485 116.425 18.2752 116.265 18.122C116.112 17.9689 115.879 17.8922 115.566 17.8922H114.507V19.6307ZM122.443 16.4735C123.182 16.4735 123.829 16.6201 124.381 16.9131C124.934 17.2061 125.36 17.6192 125.66 18.152C125.967 18.6782 126.12 19.2877 126.12 19.9804C126.12 20.6665 125.967 21.276 125.66 21.8088C125.36 22.3416 124.931 22.7547 124.371 23.0477C123.819 23.3408 123.175 23.4873 122.443 23.4873H119.815V16.4735H122.443ZM122.333 22.0086C122.98 22.0086 123.482 21.8321 123.842 21.4791C124.202 21.1261 124.381 20.6265 124.381 19.9804C124.381 19.3343 124.202 18.8314 123.842 18.4717C123.482 18.112 122.98 17.9322 122.333 17.9322H121.524V22.0086H122.333ZM61.4066 32.2396H58.7889L58.3693 33.4786H56.5809L59.1186 26.4647H61.0969L63.6347 33.4786H61.8263L61.4066 32.2396ZM60.967 30.9208L60.0978 28.3531L59.2385 30.9208H60.967ZM70.2519 28.7227C70.2519 29.1291 70.1587 29.502 69.9721 29.8418C69.7857 30.1748 69.4992 30.4445 69.1129 30.651C68.7266 30.8576 68.247 30.9608 67.6741 30.9608H66.6151V33.4786H64.9066V26.4647H67.6741C68.2336 26.4647 68.7066 26.5613 69.0929 26.7545C69.4792 26.9476 69.769 27.2141 69.9621 27.5538C70.1554 27.8935 70.2519 28.2831 70.2519 28.7227ZM67.5442 29.602C67.8707 29.602 68.1137 29.5253 68.2736 29.3722C68.4335 29.219 68.5134 29.0025 68.5134 28.7227C68.5134 28.443 68.4335 28.2265 68.2736 28.0733C68.1137 27.9201 67.8707 27.8435 67.5442 27.8435H66.6151V29.602H67.5442ZM76.9863 28.7227C76.9863 29.1291 76.8929 29.502 76.7065 29.8418C76.52 30.1748 76.2335 30.4445 75.8473 30.651C75.4609 30.8576 74.9813 30.9608 74.4085 30.9608H73.3495V33.4786H71.641V26.4647H74.4085C74.968 26.4647 75.4409 26.5613 75.8273 26.7545C76.2135 26.9476 76.5033 27.2141 76.6965 27.5538C76.8896 27.8935 76.9863 28.2831 76.9863 28.7227ZM74.2786 29.602C74.6049 29.602 74.8481 29.5253 75.008 29.3722C75.1679 29.219 75.2478 29.0025 75.2478 28.7227C75.2478 28.443 75.1679 28.2265 75.008 28.0733C74.8481 27.9201 74.6049 27.8435 74.2786 27.8435H73.3495V29.602H74.2786ZM81.9521 33.4786L80.4934 30.8309H80.0837V33.4786H78.3752V26.4647H81.2427C81.7955 26.4647 82.2651 26.5613 82.6515 26.7545C83.0444 26.9476 83.3376 27.2141 83.5307 27.5538C83.7238 27.8868 83.8205 28.2598 83.8205 28.6728C83.8205 29.1391 83.6873 29.5553 83.4208 29.9217C83.161 30.2881 82.7747 30.5478 82.2618 30.701L83.8804 33.4786H81.9521ZM80.0837 29.6219H81.1428C81.4558 29.6219 81.689 29.5453 81.8422 29.3921C82.0021 29.239 82.082 29.0225 82.082 28.7427C82.082 28.4762 82.0021 28.2664 81.8422 28.1133C81.689 27.9601 81.4558 27.8835 81.1428 27.8835H80.0837V29.6219ZM88.7097 33.5485C88.0502 33.5485 87.4441 33.3953 86.8913 33.0889C86.345 32.7825 85.9087 32.3562 85.5824 31.81C85.2627 31.2572 85.1028 30.6378 85.1028 29.9517C85.1028 29.2656 85.2627 28.6495 85.5824 28.1033C85.9087 27.5571 86.345 27.1308 86.8913 26.8244C87.4441 26.518 88.0502 26.3648 88.7097 26.3648C89.3691 26.3648 89.9719 26.518 90.5181 26.8244C91.0709 27.1308 91.5038 27.5571 91.8169 28.1033C92.1367 28.6495 92.2965 29.2656 92.2965 29.9517C92.2965 30.6378 92.1367 31.2572 91.8169 31.81C91.4972 32.3562 91.0642 32.7825 90.5181 33.0889C89.9719 33.3953 89.3691 33.5485 88.7097 33.5485ZM88.7097 31.9899C89.2692 31.9899 89.7154 31.8033 90.0485 31.4304C90.3882 31.0574 90.558 30.5644 90.558 29.9517C90.558 29.3322 90.3882 28.8393 90.0485 28.473C89.7154 28.1 89.2692 27.9134 88.7097 27.9134C88.1435 27.9134 87.6906 28.0966 87.3509 28.463C87.0178 28.8293 86.8513 29.3255 86.8513 29.9517C86.8513 30.5711 87.0178 31.0674 87.3509 31.4403C87.6906 31.8067 88.1435 31.9899 88.7097 31.9899ZM100.331 26.4647L97.8429 33.4786H95.7048L93.217 26.4647H95.0354L96.7739 31.7601L98.5224 26.4647H100.331ZM103.253 27.8335V29.2523H105.541V30.5711H103.253V32.1098H105.841V33.4786H101.544V26.4647H105.841V27.8335H103.253ZM110.077 26.4647C110.816 26.4647 111.463 26.6113 112.015 26.9043C112.568 27.1974 112.994 27.6104 113.294 28.1432C113.601 28.6695 113.754 29.2789 113.754 29.9716C113.754 30.6577 113.601 31.2672 113.294 31.8C112.994 32.3329 112.565 32.7459 112.005 33.0389C111.453 33.332 110.81 33.4786 110.077 33.4786H107.449V26.4647H110.077ZM109.967 31.9999C110.613 31.9999 111.116 31.8233 111.476 31.4703C111.835 31.1173 112.015 30.6178 112.015 29.9716C112.015 29.3255 111.835 28.8226 111.476 28.463C111.116 28.1033 110.613 27.9234 109.967 27.9234H109.158V31.9999H109.967Z" fill="white"/>
</g>
<path d="M121.364 10.7217H31.4435C23.8413 10.7217 17.6785 16.8845 17.6785 24.4867V24.4868C17.6785 32.089 23.8413 38.2518 31.4435 38.2518H121.364C128.967 38.2518 135.129 32.089 135.129 24.4868V24.4867C135.129 16.8845 128.967 10.7217 121.364 10.7217Z" stroke="#24B36B" stroke-width="2.44571"/>
</g>
<defs>
<filter id="filter0_d_1_9905" x="11.5643" y="5.83046" width="129.679" height="39.7584" filterUnits="userSpaceOnUse" color-interpolation-filters="sRGB">
<feFlood flood-opacity="0" result="BackgroundImageFix"/>
<feColorMatrix in="SourceAlpha" type="matrix" values="0 0 0 0 0 0 0 0 0 0 0 0 0 0 0 0 0 0 127 0" result="hardAlpha"/>
<feOffset dy="1.22286"/>
<feGaussianBlur stdDeviation="2.44571"/>
<feColorMatrix type="matrix" values="0 0 0 0 0.329412 0 0 0 0 0.219608 0 0 0 0 0.862745 0 0 0 0.15 0"/>
<feBlend mode="normal" in2="BackgroundImageFix" result="effect1_dropShadow_1_9905"/>
<feBlend mode="normal" in="SourceGraphic" in2="effect1_dropShadow_1_9905" result="shape"/>
</filter>
</defs>
</svg>
