<svg width="102" height="49" viewBox="0 0 102 49" fill="none" xmlns="http://www.w3.org/2000/svg">
<path d="M67.9589 8.21394C67.2934 33.237 62.3929 39.5711 50.5424 46.984C38.6924 39.5711 33.7612 33.2371 33.0957 8.21414C39.9387 10.9635 49.5808 3.49622 50.5278 2.01562C51.4741 3.49622 61.1156 10.9633 67.9589 8.21394Z" fill="black"/>
<path d="M66.37 9.69576C65.7652 32.4414 61.3103 38.1992 50.5386 44.9375C39.767 38.1992 35.2846 32.4416 34.6797 9.69591C40.9 12.195 49.6645 5.40737 50.5249 4.06152C51.3859 5.40737 60.1497 12.1949 66.37 9.69576Z" fill="#699CE6"/>
<path d="M64.8363 11.1297C64.2901 31.6729 60.2667 36.8731 50.5384 42.9589C40.8096 36.8731 36.7612 31.6731 36.2148 11.1298C41.8328 13.387 49.7486 7.25658 50.5258 6.04102C51.3034 7.25658 59.2188 13.3868 64.8363 11.1297Z" fill="black"/>
<path d="M63.5585 12.3245C63.0608 31.0322 59.3972 35.7678 50.5379 41.3098C41.6782 35.7678 37.9916 31.0324 37.494 12.3246C42.6101 14.3801 49.8186 8.79736 50.5263 7.69043C51.2341 8.79736 58.4427 14.3799 63.5585 12.3245Z" fill="white"/>
<path d="M62.867 12.9695C62.3956 30.6858 58.9259 35.1703 50.536 40.4186L50.5215 8.5752C51.1919 9.62346 58.022 14.916 62.867 12.9695Z" fill="#999999"/>
<path d="M38.207 12.9696C38.6782 30.6858 42.1478 35.1703 50.5375 40.4186L50.5253 8.5752C49.855 9.62346 43.0519 14.9161 38.207 12.9696Z" fill="#BAB8B9"/>
<path d="M49.8385 22.1015C49.6622 22.8031 49.5578 23.1117 48.8559 23.538C44.621 24.8393 41.6791 22.3909 39.6077 24.7434C37.8875 26.8066 37.4193 29.6259 37.3202 33.4348C35.0687 31.9784 34.7444 30.7368 34.2494 28.57C33.2945 29.0658 32.7721 29.6259 32.2768 31.2969C30.8809 29.7006 30.4712 27.479 30.8809 25.3316C28.9805 27.1333 28.2494 30.3364 27.9702 32.1568C24.9303 24.7434 25.8215 19.2809 29.3077 14.2475C28.1565 11.5751 28.2908 7.61042 29.3077 4.84863C32.2216 5.43167 33.3796 6.53456 35.8072 8.55708C36.3626 6.98066 37.0338 6.33746 38.1862 5.82548C40.0478 7.09879 40.5252 8.32208 41.2128 11.2601C41.7442 11.5351 42.0478 11.8373 42.4844 12.1968C43.477 13.117 44.088 14.3597 44.7714 15.0801C45.5556 15.9067 49.3162 17.1256 49.3162 17.1256C50.648 17.5249 51.2013 18.1211 51.3129 19.3341C51.3513 19.8803 50.9527 20.6376 49.8385 22.1015Z" fill="white"/>
<path d="M49.367 21.9257C49.2001 22.5896 48.9908 22.9012 48.3267 23.3046C44.5416 24.299 42.2667 22.0804 39.7011 24.0598C38.2382 25.4264 36.9611 28.4491 36.9681 32.7813C34.9981 31.4065 34.5052 28.066 34.5052 28.066C33.7225 28.3504 32.6855 28.8916 32.1492 30.6405C30.8325 28.3985 31.0829 26.6854 31.2456 24.6195C29.6807 25.8289 28.2764 28.0371 27.8465 31.2203C25.2745 22.4932 26.9085 18.5822 29.8291 14.2276C28.8084 11.9589 28.5795 8.55136 29.4815 5.30762C31.9944 5.80899 33.6753 7.20938 35.9653 9.11721L35.9794 9.12893C36.4915 7.8158 36.6166 7.27072 38.1298 6.24423C39.9719 8.02346 40.0721 8.67232 40.7113 11.4624C41.2142 11.7226 41.8844 12.2328 42.2976 12.5731C43.2369 13.4438 43.765 14.7056 44.4116 15.3872C45.0582 16.0689 48.8745 17.5084 48.8745 17.5084C50.1939 17.881 50.6727 18.2566 50.7783 19.4044C50.8147 19.9212 50.4213 20.5405 49.367 21.9257Z" fill="#281411"/>
<path d="M48.6598 21.4494C48.5111 22.041 47.3938 22.451 47.31 22.4649C45.0334 22.8412 42.1913 20.9563 39.3907 22.949C37.9736 23.9572 36.3351 26.7382 36.3351 30.7181C35.0435 29.0644 35.0435 26.8101 35.0435 26.8101C34.4039 26.9172 33.5424 27.1606 32.2095 28.7407C31.4594 27.5607 32.216 22.9886 35.572 22.949C31.4769 22.2628 28.1343 24.0941 27.7654 28.1671C26.5406 19.8957 28.6388 18.3248 30.7225 14.2312C29.8741 12.3456 29.4421 9.60215 29.9078 6.87615C30.6695 8.89852 31.295 9.72013 32.7262 10.6935C31.4301 8.75437 30.976 7.83539 30.7225 6.50195C32.637 7.19669 34.3596 8.66589 36.1287 10.2435C36.585 9.07329 36.6808 8.07681 38.0293 7.16203C38.1737 8.26754 38.1521 8.88841 38.0293 9.99408C38.4722 9.32572 38.6367 8.87836 38.7005 7.87703C39.6663 9.04282 39.6971 9.92562 40.1749 12.0108C40.6229 12.2427 41.3775 12.7569 41.7457 13.0601C42.5827 13.8361 42.9989 15.1041 43.5751 15.7116C44.1514 16.319 47.4513 17.7054 47.4513 17.7054C48.6608 18.1737 49.3737 18.321 48.7801 19.2703C48.6598 19.9252 49.1648 20.2854 48.7801 20.5014C48.5775 20.6152 47.8967 20.4209 47.575 20.2235C46.2424 19.6718 44.616 20.2235 43.9399 20.7562C44.6972 20.5189 45.1305 20.4747 45.9101 20.5434C46.7501 20.5434 47.1157 21.2261 48.6598 21.4494Z" fill="#699CE6"/>
<path d="M36.0312 27.8323C36.5924 21.2636 39.6806 18.503 45.9122 20.019L41.0263 20.1719L37.8604 23.7687L36.0312 27.8323Z" fill="#E0E0E0"/>
<path d="M32.5609 24.9503C31.8206 26.126 31.7458 27.8227 32.2116 28.738C32.5026 26.6255 33.0383 25.2646 34.9596 24.3037C33.9098 24.3419 33.347 24.4116 32.5609 24.9503Z" fill="#E0E0E0"/>
<path d="M39.2522 20.8371C40.7837 19.8304 42.6489 19.318 45.913 20.0162C44.9598 20.184 44.5108 20.3874 43.9395 20.7594C44.8483 20.4163 45.913 20.4685 46.4525 20.6301C47.3577 21.0945 47.8787 21.3081 48.7113 21.4404C48.3976 22.0906 48.0435 22.2948 47.3133 22.5241C46.4912 22.6811 45.4997 22.4991 43.1516 22.0452C41.0293 21.9647 39.7527 22.4729 38.6326 23.6352C37.8447 24.4528 36.5126 27.0639 36.3358 30.7191C35.4159 29.3248 35.1575 28.4626 35.0226 26.8213C33.8174 27.1563 33.2207 27.6462 32.211 28.7358C32.2045 26.2678 32.9351 25.0764 34.9633 24.2985C34.9633 25.8154 34.9633 25.9404 35.0226 26.8213C35.468 26.8656 35.8841 27.1657 36.031 27.8239C36.4935 23.9604 37.7208 21.8439 39.2522 20.8371Z" fill="#9FBCE6"/>
<path d="M40.0601 14.6396C39.3036 14.5666 38.8589 14.5116 38.0293 14.3887C38.6076 14.9184 40.9596 16.3353 41.6067 16.0198C41.3789 15.7134 41.2333 15.5202 40.9208 15.1276C40.7121 14.8456 40.5523 14.7182 40.0601 14.6396Z" fill="#281411"/>
<path d="M27.4414 25.0619C29.163 21.7895 30.7883 21.1119 34.7676 21.7973C32.8716 22.0548 31.8692 22.3423 30.3253 23.4128L27.4414 25.0619Z" fill="#E0E0E0"/>
<path d="M34.7909 21.803C33.3041 22.0761 31.3463 23.0207 30.2811 24.1659C29.7822 24.7022 28.8613 25.4988 27.7423 28.1701C27.5488 27.1047 27.4745 26.1741 27.4395 25.0629C28.8603 22.2986 31.2268 21.3282 34.7909 21.803Z" fill="#9FBCE6"/>
<path d="M46.8983 31.846L46.0807 32.7165V34.0833H45.123V28.7383H46.0807V31.4795L48.6294 28.7383H49.7049L47.5392 31.1283L49.8375 34.0833H48.7178L46.8983 31.846Z" fill="white"/>
<path d="M50.0859 28.7383H51.0435V34.0833H50.0859V28.7383Z" fill="white"/>
<path d="M55.4049 34.0833L54.3514 32.518C54.3075 32.5231 54.2408 32.5256 54.1523 32.5256H52.9887V34.0833H52.0312V28.7383H54.1523C54.5995 28.7383 54.9875 28.8146 55.3165 28.9674C55.6504 29.1201 55.9056 29.3389 56.0824 29.624C56.2593 29.9091 56.3477 30.2476 56.3477 30.6396C56.3477 31.0417 56.2517 31.3879 56.0602 31.6781C55.8738 31.9682 55.6035 32.1845 55.2503 32.3271L56.4361 34.0833H55.4049ZM55.3827 30.6396C55.3827 30.2985 55.2745 30.0364 55.0588 29.8531C54.8425 29.6698 54.5257 29.5782 54.1084 29.5782H52.9887V31.7086H54.1084C54.5257 31.7086 54.8425 31.617 55.0588 31.4337C55.2745 31.2453 55.3827 30.9806 55.3827 30.6396Z" fill="white"/>
<path d="M71.5085 9.90812L64.5489 5.26128C63.7366 4.71894 62.6602 4.95179 62.1448 5.78135L57.63 13.047C57.1145 13.8766 57.3551 14.9887 58.1674 15.531L65.127 20.1779C65.9393 20.7202 67.0156 20.4874 67.5311 19.6578L72.0459 12.3921C72.5613 11.5626 72.3207 10.4504 71.5085 9.90812Z" fill="#FF5368" stroke="white"/>
<path d="M64.3526 17.2733C65.2656 17.8733 66.4661 17.6235 67.0633 16.7095L70.5365 11.3928C70.6593 11.2045 70.8493 11.0739 71.066 11.0285C71.8098 10.8725 72.3772 11.7239 71.9654 12.3774L67.6353 19.2417C67.0456 20.1764 65.83 20.4395 64.9064 19.8323L58.4385 15.5785C57.7564 15.1301 57.9302 14.0635 58.7133 13.888C58.9468 13.8358 59.1918 13.8814 59.3944 14.0148L64.3526 17.2733Z" fill="#C5324F"/>
<path d="M71.5085 9.90812L64.5489 5.26128C63.7366 4.71894 62.6602 4.95179 62.1448 5.78135L57.63 13.047C57.1145 13.8766 57.3551 14.9887 58.1674 15.531L65.127 20.1779C65.9393 20.7202 67.0156 20.4874 67.5311 19.6578L72.0459 12.3921C72.5613 11.5626 72.3207 10.4504 71.5085 9.90812Z" stroke="white"/>
<path d="M67.5744 11.9396C68.1392 12.3284 68.9012 12.169 69.2763 11.5835C69.6515 10.998 69.4977 10.2082 68.9329 9.81931C68.368 9.43046 67.6061 9.58987 67.2309 10.1754C66.8558 10.7608 67.0096 11.5507 67.5744 11.9396Z" fill="#FFF9EB"/>
<path d="M63.9965 9.47471C64.5613 9.86356 65.3233 9.70415 65.6984 9.11866C66.0736 8.53318 65.9198 7.74332 65.355 7.35447C64.7902 6.96562 64.0282 7.12502 63.653 7.71051C63.2779 8.296 63.4317 9.08586 63.9965 9.47471Z" fill="#FFF9EB"/>
<path d="M65.9474 14.4806C66.5123 14.8694 67.2742 14.71 67.6494 14.1245C68.0245 13.539 67.8707 12.7492 67.3059 12.3603C66.7411 11.9715 65.9791 12.1309 65.604 12.7164C65.2288 13.3019 65.3826 14.0917 65.9474 14.4806Z" fill="#FFF9EB"/>
<path d="M62.3674 12.0157C62.9322 12.4046 63.6942 12.2452 64.0693 11.6597C64.4444 11.0742 64.2906 10.2843 63.7258 9.89548C63.161 9.50663 62.399 9.66604 62.0239 10.2515C61.6488 10.837 61.8025 11.6269 62.3674 12.0157Z" fill="#FFF9EB"/>
<path d="M64.3205 17.0206C64.8853 17.4095 65.6473 17.2501 66.0224 16.6646C66.3976 16.0791 66.2438 15.2892 65.679 14.9004C65.1141 14.5115 64.3521 14.6709 63.977 15.2564C63.6019 15.8419 63.7557 16.6318 64.3205 17.0206Z" fill="#FFF9EB"/>
<path d="M60.7404 14.5567C61.3052 14.9456 62.0672 14.7862 62.4423 14.2007C62.8175 13.6152 62.6637 12.8253 62.0989 12.4365C61.5341 12.0476 60.7721 12.2071 60.3969 12.7925C60.0218 13.378 60.1756 14.1679 60.7404 14.5567Z" fill="#FFF9EB"/>
</svg>
