<svg width="103" height="49" viewBox="0 0 103 49" fill="none" xmlns="http://www.w3.org/2000/svg">
<path d="M58.6013 23.4268L58.3042 25.0115H60.35L60.6466 23.4268H58.6013Z" fill="#38A1F3"/>
<path d="M10.6069 31.4061L12.1241 23.4824H14.3888L13.2455 29.4446H16.4996L16.1258 31.4061H10.6069Z" fill="#516389"/>
<path d="M20.2765 31.4063C20.2178 31.2659 20.1885 31.0591 20.1885 30.7857H20.1665C19.7561 31.2955 19.254 31.5504 18.6604 31.5504C18.118 31.5504 17.6929 31.4063 17.3851 31.1182C17.0772 30.83 16.9233 30.4422 16.9233 29.9545C16.9233 28.7946 17.6599 28.1741 19.1331 28.0928C19.7707 28.0558 20.2068 27.993 20.4413 27.9044C20.6832 27.8157 20.8042 27.6421 20.8042 27.3835C20.8042 27.088 20.6282 26.9402 20.2765 26.9402C19.8147 26.9402 19.5289 27.1655 19.4189 27.6162H17.473C17.5903 26.9809 17.8871 26.4822 18.3635 26.1202C18.8399 25.7581 19.5179 25.5771 20.3974 25.5771C21.1303 25.5771 21.6946 25.7064 22.0904 25.965C22.6988 26.3714 22.9113 27.0437 22.7281 27.9819L22.2443 30.4754C22.149 30.9187 22.16 31.1994 22.2773 31.3176L22.2663 31.4063H20.2765ZM19.5069 30.2981C20.0273 30.2981 20.3497 29.9915 20.4743 29.3783L20.5733 28.8796C20.3681 28.9682 20.0896 29.0421 19.7378 29.1012C19.5765 29.1234 19.4446 29.1529 19.342 29.1899C19.2394 29.2194 19.1367 29.2859 19.0341 29.3894C18.9389 29.4854 18.8912 29.6147 18.8912 29.7773C18.8912 30.1245 19.0964 30.2981 19.5069 30.2981Z" fill="#516389"/>
<path d="M26.2901 31.4063C26.2315 31.2659 26.2021 31.0591 26.2021 30.7857H26.1801C25.7697 31.2955 25.2677 31.5504 24.674 31.5504C24.1317 31.5504 23.7066 31.4063 23.3987 31.1182C23.0909 30.83 22.937 30.4422 22.937 29.9545C22.937 28.7946 23.6736 28.1741 25.1467 28.0928C25.7844 28.0558 26.2205 27.993 26.455 27.9044C26.6969 27.8157 26.8178 27.6421 26.8178 27.3835C26.8178 27.088 26.6419 26.9402 26.2901 26.9402C25.8283 26.9402 25.5425 27.1655 25.4326 27.6162H23.4867C23.604 26.9809 23.9008 26.4822 24.3772 26.1202C24.8536 25.7581 25.5315 25.5771 26.411 25.5771C27.1439 25.5771 27.7083 25.7064 28.104 25.965C28.7124 26.3714 28.9249 27.0437 28.7417 27.9819L28.258 30.4754C28.1627 30.9187 28.1737 31.1994 28.2909 31.3176L28.28 31.4063H26.2901ZM25.5205 30.2981C26.0409 30.2981 26.3634 29.9915 26.488 29.3783L26.5869 28.8796C26.3817 28.9682 26.1032 29.0421 25.7514 29.1012C25.5901 29.1234 25.4582 29.1529 25.3556 29.1899C25.253 29.2194 25.1504 29.2859 25.0478 29.3894C24.9525 29.4854 24.9049 29.6147 24.9049 29.7773C24.9049 30.1245 25.1101 30.2981 25.5205 30.2981Z" fill="#516389"/>
<path d="M29.3608 27.0066L29.6137 25.7543H30.3283L30.6801 23.9258H32.681L32.3292 25.7543H33.3736L33.1207 27.0066H32.0763L31.6365 29.3449C31.5999 29.5665 31.6183 29.7217 31.6915 29.8104C31.7648 29.8916 31.9187 29.9322 32.1533 29.9322C32.2558 29.9322 32.3878 29.9249 32.5491 29.9101L32.2632 31.373C31.9114 31.469 31.5706 31.517 31.2408 31.517C29.8922 31.517 29.3389 30.8853 29.5807 29.622L30.0754 27.0066H29.3608Z" fill="#516389"/>
<path d="M36.5418 31.4058L36.7068 30.5081H36.6738C36.2267 31.2247 35.6293 31.5831 34.8818 31.5831C34.2735 31.5831 33.8154 31.3799 33.5076 30.9736C33.2071 30.5598 33.1301 29.9836 33.2767 29.2448L33.9473 25.7539H35.9922L35.3765 28.9344C35.3179 29.2152 35.3289 29.4479 35.4095 29.6326C35.4901 29.8173 35.655 29.9097 35.9042 29.9097C36.1607 29.9097 36.3806 29.8247 36.5638 29.6548C36.7471 29.4775 36.868 29.23 36.9266 28.9123L37.5313 25.7539H39.5761L38.4877 31.4058H36.5418Z" fill="#516389"/>
<path d="M42.8078 23.4268L42.0383 27.4496L43.6873 25.6986H45.974L43.7533 27.8153L45.1055 31.3504H42.8848L42.1592 29.2892L41.5765 29.8322L41.2907 31.3504H39.2788L40.796 23.4268H42.8078Z" fill="#516389"/>
<path d="M48.671 31.3507C48.6123 31.2103 48.583 31.0034 48.583 30.73H48.5611C48.1506 31.2398 47.6486 31.4947 47.0549 31.4947C46.5125 31.4947 46.0874 31.3507 45.7796 31.0625C45.4718 30.7744 45.3179 30.3865 45.3179 29.8989C45.3179 28.739 46.0544 28.1184 47.5276 28.0371C48.1653 28.0002 48.6013 27.9374 48.8359 27.8487C49.0777 27.7601 49.1987 27.5864 49.1987 27.3279C49.1987 27.0324 49.0228 26.8846 48.671 26.8846C48.2092 26.8846 47.9234 27.1099 47.8135 27.5606H45.8675C45.9848 26.9252 46.2817 26.4265 46.7581 26.0645C47.2344 25.7025 47.9124 25.5215 48.7919 25.5215C49.5248 25.5215 50.0892 25.6508 50.4849 25.9094C51.0933 26.3157 51.3058 26.988 51.1226 27.9263L50.6389 30.4198C50.5436 30.863 50.5546 31.1438 50.6718 31.262L50.6608 31.3507H48.671ZM47.9014 30.2425C48.4218 30.2425 48.7443 29.9359 48.8689 29.3226L48.9678 28.8239C48.7626 28.9126 48.4841 28.9865 48.1323 29.0456C47.9711 29.0678 47.8391 29.0973 47.7365 29.1343C47.6339 29.1638 47.5313 29.2303 47.4287 29.3337C47.3334 29.4297 47.2858 29.559 47.2858 29.7216C47.2858 30.0689 47.491 30.2425 47.9014 30.2425Z" fill="#516389"/>
<path d="M54.0049 31.5391C53.6527 31.5391 53.3269 31.5058 53.0262 31.4393C52.7332 31.3802 52.4472 31.2805 52.1688 31.1401C51.8975 30.9997 51.6853 30.7928 51.5311 30.5195C51.3772 30.2388 51.3003 29.9063 51.3003 29.5221H53.2354C53.2501 30.0171 53.5285 30.2646 54.0706 30.2646C54.5031 30.2646 54.7194 30.1095 54.7194 29.7992C54.7194 29.7401 54.7082 29.6883 54.6865 29.644C54.6719 29.5997 54.6426 29.5627 54.5986 29.5332C54.5546 29.4962 54.5107 29.4667 54.4667 29.4445C54.4223 29.415 54.3566 29.3891 54.2687 29.367C54.1878 29.3374 54.1146 29.3153 54.0489 29.3005C53.9903 29.2857 53.9023 29.2636 53.7846 29.234C53.675 29.2044 53.5871 29.1823 53.5209 29.1675C52.9418 29.0197 52.5058 28.8239 52.2127 28.5801C51.9268 28.3364 51.7838 27.978 51.7838 27.5052C51.7838 26.8772 52.0293 26.3896 52.5205 26.0424C53.0191 25.6951 53.6568 25.5215 54.4334 25.5215C55.1372 25.5215 55.7233 25.6582 56.1927 25.9316C56.6616 26.2049 56.9071 26.6519 56.9289 27.2725H55.0493C55.02 26.9326 54.7855 26.7627 54.3455 26.7627C54.1696 26.7627 54.0196 26.796 53.8948 26.8625C53.77 26.9289 53.7078 27.0249 53.7078 27.1506C53.7078 27.2835 53.7846 27.3907 53.9387 27.472C54.0928 27.5458 54.3637 27.6271 54.7522 27.7157C55.0306 27.7822 55.2655 27.8524 55.456 27.9263C55.6536 27.9928 55.8517 28.0888 56.0497 28.2144C56.2549 28.34 56.409 28.5063 56.5115 28.7131C56.6212 28.9126 56.6762 29.1453 56.6762 29.4113C56.6762 30.1058 56.4383 30.634 55.9618 30.996C55.4924 31.358 54.8401 31.5391 54.0049 31.5391Z" fill="#516389"/>
<path d="M56.9604 31.3501L58.0488 25.6982H60.0936L59.0053 31.3501H56.9604Z" fill="#516389"/>
<path d="M62.8963 25.6988L62.72 26.5854H62.7533C63.2368 25.8761 63.8563 25.5215 64.6112 25.5215C65.2048 25.5215 65.6409 25.7358 65.9193 26.1643C66.2053 26.5854 66.275 27.1838 66.1285 27.9595L65.4797 31.3507H63.4349L64.0725 28.0593C64.1898 27.4683 64.0028 27.1727 63.5117 27.1727C63.2626 27.1727 63.0428 27.2725 62.8523 27.472C62.6689 27.6714 62.5482 27.9263 62.4896 28.2366L61.8959 31.3507H59.8511L60.9394 25.6988H62.8963Z" fill="#516389"/>
<path d="M69.3493 31.5276C68.5869 31.5276 67.9311 31.3097 67.3813 30.8738C66.8392 30.4379 66.5679 29.8062 66.5679 28.9787C66.5679 27.9961 66.8685 27.176 67.4693 26.5185C68.0705 25.861 68.8582 25.5322 69.8329 25.5322C70.61 25.5322 71.2698 25.7501 71.812 26.186C72.3617 26.6219 72.6401 27.261 72.6477 28.1033C72.6548 29.0932 72.3541 29.9133 71.7458 30.5634C71.1375 31.2062 70.3387 31.5276 69.3493 31.5276ZM68.6238 29.0563C68.6238 29.773 68.8764 30.1313 69.3822 30.1313C69.6611 30.1313 69.8955 30.0057 70.086 29.7545C70.2765 29.5033 70.4048 29.2299 70.4705 28.9344C70.5438 28.6315 70.5771 28.3323 70.5696 28.0368C70.5696 27.7191 70.5074 27.4568 70.3826 27.2499C70.2583 27.0431 70.0603 26.9396 69.7889 26.9396C69.5181 26.9396 69.2872 27.0726 69.0967 27.3386C68.9057 27.5972 68.7779 27.8779 68.7117 28.1808C68.646 28.4837 68.6162 28.7756 68.6238 29.0563Z" fill="#516389"/>
<path d="M73.019 26.9509L73.2717 25.6987H73.9861L74.3383 23.8701H76.3391L75.987 25.6987H77.0313L76.7787 26.9509H75.7343L75.2948 29.2892C75.2579 29.5109 75.2761 29.666 75.3493 29.7547C75.4226 29.836 75.5767 29.8766 75.8111 29.8766C75.9137 29.8766 76.0456 29.8692 76.2073 29.8544L75.9213 31.3172C75.5696 31.4133 75.2286 31.4613 74.8986 31.4613C73.5501 31.4613 72.9968 30.8296 73.2388 29.5663L73.7335 26.9509H73.019Z" fill="#516389"/>
<path fill-rule="evenodd" clip-rule="evenodd" d="M79.7487 26.974C77.4659 26.9029 77.2072 29.7563 77.2072 29.7563L77.1031 30.7083C77.051 31.0728 77.2057 31.4055 77.5674 31.4055H91.0868C91.5804 31.4055 91.8138 31.013 91.8689 30.8168C91.8982 30.6984 92.0301 30.1127 92.3206 28.7177C92.6116 27.3226 91.6193 26.974 91.0868 26.974C88.2588 27.0036 82.0319 27.0451 79.7487 26.974ZM78.0105 30.7277C78.0105 30.897 77.8741 31.0343 77.7049 31.0343C77.5361 31.0343 77.3997 30.897 77.3997 30.7277C77.3997 30.5584 77.5361 30.4211 77.7049 30.4211C77.8741 30.4211 78.0105 30.5584 78.0105 30.7277ZM86.3777 27.5795L85.7087 31.0535H86.9653L87.3236 29.1802C87.364 28.9668 87.4362 28.7988 87.5398 28.6761C87.6434 28.549 87.7697 28.4854 87.9183 28.4854C88.1886 28.4854 88.2876 28.6716 88.2153 29.044L87.8303 31.0535H89.0874L89.4457 29.1802C89.5311 28.717 89.7291 28.4854 90.0398 28.4854C90.3102 28.4854 90.4097 28.6716 90.3375 29.044L89.9524 31.0535H91.209L91.6077 28.9895C91.6981 28.5354 91.6617 28.1698 91.4996 27.8928C91.3374 27.6113 91.0559 27.4705 90.6553 27.4705C90.1909 27.4705 89.8079 27.6794 89.5063 28.0972H89.4861C89.3416 27.6794 89.051 27.4705 88.6145 27.4705C88.3755 27.4705 88.1684 27.525 87.9925 27.6339C87.8212 27.7429 87.657 27.9042 87.4994 28.1176H87.4792L87.5802 27.5795H86.3777ZM79.7886 31.1624C79.2793 31.1624 78.8584 31.0375 78.5249 30.7878C78.196 30.5335 78.0318 30.1452 78.0318 29.623C78.0318 29.0099 78.2207 28.499 78.5992 28.0903C78.9776 27.6816 79.4687 27.4773 80.0725 27.4773C80.5455 27.4773 80.9259 27.5931 81.2144 27.8247C81.5029 28.0563 81.6515 28.4037 81.6606 28.8669H80.4712C80.4484 28.5354 80.3065 28.3696 80.0452 28.3696C79.8785 28.3696 79.7345 28.4423 79.6127 28.5876C79.4955 28.7329 79.4121 28.8987 79.3626 29.0849C79.3177 29.2665 79.2954 29.4504 79.2954 29.6366C79.2954 30.0544 79.4551 30.2633 79.7749 30.2633C79.9235 30.2633 80.0523 30.2111 80.1604 30.1066C80.2726 30.0022 80.354 29.85 80.4035 29.6502H81.5858C81.5049 30.1225 81.2998 30.4926 80.9709 30.7606C80.6425 31.024 80.2478 31.1579 79.7886 31.1624ZM83.5917 31.1624C83.1233 31.1624 82.7201 31.0285 82.3821 30.7606C82.0486 30.4926 81.8819 30.1044 81.8819 29.5957C81.8819 28.9918 82.0668 28.4877 82.4361 28.0835C82.8055 27.6794 83.29 27.4773 83.8888 27.4773C84.3668 27.4773 84.772 27.6113 85.1055 27.8792C85.443 28.1471 85.6142 28.5399 85.6188 29.0576C85.6233 29.6661 85.4389 30.1702 85.065 30.5698C84.6911 30.9649 84.2 31.1624 83.5917 31.1624ZM83.1455 29.6434C83.1455 30.0839 83.3012 30.3042 83.6119 30.3042C83.7832 30.3042 83.9272 30.2269 84.0444 30.0725C84.1616 29.9182 84.2404 29.7501 84.2809 29.5685C84.3258 29.3823 84.346 29.1984 84.342 29.0167C84.342 28.8215 84.3036 28.6603 84.2268 28.5331C84.1505 28.4059 84.0287 28.3424 83.862 28.3424C83.6953 28.3424 83.5533 28.4241 83.4361 28.5876C83.3193 28.7465 83.2405 28.9191 83.1996 29.1053C83.1592 29.2915 83.141 29.4709 83.1455 29.6434Z" fill="#516389"/>
<path d="M12.2245 20.9401C11.7336 20.9401 11.3368 20.8303 11.0342 20.6109C10.7353 20.3876 10.5968 20.0565 10.619 19.6175H11.3885C11.3738 19.8556 11.4439 20.0286 11.5989 20.1365C11.7539 20.2406 11.9698 20.2927 12.2467 20.2927C12.4607 20.2927 12.6397 20.2499 12.7836 20.1644C12.9313 20.0751 13.0051 19.9449 13.0051 19.7737C13.0051 19.6361 12.9479 19.5263 12.8335 19.4445C12.7191 19.3589 12.4902 19.2529 12.147 19.1264C11.7557 18.985 11.4716 18.8343 11.2944 18.6743C11.1172 18.5144 11.0287 18.2893 11.0287 17.9991C11.0287 17.6196 11.1597 17.3238 11.4217 17.1118C11.6838 16.896 12.0344 16.7881 12.4736 16.7881C12.9165 16.7881 13.2764 16.8904 13.5532 17.095C13.8337 17.2996 13.9647 17.6122 13.9463 18.0325H13.1878C13.1952 17.8391 13.1342 17.6903 13.0051 17.5861C12.8796 17.4782 12.6932 17.4243 12.4459 17.4243C12.2725 17.4243 12.1193 17.4614 11.9864 17.5359C11.8536 17.6103 11.7853 17.7293 11.7816 17.893C11.7779 18.0196 11.8259 18.1163 11.9255 18.1832C12.0289 18.2502 12.2485 18.3414 12.5843 18.4567C13.0014 18.6018 13.3059 18.7655 13.4978 18.9478C13.6934 19.1264 13.7912 19.3663 13.7912 19.6677C13.7912 20.0769 13.6473 20.3913 13.3594 20.6109C13.0715 20.8303 12.6932 20.9401 12.2245 20.9401Z" fill="#516389"/>
<path d="M16.9098 19.629H14.9333C14.9333 19.8671 14.9777 20.0476 15.0662 20.1703C15.1585 20.2931 15.3079 20.3545 15.5146 20.3545C15.7989 20.3545 15.9926 20.2355 16.096 19.9973H16.8267C16.7381 20.2652 16.5924 20.4792 16.3894 20.6391C16.1495 20.8289 15.8542 20.9275 15.5036 20.9349C15.116 20.9349 14.8005 20.8233 14.5569 20.6001C14.317 20.3769 14.197 20.0494 14.197 19.6178C14.197 19.1789 14.341 18.7845 14.6289 18.4348C14.9167 18.085 15.2803 17.9102 15.7195 17.9102C16.0074 17.9102 16.2454 17.9715 16.4337 18.0943C16.6441 18.232 16.788 18.4348 16.8655 18.7026C16.9467 18.9705 16.9615 19.2793 16.9098 19.629ZM15.7029 18.4906C15.3559 18.4906 15.1216 18.6971 14.9998 19.11H16.2233C16.2307 18.9277 16.1901 18.7789 16.1015 18.6636C16.0166 18.5483 15.8837 18.4906 15.7029 18.4906Z" fill="#516389"/>
<path d="M18.9251 20.8514C18.8919 20.7919 18.8789 20.6877 18.8863 20.5389H18.8752C18.8051 20.6171 18.7405 20.6803 18.6815 20.7287C18.6261 20.7733 18.5449 20.8161 18.4379 20.8571C18.3308 20.898 18.2127 20.9184 18.0836 20.9184C17.84 20.9184 17.6278 20.8477 17.4469 20.7063C17.2697 20.5613 17.1812 20.351 17.1812 20.0757C17.1812 19.9269 17.2052 19.7986 17.2531 19.6907C17.3011 19.5828 17.3602 19.4953 17.4303 19.4284C17.5041 19.3614 17.6001 19.3075 17.7181 19.2665C17.84 19.2219 17.9562 19.1902 18.0669 19.1716C18.1814 19.1494 18.3161 19.1326 18.4711 19.1214C18.7701 19.0954 18.9675 19.0638 19.0635 19.0266C19.1595 18.9893 19.2074 18.9038 19.2074 18.7699C19.2074 18.5578 19.0598 18.4517 18.7645 18.4517C18.4397 18.4517 18.2459 18.5876 18.1832 18.8591H17.5189C17.5668 18.5615 17.6997 18.3308 17.9175 18.1671C18.1389 17.9997 18.4305 17.916 18.7922 17.916C19.176 17.916 19.4695 18.009 19.6725 18.195C19.8792 18.3773 19.9456 18.6638 19.8718 19.0545L19.606 20.4273C19.5691 20.6134 19.5765 20.7454 19.6282 20.8236V20.8514H18.9251ZM17.8953 20.0088C17.8953 20.1353 17.9341 20.232 18.0116 20.2989C18.0891 20.3659 18.1924 20.3994 18.3216 20.3994C18.5062 20.3994 18.6594 20.351 18.7811 20.2543C18.9066 20.1539 18.9841 20.033 19.0136 19.8916L19.1022 19.4395C18.9952 19.4879 18.8144 19.5362 18.5597 19.5846C18.5375 19.5883 18.4803 19.5976 18.3881 19.6125C18.2995 19.6237 18.2367 19.6349 18.1998 19.646C18.1629 19.6572 18.1149 19.6777 18.0559 19.7074C17.9968 19.7334 17.9544 19.7725 17.9285 19.8246C17.9064 19.873 17.8953 19.9343 17.8953 20.0088Z" fill="#516389"/>
<path d="M20.1187 20.8515L20.8827 16.8613H21.6245L20.8605 20.8515H20.1187Z" fill="#516389"/>
<path d="M23.9978 20.9349C23.6103 20.9349 23.291 20.8196 23.04 20.5889C22.7891 20.3545 22.6636 20.0252 22.6636 19.6011C22.6636 19.1361 22.8112 18.738 23.1065 18.4069C23.4055 18.0757 23.7911 17.9102 24.2635 17.9102C24.64 17.9102 24.9519 18.0255 25.1992 18.2562C25.4502 18.4869 25.5757 18.8068 25.5757 19.2161C25.5757 19.6923 25.4298 20.0978 25.1383 20.4326C24.8467 20.7675 24.4666 20.9349 23.9978 20.9349ZM23.4055 19.6458C23.4055 19.8578 23.4553 20.0327 23.5549 20.1703C23.6546 20.3043 23.8077 20.3712 24.0144 20.3712C24.2802 20.3712 24.4832 20.2522 24.6234 20.0141C24.7636 19.776 24.8338 19.5025 24.8338 19.1937C24.8338 18.9891 24.784 18.818 24.6843 18.6803C24.5847 18.5426 24.4315 18.4738 24.2248 18.4738C23.9591 18.4738 23.7561 18.5929 23.6158 18.831C23.4756 19.0654 23.4055 19.337 23.4055 19.6458Z" fill="#516389"/>
<path d="M25.9187 18.5126L26.0183 17.9881H26.3893L26.4557 17.6476C26.5554 17.1231 26.882 16.857 27.4356 16.8496C27.5611 16.8496 27.694 16.8608 27.8342 16.8831L27.7235 17.4635C27.646 17.4523 27.5759 17.4467 27.5132 17.4467C27.4098 17.4467 27.3323 17.4691 27.2806 17.5137C27.2326 17.5583 27.1976 17.6365 27.1754 17.7481L27.1256 17.9881H27.6183L27.5187 18.5126H27.0259L26.5775 20.8509H25.8412L26.2896 18.5126H25.9187Z" fill="#516389"/>
<path d="M30.3587 20.8514C30.3255 20.7919 30.3125 20.6877 30.3199 20.5389H30.3088C30.2387 20.6171 30.1741 20.6803 30.1151 20.7287C30.0597 20.7733 29.9785 20.8161 29.8715 20.8571C29.7645 20.898 29.6463 20.9184 29.5171 20.9184C29.2736 20.9184 29.0613 20.8477 28.8805 20.7063C28.7033 20.5613 28.6147 20.351 28.6147 20.0757C28.6147 19.9269 28.6387 19.7986 28.6867 19.6907C28.7347 19.5828 28.7938 19.4953 28.8639 19.4284C28.9377 19.3614 29.0337 19.3075 29.1518 19.2665C29.2736 19.2219 29.3898 19.1902 29.5006 19.1716C29.615 19.1494 29.7497 19.1326 29.9047 19.1214C30.2036 19.0954 30.4011 19.0638 30.4971 19.0266C30.5931 18.9893 30.641 18.9038 30.641 18.7699C30.641 18.5578 30.4934 18.4517 30.1981 18.4517C29.8733 18.4517 29.6795 18.5876 29.6168 18.8591H28.9525C29.0005 18.5615 29.1333 18.3308 29.3511 18.1671C29.5725 17.9997 29.8641 17.916 30.2258 17.916C30.6096 17.916 30.9031 18.009 31.106 18.195C31.3127 18.3773 31.3792 18.6638 31.3054 19.0545L31.0396 20.4273C31.0027 20.6134 31.0101 20.7454 31.0618 20.8236V20.8514H30.3587ZM29.3289 20.0088C29.3289 20.1353 29.3677 20.232 29.4452 20.2989C29.5227 20.3659 29.626 20.3994 29.7552 20.3994C29.9397 20.3994 30.0929 20.351 30.2147 20.2543C30.3402 20.1539 30.4177 20.033 30.4472 19.8916L30.5359 19.4395C30.4288 19.4879 30.248 19.5362 29.9933 19.5846C29.9711 19.5883 29.9139 19.5976 29.8217 19.6125C29.7331 19.6237 29.6703 19.6349 29.6334 19.646C29.5965 19.6572 29.5485 19.6777 29.4895 19.7074C29.4304 19.7334 29.388 19.7725 29.3621 19.8246C29.34 19.873 29.3289 19.9343 29.3289 20.0088Z" fill="#516389"/>
<path d="M31.3608 21.7888L32.0916 17.9883H32.8058L32.7394 18.3399H32.756C32.9774 18.0534 33.2671 17.9102 33.6251 17.9102C33.9352 17.9102 34.1751 18.0274 34.3449 18.2618C34.5183 18.4924 34.6051 18.7919 34.6051 19.1602C34.6051 19.3723 34.5774 19.5807 34.522 19.7853C34.4666 19.9862 34.3854 20.1741 34.2784 20.349C34.1714 20.5238 34.0238 20.6652 33.8355 20.7731C33.651 20.881 33.4406 20.9349 33.2044 20.9349C33.0236 20.9349 32.8593 20.894 32.7117 20.8121C32.564 20.7303 32.4515 20.6094 32.3739 20.4494H32.3629L32.1027 21.7888H31.3608ZM32.5124 19.6513C32.5124 19.8374 32.5603 19.9936 32.6563 20.1201C32.756 20.2466 32.9017 20.3099 33.0937 20.3099C33.2708 20.3099 33.4185 20.2522 33.5366 20.1368C33.6547 20.0178 33.7359 19.8783 33.7801 19.7183C33.8245 19.5546 33.8466 19.3779 33.8466 19.1882C33.8466 18.9984 33.8023 18.8403 33.7137 18.7138C33.6288 18.5836 33.4923 18.5185 33.304 18.5185C33.0568 18.5185 32.863 18.6357 32.7227 18.8701C32.5825 19.1007 32.5124 19.3612 32.5124 19.6513Z" fill="#516389"/>
<path d="M34.5796 21.7888L35.3104 17.9883H36.0245L35.9581 18.3399H35.9747C36.1962 18.0534 36.4859 17.9102 36.8439 17.9102C37.154 17.9102 37.3939 18.0274 37.5636 18.2618C37.7371 18.4924 37.8238 18.7919 37.8238 19.1602C37.8238 19.3723 37.7961 19.5807 37.7408 19.7853C37.6854 19.9862 37.6042 20.1741 37.4972 20.349C37.3902 20.5238 37.2425 20.6652 37.0543 20.7731C36.8697 20.881 36.6594 20.9349 36.4231 20.9349C36.2423 20.9349 36.078 20.894 35.9304 20.8121C35.7828 20.7303 35.6702 20.6094 35.5927 20.4494H35.5816L35.3215 21.7888H34.5796ZM35.7311 19.6513C35.7311 19.8374 35.7791 19.9936 35.8751 20.1201C35.9747 20.2466 36.1205 20.3099 36.3124 20.3099C36.4896 20.3099 36.6372 20.2522 36.7554 20.1368C36.8734 20.0178 36.9546 19.8783 36.9989 19.7183C37.0432 19.5546 37.0654 19.3779 37.0654 19.1882C37.0654 18.9984 37.0211 18.8403 36.9325 18.7138C36.8476 18.5836 36.711 18.5185 36.5228 18.5185C36.2755 18.5185 36.0817 18.6357 35.9415 18.8701C35.8013 19.1007 35.7311 19.3612 35.7311 19.6513Z" fill="#516389"/>
<path d="M39.2442 17.9886L39.1556 18.4462H39.1722C39.3642 18.1188 39.6133 17.9551 39.9196 17.9551C40.0082 17.9551 40.0783 17.9625 40.13 17.9774L40.0027 18.6359H39.9861C39.4398 18.5652 39.1077 18.8387 38.9895 19.4563L38.7238 20.8514H37.9819L38.53 17.9886H39.2442Z" fill="#516389"/>
<path d="M41.457 20.9349C41.0695 20.9349 40.7502 20.8196 40.4992 20.5889C40.2483 20.3545 40.1228 20.0252 40.1228 19.6011C40.1228 19.1361 40.2704 18.738 40.5657 18.4069C40.8646 18.0757 41.2503 17.9102 41.7228 17.9102C42.0992 17.9102 42.4111 18.0255 42.6584 18.2562C42.9094 18.4869 43.0348 18.8068 43.0348 19.2161C43.0348 19.6923 42.8891 20.0978 42.5975 20.4326C42.3059 20.7675 41.9257 20.9349 41.457 20.9349ZM40.8646 19.6458C40.8646 19.8578 40.9144 20.0327 41.0141 20.1703C41.1138 20.3043 41.2669 20.3712 41.4736 20.3712C41.7393 20.3712 41.9424 20.2522 42.0826 20.0141C42.2229 19.776 42.293 19.5025 42.293 19.1937C42.293 18.9891 42.2431 18.818 42.1435 18.6803C42.0439 18.5426 41.8907 18.4738 41.684 18.4738C41.4182 18.4738 41.2153 18.5929 41.075 18.831C40.9348 19.0654 40.8646 19.337 40.8646 19.6458Z" fill="#516389"/>
<path d="M43.8002 20.8512L43.3296 17.9883H44.0825L44.2597 19.4337L44.3095 19.9471H44.3206C44.3686 19.8131 44.4368 19.655 44.5254 19.4727L45.2119 17.9883H45.9538L44.5088 20.8512H43.8002Z" fill="#516389"/>
<path d="M47.4817 20.8514C47.4485 20.7919 47.4356 20.6877 47.443 20.5389H47.4319C47.3618 20.6171 47.2972 20.6803 47.2381 20.7287C47.1827 20.7733 47.1016 20.8161 46.9945 20.8571C46.8875 20.898 46.7694 20.9184 46.6402 20.9184C46.3966 20.9184 46.1844 20.8477 46.0035 20.7063C45.8264 20.5613 45.7378 20.351 45.7378 20.0757C45.7378 19.9269 45.7618 19.7986 45.8097 19.6907C45.8577 19.5828 45.9168 19.4953 45.9869 19.4284C46.0608 19.3614 46.1567 19.3075 46.2748 19.2665C46.3966 19.2219 46.5129 19.1902 46.6236 19.1716C46.738 19.1494 46.8727 19.1326 47.0277 19.1214C47.3267 19.0954 47.5242 19.0638 47.6201 19.0266C47.7161 18.9893 47.764 18.9038 47.764 18.7699C47.764 18.5578 47.6164 18.4517 47.3211 18.4517C46.9964 18.4517 46.8026 18.5876 46.7398 18.8591H46.0755C46.1235 18.5615 46.2563 18.3308 46.4741 18.1671C46.6956 17.9997 46.9872 17.916 47.3488 17.916C47.7327 17.916 48.0261 18.009 48.2291 18.195C48.4358 18.3773 48.5022 18.6638 48.4284 19.0545L48.1627 20.4273C48.1258 20.6134 48.1331 20.7454 48.1848 20.8236V20.8514H47.4817ZM46.452 20.0088C46.452 20.1353 46.4907 20.232 46.5682 20.2989C46.6458 20.3659 46.7491 20.3994 46.8783 20.3994C47.0628 20.3994 47.216 20.351 47.3378 20.2543C47.4633 20.1539 47.5408 20.033 47.5703 19.8916L47.6589 19.4395C47.5518 19.4879 47.371 19.5362 47.1163 19.5846C47.0942 19.5883 47.037 19.5976 46.9447 19.6125C46.8561 19.6237 46.7933 19.6349 46.7565 19.646C46.7196 19.6572 46.6716 19.6777 46.6125 19.7074C46.5534 19.7334 46.511 19.7725 46.4852 19.8246C46.463 19.873 46.452 19.9343 46.452 20.0088Z" fill="#516389"/>
<path d="M48.6753 20.8515L49.4393 16.8613H50.1812L49.4172 20.8515H48.6753Z" fill="#516389"/>
</svg>
