<svg width="102" height="49" viewBox="0 0 102 49" fill="none" xmlns="http://www.w3.org/2000/svg">
<path d="M63.1437 27.0329H38.3659C37.1605 27.0329 36.1833 26.0887 36.1833 24.924V10.6929C36.1833 9.52822 37.1605 8.58398 38.3659 8.58398H63.1437C64.3492 8.58398 65.3264 9.52812 65.3264 10.6929V24.924C65.3264 26.0887 64.3492 27.0329 63.1437 27.0329Z" fill="#FF4B55"/>
<path d="M65.3264 15.381H49.2474V8.58398H44.2228V15.381H36.1833V20.2359H44.2228V27.0329H49.2474V20.2359H65.3264V15.381Z" fill="#F5F5F5"/>
<path d="M65.3264 16.352H48.2425V8.58398H45.2278V16.352H36.1833V19.2649H45.2278V27.0329H48.2425V19.2649H65.3264V16.352Z" fill="#41479B"/>
<path d="M7.88647 38.0662V31.2694H9.17272L12.4789 36.0562V31.2694H13.7651V38.0662H12.4789L9.17272 33.289V38.0662H7.88647ZM15.7217 40.2023L16.8773 37.7457H16.5759L14.6364 33.2502H16.0332L17.43 36.6389L18.8872 33.2502H20.2538L17.0884 40.2023H15.7217ZM23.0847 38.1827C22.5823 38.1827 22.1368 38.0791 21.7482 37.8719C21.3596 37.6648 21.0548 37.3735 20.8337 36.9981C20.6127 36.6226 20.5021 36.189 20.5021 35.697C20.5021 35.1985 20.6093 34.7552 20.8237 34.3668C21.0448 33.9784 21.3462 33.6774 21.7281 33.4638C22.1167 33.2437 22.5722 33.1336 23.0947 33.1336C23.5838 33.1336 24.0159 33.2372 24.3911 33.4444C24.7663 33.6515 25.0576 33.9363 25.2654 34.2988C25.4797 34.6548 25.5869 35.0529 25.5869 35.4931C25.5869 35.5643 25.5836 35.6387 25.5768 35.7164C25.5768 35.7941 25.5735 35.875 25.5668 35.9592H21.7783C21.8052 36.3346 21.9391 36.6291 22.1803 36.8427C22.4282 37.0563 22.7263 37.1632 23.0747 37.1632C23.336 37.1632 23.5537 37.1081 23.7278 36.9981C23.9087 36.8816 24.0427 36.7327 24.1298 36.5514H25.4362C25.3424 36.8557 25.185 37.134 24.9639 37.3865C24.7495 37.6325 24.4815 37.8266 24.1599 37.9691C23.8451 38.1114 23.4867 38.1827 23.0847 38.1827ZM23.0947 34.1435C22.7799 34.1435 22.5019 34.2308 22.2607 34.4056C22.0195 34.5739 21.8654 34.8328 21.7984 35.1824H24.2805C24.2604 34.8652 24.1399 34.6127 23.9188 34.425C23.6977 34.2373 23.423 34.1435 23.0947 34.1435ZM26.6687 38.0662V33.2502H27.8042L27.9047 34.0658C28.0589 33.781 28.2799 33.5544 28.568 33.3861C28.8628 33.2178 29.2078 33.1336 29.603 33.1336C30.2194 33.1336 30.6984 33.3214 31.0401 33.6968C31.3817 34.0723 31.5525 34.6224 31.5525 35.3474V38.0662H30.2663V35.464C30.2663 35.0497 30.1792 34.7325 30.005 34.5124C29.8308 34.2924 29.5595 34.1823 29.191 34.1823C28.8293 34.1823 28.5312 34.3053 28.2967 34.5513C28.0689 34.7972 27.955 35.1403 27.955 35.5805V38.0662H26.6687ZM35.1741 38.1827C34.6918 38.1827 34.2563 38.0759 33.8678 37.8622C33.4859 37.6486 33.1811 37.3541 32.9533 36.9787C32.7322 36.5968 32.6217 36.1566 32.6217 35.6581C32.6217 35.1597 32.7356 34.7228 32.9633 34.3474C33.1911 33.9655 33.4959 33.6677 33.8778 33.4541C34.2664 33.2405 34.7018 33.1336 35.1842 33.1336C35.6598 33.1336 36.0886 33.2405 36.4705 33.4541C36.859 33.6677 37.1638 33.9655 37.3849 34.3474C37.6127 34.7228 37.7266 35.1597 37.7266 35.6581C37.7266 36.1566 37.6127 36.5968 37.3849 36.9787C37.1638 37.3541 36.859 37.6486 36.4705 37.8622C36.0819 38.0759 35.6498 38.1827 35.1741 38.1827ZM35.1741 37.1049C35.5091 37.1049 35.8005 36.9852 36.0484 36.7456C36.2963 36.4996 36.4202 36.1372 36.4202 35.6581C36.4202 35.1791 36.2963 34.8199 36.0484 34.5804C35.8005 34.3344 35.5124 34.2114 35.1842 34.2114C34.8425 34.2114 34.5477 34.3344 34.2999 34.5804C34.0587 34.8199 33.9381 35.1791 33.9381 35.6581C33.9381 36.1372 34.0587 36.4996 34.2999 36.7456C34.5477 36.9852 34.8392 37.1049 35.1741 37.1049ZM38.8767 38.0662V33.2502H40.022L40.1426 34.1532C40.3235 33.8425 40.568 33.5965 40.8762 33.4152C41.191 33.2275 41.5595 33.1336 41.9815 33.1336V34.4444H41.6198C41.3384 34.4444 41.0872 34.4865 40.8661 34.5707C40.645 34.6548 40.4708 34.8005 40.3436 35.0076C40.223 35.2148 40.1627 35.5028 40.1627 35.8718V38.0662H38.8767ZM44.9208 38.1827C44.4787 38.1827 44.0901 38.1147 43.7551 37.9788C43.4202 37.8364 43.1522 37.6421 42.9513 37.3962C42.7503 37.1502 42.6297 36.8654 42.5895 36.5417H43.8858C43.926 36.7294 44.0332 36.8913 44.2074 37.0272C44.3882 37.1567 44.6194 37.2214 44.9007 37.2214C45.1821 37.2214 45.3864 37.1664 45.5138 37.0563C45.6477 36.9463 45.7147 36.8201 45.7147 36.6777C45.7147 36.4705 45.6209 36.3313 45.4333 36.2602C45.2458 36.1825 44.9845 36.108 44.6495 36.0368C44.4351 35.9915 44.2174 35.9365 43.9964 35.8718C43.7753 35.807 43.5709 35.7261 43.3834 35.629C43.2025 35.5255 43.0551 35.396 42.9412 35.2406C42.8273 35.0788 42.7704 34.8814 42.7704 34.6484C42.7704 34.2211 42.9446 33.8619 43.2929 33.5706C43.648 33.2793 44.1437 33.1336 44.7802 33.1336C45.3697 33.1336 45.8387 33.2664 46.187 33.5317C46.5421 33.7971 46.7531 34.1629 46.8201 34.6289H45.6042C45.5305 34.2729 45.2524 34.0949 44.7701 34.0949C44.529 34.0949 44.3414 34.1402 44.2074 34.2308C44.0801 34.3215 44.0165 34.4347 44.0165 34.5707C44.0165 34.7131 44.1136 34.8264 44.3079 34.9105C44.5021 34.9947 44.7601 35.0723 45.0816 35.1435C45.43 35.2212 45.7482 35.3086 46.0363 35.4057C46.3311 35.4963 46.5655 35.6355 46.7397 35.8232C46.9139 36.0044 47.001 36.2666 47.001 36.6097C47.0077 36.9074 46.9273 37.1761 46.7598 37.4156C46.5924 37.6551 46.3511 37.8428 46.0363 37.9788C45.7214 38.1147 45.3496 38.1827 44.9208 38.1827ZM48.1404 38.0662V31.0752H49.4267V35.2018L51.1951 33.2502H52.723L50.6828 35.4446L53.0545 38.0662H51.4467L49.4267 35.6484V38.0662H48.1404ZM55.8612 38.1827C55.359 38.1827 54.9133 38.0791 54.5248 37.8719C54.1362 37.6648 53.8316 37.3735 53.6103 36.9981C53.3895 36.6226 53.2788 36.189 53.2788 35.697C53.2788 35.1985 53.3859 34.7552 53.6002 34.3668C53.8215 33.9784 54.1231 33.6774 54.5046 33.4638C54.8931 33.2437 55.3489 33.1336 55.8713 33.1336C56.3604 33.1336 56.7924 33.2372 57.1678 33.4444C57.5427 33.6515 57.8343 33.9363 58.0419 34.2988C58.2562 34.6548 58.3638 35.0529 58.3638 35.4931C58.3638 35.5643 58.3602 35.6387 58.3537 35.7164C58.3537 35.7941 58.3501 35.875 58.3436 35.9592H54.5551C54.5819 36.3346 54.7158 36.6291 54.9568 36.8427C55.2049 37.0563 55.503 37.1632 55.8511 37.1632C56.1128 37.1632 56.3306 37.1081 56.5044 36.9981C56.6853 36.8816 56.8192 36.7327 56.9066 36.5514H58.2127C58.1192 36.8557 57.9616 37.134 57.7408 37.3865C57.526 37.6325 57.2583 37.8266 56.9364 37.9691C56.6216 38.1114 56.2634 38.1827 55.8612 38.1827ZM55.8713 34.1435C55.5565 34.1435 55.2786 34.2308 55.0376 34.4056C54.7961 34.5739 54.642 34.8328 54.5753 35.1824H57.0572C57.037 34.8652 56.9167 34.6127 56.6954 34.425C56.4746 34.2373 56.1997 34.1435 55.8713 34.1435ZM59.9983 38.1341C59.7639 38.1341 59.5693 38.0629 59.4152 37.9205C59.2682 37.7781 59.1944 37.6066 59.1944 37.4059C59.1944 37.1987 59.2682 37.024 59.4152 36.8816C59.5693 36.7391 59.7639 36.668 59.9983 36.668C60.2327 36.668 60.4237 36.7391 60.5713 36.8816C60.7249 37.024 60.8022 37.1987 60.8022 37.4059C60.8022 37.6066 60.7249 37.7781 60.5713 37.9205C60.4237 38.0629 60.2327 38.1341 59.9983 38.1341ZM64.7715 38.1827C64.0611 38.1827 63.4518 38.037 62.9425 37.7457C62.4337 37.448 62.0416 37.0369 61.7667 36.5126C61.4924 35.9818 61.3549 35.3701 61.3549 34.6775C61.3549 33.9849 61.4924 33.3731 61.7667 32.8424C62.0416 32.3116 62.4337 31.8973 62.9425 31.5995C63.4518 31.3018 64.0611 31.1529 64.7715 31.1529C65.6158 31.1529 66.3055 31.3568 66.8416 31.7646C67.3842 32.1659 67.7228 32.7323 67.8567 33.4638H66.4389C66.3525 33.0948 66.165 32.8068 65.877 32.5996C65.5956 32.386 65.2202 32.2792 64.7513 32.2792C64.1015 32.2792 63.5922 32.4928 63.2239 32.9201C62.8556 33.3473 62.6711 33.9331 62.6711 34.6775C62.6711 35.4219 62.8556 36.0077 63.2239 36.4349C63.5922 36.8557 64.1015 37.066 64.7513 37.066C65.2202 37.066 65.5956 36.9689 65.877 36.7748C66.165 36.5741 66.3525 36.299 66.4389 35.9495H67.8567C67.7228 36.6486 67.3842 37.1955 66.8416 37.5904C66.3055 37.9852 65.6158 38.1827 64.7715 38.1827ZM70.6831 38.1827C70.2541 38.1827 69.9025 38.1179 69.6281 37.9885C69.3532 37.8525 69.1491 37.6745 69.0147 37.4544C68.8808 37.2344 68.8141 36.9916 68.8141 36.7262C68.8141 36.2796 68.995 35.9171 69.3568 35.6387C69.7186 35.3604 70.2612 35.2212 70.9847 35.2212H72.2509V35.1047C72.2509 34.7746 72.1534 34.5319 71.9594 34.3765C71.7649 34.2211 71.5239 34.1435 71.2359 34.1435C70.9746 34.1435 70.7468 34.2049 70.5522 34.3279C70.3582 34.4444 70.2375 34.6192 70.1905 34.8522H68.9344C68.9682 34.5027 69.0885 34.1985 69.2961 33.9395C69.5109 33.6806 69.7852 33.4832 70.1202 33.3473C70.4552 33.2049 70.8306 33.1336 71.246 33.1336C71.9559 33.1336 72.5152 33.3052 72.9239 33.6482C73.3327 33.9913 73.5368 34.4768 73.5368 35.1047V38.0662H72.4414L72.3212 37.2894C72.1736 37.5483 71.966 37.7619 71.6982 37.9302C71.437 38.0985 71.0984 38.1827 70.6831 38.1827ZM70.9746 37.2117C71.343 37.2117 71.6274 37.0952 71.8285 36.8621C72.0362 36.6291 72.1671 36.341 72.2206 35.998H71.1252C70.7836 35.998 70.5391 36.0595 70.3916 36.1825C70.244 36.299 70.1708 36.4446 70.1708 36.6194C70.1708 36.8072 70.244 36.9528 70.3916 37.0563C70.5391 37.1599 70.7331 37.2117 70.9746 37.2117ZM76.8246 38.1827C76.3825 38.1827 75.9939 38.1147 75.6589 37.9788C75.3239 37.8364 75.0562 37.6421 74.8551 37.3962C74.654 37.1502 74.5337 36.8654 74.4933 36.5417H75.7898C75.8297 36.7294 75.9368 36.8913 76.1111 37.0272C76.292 37.1567 76.5234 37.2214 76.8044 37.2214C77.0858 37.2214 77.2904 37.1664 77.4177 37.0563C77.5516 36.9463 77.6183 36.8201 77.6183 36.6777C77.6183 36.4705 77.5249 36.3313 77.3374 36.2602C77.1495 36.1825 76.8882 36.108 76.5532 36.0368C76.339 35.9915 76.1212 35.9365 75.8999 35.8718C75.6791 35.807 75.475 35.7261 75.2871 35.629C75.1062 35.5255 74.9591 35.396 74.8449 35.2406C74.7313 35.0788 74.6742 34.8814 74.6742 34.6484C74.6742 34.2211 74.8485 33.8619 75.1966 33.5706C75.5518 33.2793 76.0475 33.1336 76.6841 33.1336C77.2738 33.1336 77.7426 33.2664 78.0908 33.5317C78.446 33.7971 78.6572 34.1629 78.7239 34.6289H77.5082C77.4344 34.2729 77.1565 34.0949 76.674 34.0949C76.433 34.0949 76.245 34.1402 76.1111 34.2308C75.9838 34.3215 75.9201 34.4347 75.9201 34.5707C75.9201 34.7131 76.0172 34.8264 76.2117 34.9105C76.4062 34.9947 76.6639 35.0723 76.9852 35.1435C77.3339 35.2212 77.6522 35.3086 77.9402 35.4057C78.2348 35.4963 78.4692 35.6355 78.6435 35.8232C78.8178 36.0044 78.9047 36.2666 78.9047 36.6097C78.9113 36.9074 78.831 37.1761 78.6637 37.4156C78.496 37.6551 78.255 37.8428 77.9402 37.9788C77.6254 38.1147 77.2535 38.1827 76.8246 38.1827ZM80.7378 32.5025C80.5034 32.5025 80.3089 32.4346 80.1548 32.2986C80.0072 32.1627 79.934 31.9911 79.934 31.784C79.934 31.5769 80.0072 31.4086 80.1548 31.2791C80.3089 31.1432 80.5034 31.0752 80.7378 31.0752C80.9723 31.0752 81.1633 31.1432 81.3103 31.2791C81.4644 31.4086 81.5417 31.5769 81.5417 31.784C81.5417 31.9911 81.4644 32.1627 81.3103 32.2986C81.1633 32.4346 80.9723 32.5025 80.7378 32.5025ZM80.0946 38.0662V33.2502H81.3805V38.0662H80.0946ZM82.7235 38.0662V33.2502H83.8588L83.9594 34.0658C84.1135 33.781 84.3348 33.5544 84.6228 33.3861C84.9174 33.2178 85.2625 33.1336 85.6576 33.1336C86.274 33.1336 86.753 33.3214 87.0946 33.6968C87.4366 34.0723 87.6074 34.6224 87.6074 35.3474V38.0662H86.321V35.464C86.321 35.0497 86.2341 34.7325 86.0598 34.5124C85.8855 34.2924 85.6141 34.1823 85.2458 34.1823C84.884 34.1823 84.5859 34.3053 84.3515 34.5513C84.1236 34.7972 84.0099 35.1403 84.0099 35.5805V38.0662H82.7235ZM91.2286 38.1827C90.7466 38.1827 90.3111 38.0759 89.9225 37.8622C89.5405 37.6486 89.2358 37.3541 89.008 36.9787C88.7867 36.5968 88.6765 36.1566 88.6765 35.6581C88.6765 35.1597 88.7902 34.7228 89.0181 34.3474C89.246 33.9655 89.5506 33.6677 89.9326 33.4541C90.3212 33.2405 90.7567 33.1336 91.2387 33.1336C91.7147 33.1336 92.1431 33.2405 92.5251 33.4541C92.9137 33.6677 93.2183 33.9655 93.4396 34.3474C93.6675 34.7228 93.7812 35.1597 93.7812 35.6581C93.7812 36.1566 93.6675 36.5968 93.4396 36.9787C93.2183 37.3541 92.9137 37.6486 92.5251 37.8622C92.1366 38.0759 91.7046 38.1827 91.2286 38.1827ZM91.2286 37.1049C91.5636 37.1049 91.8551 36.9852 92.1032 36.7456C92.3508 36.4996 92.4746 36.1372 92.4746 35.6581C92.4746 35.1791 92.3508 34.8199 92.1032 34.5804C91.8551 34.3344 91.5671 34.2114 91.2387 34.2114C90.8972 34.2114 90.6026 34.3344 90.3545 34.5804C90.1135 34.8199 89.9927 35.1791 89.9927 35.6581C89.9927 36.1372 90.1135 36.4996 90.3545 36.7456C90.6026 36.9852 90.8936 37.1049 91.2286 37.1049Z" fill="#516389"/>
</svg>
