<svg width="102" height="49" viewBox="0 0 102 49" fill="none" xmlns="http://www.w3.org/2000/svg">
<path d="M17.3232 17.0434C17.3232 17.5326 17.2527 17.9845 17.1118 18.3991C16.9708 18.8136 16.7635 19.1702 16.4899 19.4687C16.2246 19.7589 15.8971 19.9828 15.5074 20.1403C15.1177 20.2978 14.6907 20.3766 14.2263 20.3766C13.2811 20.3766 12.5266 20.074 11.9628 19.4687C11.3989 18.8551 11.117 18.0467 11.117 17.0434C11.117 16.0484 11.3989 15.2483 11.9628 14.643C12.5266 14.0295 13.2811 13.7227 14.2263 13.7227C14.6907 13.7227 15.1177 13.8014 15.5074 13.959C15.8971 14.1165 16.2246 14.3445 16.4899 14.643C16.7635 14.9332 16.9708 15.2856 17.1118 15.7002C17.2527 16.1065 17.3232 16.5542 17.3232 17.0434ZM12.8707 17.0434C12.8707 17.4082 12.9204 17.744 13.0199 18.0508C13.1277 18.3576 13.2894 18.5856 13.505 18.7349C13.7206 18.8841 13.961 18.9587 14.2263 18.9587C14.6575 18.9587 14.9891 18.7888 15.2213 18.4488C15.4535 18.1089 15.5696 17.6404 15.5696 17.0434C15.5696 16.4547 15.4535 15.9904 15.2213 15.6504C14.9891 15.3105 14.6575 15.1405 14.2263 15.1405C13.961 15.1405 13.7289 15.211 13.5298 15.3519C13.3309 15.4846 13.1692 15.6961 13.0448 15.9862C12.9287 16.2765 12.8707 16.6288 12.8707 17.0434Z" fill="#516389"/>
<path d="M20.3229 20.2274H18.619V14.2699C19.0087 14.1041 19.4564 13.9714 19.9622 13.8719C20.468 13.7724 20.9572 13.7227 21.4298 13.7227C22.3418 13.7227 23.0466 13.9424 23.5441 14.3818C24.0416 14.8213 24.2903 15.4515 24.2903 16.2723V20.2274H22.574V16.3967C22.574 15.5592 22.1884 15.1405 21.4174 15.1405C21.0111 15.1405 20.6462 15.2152 20.3229 15.3644V20.2274Z" fill="#516389"/>
<path d="M27.5247 11.21V17.9261C27.5247 18.2661 27.5745 18.5231 27.674 18.6972C27.7818 18.8713 27.9559 18.9584 28.1963 18.9584C28.329 18.9584 28.4493 18.9459 28.557 18.9211L28.6814 20.2767C28.3664 20.343 28.0761 20.3762 27.8108 20.3762C26.4759 20.3762 25.8084 19.5678 25.8084 17.951V11.3094L27.5247 11.21Z" fill="#516389"/>
<path d="M31.4252 13.8714V20.2269H29.7089V13.8714H31.4252ZM30.5671 13.0257C30.2603 13.0257 30.0157 12.9386 29.8333 12.7645C29.6592 12.5904 29.5721 12.3582 29.5721 12.068C29.5721 11.7778 29.6592 11.5456 29.8333 11.3715C30.0157 11.1974 30.2603 11.1104 30.5671 11.1104C30.8656 11.1104 31.1019 11.2016 31.276 11.384C31.4584 11.5581 31.5496 11.7861 31.5496 12.068C31.5496 12.3499 31.4584 12.5821 31.276 12.7645C31.1019 12.9386 30.8656 13.0257 30.5671 13.0257Z" fill="#516389"/>
<path d="M34.7877 20.2274H33.0838V14.2699C33.4735 14.1041 33.9213 13.9714 34.427 13.8719C34.9328 13.7724 35.422 13.7227 35.8946 13.7227C36.8067 13.7227 37.5115 13.9424 38.009 14.3818C38.5064 14.8213 38.7552 15.4515 38.7552 16.2723V20.2274H37.0388V16.3967C37.0388 15.5592 36.6533 15.1405 35.8822 15.1405C35.4759 15.1405 35.1111 15.2152 34.7877 15.3644V20.2274Z" fill="#516389"/>
<path d="M45.2478 18.5732L45.5215 19.9537C45.2478 20.0781 44.9162 20.1776 44.5265 20.2522C44.1368 20.3351 43.7429 20.3766 43.3449 20.3766C42.8557 20.3766 42.3997 20.302 41.9768 20.1527C41.5623 19.9952 41.2057 19.7713 40.9072 19.4811C40.6087 19.1909 40.3766 18.8385 40.2107 18.4239C40.0532 18.0011 39.9744 17.5409 39.9744 17.0434C39.9744 16.5625 40.0491 16.1189 40.1983 15.7126C40.3476 15.2981 40.559 14.9456 40.8326 14.6555C41.1062 14.357 41.4337 14.1289 41.8151 13.9714C42.1966 13.8056 42.6111 13.7227 43.0589 13.7227C43.8631 13.7227 44.514 13.9839 45.0115 14.5062C45.509 15.0286 45.7578 15.7085 45.7578 16.5459C45.7578 16.8444 45.7412 17.1595 45.708 17.4912H41.7779C41.9354 18.453 42.5158 18.9339 43.519 18.9339C44.0994 18.9339 44.6757 18.8136 45.2478 18.5732ZM43.0589 15.0908C42.7023 15.0908 42.408 15.211 42.1758 15.4515C41.952 15.6919 41.811 16.0236 41.753 16.4464H44.116V16.2972C44.116 15.9407 44.0207 15.6504 43.83 15.4266C43.6476 15.2027 43.3905 15.0908 43.0589 15.0908Z" fill="#516389"/>
<path d="M58.8423 13.7227C59.149 13.7227 59.4764 13.7559 59.8251 13.8222C60.1732 13.8885 60.4718 13.9797 60.7204 14.0958L60.397 15.4515C60.1732 15.3603 59.9327 15.2856 59.6755 15.2276C59.4183 15.1695 59.1904 15.1405 58.9914 15.1405C58.4942 15.1405 58.1087 15.3064 57.8348 15.638C57.5696 15.9697 57.4367 16.4299 57.4367 17.0185C57.4367 17.657 57.5776 18.142 57.8596 18.4737C58.1415 18.7971 58.5477 18.9587 59.0788 18.9587C59.2693 18.9587 59.4931 18.9297 59.7503 18.8717C60.0075 18.8136 60.2434 18.7349 60.4592 18.6354L60.7325 20.0159C60.5173 20.1237 60.252 20.2108 59.9367 20.2771C59.6214 20.3434 59.29 20.3766 58.9419 20.3766C57.9217 20.3766 57.1219 20.0823 56.5413 19.4936C55.9694 18.8966 55.6834 18.0881 55.6834 17.0683C55.6834 16.5708 55.7536 16.1148 55.8946 15.7002C56.0437 15.2856 56.2554 14.9332 56.5287 14.643C56.8026 14.3445 57.134 14.1165 57.5241 13.959C57.9217 13.8014 58.3613 13.7227 58.8423 13.7227Z" fill="#516389"/>
<path d="M64.248 19.1453C64.6128 19.1453 64.9029 19.0873 65.1186 18.9712V17.6404C64.8114 17.5741 64.5173 17.5409 64.2354 17.5409C63.9368 17.5409 63.6922 17.6072 63.5018 17.7399C63.3108 17.8726 63.2158 18.0757 63.2158 18.3493C63.2158 18.6064 63.3067 18.8054 63.4891 18.9463C63.6715 19.079 63.9247 19.1453 64.248 19.1453ZM66.785 19.8294C66.4949 19.9786 66.1094 20.1071 65.6284 20.2149C65.156 20.3227 64.6376 20.3766 64.0737 20.3766C63.2527 20.3766 62.6186 20.1983 62.1709 19.8418C61.7313 19.477 61.5115 19.0044 61.5115 18.4239C61.5115 17.8187 61.7394 17.3419 62.1957 16.9937C62.6519 16.6454 63.2572 16.4671 64.0116 16.4589C64.3349 16.4589 64.7038 16.4921 65.1186 16.5583V16.2599C65.1186 15.5136 64.6957 15.1405 63.8499 15.1405C63.5846 15.1405 63.3027 15.1654 63.0041 15.2152C62.7055 15.2649 62.4402 15.3395 62.2083 15.439L61.8971 14.0958C62.1709 13.9797 62.5109 13.8885 62.9172 13.8222C63.3315 13.7559 63.7089 13.7227 64.049 13.7227C64.9443 13.7227 65.6244 13.9548 66.0887 14.4192C66.5531 14.8752 66.785 15.5261 66.785 16.3718V19.8294Z" fill="#516389"/>
<path d="M72.4143 14.0834L72.2279 15.4763C71.4897 15.2524 70.9137 15.1405 70.4989 15.1405C70.2336 15.1405 70.0224 15.182 69.8648 15.2649C69.7071 15.3478 69.6283 15.4763 69.6283 15.6504C69.6283 15.7416 69.649 15.8287 69.6905 15.9116C69.7405 15.9862 69.84 16.0567 69.9891 16.1231C70.1381 16.1894 70.3625 16.264 70.6606 16.3469C71.4154 16.5542 71.954 16.8071 72.2774 17.1056C72.6094 17.4041 72.7751 17.827 72.7751 18.3742C72.7751 18.7805 72.6755 19.1287 72.4765 19.4189C72.286 19.7091 71.9955 19.9413 71.6059 20.1154C71.2244 20.2896 70.7434 20.3766 70.1634 20.3766C69.8067 20.3766 69.4171 20.3393 68.9942 20.2647C68.5713 20.1983 68.2105 20.0988 67.9119 19.9662L68.1484 18.5608C68.4384 18.6686 68.7577 18.7639 69.1059 18.8468C69.4626 18.9215 69.8026 18.9587 70.126 18.9587C70.416 18.9587 70.6484 18.909 70.8222 18.8095C71.0046 18.71 71.0961 18.5773 71.0961 18.4115C71.0961 18.2622 71.0339 18.1379 70.9097 18.0384C70.7934 17.9306 70.412 17.7855 69.7652 17.6031C69.1847 17.4538 68.733 17.23 68.4096 16.9315C68.0943 16.633 67.9372 16.2184 67.9372 15.6878C67.9372 15.0576 68.1484 14.5726 68.5713 14.2326C69.0023 13.8926 69.5995 13.7227 70.3624 13.7227C70.6772 13.7227 71.0254 13.7559 71.4068 13.8222C71.7969 13.8885 72.1324 13.9755 72.4143 14.0834Z" fill="#516389"/>
<path d="M75.5543 13.8714V20.2269H73.8379V13.8714H75.5543ZM74.6958 13.0257C74.3892 13.0257 74.1446 12.9386 73.9622 12.7645C73.7879 12.5904 73.701 12.3582 73.701 12.068C73.701 11.7778 73.7879 11.5456 73.9622 11.3715C74.1446 11.1974 74.3892 11.1104 74.6958 11.1104C74.9945 11.1104 75.2309 11.2016 75.4047 11.384C75.5871 11.5581 75.6786 11.7861 75.6786 12.068C75.6786 12.3499 75.5871 12.5821 75.4047 12.7645C75.2309 12.9386 74.9945 13.0257 74.6958 13.0257Z" fill="#516389"/>
<path d="M78.9165 20.2274H77.2127V14.2699C77.6023 14.1041 78.0499 13.9714 78.5557 13.8719C79.0615 13.7724 79.5511 13.7227 80.0235 13.7227C80.9355 13.7227 81.6403 13.9424 82.138 14.3818C82.6352 14.8213 82.8843 15.4515 82.8843 16.2723V20.2274H81.1679V16.3967C81.1679 15.5592 80.7824 15.1405 80.0109 15.1405C79.6046 15.1405 79.2398 15.2152 78.9165 15.3644V20.2274Z" fill="#516389"/>
<path d="M90.3114 17.0434C90.3114 17.5326 90.2407 17.9845 90.0997 18.3991C89.9588 18.8136 89.7516 19.1702 89.4777 19.4687C89.2125 19.7589 88.8851 19.9828 88.4955 20.1403C88.106 20.2978 87.6785 20.3766 87.2142 20.3766C86.2693 20.3766 85.5145 20.074 84.9506 19.4687C84.3872 18.8551 84.1053 18.0467 84.1053 17.0434C84.1053 16.0484 84.3872 15.2483 84.9506 14.643C85.5145 14.0295 86.2693 13.7227 87.2142 13.7227C87.6785 13.7227 88.106 13.8014 88.4955 13.959C88.8851 14.1165 89.2125 14.3445 89.4777 14.643C89.7516 14.9332 89.9588 15.2856 90.0997 15.7002C90.2407 16.1065 90.3114 16.5542 90.3114 17.0434ZM85.8585 17.0434C85.8585 17.4082 85.9086 17.744 86.0081 18.0508C86.1157 18.3576 86.2774 18.5856 86.4932 18.7349C86.7084 18.8841 86.9489 18.9587 87.2142 18.9587C87.6457 18.9587 87.9771 18.7888 88.2095 18.4488C88.4415 18.1089 88.5577 17.6404 88.5577 17.0434C88.5577 16.4547 88.4415 15.9904 88.2095 15.6504C87.9771 15.3105 87.6457 15.1405 87.2142 15.1405C86.9489 15.1405 86.717 15.211 86.5179 15.3519C86.3188 15.4846 86.1572 15.6961 86.0329 15.9862C85.9166 16.2765 85.8585 16.6288 85.8585 17.0434Z" fill="#516389"/>
<path d="M53.1378 17.1178C53.1378 18.2626 52.2097 19.1907 51.0647 19.1907C49.9201 19.1907 48.992 18.2626 48.992 17.1178C48.992 15.973 49.9201 15.0449 51.0647 15.0449C52.2097 15.0449 53.1378 15.973 53.1378 17.1178Z" fill="#516389"/>
<path fill-rule="evenodd" clip-rule="evenodd" d="M14.6865 23.3359C12.454 23.3359 10.6443 25.1456 10.6443 27.378V33.8039C10.6443 36.0363 12.454 37.846 14.6865 37.846H87.4443C89.6766 37.846 91.4865 36.0363 91.4865 33.8039V27.378C91.4865 25.1456 89.6766 23.3359 87.4443 23.3359H14.6865ZM62.9588 30.7982C62.9588 31.2349 62.8982 31.6385 62.7764 32.0088C62.6602 32.3791 62.4889 32.697 62.262 32.9623C62.0412 33.2277 61.7649 33.4349 61.4329 33.5842C61.107 33.7279 60.7422 33.7998 60.3385 33.7998C59.9353 33.7998 59.5675 33.7279 59.236 33.5842C58.9096 33.4349 58.6332 33.2277 58.4069 32.9623C58.18 32.697 58.0057 32.3791 57.8844 32.0088C57.7682 31.6385 57.7101 31.2349 57.7101 30.7982C57.7101 30.3616 57.7682 29.958 57.8844 29.5877C58.0057 29.2174 58.1775 28.8995 58.3983 28.6342C58.6251 28.3688 58.9041 28.1643 59.236 28.0206C59.5675 27.8713 59.9353 27.7967 60.3385 27.7967C60.7422 27.7967 61.107 27.8713 61.4329 28.0206C61.7649 28.1643 62.0412 28.3688 62.262 28.6342C62.4889 28.8995 62.6602 29.2174 62.7764 29.5877C62.8982 29.958 62.9588 30.3616 62.9588 30.7982ZM58.9374 30.7982C58.9374 31.246 58.998 31.6136 59.1198 31.901C59.2416 32.1884 59.4043 32.404 59.6089 32.5477C59.8135 32.6859 60.0566 32.7551 60.3385 32.7551C60.7917 32.7551 61.1373 32.5809 61.3748 32.2327C61.6128 31.8789 61.7315 31.4007 61.7315 30.7982C61.7315 30.1957 61.6128 29.7203 61.3748 29.3721C61.1373 29.0183 60.7917 28.8414 60.3385 28.8414C59.8797 28.8414 59.5316 29.0155 59.2941 29.3638C59.0561 29.7121 58.9374 30.1902 58.9374 30.7982ZM35.4277 31.4118C35.7482 30.3394 36.0081 29.5877 36.207 29.1565C36.3894 29.549 36.6465 30.3007 36.9782 31.4118H35.4277ZM37.2766 32.4234L37.6249 33.7003H38.8437C38.5618 32.6721 38.2384 31.6301 37.8736 30.5744C37.5143 29.5186 37.1633 28.6259 36.8206 27.8962H35.5851C35.2425 28.6203 34.8915 29.5075 34.5321 30.5578C34.1784 31.6081 33.8578 32.6555 33.5704 33.7003H34.7892C34.9053 33.236 35.0214 32.8103 35.1374 32.4234H37.2766ZM40.3944 27.8962V33.7003H41.58V31.8679H42.1604C42.5142 31.8679 42.8348 31.8264 43.1223 31.7435C43.4153 31.655 43.664 31.5279 43.8685 31.362C44.073 31.1907 44.2278 30.9807 44.3328 30.7319C44.4434 30.4832 44.4986 30.2013 44.4986 29.8862C44.4986 29.256 44.2886 28.7668 43.8685 28.4186C43.4539 28.0704 42.8846 27.8962 42.1604 27.8962H40.3944ZM42.9896 29.1399C43.1831 29.2892 43.2798 29.5379 43.2798 29.8862C43.2798 30.2344 43.1831 30.4859 42.9896 30.6407C42.7962 30.7899 42.5114 30.8646 42.1356 30.8646H41.58V28.9078H42.1356C42.5114 28.9078 42.7962 28.9852 42.9896 29.1399ZM46.2681 33.7003V27.8962H48.0341C48.7583 27.8962 49.3276 28.0704 49.7422 28.4186C50.1623 28.7668 50.3723 29.256 50.3723 29.8862C50.3723 30.2013 50.3171 30.4832 50.2065 30.7319C50.1015 30.9807 49.9467 31.1907 49.7422 31.362C49.5377 31.5279 49.2889 31.655 48.9959 31.7435C48.7085 31.8264 48.3879 31.8679 48.0341 31.8679H47.4537V33.7003H46.2681ZM49.1535 29.8862C49.1535 29.5379 49.0568 29.2892 48.8633 29.1399C48.6698 28.9852 48.3851 28.9078 48.0093 28.9078H47.4537V30.8646H48.0093C48.3851 30.8646 48.6698 30.7899 48.8633 30.6407C49.0568 30.4859 49.1535 30.2344 49.1535 29.8862ZM53.3355 28.9078H53.7918C54.2172 28.9078 54.5103 28.9769 54.6705 29.1151C54.8367 29.2533 54.9195 29.455 54.9195 29.7203C54.9195 29.9912 54.8281 30.1985 54.6457 30.3422C54.4689 30.4804 54.1844 30.5495 53.7918 30.5495H53.3355V28.9078ZM55.2429 33.7003H56.5197L55.6739 31.9425C55.5688 31.7324 55.4612 31.5666 55.3505 31.445C55.2399 31.3178 55.1186 31.2266 54.9857 31.1714C55.2177 31.1106 55.4198 31.0166 55.591 30.8895C55.7623 30.7623 55.8952 30.5937 55.9892 30.3837C56.0887 30.1736 56.1382 29.9194 56.1382 29.6209C56.1382 29.0681 55.9366 28.6425 55.5329 28.344C55.1292 28.0454 54.5684 27.8962 53.8499 27.8962H52.1416V33.7003H53.3355V31.5445H53.6923C53.8691 31.5445 54.0182 31.5859 54.1399 31.6688C54.2617 31.7518 54.3668 31.8817 54.4552 32.0585L55.2429 33.7003ZM66.0364 33.7003H67.3713C67.7638 32.8877 68.1317 31.9618 68.4742 30.9226C68.8168 29.8834 69.0907 28.8746 69.2948 27.8962H68.068C67.8856 28.742 67.6643 29.6043 67.4046 30.4832C67.1505 31.3565 66.9155 32.0503 66.6998 32.5643C66.4896 32.0503 66.2546 31.3538 65.9949 30.4749C65.7408 29.596 65.5225 28.7364 65.3401 27.8962H64.1128C64.3174 28.8746 64.5908 29.8834 64.9339 30.9226C65.2764 31.9618 65.6443 32.8877 66.0364 33.7003ZM74.4631 32.6887V33.7003H70.848V27.8962H74.4631V28.9078H72.0333V30.251H74.1064V31.2626H72.0333V32.6887H74.4631ZM79.4354 29.3887C79.7174 29.7038 79.8583 30.1681 79.8583 30.7816C79.8583 31.4007 79.7174 31.8734 79.4354 32.1995C79.1535 32.5257 78.7306 32.6887 78.1672 32.6887H77.4457V28.9078H78.1672C78.7361 28.9078 79.159 29.0681 79.4354 29.3887ZM76.2598 27.8962V33.7003H78.2001C78.626 33.7003 79.0155 33.634 79.3692 33.5013C79.7285 33.3686 80.0352 33.1751 80.2898 32.9209C80.544 32.6666 80.74 32.3571 80.8785 31.9922C81.0164 31.6274 81.0856 31.2239 81.0856 30.7816C81.0856 30.345 81.0164 29.947 80.8785 29.5877C80.7456 29.2229 80.5521 28.9161 80.2979 28.6673C80.0438 28.4186 79.7371 28.2279 79.3773 28.0952C79.0181 27.9625 78.626 27.8962 78.2001 27.8962H76.2598ZM24.6362 35.7732C27.7844 35.7732 30.3366 33.221 30.3366 30.0728C30.3366 26.9245 27.7844 24.3723 24.6362 24.3723C21.488 24.3723 18.9358 26.9245 18.9358 30.0728C18.9358 33.221 21.488 35.7732 24.6362 35.7732ZM24.6362 34.9587C21.9378 34.9587 19.7503 32.7712 19.7503 30.0728C19.7503 27.3744 21.9378 25.1869 24.6362 25.1869C27.3346 25.1869 29.5221 27.3744 29.5221 30.0728C29.5221 32.7712 27.3346 34.9587 24.6362 34.9587ZM27.9996 31.4317L27.2427 31.1259C27.0345 31.6414 26.678 32.0836 26.2184 32.3965C25.7588 32.7094 25.2167 32.879 24.6608 32.8839C24.1048 32.8887 23.5598 32.7286 23.0948 32.4238C22.6298 32.1189 22.2657 31.683 22.0484 31.1712L21.2971 31.4901C21.4349 31.815 21.6187 32.1161 21.8412 32.3851C22.0711 32.663 22.3424 32.9065 22.6473 33.1064C23.2473 33.4998 23.9505 33.7064 24.6679 33.7001C25.3853 33.6939 26.0847 33.4751 26.6778 33.0712C26.9792 32.8661 27.2461 32.6178 27.4711 32.336C27.6889 32.0631 27.8674 31.7589 27.9996 31.4317Z" fill="#516389"/>
</svg>
