<svg width="102" height="49" viewBox="0 0 102 49" fill="none" xmlns="http://www.w3.org/2000/svg">
<path fill-rule="evenodd" clip-rule="evenodd" d="M10.9646 9.10055C10.8823 9.04386 10.7771 9.03497 10.6867 9.07711L8.14739 10.261C8.06402 10.2999 8.00399 10.3773 7.98606 10.4691C7.96807 10.5609 7.99434 10.6559 8.05669 10.7245L9.08409 11.8556L8.54457 12.7056C8.48758 12.7953 8.48329 12.9098 8.53346 13.0037L9.1569 14.1718L5.40605 13.0801C5.31997 13.055 5.22739 13.0727 5.15596 13.1278C5.08454 13.1829 5.04254 13.269 5.04254 13.3605V16.0273C5.04254 16.0641 5.04937 16.1006 5.06265 16.1348L5.22632 16.5563L4.10696 17.5272C4.0431 17.5826 4.00629 17.6638 4.00629 17.7494V19.2422L2.39283 19.9384C2.27939 19.9874 2.20948 20.1051 2.21945 20.2305L2.5876 24.8612L2.22604 28.326C2.22183 28.3663 2.2259 28.4071 2.23798 28.4457L3.39953 32.1589C3.43068 32.2585 3.51166 32.3334 3.61175 32.3552L5.18587 32.6985L4.81776 33.0791C4.77142 33.127 4.74274 33.1898 4.73662 33.2569L4.37223 37.2512C4.36397 37.3417 4.39755 37.4311 4.46302 37.4927L6.15973 39.0892C6.22905 39.1544 6.32541 39.1804 6.41721 39.1588L10.8594 38.1113L11.9016 39.8127C11.942 39.8785 12.0062 39.9251 12.0802 39.9423C12.1542 39.9595 12.2319 39.9459 12.2961 39.9044L13.9322 38.847L15.1693 39.5207C15.245 39.5619 15.3347 39.5661 15.4138 39.5323L17.8765 38.4786L19.4083 39.6521C19.53 39.7453 19.7019 39.7247 19.7991 39.6051L21.393 37.6438C21.4475 37.5768 21.4698 37.4883 21.4536 37.4027L21.1419 35.7438L22.7829 33.5696C22.8092 33.5348 22.8275 33.4944 22.8362 33.4514L23.2462 31.4543C23.2649 31.3632 23.2399 31.2684 23.1788 31.1992L21.1805 28.9357L21.4953 27.6882C21.5314 27.5452 21.4571 27.3972 21.3223 27.3437L21.0988 27.2551L21.4785 26.9853L22.2659 27.3383C22.3533 27.3775 22.4542 27.3694 22.5346 27.3167L25.1252 25.6185C25.1936 25.5737 25.24 25.5012 25.2529 25.4192L25.6116 23.1291C25.6243 23.0476 25.6027 22.9644 25.552 22.9001L24.4086 21.451L25.5107 20.528C25.5933 20.4589 25.6311 20.3486 25.6089 20.2419L25.2104 18.3285C25.1884 18.2233 25.1116 18.139 25.0105 18.1091L23.6258 17.7L22.3468 15.3594L21.6436 13.1853C21.6218 13.1178 21.5766 13.0608 21.5165 13.025L17.9352 10.8903C17.8314 10.8285 17.7009 10.8396 17.6086 10.9183L16.1996 12.1193L16.1518 11.2513C16.1469 11.1619 16.102 11.0797 16.03 11.0285C15.9581 10.9773 15.8672 10.9627 15.7834 10.9889L13.0629 11.8402L12.957 10.6024C12.9495 10.5148 12.9036 10.4353 12.8322 10.3861L10.9646 9.10055Z" fill="white"/>
<path d="M2.84155 28.3345L3.19636 24.8802L2.89854 21.04H23.9393L23.5548 21.3454L24.974 23.1582L24.6384 25.2227L22.3178 26.6728L21.4547 26.2901L19.7094 27.3979L20.7643 27.7806L20.419 29.0999L21.4739 30.2681H3.43412L3.07611 29.0999L2.84155 28.3345Z" fill="#FC3A3B"/>
<path d="M6.36209 32.3834L3.91677 31.8396L3.4353 30.2686H21.4751L22.5299 31.4367L22.1559 33.3199L20.4202 35.5859L20.775 37.3885L19.538 38.8488L17.9462 37.7209L15.2899 38.8488L13.9186 38.1136L12.2021 39.2315L11.0705 37.3785L6.36209 38.4863L4.95243 37.1569L5.31683 33.3199L6.36209 32.3834Z" fill="#FCCA4A"/>
<path d="M15.6908 13.373L17.7957 11.5099L21.121 13.4573L21.8019 15.6326L23.2211 18.2207L24.6308 18.5732L24.9664 20.2148L23.9316 21.0474H2.89089L2.84351 20.4363L4.10839 19.913L4.60793 19.6709V17.8783L5.98883 16.7101L5.65318 15.985V13.7997L9.51774 14.8873L9.86299 14.1723L9.14374 12.8732L9.86299 11.7855L8.7698 10.6375L10.774 9.71094L12.3754 10.7986L12.5289 12.6516L15.5879 11.6747L15.6908 13.373Z" fill="black"/>
<path d="M29.5238 19.8358C29.2789 19.8358 29.0421 19.7867 28.8134 19.6886C28.5848 19.5905 28.3786 19.4433 28.1948 19.247C28.0152 19.0507 27.8723 18.8075 27.7662 18.5176C27.6641 18.2277 27.613 17.8886 27.613 17.5005C27.613 17.1258 27.6661 16.7934 27.7723 16.5034C27.8785 16.2135 28.0213 15.9704 28.201 15.7741C28.3806 15.5734 28.5848 15.4239 28.8134 15.3258C29.0421 15.2232 29.2789 15.1719 29.5238 15.1719C29.7688 15.1719 30.0036 15.2209 30.2281 15.3191C30.4568 15.4172 30.6609 15.5644 30.8406 15.7607C31.0202 15.9526 31.1631 16.1956 31.2693 16.4901C31.3754 16.78 31.4285 17.1168 31.4285 17.5005C31.4285 17.8752 31.3754 18.2075 31.2693 18.4975C31.1672 18.7875 31.0243 19.0328 30.8406 19.2336C30.6609 19.4299 30.4568 19.5793 30.2281 19.6819C30.0036 19.7845 29.7688 19.8358 29.5238 19.8358ZM29.5238 19.4745C29.7688 19.4745 29.9669 19.383 30.1179 19.2001C30.269 19.0172 30.3792 18.7763 30.4486 18.4775C30.5221 18.1786 30.5589 17.8529 30.5589 17.5005C30.5589 17.1481 30.5221 16.8224 30.4486 16.5236C30.3792 16.2246 30.269 15.9838 30.1179 15.8009C29.9669 15.618 29.7688 15.5265 29.5238 15.5265C29.2789 15.5265 29.0788 15.618 28.9237 15.8009C28.7685 15.9838 28.6542 16.2246 28.5807 16.5236C28.5113 16.8224 28.4766 17.1481 28.4766 17.5005C28.4766 17.8529 28.5113 18.1786 28.5807 18.4775C28.6542 18.7763 28.7685 19.0172 28.9237 19.2001C29.0788 19.383 29.2789 19.4745 29.5238 19.4745Z" fill="#516389"/>
<path d="M34.1555 15.6007V15.2861H35.6988V15.6007L35.1783 15.6876V19.7494H34.8169L32.5081 16.2832V19.3144L33.1818 19.4081V19.7226H31.6384V19.4081L32.159 19.3278V15.7546L32.0855 15.6475L31.6568 15.6007V15.2861H32.8143L34.8292 18.3107V15.6876L34.1555 15.6007Z" fill="#516389"/>
<path d="M35.9666 15.6007V15.2861H37.8345V15.6007L37.2955 15.6676C37.2915 15.9441 37.2874 16.2252 37.2833 16.5107C37.2833 16.7917 37.2833 17.075 37.2833 17.3605V17.7687C37.2833 18.0051 37.2833 18.2594 37.2833 18.5315C37.2874 18.8036 37.2915 19.0802 37.2955 19.3612H38.5326L38.7041 18.4378H39.1328L39.0716 19.7226H35.9666V19.4081L36.481 19.3479C36.4891 19.0668 36.4932 18.7902 36.4932 18.5181C36.4932 18.2416 36.4932 17.9761 36.4932 17.7219V17.3605C36.4932 17.0705 36.4932 16.785 36.4932 16.504C36.4932 16.2185 36.4891 15.9375 36.481 15.6609L35.9666 15.6007Z" fill="#516389"/>
<path d="M39.3728 15.6007V15.2861H41.2162V15.6007L40.7017 15.6609C40.6977 15.9375 40.6936 16.2185 40.6895 16.504C40.6895 16.785 40.6895 17.0705 40.6895 17.3605V17.6482C40.6895 17.9293 40.6895 18.2126 40.6895 18.498C40.6936 18.7791 40.6977 19.0624 40.7017 19.3479L41.2162 19.4081V19.7226H39.3728V19.4081L39.8872 19.3479C39.8954 19.0713 39.8995 18.7902 39.8995 18.5048C39.8995 18.2192 39.8995 17.9338 39.8995 17.6482V17.3605C39.8995 17.0795 39.8995 16.7984 39.8995 16.5174C39.8995 16.2319 39.8954 15.9464 39.8872 15.6609L39.3728 15.6007Z" fill="#516389"/>
<path d="M44.0578 15.6007V15.2861H45.6012V15.6007L45.0806 15.6876V19.7494H44.7193L42.4104 16.2832V19.3144L43.0841 19.4081V19.7226H41.5408V19.4081L42.0613 19.3278V15.7546L41.9878 15.6475L41.5591 15.6007V15.2861H42.7166L44.7316 18.3107V15.6876L44.0578 15.6007Z" fill="#516389"/>
<path d="M45.8669 15.6007V15.2861H48.9536L48.9964 16.4571H48.5678L48.4391 15.6408H47.1959C47.1918 15.9219 47.1878 16.2029 47.1837 16.4839C47.1837 16.7605 47.1837 17.0215 47.1837 17.2668H47.9737L48.0533 16.6847H48.3718V18.197H48.0533L47.9798 17.6215H47.1837C47.1837 17.9427 47.1837 18.246 47.1837 18.5315C47.1878 18.8126 47.1918 19.0914 47.1959 19.368H48.5616L48.6903 18.5516H49.119L49.0761 19.7226H45.8669V19.4081L46.3814 19.3479C46.3895 19.0713 46.3936 18.7902 46.3936 18.5048C46.3936 18.2192 46.3936 17.9338 46.3936 17.6482V17.3605C46.3936 17.0795 46.3936 16.7984 46.3936 16.5174C46.3936 16.2319 46.3895 15.9464 46.3814 15.6609L45.8669 15.6007Z" fill="#516389"/>
<path d="M52.766 19.8358C52.3658 19.8358 52.0066 19.7444 51.6883 19.5615C51.374 19.3741 51.1249 19.1065 50.9411 18.7585C50.7615 18.4061 50.6716 17.9867 50.6716 17.5005C50.6716 17.0143 50.7656 16.5972 50.9534 16.2492C51.1451 15.9012 51.4003 15.6358 51.7191 15.4529C52.0414 15.2656 52.3966 15.1719 52.7847 15.1719C52.9848 15.1719 53.1849 15.1964 53.3849 15.2455C53.5845 15.2946 53.7826 15.3793 53.9786 15.4997L54.0034 16.5034H53.5805L53.4335 15.6737C53.344 15.6202 53.2541 15.5822 53.1641 15.56C53.0742 15.5377 52.9848 15.5265 52.8948 15.5265C52.6498 15.5265 52.4234 15.6001 52.2148 15.7473C52.0106 15.8901 51.8454 16.1087 51.7191 16.4031C51.5963 16.6931 51.5352 17.0611 51.5352 17.5072C51.5352 17.9489 51.5923 18.3169 51.7065 18.6113C51.8252 18.9013 51.9844 19.1176 52.1844 19.2604C52.3845 19.4031 52.6089 19.4745 52.858 19.4745C53.0661 19.4745 53.2763 19.4232 53.489 19.3206L53.6356 18.5042H54.0524L54.0276 19.5013C53.8523 19.6083 53.6583 19.6908 53.4461 19.7489C53.2339 19.8069 53.007 19.8358 52.766 19.8358Z" fill="#516389"/>
<path d="M55.9507 16.1488L55.3873 18.0023H56.508L55.9507 16.1488ZM54.156 19.722V19.4076L54.6582 19.3272L55.9386 15.2588H56.4403L57.7206 19.3607L58.137 19.4142V19.722H56.367V19.4142L56.9061 19.3406L56.6121 18.3503H55.2767L54.9831 19.3205L55.5157 19.4076V19.722H54.156Z" fill="#516389"/>
<path d="M59.5698 19.8358C59.3409 19.8358 59.1145 19.8046 58.8897 19.7421C58.6654 19.6797 58.4734 19.5927 58.3142 19.4812L58.3511 18.5176H58.8225L58.9448 19.3273C59.0388 19.3719 59.1348 19.4076 59.2328 19.4343C59.3308 19.4567 59.4409 19.4678 59.5637 19.4678C59.8169 19.4678 60.0144 19.4031 60.1574 19.2738C60.3044 19.1399 60.3782 18.9637 60.3782 18.7451C60.3782 18.5489 60.3272 18.3949 60.2251 18.2834C60.123 18.1719 59.9593 18.067 59.735 17.9689L59.4839 17.8551C59.1489 17.699 58.8816 17.5116 58.6815 17.2931C58.4855 17.0745 58.3875 16.789 58.3875 16.4365C58.3875 16.1734 58.4491 15.9481 58.5714 15.7607C58.6937 15.5689 58.8634 15.4239 59.0797 15.3258C59.3 15.2232 59.5531 15.1719 59.8391 15.1719C60.0513 15.1719 60.2494 15.2031 60.4333 15.2656C60.6167 15.328 60.7784 15.4127 60.9168 15.5198L60.8739 16.4232H60.4085L60.2863 15.647C60.1433 15.5756 59.9902 15.5399 59.827 15.5399C59.6228 15.5399 59.449 15.6001 59.306 15.7205C59.1636 15.8365 59.0918 16.0038 59.0918 16.2224C59.0918 16.4143 59.1469 16.5704 59.2575 16.6908C59.3677 16.8113 59.5228 16.9161 59.7229 17.0053L59.9861 17.1258C60.3863 17.3087 60.6697 17.505 60.8375 17.7146C61.0088 17.9243 61.0947 18.1942 61.0947 18.5243C61.0947 18.9169 60.9577 19.2336 60.6844 19.4745C60.4146 19.7154 60.0432 19.8358 59.5698 19.8358Z" fill="#516389"/>
<path d="M61.3923 15.6007V15.2861H63.2355V15.6007L62.7212 15.6609C62.7171 15.9375 62.7131 16.2185 62.709 16.504C62.709 16.785 62.709 17.0705 62.709 17.3605V17.6482C62.709 17.9293 62.709 18.2126 62.709 18.498C62.7131 18.7791 62.7171 19.0624 62.7212 19.3479L63.2355 19.4081V19.7226H61.3923V19.4081L61.9067 19.3479C61.9148 19.0713 61.9188 18.7902 61.9188 18.5048C61.9188 18.2192 61.9188 17.9338 61.9188 17.6482V17.3605C61.9188 17.0795 61.9188 16.7984 61.9188 16.5174C61.9188 16.2319 61.9148 15.9464 61.9067 15.6609L61.3923 15.6007Z" fill="#516389"/>
<path d="M66.0751 15.6007V15.2861H67.6186V15.6007L67.0977 15.6876V19.7494H66.7365L64.4279 16.2832V19.3144L65.1014 19.4081V19.7226H63.5583V19.4081L64.0788 19.3278V15.7546L64.005 15.6475L63.5765 15.6007V15.2861H64.7341L66.7491 18.3107V15.6876L66.0751 15.6007Z" fill="#516389"/>
<path d="M69.7505 19.8358C69.5055 19.8358 69.2685 19.7867 69.0401 19.6886C68.8112 19.5905 68.6051 19.4433 68.4217 19.247C68.2418 19.0507 68.0988 18.8075 67.9927 18.5176C67.8906 18.2277 67.8396 17.8886 67.8396 17.5005C67.8396 17.1258 67.8927 16.7934 67.9988 16.5034C68.1049 16.2135 68.2479 15.9704 68.4277 15.7741C68.6071 15.5734 68.8112 15.4239 69.0401 15.3258C69.2685 15.2232 69.5055 15.1719 69.7505 15.1719C69.9956 15.1719 70.23 15.2209 70.4548 15.3191C70.6832 15.4172 70.8873 15.5644 71.0672 15.7607C71.2466 15.9526 71.3896 16.1956 71.4957 16.4901C71.6018 16.78 71.6553 17.1168 71.6553 17.5005C71.6553 17.8752 71.6018 18.2075 71.4957 18.4975C71.3936 18.7875 71.2511 19.0328 71.0672 19.2336C70.8873 19.4299 70.6832 19.5793 70.4548 19.6819C70.23 19.7845 69.9956 19.8358 69.7505 19.8358ZM69.7505 19.4745C69.9956 19.4745 70.1936 19.383 70.3447 19.2001C70.4958 19.0172 70.6059 18.7763 70.6751 18.4775C70.7489 18.1786 70.7853 17.8529 70.7853 17.5005C70.7853 17.1481 70.7489 16.8224 70.6751 16.5236C70.6059 16.2246 70.4958 15.9838 70.3447 15.8009C70.1936 15.618 69.9956 15.5265 69.7505 15.5265C69.5055 15.5265 69.3054 15.618 69.1503 15.8009C68.9951 15.9838 68.881 16.2246 68.8072 16.5236C68.738 16.8224 68.7031 17.1481 68.7031 17.5005C68.7031 17.8529 68.738 18.1786 68.8072 18.4775C68.881 18.7763 68.9951 19.0172 69.1503 19.2001C69.3054 19.383 69.5055 19.4745 69.7505 19.4745Z" fill="#516389"/>
<path d="M73.2607 19.8358C73.0323 19.8358 72.8055 19.8046 72.5811 19.7421C72.3568 19.6797 72.1648 19.5927 72.0056 19.4812L72.042 18.5176H72.5139L72.6362 19.3273C72.7302 19.3719 72.8262 19.4076 72.9242 19.4343C73.0222 19.4567 73.1324 19.4678 73.2546 19.4678C73.5078 19.4678 73.7058 19.4031 73.8488 19.2738C73.9958 19.1399 74.0691 18.9637 74.0691 18.7451C74.0691 18.5489 74.0181 18.3949 73.916 18.2834C73.814 18.1719 73.6508 18.067 73.4264 17.9689L73.1753 17.8551C72.8403 17.699 72.573 17.5116 72.3729 17.2931C72.1769 17.0745 72.0789 16.789 72.0789 16.4365C72.0789 16.1734 72.14 15.9481 72.2628 15.7607C72.3851 15.5689 72.5543 15.4239 72.7711 15.3258C72.9914 15.2232 73.2445 15.1719 73.5305 15.1719C73.7427 15.1719 73.9408 15.2031 74.1247 15.2656C74.3081 15.328 74.4693 15.4127 74.6082 15.5198L74.5653 16.4232H74.0999L73.9777 15.647C73.8347 15.5756 73.6816 15.5399 73.5184 15.5399C73.3137 15.5399 73.1404 15.6001 72.9974 15.7205C72.8545 15.8365 72.7832 16.0038 72.7832 16.2224C72.7832 16.4143 72.8383 16.5704 72.9484 16.6908C73.0586 16.8113 73.2142 16.9161 73.4138 17.0053L73.6775 17.1258C74.0777 17.3087 74.3612 17.505 74.5289 17.7146C74.7002 17.9243 74.7861 18.1942 74.7861 18.5243C74.7861 18.9169 74.6492 19.2336 74.3753 19.4745C74.106 19.7154 73.7346 19.8358 73.2607 19.8358Z" fill="#516389"/>
<path d="M27.613 21.8916H31.1475C32.0099 21.8916 32.7761 22.0666 33.446 22.4167C34.1159 22.7589 34.6357 23.2482 35.0053 23.8847C35.3749 24.5133 35.5597 25.2413 35.5597 26.0688C35.5597 26.8963 35.3749 27.6283 35.0053 28.2648C34.6357 28.8934 34.1159 29.3827 33.446 29.7328C32.7761 30.075 32.0099 30.2461 31.1475 30.2461H27.613V21.8916ZM31.0782 28.9332C31.6711 28.9332 32.1909 28.8179 32.6375 28.5871C33.0918 28.3484 33.4383 28.0142 33.677 27.5846C33.9234 27.1469 34.0467 26.6417 34.0467 26.0688C34.0467 25.4959 33.9234 24.9947 33.677 24.565C33.4383 24.1274 33.0918 23.7932 32.6375 23.5625C32.1909 23.3238 31.6711 23.2044 31.0782 23.2044H29.1146V28.9332H31.0782Z" fill="#516389"/>
<path d="M42.5836 27.0958C42.5836 27.1992 42.5759 27.3464 42.5605 27.5374H37.7209C37.8056 28.0068 38.0251 28.3808 38.3792 28.6593C38.7412 28.9298 39.1878 29.065 39.7191 29.065C40.3967 29.065 40.955 28.8343 41.3939 28.3728L42.1678 29.2918C41.8906 29.634 41.5402 29.8926 41.1167 30.0676C40.6932 30.2427 40.2158 30.3302 39.6844 30.3302C39.0068 30.3302 38.4101 30.1909 37.8941 29.9125C37.3782 29.634 36.9778 29.248 36.6929 28.7548C36.4157 28.2535 36.2771 27.6885 36.2771 27.06C36.2771 26.4394 36.4119 25.8824 36.6814 25.3891C36.9585 24.8878 37.3397 24.498 37.8249 24.2195C38.31 23.941 38.8567 23.8018 39.465 23.8018C40.0656 23.8018 40.6008 23.941 41.0705 24.2195C41.5479 24.49 41.9176 24.8759 42.1793 25.3772C42.4488 25.8705 42.5836 26.4434 42.5836 27.0958ZM39.465 24.9952C39.003 24.9952 38.6103 25.1385 38.2869 25.4249C37.9711 25.7034 37.7786 26.0774 37.7094 26.5468H41.2091C41.1475 26.0853 40.9589 25.7114 40.6431 25.4249C40.3274 25.1385 39.9347 24.9952 39.465 24.9952Z" fill="#516389"/>
<path d="M49.7109 23.873V30.2463H48.3364V29.4347C48.1054 29.7212 47.8166 29.9439 47.4701 30.1031C47.1236 30.2543 46.7501 30.3299 46.3497 30.3299C45.5258 30.3299 44.8751 30.0952 44.3977 29.6257C43.928 29.1483 43.6931 28.4441 43.6931 27.5132V23.873H45.1369V27.3103C45.1369 27.8832 45.2601 28.3128 45.5066 28.5993C45.7607 28.8778 46.1187 29.017 46.5807 29.017C47.0966 29.017 47.5048 28.8539 47.805 28.5277C48.1131 28.1935 48.2671 27.7161 48.2671 27.0955V23.873H49.7109Z" fill="#516389"/>
<path d="M55.0782 29.9003C54.9089 30.0435 54.7008 30.151 54.4547 30.2226C54.2157 30.2941 53.9616 30.33 53.6923 30.33C53.0147 30.33 52.4907 30.147 52.1214 29.781C51.7515 29.4149 51.5671 28.8819 51.5671 28.1817V25.1144H50.5505V23.9209H51.5671V22.4648H53.0107V23.9209H54.6624V25.1144H53.0107V28.1459C53.0107 28.4562 53.0839 28.6949 53.2305 28.862C53.3765 29.0211 53.5882 29.1007 53.8656 29.1007C54.1889 29.1007 54.4582 29.0132 54.674 28.8381L55.0782 29.9003Z" fill="#516389"/>
<path d="M57.9405 30.3302C57.4398 30.3302 56.9507 30.2625 56.4732 30.1273C55.9958 29.992 55.6148 29.821 55.3298 29.6141L55.8841 28.4802C56.1615 28.6712 56.4924 28.8263 56.8775 28.9457C57.2705 29.0571 57.6556 29.1128 58.0325 29.1128C58.895 29.1128 59.3265 28.8781 59.3265 28.4086C59.3265 28.1859 59.2148 28.0307 58.9915 27.9432C58.7757 27.8556 58.4256 27.7721 57.9405 27.6925C57.4322 27.613 57.0164 27.5215 56.693 27.418C56.3772 27.3146 56.0999 27.1356 55.8614 26.881C55.6305 26.6184 55.5148 26.2564 55.5148 25.7949C55.5148 25.1902 55.7573 24.7088 56.2423 24.3508C56.735 23.9848 57.3974 23.8018 58.229 23.8018C58.6524 23.8018 59.0759 23.8534 59.4998 23.9569C59.9232 24.0524 60.2698 24.1837 60.5391 24.3508L59.9848 25.4846C59.4609 25.1663 58.8722 25.0072 58.2174 25.0072C57.794 25.0072 57.4706 25.0748 57.2473 25.2101C57.0316 25.3374 56.9239 25.5084 56.9239 25.7233C56.9239 25.962 57.0391 26.133 57.2705 26.2365C57.509 26.332 57.8748 26.4235 58.3675 26.511C58.8606 26.5906 59.2648 26.6821 59.5806 26.7855C59.8964 26.8889 60.1657 27.064 60.389 27.3106C60.6199 27.5573 60.7356 27.9074 60.7356 28.3609C60.7356 28.9577 60.485 29.435 59.9848 29.7931C59.4841 30.1511 58.8025 30.3302 57.9405 30.3302Z" fill="#516389"/>
<path d="M64.5778 30.3302C63.9386 30.3302 63.3651 30.1909 62.8568 29.9125C62.3485 29.634 61.9519 29.248 61.6669 28.7548C61.382 28.2535 61.24 27.6885 61.24 27.06C61.24 26.4314 61.382 25.8705 61.6669 25.3772C61.9519 24.8838 62.3445 24.498 62.8452 24.2195C63.3535 23.941 63.931 23.8018 64.5778 23.8018C65.1861 23.8018 65.7176 23.929 66.1719 24.1837C66.6337 24.4383 66.9803 24.8043 67.2112 25.2817L66.1026 25.95C65.9253 25.6556 65.702 25.4368 65.4327 25.2936C65.1709 25.1424 64.8819 25.0668 64.5661 25.0668C64.027 25.0668 63.5809 25.2498 63.2262 25.6159C62.872 25.9739 62.6951 26.4553 62.6951 27.06C62.6951 27.6647 62.8685 28.1501 63.2151 28.5161C63.5693 28.8741 64.0194 29.0531 64.5661 29.0531C64.8819 29.0531 65.1709 28.9815 65.4327 28.8383C65.702 28.6871 65.9253 28.4643 66.1026 28.17L67.2112 28.8383C66.9727 29.3157 66.6221 29.6857 66.1602 29.9482C65.706 30.2028 65.1785 30.3302 64.5778 30.3302Z" fill="#516389"/>
<path d="M71.6712 23.8015C72.4488 23.8015 73.0728 24.0362 73.5427 24.5056C74.0121 24.9751 74.247 25.6713 74.247 26.5943V30.2464H72.803V26.7852C72.803 26.2283 72.6762 25.8105 72.422 25.5321C72.1679 25.2456 71.8061 25.1024 71.3362 25.1024C70.8052 25.1024 70.3853 25.2695 70.0771 25.6037C69.7694 25.9299 69.6153 26.4033 69.6153 27.0239V30.2464H68.1718V21.3906H69.6153V24.613C69.8538 24.3505 70.1468 24.1516 70.4929 24.0163C70.8471 23.8731 71.2402 23.8015 71.6712 23.8015Z" fill="#516389"/>
<path d="M75.8474 21.3906H77.291V30.2464H75.8474V21.3906Z" fill="#516389"/>
<path d="M81.3125 23.8018C82.2209 23.8018 82.9141 24.0285 83.3916 24.482C83.8767 24.9276 84.1192 25.6039 84.1192 26.511V30.2466H82.7565V29.4709C82.5791 29.7493 82.325 29.9642 81.9941 30.1153C81.6707 30.2586 81.2776 30.3302 80.8158 30.3302C80.354 30.3302 79.9493 30.2506 79.6031 30.0915C79.2565 29.9244 78.9867 29.6976 78.7942 29.4112C78.6098 29.1168 78.5173 28.7866 78.5173 28.4206C78.5173 27.8477 78.7215 27.3902 79.1292 27.0481C79.545 26.698 80.1958 26.5229 81.0816 26.5229H82.6751V26.4275C82.6751 25.9819 82.5443 25.6398 82.2826 25.401C82.0284 25.1623 81.6474 25.043 81.1391 25.043C80.7925 25.043 80.45 25.0987 80.1114 25.2101C79.78 25.3215 79.4991 25.4766 79.2682 25.6755L78.7023 24.5895C79.0256 24.3349 79.4142 24.1399 79.8684 24.0046C80.3232 23.8694 80.8042 23.8018 81.3125 23.8018ZM81.1159 29.2441C81.4782 29.2441 81.7975 29.1605 82.0749 28.9934C82.3599 28.8184 82.5599 28.5717 82.6751 28.2535V27.5135H81.1856C80.354 27.5135 79.9381 27.796 79.9381 28.3609C79.9381 28.6314 80.0417 28.8463 80.2499 29.0054C80.4575 29.1645 80.7466 29.2441 81.1159 29.2441Z" fill="#516389"/>
<path d="M89.2399 23.8018C90.0175 23.8018 90.641 24.0365 91.1109 24.5059C91.5808 24.9753 91.8158 25.6715 91.8158 26.5945V30.2466H90.3717V26.7855C90.3717 26.2285 90.2449 25.8108 89.9908 25.5323C89.7366 25.2459 89.3743 25.1027 88.905 25.1027C88.3734 25.1027 87.954 25.2698 87.6458 25.6039C87.3376 25.9301 87.184 26.4036 87.184 27.0242V30.2466H85.74V23.8734H87.1143V24.6969C87.3533 24.4025 87.6534 24.1797 88.0157 24.0285C88.3775 23.8773 88.7857 23.8018 89.2399 23.8018Z" fill="#516389"/>
<path d="M99.5137 21.3906V30.2464H98.1278V29.4228C97.8888 29.7252 97.5922 29.952 97.238 30.1031C96.8914 30.2543 96.5064 30.3299 96.083 30.3299C95.4903 30.3299 94.9552 30.1946 94.4777 29.9241C94.0079 29.6536 93.6385 29.2717 93.3687 28.7783C93.0994 28.2771 92.9645 27.7042 92.9645 27.0597C92.9645 26.4152 93.0994 25.8463 93.3687 25.353C93.6385 24.8597 94.0079 24.4778 94.4777 24.2073C94.9552 23.9367 95.4903 23.8015 96.083 23.8015C96.4912 23.8015 96.8646 23.8731 97.2036 24.0163C97.5422 24.1595 97.8312 24.3744 98.0697 24.6608V21.3906H99.5137ZM96.2563 29.0528C96.6029 29.0528 96.9146 28.9733 97.192 28.8142C97.4689 28.6471 97.6887 28.4124 97.8504 28.11C98.0121 27.8076 98.0929 27.4576 98.0929 27.0597C98.0929 26.6619 98.0121 26.3118 97.8504 26.0094C97.6887 25.7071 97.4689 25.4763 97.192 25.3172C96.9146 25.1501 96.6029 25.0666 96.2563 25.0666C95.9097 25.0666 95.5979 25.1501 95.321 25.3172C95.0436 25.4763 94.8244 25.7071 94.6622 26.0094C94.5005 26.3118 94.4196 26.6619 94.4196 27.0597C94.4196 27.4576 94.5005 27.8076 94.6622 28.11C94.8244 28.4124 95.0436 28.6471 95.321 28.8142C95.5979 28.9733 95.9097 29.0528 96.2563 29.0528Z" fill="#516389"/>
<path d="M30.7324 38.8808C30.1352 38.8808 29.5991 38.7564 29.1242 38.5077C28.6492 38.259 28.2787 37.9144 28.0124 37.4739C27.7462 37.0262 27.613 36.5217 27.613 35.9604C27.613 35.3991 27.7462 34.8982 28.0124 34.4576C28.2787 34.0171 28.6456 33.6725 29.1134 33.4238C29.5883 33.1751 30.128 33.0508 30.7324 33.0508C31.3009 33.0508 31.7974 33.1645 32.2219 33.3918C32.6537 33.6192 32.9775 33.9461 33.1934 34.3724L32.1572 34.9692C31.9916 34.7063 31.783 34.5109 31.5311 34.3831C31.2865 34.2481 31.0166 34.1805 30.7216 34.1805C30.2179 34.1805 29.8006 34.344 29.4696 34.6708C29.1386 34.9905 28.9731 35.4204 28.9731 35.9604C28.9731 36.5004 29.1349 36.9339 29.4588 37.2607C29.7898 37.5805 30.2107 37.7403 30.7216 37.7403C31.0166 37.7403 31.2865 37.6764 31.5311 37.5485C31.783 37.4135 31.9916 37.2146 32.1572 36.9516L33.1934 37.5485C32.9703 37.9748 32.6429 38.3052 32.2111 38.5397C31.7866 38.7671 31.2937 38.8808 30.7324 38.8808Z" fill="#516389"/>
<path d="M36.6472 38.8808C36.0643 38.8808 35.539 38.7564 35.0713 38.5077C34.6036 38.259 34.2366 37.9144 33.9703 37.4739C33.7113 37.0262 33.5818 36.5217 33.5818 35.9604C33.5818 35.3991 33.7113 34.8982 33.9703 34.4576C34.2366 34.0171 34.6036 33.6725 35.0713 33.4238C35.539 33.1751 36.0643 33.0508 36.6472 33.0508C37.2372 33.0508 37.7661 33.1751 38.2338 33.4238C38.7015 33.6725 39.0649 34.0171 39.324 34.4576C39.5902 34.8982 39.7233 35.3991 39.7233 35.9604C39.7233 36.5217 39.5902 37.0262 39.324 37.4739C39.0649 37.9144 38.7015 38.259 38.2338 38.5077C37.7661 38.7564 37.2372 38.8808 36.6472 38.8808ZM36.6472 37.7403C37.1436 37.7403 37.5538 37.5769 37.8776 37.2501C38.2015 36.9232 38.3633 36.4933 38.3633 35.9604C38.3633 35.4275 38.2015 34.9977 37.8776 34.6708C37.5538 34.344 37.1436 34.1805 36.6472 34.1805C36.1506 34.1805 35.7405 34.344 35.4167 34.6708C35.1001 34.9977 34.9418 35.4275 34.9418 35.9604C34.9418 36.4933 35.1001 36.9232 35.4167 37.2501C35.7405 37.5769 36.1506 37.7403 36.6472 37.7403Z" fill="#516389"/>
<path d="M48.0735 33.0508C48.8002 33.0508 49.3759 33.2604 49.8004 33.6796C50.225 34.0917 50.4372 34.7134 50.4372 35.5448V38.8061H49.088V35.7153C49.088 35.2179 48.9765 34.8449 48.7534 34.5962C48.5304 34.3404 48.2102 34.2125 47.7928 34.2125C47.3395 34.2125 46.9761 34.3617 46.7027 34.6601C46.4292 34.9515 46.2925 35.3707 46.2925 35.9178V38.8061H44.9433V35.7153C44.9433 35.2179 44.8317 34.8449 44.6087 34.5962C44.3856 34.3404 44.0654 34.2125 43.6481 34.2125C43.1876 34.2125 42.8205 34.3581 42.5471 34.6495C42.2809 34.9408 42.1478 35.3636 42.1478 35.9178V38.8061H40.7986V33.1147H42.083V33.8395C42.2989 33.5837 42.5687 33.3883 42.8925 33.2533C43.2163 33.1183 43.5761 33.0508 43.9719 33.0508C44.4036 33.0508 44.785 33.1325 45.116 33.2959C45.4542 33.4522 45.7205 33.6867 45.9147 33.9994C46.1522 33.7009 46.458 33.47 46.8322 33.3066C47.2064 33.136 47.6201 33.0508 48.0735 33.0508Z" fill="#516389"/>
<path d="M25.5192 38.4921C25.2563 38.4921 25.032 38.4024 24.8465 38.2229C24.6609 38.0356 24.5681 37.8014 24.5681 37.5205C24.5681 37.2317 24.657 36.9976 24.8349 36.8181C25.0205 36.6386 25.2486 36.5488 25.5192 36.5488C25.7898 36.5488 26.0141 36.6386 26.1919 36.8181C26.3775 36.9976 26.4703 37.2317 26.4703 37.5205C26.4703 37.8014 26.3775 38.0356 26.1919 38.2229C26.0063 38.4024 25.7821 38.4921 25.5192 38.4921Z" fill="#516389"/>
<mask id="mask0_1_9814" style="mask-type:alpha" maskUnits="userSpaceOnUse" x="2" y="9" width="23" height="31">
<path fill-rule="evenodd" clip-rule="evenodd" d="M17.7946 11.5098L15.6897 13.373L15.5868 11.6747L12.5277 12.6516L12.3743 10.7986L10.7729 9.71094L8.76869 10.6374L9.86188 11.7855L9.14268 12.8732L9.86188 14.1723L9.51663 14.8873L5.65207 13.7997V15.985L5.98772 16.7101L4.60683 17.8783V19.6709L4.10729 19.913L2.84241 20.4363L2.8898 21.0473H2.89906L3.19636 24.8808L2.84155 28.335L3.07611 29.1004L3.43412 30.2686H3.43512L3.91658 31.8396L6.36192 32.3834L5.31664 33.32L4.95224 37.1569L6.36192 38.4863L11.0703 37.3785L12.2019 39.2315L13.9184 38.1136L15.2897 38.8488L17.946 37.7209L19.5378 38.8488L20.7748 37.3885L20.4201 35.5859L22.1557 33.32L22.5297 31.4368L21.4749 30.2686H21.4739L20.419 29.1004L20.7643 27.7811L19.7094 27.3984L21.4547 26.2906L22.3178 26.6733L24.6384 25.2231L24.974 23.1586L23.5548 21.3459L23.9393 21.0406L24.9653 20.2147L24.6297 18.5732L23.22 18.2207L21.8008 15.6325L21.1199 13.4573L17.7946 11.5098Z" fill="black"/>
</mask>
<g mask="url(#mask0_1_9814)">
<path d="M19.6489 42.1525C18.9834 28.2522 10.5598 17.7264 6.43123 14.2009L5.32202 10.2348L11.7922 7.87402L26.1191 12.9733L29.6315 22.322L26.7662 37.0533L19.6489 42.1525Z" fill="url(#paint0_linear_1_9814)"/>
</g>
<defs>
<linearGradient id="paint0_linear_1_9814" x1="5.32202" y1="30.3486" x2="22.2715" y2="19.2577" gradientUnits="userSpaceOnUse">
<stop stop-color="white"/>
<stop offset="0.433168" stop-color="white" stop-opacity="0.565134"/>
<stop offset="1" stop-color="white" stop-opacity="0"/>
</linearGradient>
</defs>
</svg>
