<svg width="102" height="49" viewBox="0 0 102 49" fill="none" xmlns="http://www.w3.org/2000/svg">
<path d="M14.0454 27.5972H17.3004H19.2358C19.2358 27.5972 20.6969 27.6163 20.8194 27.5096C20.9418 27.403 21.1712 27.4221 21.1712 26.6382C21.1712 25.8885 19.9836 25.7588 19.9836 25.7588L18.884 25.54L17.1684 25.146C17.1684 25.146 14.9178 24.5392 14.3973 24.0518C13.8921 23.5491 13.5615 23.0722 13.5615 22.0821C13.5615 20.7417 13.7632 20.2358 14.3973 19.4997C15.1011 18.8698 16.4706 18.493 18.2309 18.493L21.0393 18.4492H23.1947L22.9747 20.8565C21.6991 20.8565 20.3535 20.8565 18.8839 20.8565C17.8722 20.8565 17.1684 20.8565 16.5526 21.0316C15.9808 21.338 16.1127 22.1697 16.2007 22.3447C16.2447 22.4323 16.3737 22.499 16.991 22.6626L17.7403 22.8262L19.2358 23.1326L19.9836 23.3077L20.7754 23.5266C21.7091 23.7246 22.3333 24.0792 22.7772 24.5361C23.2211 24.9931 23.6785 25.7395 23.6785 26.7296C23.6785 27.7196 23.3841 28.4361 23.0627 28.954C22.7412 29.4567 22.1126 29.8293 21.3472 30.0425C20.5972 30.2558 18.208 30.1796 18.208 30.1796C18.208 30.1796 16.2887 30.1796 15.409 30.1796C14.5293 30.1796 13.8254 30.1796 13.8254 30.1796V27.5972H14.0454Z" fill="#516389"/>
<path d="M25.5029 26.6378V21.8397V20.9437V18.8865V16.5229L26.8437 15.166H28.4713V18.4488H32.1661L31.9902 21.0312H28.6032V26.1961C28.6032 26.6226 28.5672 27.0715 28.7351 27.3342C28.9591 27.6843 29.6721 27.6406 30.0547 27.6406C29.6788 27.6413 30.9345 27.6406 30.0547 27.6406C30.9345 27.6406 30.6266 27.6406 30.9345 27.6406L31.9462 29.1287V30.1792C31.2424 30.1792 30.0416 30.1792 28.8323 30.1792C27.623 30.1792 26.865 29.8521 26.3599 29.3038C25.8547 28.7555 25.5029 27.902 25.5029 26.6378Z" fill="#516389"/>
<path d="M38.4569 18.3617C39.9264 18.3617 41.1214 18.339 42.0246 18.6436C42.9277 18.9482 43.5859 19.5118 43.9992 20.3344C44.4278 21.1417 44.3951 22.9511 44.3951 24.4895V30.1797H41.1841H39.7765C39.7765 30.1797 38.4248 30.1797 37.4452 30.1797C34.7485 29.8369 33.6183 28.9916 33.4424 26.5468C33.4424 25.4958 33.8532 24.7334 34.542 24.1394C35.2462 23.5301 36.2135 23.3077 37.7971 23.0451L41.404 22.2572C41.2969 21.6175 41.0561 21.3016 40.6122 21.0883C40.1683 20.8598 39.1606 20.9284 38.0523 20.9284C37.3787 20.9284 36.1256 20.9284 36.1256 20.9284L34.542 20.9879H34.1022L34.3661 18.3617H35.5098H36.9613C36.9613 18.3617 37.9976 18.3617 38.4569 18.3617ZM38.3249 27.7285C38.6768 27.7582 41.341 27.6848 41.341 27.6848V26.1528V24.8332L38.5888 25.4087L37.1373 25.7589C37.1373 25.7589 36.5654 26.067 36.5654 26.5468C36.5654 27.1157 37.1373 27.4221 37.1373 27.4221C37.1373 27.4221 37.973 27.6989 38.3249 27.7285Z" fill="#516389"/>
<path d="M49.2112 30.1789H46.2412V16.6539L46.945 15.9098L47.6488 15.1523H49.2112V22.9707L49.785 22.4455L53.9097 18.3516H57.775L56.9833 19.1433L52.3535 23.6981L53.1453 24.6648L57.724 30.1789H53.7632L49.8959 25.1256L49.2112 24.3149V30.1789Z" fill="#516389"/>
<path d="M68.3899 30.2229L66.6523 30.3105C66.6523 30.3105 65.0102 30.3105 63.9694 30.3105C62.6527 30.3105 61.4279 30.0766 60.4942 29.7414C59.5761 29.3911 59.0138 28.7397 58.5393 27.9172C58.0649 27.0794 57.7395 25.9218 57.7395 24.4443C57.7395 22.4337 58.1685 20.573 59.0865 19.6743C60.0208 18.7756 61.578 18.207 63.5222 18.207C64.9152 18.207 66.2734 18.405 67.0692 18.8011C67.8806 19.1971 68.4546 19.6732 68.7916 20.4043C69.1438 21.1202 69.0276 21.398 69.0276 22.388C69.0276 22.6774 68.6759 23.5761 68.6759 23.5761L68.1919 24.1826C68.1919 24.1826 67.7306 24.5859 67.4001 24.7954C66.3219 25.4797 64.2331 25.6708 64.2331 25.6708C62.9417 25.9251 60.8903 26.0647 60.8903 26.0647C60.9974 26.735 61.3814 27.1208 61.9019 27.3341C62.4379 27.5473 63.5232 27.5529 64.7172 27.5529C65.513 27.5529 66.7403 27.5967 66.7403 27.5967L68.3899 27.6405V30.2229ZM65.6408 22.782C66.0369 22.5631 66.3886 22.5194 66.2567 21.6439C66.1248 21.1187 65.421 20.9436 65.0249 20.8561C64.6293 20.7686 63.9239 20.8123 63.2656 20.8123C62.254 20.8561 61.5032 21.079 61.1541 21.5564C60.8024 22.0379 60.6705 23.2118 60.6705 23.7449C60.6705 23.7449 65.2452 23.0008 65.6408 22.782Z" fill="#516389"/>
<path d="M73.91 30.2234L70.8057 30.2366L70.8749 20.7252C70.9411 20.0491 70.8946 19.8936 71.4029 19.1933C71.9112 18.493 73.0743 18.4492 73.0743 18.4492H74.2177H74.6578H75.2297C75.2297 18.4492 76.0953 18.4492 77.121 18.4492C77.5343 18.4492 78.4407 18.4492 78.4407 18.4492V19.5435L77.3407 20.9004H76.4171H75.8891H75.4935C75.4935 20.9004 74.9215 20.8565 74.3935 21.2067C73.866 21.6882 73.91 22.6054 73.91 22.6054C73.91 22.6054 73.91 25.1607 73.91 26.1965V30.2234Z" fill="#516389"/>
<path d="M79.7169 27.6402H82.9723H84.9075C84.9075 27.6402 86.3687 27.6592 86.491 27.5526C86.6138 27.446 86.8432 27.4651 86.8432 26.6811C86.8432 25.9314 85.6553 25.8018 85.6553 25.8018L84.5558 25.583L82.84 25.189C82.84 25.189 80.5895 24.5822 80.0691 24.0947C79.5638 23.5921 79.2334 23.1152 79.2334 22.1251C79.2334 20.7847 79.435 20.2788 80.0691 19.5427C80.7729 18.9128 82.1422 18.5359 83.9025 18.5359L86.7113 18.4922H88.8662L88.6464 20.8996C87.3707 20.8996 86.0251 20.8996 84.5558 20.8996C83.5438 20.8996 82.84 20.8996 82.2246 21.0746C81.6526 21.381 81.7845 22.2126 81.8724 22.3877C81.9163 22.4753 82.0457 22.542 82.6626 22.7056L83.4119 22.8692L84.9075 23.1756L85.6553 23.3507L86.447 23.5695C87.3808 23.7675 88.0053 24.1222 88.4489 24.5791C88.893 25.0361 89.3503 25.7825 89.3503 26.7725C89.3503 27.7626 89.0557 28.4792 88.7344 28.997C88.413 29.4997 87.7845 29.8723 87.019 30.0855C86.2687 30.2988 83.8798 30.2226 83.8798 30.2226C83.8798 30.2226 81.9603 30.2226 81.0806 30.2226C80.201 30.2226 79.4971 30.2226 79.4971 30.2226V27.6402H79.7169Z" fill="#516389"/>
<path d="M13.5615 33.8477H89.351" stroke="url(#paint0_linear_1_9896)"/>
<defs>
<linearGradient id="paint0_linear_1_9896" x1="-nan" y1="-nan" x2="-nan" y2="-nan" gradientUnits="userSpaceOnUse">
<stop stop-color="#F8F258"/>
<stop offset="1" stop-color="#EEB43F"/>
</linearGradient>
</defs>
</svg>
