<svg width="101" height="49" viewBox="0 0 101 49" fill="none" xmlns="http://www.w3.org/2000/svg">
<path d="M21.5063 27.0494C21.9785 27.3754 22.5503 27.5693 23.1668 27.5778C23.7667 27.5861 24.3302 27.4147 24.8043 27.1141L23.1265 24.6387L21.5063 27.0494Z" fill="#516389"/>
<path fill-rule="evenodd" clip-rule="evenodd" d="M10.701 21.8118C9.2947 23.3823 9.34604 25.7969 10.855 27.3059L11.6177 28.0686L11.5782 21.8118H10.701ZM17.5734 19.5623H12.9417L20.0151 12.489C21.5771 10.9269 24.1098 10.9269 25.6719 12.489L32.7483 19.5653H29.7726V29.6591H32.2108V27.3806H34.2706C34.4447 27.3806 34.6159 27.3718 34.7836 27.3543L25.6719 36.466C24.1098 38.0281 21.5772 38.0281 20.0151 36.466L13.1993 29.6502H14.0556V21.8118H17.5734V19.5623ZM33.8085 25.1288H32.2108V21.8203H33.8085C34.8769 21.8203 35.7261 22.3551 35.7261 23.4873C35.7261 24.6156 34.8028 25.1288 33.8085 25.1288ZM23.1268 14.7965L24.4326 16.8051H21.821L23.1268 14.7965ZM28.4379 24.5864C28.4436 27.4833 26.0636 29.8344 23.1669 29.8058C20.2987 29.7775 17.9934 27.4548 17.9991 24.5864C18.0048 21.7238 20.3044 19.416 23.1669 19.3877C26.058 19.3592 28.4321 21.6953 28.4379 24.5864ZM23.1669 21.6646C24.8084 21.6419 26.1699 22.9449 26.1892 24.5864C26.2017 25.647 25.6426 26.5825 24.8044 27.114C24.3303 27.4147 23.7668 27.5861 23.1669 27.5778C22.5504 27.5693 21.9786 27.3753 21.5064 27.0494C20.7243 26.5095 20.2151 25.6076 20.2271 24.5864C20.2462 22.9679 21.5484 21.687 23.1669 21.6646Z" fill="#F5476D"/>
<path fill-rule="evenodd" clip-rule="evenodd" d="M78.3433 20.6445C79.0588 21.4433 80.1058 21.9449 81.2648 21.9512C82.4363 21.9576 83.5003 21.453 84.2258 20.6445H78.3433ZM50.5648 22.551L49.1018 23.3929C48.5779 22.4612 47.8553 22.2899 47.1221 22.2899C46.2216 22.2899 45.1376 23.08 45.1376 24.4999C45.1376 25.9697 46.2477 26.773 47.1221 26.773C47.932 26.773 48.5257 26.5902 49.0986 25.6322L50.5318 26.5115C49.8279 27.7662 48.6903 28.4953 47.1221 28.4953C44.9905 28.4953 43.3931 26.5872 43.3931 24.4999C43.3931 22.4615 44.9467 20.6535 47.1221 20.6535C48.8142 20.6535 49.7287 21.2728 50.5648 22.551ZM52.6993 28.3197H50.9193L53.9218 20.8051H55.8398L58.8683 28.3197H57.0693L56.6128 27.1773H53.1568L52.6993 28.3197ZM54.8868 22.8563L56.0158 25.6833H53.7548L54.8868 22.8563ZM62.7713 22.4885C62.9613 22.6352 63.1263 22.9039 63.1503 23.1685H64.8103C64.7938 21.5659 63.6088 20.7041 62.0283 20.7041C60.6758 20.7041 59.1263 21.4461 59.1348 22.9989C59.1323 23.5594 59.2978 24.0313 59.6658 24.3609C60.0338 24.688 60.5308 24.9207 61.1408 25.1661C61.2548 25.212 61.4513 25.2558 61.6808 25.3069C62.3508 25.4561 63.3023 25.668 63.3108 26.1789C63.3038 26.6245 62.9883 26.8923 62.2608 26.8923C61.4218 26.8923 60.8673 26.5203 60.6588 25.6906H59.0268C59.0268 26.256 59.1213 26.6476 59.4348 27.1491C59.7128 27.5941 59.9563 27.8094 60.4093 28.074C60.9633 28.3975 61.3618 28.4632 62.0033 28.473C63.1523 28.4905 64.1578 28.3216 64.7073 27.3123C65.0928 26.6043 65.1053 25.8238 64.8103 25.2504C64.5153 24.6771 64.1473 24.4281 63.6283 24.1841C63.1188 23.9425 62.6108 23.8087 62.0643 23.6845L62.0413 23.6795C61.6333 23.5923 60.7963 23.4133 60.8448 22.901C60.9198 22.1078 62.2853 22.1021 62.7713 22.4885ZM68.0068 20.792V28.3437H66.2613V20.792H68.0068ZM76.5128 28.3474V20.7928H74.7983V25.371L71.2093 20.7928H69.4848V28.3437H71.2013V23.7238L74.7983 28.3474H76.5128ZM90.1553 23.1685C90.1313 22.9039 89.9663 22.6352 89.7763 22.4885C89.2903 22.1021 87.9248 22.1078 87.8493 22.901C87.8008 23.4133 88.6383 23.5923 89.0463 23.6795L89.0693 23.6845C89.6158 23.8087 90.1238 23.9425 90.6333 24.1841C91.1523 24.4281 91.5203 24.6771 91.8153 25.2504C92.1103 25.8238 92.0978 26.6043 91.7123 27.3123C91.1628 28.3216 90.1573 28.4905 89.0078 28.473C88.3663 28.4632 87.9683 28.3975 87.4143 28.074C86.9613 27.8094 86.7178 27.5941 86.4393 27.1491C86.1258 26.6476 86.0313 26.256 86.0313 25.6906H87.6638C87.8723 26.5203 88.4268 26.8923 89.2658 26.8923C89.9933 26.8923 90.3088 26.6245 90.3158 26.1789C90.3068 25.668 89.3558 25.4561 88.6858 25.3069C88.4563 25.2558 88.2598 25.212 88.1458 25.1661C87.5358 24.9207 87.0388 24.688 86.6708 24.3609C86.3028 24.0313 86.1368 23.5594 86.1393 22.9989C86.1313 21.4461 87.6808 20.7041 89.0333 20.7041C90.6138 20.7041 91.7983 21.5659 91.8153 23.1685H90.1553Z" fill="#516389"/>
<path fill-rule="evenodd" clip-rule="evenodd" d="M84.9418 28.4954C85.1058 28.0721 85.1958 27.6122 85.1968 27.13C85.1993 24.9773 83.4108 23.2618 81.2578 23.2735C79.1173 23.2851 77.3588 24.9892 77.3618 27.13C77.3623 27.6124 77.4523 28.0722 77.6158 28.4954H79.4588C79.1993 28.13 79.0473 27.6827 79.0473 27.2003C79.0473 25.974 80.0318 24.9747 81.2578 24.9704C82.4883 24.966 83.4843 25.9696 83.4843 27.2003C83.4843 27.6825 83.3313 28.1298 83.0713 28.4954H84.9418Z" fill="#F5476D"/>
</svg>
