<svg width="80" height="80" viewBox="0 0 80 80" fill="none" xmlns="http://www.w3.org/2000/svg">
<path d="M28.9133 50.1682V33.8985H25.1523V29.7285H34.1033V50.1682H28.9133Z" fill="#F95858"/>
<path d="M53.614 35.0081C53.6125 35.8799 53.3726 36.7346 52.9204 37.4799C52.4682 38.2252 51.8208 38.8326 51.0483 39.2365C52.1053 39.6289 53.019 40.3317 53.6693 41.2527C54.3197 42.1737 54.6763 43.2699 54.6923 44.3973C54.6923 48.0706 51.4267 50.4039 46.3258 50.4039C41.2248 50.4039 37.9592 48.0998 37.9592 44.4849C37.9921 43.3187 38.3813 42.1906 39.0746 41.2523C39.7679 40.314 40.732 39.6105 41.8371 39.2365C41.0186 38.8258 40.3249 38.2038 39.8275 37.4349C39.3302 36.666 39.0474 35.7782 39.0084 34.8634C39.0084 31.5977 41.8663 29.5273 46.2979 29.5273C50.7853 29.526 53.614 31.6548 53.614 35.0081ZM42.857 43.9603C42.857 45.6868 44.0814 46.643 46.3271 46.643C48.5728 46.643 49.8265 45.7133 49.8265 43.9603C49.8265 42.2698 48.5728 41.3043 46.3271 41.3043C44.0814 41.3043 42.8543 42.2684 42.8543 43.959L42.857 43.9603ZM43.3882 35.3003C43.3882 36.7611 44.4373 37.5752 46.3324 37.5752C48.2275 37.5752 49.2767 36.7585 49.2767 35.3003C49.2767 33.785 48.2275 32.939 46.3324 32.939C44.4373 32.939 43.3802 33.7837 43.3802 35.3029L43.3882 35.3003Z" fill="#F95858"/>
<path d="M63.3269 32.0374C65.1113 37.3138 65.0588 43.0386 63.1779 48.2814C61.297 53.5242 57.6982 57.9768 52.9666 60.9156C48.2349 63.8543 42.6485 65.1064 37.1151 64.4685C31.5818 63.8305 26.4269 61.3399 22.4881 57.4015C18.5494 53.4631 16.0583 48.3084 15.4199 42.7751C14.7814 37.2418 16.0331 31.6552 18.9714 26.9233C21.9097 22.1914 26.362 18.5923 31.6047 16.7109C36.8473 14.8296 42.5722 14.7766 47.8487 16.5605V11.0625C41.4778 9.31854 34.709 9.73013 28.5963 12.2332C22.4837 14.7362 17.3702 19.1902 14.0521 24.9017C10.734 30.6131 9.39763 37.2614 10.251 43.8114C11.1043 50.3613 14.0995 56.4453 18.7702 61.1159C23.4408 65.7866 29.5248 68.7818 36.0747 69.6351C42.6247 70.4885 49.273 69.1521 54.9844 65.834C60.6959 62.5159 65.1499 57.4024 67.6529 51.2898C70.156 45.1771 70.5675 38.4083 68.8236 32.0374H63.3269Z" fill="#F95858"/>
<path d="M61.8303 18.038V12.293H57.6988V18.038H51.9883V22.1695H57.6988V27.9145H61.8303V22.1695H67.5753V18.038H61.8303Z" fill="#F95858"/>
</svg>
