<svg width="32" height="32" viewBox="0 0 32 32" fill="none" xmlns="http://www.w3.org/2000/svg">
<path d="M28.0004 7.53344L17.3338 1.37411C16.9284 1.14006 16.4685 1.01685 16.0004 1.01685C15.5323 1.01685 15.0725 1.14006 14.6671 1.37411L4.00042 7.53344C3.79677 7.65116 3.60959 7.7953 3.44376 7.96211L16.0004 15.2101L28.5571 7.96078C28.3912 7.79443 28.204 7.65074 28.0004 7.53344ZM17.4911 8.47611C17.0305 8.71078 16.521 8.83312 16.0041 8.83312C15.4872 8.83312 14.9776 8.71078 14.5171 8.47611C13.6924 8.00011 13.6838 7.22678 14.5031 6.75078C14.9653 6.51608 15.4764 6.39376 15.9948 6.39376C16.5131 6.39376 17.0242 6.51608 17.4864 6.75078C17.6664 6.81195 17.8227 6.92782 17.9336 7.08219C18.0445 7.23656 18.1044 7.42171 18.1049 7.61178C18.1054 7.80184 18.0465 7.98732 17.9365 8.14228C17.8264 8.29725 17.6707 8.41396 17.4911 8.47611Z" fill="#FF4747"/>
<path d="M2.77066 9.11206C2.70241 9.34919 2.66741 9.59464 2.66666 9.84139V22.1587C2.6669 22.6266 2.79024 23.0862 3.02427 23.4913C3.25831 23.8964 3.59481 24.2328 3.99999 24.4667L14.6667 30.6247C14.8755 30.7452 15.0998 30.8365 15.3333 30.8961V16.3627L2.77066 9.11206ZM5.66999 16.6721C5.3078 16.4374 5.00644 16.1202 4.79065 15.7464C4.57486 15.3727 4.4508 14.9531 4.42866 14.5221C4.42866 13.7341 4.98866 13.4167 5.67866 13.8147C6.03905 14.0492 6.33893 14.3655 6.55384 14.7378C6.76875 15.1102 6.89261 15.5281 6.91532 15.9574C6.91332 16.7507 6.35599 17.0667 5.66999 16.6721ZM8.66666 21.9561C8.30442 21.7213 8.00303 21.4039 7.78724 21.0301C7.57145 20.6562 7.44742 20.2365 7.42532 19.8054C7.42532 19.0181 7.98466 18.7001 8.67466 19.0987C9.03536 19.3329 9.33551 19.6491 9.55057 20.0215C9.76562 20.3939 9.88947 20.8119 9.91199 21.2414C9.90799 22.0341 9.35066 22.3514 8.66666 21.9561ZM11.6613 27.2394C11.2991 27.0047 10.9978 26.6875 10.782 26.3137C10.5662 25.94 10.4421 25.5204 10.42 25.0894C10.42 24.3014 10.9793 23.9841 11.6693 24.3821C12.0299 24.6163 12.33 24.9326 12.545 25.305C12.7601 25.6774 12.884 26.0953 12.9067 26.5247C12.9027 27.3174 12.3447 27.6354 11.6593 27.2394H11.6613Z" fill="#FF4747"/>
<path d="M29.2293 9.11206L16.6667 16.3647V30.8981C16.9002 30.8385 17.1245 30.7472 17.3333 30.6267L28 24.4667C28.4054 24.2327 28.742 23.8961 28.976 23.4907C29.2101 23.0853 29.3333 22.6255 29.3333 22.1574V9.84139C29.3326 9.59464 29.2976 9.34919 29.2293 9.11206ZM20.8293 17.0074C21.5193 16.6074 22.0767 16.9267 22.0787 17.7194C22.0565 18.1499 21.9325 18.5689 21.7169 18.9422C21.5014 19.3155 21.2004 19.6323 20.8387 19.8667C20.1533 20.2627 19.5913 19.9474 19.5887 19.1601C19.6111 18.7287 19.7353 18.3088 19.9512 17.9346C20.1671 17.5605 20.4684 17.2427 20.8307 17.0074H20.8293ZM20.8533 25.5847C20.168 25.9801 19.606 25.6654 19.604 24.8774C19.6265 24.4465 19.7507 24.027 19.9665 23.6533C20.1822 23.2796 20.4834 22.9623 20.8453 22.7274C21.5353 22.3274 22.0927 22.6467 22.0953 23.4394C22.0722 23.8694 21.9477 24.2879 21.7321 24.6607C21.5165 25.0336 21.2158 25.3502 20.8547 25.5847H20.8533ZM25.808 14.1334C26.498 13.7334 27.0553 14.0527 27.058 14.8454C27.0352 15.2756 26.9108 15.6943 26.695 16.0672C26.4793 16.4401 26.1783 16.7566 25.8167 16.9907C25.1307 17.3867 24.5733 17.0687 24.5713 16.2814C24.5932 15.8511 24.7167 15.4322 24.9316 15.0588C25.1466 14.6855 25.4469 14.3684 25.808 14.1334ZM25.8327 22.7107C25.1473 23.1067 24.59 22.7887 24.5873 22.0014C24.6091 21.571 24.7326 21.152 24.9477 20.7786C25.1628 20.4052 25.4633 20.0882 25.8247 19.8534C26.5147 19.4534 27.072 19.7727 27.074 20.5654C27.0513 20.9956 26.927 21.4144 26.7112 21.7873C26.4955 22.1602 26.1944 22.4767 25.8327 22.7107Z" fill="#FF4747"/>
</svg>
