<svg width="32" height="32" viewBox="0 0 32 32" fill="none" xmlns="http://www.w3.org/2000/svg">
<path d="M7.54102 6.875C8.36944 6.875 9.04102 6.20343 9.04102 5.375C9.04102 4.54657 8.36944 3.875 7.54102 3.875C6.71259 3.875 6.04102 4.54657 6.04102 5.375C6.04102 6.20343 6.71259 6.875 7.54102 6.875Z" fill="#13BEA2"/>
<path d="M24.541 6.875C25.3694 6.875 26.041 6.20343 26.041 5.375C26.041 4.54657 25.3694 3.875 24.541 3.875C23.7126 3.875 23.041 4.54657 23.041 5.375C23.041 6.20343 23.7126 6.875 24.541 6.875Z" fill="#13BEA2"/>
<path d="M16.541 3.875C17.3694 3.875 18.041 3.20343 18.041 2.375C18.041 1.54657 17.3694 0.875 16.541 0.875C15.7126 0.875 15.041 1.54657 15.041 2.375C15.041 3.20343 15.7126 3.875 16.541 3.875Z" fill="#13BEA2"/>
<path d="M22.4636 13.875H9.61848C9.20011 13.875 8.79888 14.0857 8.50304 14.4608C8.20721 14.8359 8.04102 15.3446 8.04102 15.875H24.041C24.041 15.3446 23.8748 14.8359 23.579 14.4608C23.2832 14.0857 22.8819 13.875 22.4636 13.875Z" fill="#13BEA2"/>
<rect x="3.04102" y="18.875" width="6" height="10" fill="white"/>
<rect x="13.041" y="18.875" width="6" height="10" fill="white"/>
<rect x="23.041" y="18.875" width="6" height="10" fill="white"/>
<path d="M28.2932 16.875H22.041V30.875H28.2932C29.022 30.875 29.7209 30.5721 30.2362 30.0329C30.7515 29.4938 31.041 28.7625 31.041 28V19.75C31.041 18.9875 30.7515 18.2562 30.2362 17.7171C29.7209 17.1779 29.022 16.875 28.2932 16.875ZM28.7233 21.266L25.856 27.266C25.8069 27.3688 25.7389 27.4605 25.6559 27.5358C25.573 27.6111 25.4766 27.6685 25.3724 27.7049C25.2682 27.7412 25.1582 27.7558 25.0487 27.7476C24.9391 27.7395 24.8321 27.7089 24.7339 27.6575C24.6356 27.6061 24.548 27.535 24.4761 27.4482C24.4041 27.3614 24.3492 27.2606 24.3144 27.1516C24.2797 27.0426 24.2658 26.9275 24.2736 26.8128C24.2813 26.6982 24.3106 26.5863 24.3597 26.4835L26.6206 21.75H25.1066C24.8849 21.7499 24.6722 21.6576 24.5154 21.4936C24.3586 21.3295 24.2705 21.107 24.2703 20.875C24.2703 20.6429 24.3585 20.4204 24.5153 20.2563C24.6721 20.0922 24.8848 20 25.1066 20H27.974C28.1166 19.9998 28.2569 20.0378 28.3815 20.1103C28.5062 20.1828 28.611 20.2875 28.6861 20.4143C28.7612 20.5412 28.804 20.686 28.8105 20.8351C28.8171 20.9842 28.787 21.1325 28.7233 21.266Z" fill="#13BEA2"/>
<path d="M12.041 30.875H20.041V16.875H12.041V30.875ZM14.023 20.875C14.0229 20.76 14.0421 20.6462 14.0795 20.54C14.1168 20.4337 14.1716 20.3372 14.2407 20.256C14.3098 20.1747 14.3918 20.1102 14.4821 20.0663C14.5723 20.0224 14.6691 19.9999 14.7667 20H17.3153C17.442 19.9999 17.5666 20.038 17.6773 20.1106C17.788 20.1831 17.8811 20.2878 17.9477 20.4147C18.0143 20.5416 18.0523 20.6864 18.0579 20.8354C18.0636 20.9844 18.0368 21.1326 17.9801 21.266L15.4315 27.266C15.3889 27.3709 15.329 27.4647 15.2553 27.542C15.1816 27.6193 15.0955 27.6785 15.0021 27.7163C14.9088 27.754 14.8099 27.7695 14.7114 27.7617C14.6129 27.754 14.5167 27.7233 14.4284 27.6713C14.3401 27.6193 14.2615 27.5472 14.1971 27.459C14.1327 27.3709 14.0839 27.2686 14.0536 27.158C14.0232 27.0474 14.0118 26.9308 14.0201 26.815C14.0284 26.6992 14.0563 26.5865 14.102 26.4835L16.112 21.75H14.7667C14.5696 21.75 14.3805 21.6578 14.2411 21.4937C14.1017 21.3296 14.023 21.1071 14.023 20.875Z" fill="#13BEA2"/>
<path d="M1.04102 19.75V28C1.04102 28.7625 1.33052 29.4938 1.84584 30.0329C2.36116 30.5721 3.06008 30.875 3.78885 30.875H10.041V16.875H3.78885C3.06008 16.875 2.36116 17.1779 1.84584 17.7171C1.33052 18.2562 1.04102 18.9875 1.04102 19.75ZM6.97443 20C7.11698 19.9999 7.25719 20.038 7.38172 20.1106C7.50625 20.1831 7.61096 20.2878 7.68591 20.4147C7.76086 20.5416 7.80355 20.6864 7.80992 20.8354C7.81629 20.9844 7.78614 21.1326 7.72232 21.266L4.85501 27.266C4.80591 27.3688 4.73793 27.4605 4.65496 27.5358C4.572 27.6111 4.47567 27.6685 4.37147 27.7049C4.26728 27.7412 4.15726 27.7558 4.0477 27.7476C3.93814 27.7395 3.83118 27.7089 3.73294 27.6575C3.63469 27.6061 3.54708 27.535 3.47511 27.4482C3.40313 27.3614 3.3482 27.2606 3.31346 27.1516C3.27871 27.0426 3.26483 26.9275 3.2726 26.8128C3.28037 26.6982 3.30965 26.5863 3.35876 26.4835L5.62106 21.75H4.10712C3.88532 21.75 3.67261 21.6578 3.51577 21.4937C3.35893 21.3296 3.27082 21.1071 3.27082 20.875C3.27076 20.7601 3.29235 20.6463 3.33436 20.5401C3.37636 20.4339 3.43796 20.3374 3.51563 20.2561C3.5933 20.1749 3.68552 20.1104 3.78701 20.0665C3.8885 20.0225 3.99728 19.9999 4.10712 20H6.97443Z" fill="#13BEA2"/>
<path d="M8.97386 12.875C9.11445 12.8559 9.25616 12.8457 9.39809 12.8447H22.6844C22.8263 12.8457 22.968 12.8559 23.1086 12.875L24.041 8.67784C23.5967 8.60814 23.1718 8.44878 22.793 8.20978C22.4143 7.97078 22.0899 7.6573 21.8401 7.28903L19.3046 8.60217L17.4566 5.875C17.0153 6.08508 16.5315 6.19421 16.0412 6.19421C15.551 6.19421 15.0672 6.08508 14.6259 5.875L12.7779 8.60217L10.2419 7.28903C9.99218 7.6573 9.66776 7.97078 9.28901 8.20978C8.91026 8.44878 8.48536 8.60814 8.04102 8.67784L8.97386 12.875Z" fill="#13BEA2"/>
</svg>
