<svg width="32" height="32" viewBox="0 0 32 32" fill="none" xmlns="http://www.w3.org/2000/svg">
<path d="M15.1751 30C11.9235 29.8114 8.96924 28.515 6.684 26.4826L9.60772 23.5589C11.1358 24.8524 13.0613 25.6909 15.1751 25.8653V30ZM5.51737 25.316C3.485 23.0308 2.18861 20.0765 2 16.8249H6.13469C6.30907 18.9387 7.14758 20.8642 8.44109 22.3923L5.51737 25.316ZM2 15.1751C2.18861 11.9235 3.485 8.96924 5.51737 6.684L8.44109 9.60772C7.14758 11.1358 6.30907 13.0613 6.13469 15.1751H2ZM6.684 5.51737C8.96924 3.485 11.9235 2.18861 15.1751 2V6.13469C13.0613 6.30907 11.1358 7.14758 9.60772 8.44109L6.684 5.51737ZM16.8249 2C20.0765 2.18861 23.0308 3.485 25.316 5.51737L22.3923 8.44109C20.8642 7.14758 18.9387 6.30907 16.8249 6.13469V2ZM26.4826 6.684C28.515 8.96924 29.8114 11.9235 30 15.1751H25.8653C25.6909 13.0613 24.8524 11.1358 23.5589 9.60772L26.4826 6.684ZM30 16.8249C29.8114 20.0765 28.515 23.0308 26.4826 25.316L23.5589 22.3923C24.8524 20.8642 25.6909 18.9387 25.8653 16.8249H30ZM25.316 26.4826C23.0308 28.515 20.0765 29.8114 16.8249 30V25.8653C18.9387 25.6909 20.8642 24.8524 22.3923 23.5589L25.316 26.4826ZM16 24.2493C11.444 24.2493 7.75067 20.556 7.75067 16C7.75067 11.444 11.444 7.75067 16 7.75067C20.556 7.75067 24.2493 11.444 24.2493 16C24.2493 20.556 20.556 24.2493 16 24.2493Z" fill="#3DDB9C"/>
</svg>
