<svg width="32" height="32" viewBox="0 0 32 32" fill="none" xmlns="http://www.w3.org/2000/svg">
<path d="M27.5087 5.682C25.5067 3.4 21.2087 2 16.0007 2C10.7927 2 6.49465 3.4 4.49265 5.682C1.16065 9.546 1.16065 22.482 4.49265 26.318C6.49465 28.6 10.7927 30 16.0007 30C21.2087 30 25.5067 28.6 27.5087 26.318C30.8407 22.454 30.8407 9.546 27.5087 5.682ZM16.0007 8.65C16.3468 8.65 16.6851 8.75264 16.9729 8.94493C17.2607 9.13722 17.485 9.41053 17.6174 9.7303C17.7499 10.0501 17.7846 10.4019 17.717 10.7414C17.6495 11.0809 17.4828 11.3927 17.2381 11.6374C16.9934 11.8822 16.6815 12.0489 16.3421 12.1164C16.0026 12.1839 15.6507 12.1492 15.331 12.0168C15.0112 11.8843 14.7379 11.66 14.5456 11.3722C14.3533 11.0845 14.2507 10.7461 14.2507 10.4C14.2507 9.93587 14.435 9.49075 14.7632 9.16256C15.0914 8.83438 15.5365 8.65 16.0007 8.65ZM17.4007 23.7H14.6007C14.2294 23.7 13.8733 23.5525 13.6107 23.29C13.3482 23.0274 13.2007 22.6713 13.2007 22.3C13.2007 21.9287 13.3482 21.5726 13.6107 21.3101C13.8733 21.0475 14.2294 20.9 14.6007 20.9V16.7C14.2294 16.7 13.8733 16.5525 13.6107 16.29C13.3482 16.0274 13.2007 15.6713 13.2007 15.3C13.2007 14.9287 13.3482 14.5726 13.6107 14.3101C13.8733 14.0475 14.2294 13.9 14.6007 13.9H16.0007C16.372 13.9 16.7281 14.0475 16.9906 14.3101C17.2532 14.5726 17.4007 14.9287 17.4007 15.3V20.9C17.772 20.9 18.1281 21.0475 18.3906 21.3101C18.6532 21.5726 18.8007 21.9287 18.8007 22.3C18.8007 22.6713 18.6532 23.0274 18.3906 23.29C18.1281 23.5525 17.772 23.7 17.4007 23.7Z" fill="#298AF1"/>
</svg>
