<svg width="32" height="32" viewBox="0 0 32 32" fill="none" xmlns="http://www.w3.org/2000/svg">
<path d="M27.7392 8.32233L23.2969 6.32544V21.0561L26.5672 13.9512H26.5816L28.3759 10.0008C28.6529 9.36121 28.3707 8.61732 27.7392 8.32233Z" fill="#EE624C"/>
<path d="M20.3178 2H3.95194C3.02587 2.01567 2.2811 2.76681 2.27344 3.69302V28.2925C2.28097 29.2212 3.02356 29.9766 3.95201 29.9999H20.3034C21.2544 30.0079 22.0318 29.2436 22.0398 28.2925V28.2924V3.69302C22.024 2.75331 21.2576 1.99986 20.3178 2ZM6.26723 7.18033V7.31056H6.06462V7.96172H5.22537V7.31056H4.95046V7.18033C4.30703 7.10999 3.81011 6.58241 3.77837 5.93586C3.78454 5.66163 3.8812 5.3971 4.05328 5.18343H4.1401L4.99387 4.11261C5.1747 3.9311 5.40715 3.80982 5.65948 3.76533C5.8943 3.75495 6.11997 3.8571 6.26723 4.04024L7.22226 5.15447C7.26642 5.18872 7.30128 5.23349 7.32353 5.2847C7.41802 5.48948 7.47208 5.7106 7.48273 5.93586C7.46814 6.60595 6.9367 7.15008 6.26723 7.18033ZM13.8062 18.8868L13.7917 18.8723C13.4473 18.8544 13.1067 18.7912 12.7788 18.6842V20.1313H13.5024V21.4191H10.8254V20.1313H11.4476V18.6842C11.1215 18.7964 10.7794 18.855 10.4347 18.8579C8.89731 18.9149 7.60333 17.718 7.54059 16.1809C7.58271 15.6448 7.77867 15.1323 8.10493 14.7049L8.22071 14.6036L11.3029 10.9137C11.7495 10.4342 12.5004 10.4076 12.9799 10.8543C13.0004 10.8734 13.0202 10.8932 13.0393 10.9137L16.107 14.5458C16.4909 14.9961 16.7148 15.5609 16.7437 16.152C16.6583 17.7047 15.3611 18.9124 13.8062 18.8868ZM19.3049 27.3663V27.511H19.1023V28.1622H18.263V27.511H17.9881V27.3518C17.338 27.307 16.8295 26.7734 16.816 26.1219C16.817 25.8554 16.9147 25.5982 17.091 25.3983L17.9447 24.3565C18.1104 24.1988 18.3246 24.1019 18.5525 24.0816C18.7887 24.0636 19.0178 24.1672 19.1602 24.3565L20.1297 25.4417C20.2648 25.6595 20.3398 25.9092 20.3468 26.1653C20.3338 26.7643 19.896 27.269 19.3049 27.3663Z" fill="#EE624C"/>
<path d="M29.5651 17.9172L27.3656 15.3994L23.2994 24.1684V24.4867L29.4782 19.0459C29.7764 18.7402 29.813 18.2649 29.5651 17.9172Z" fill="#EE624C"/>
</svg>
