<svg width="32" height="32" viewBox="0 0 32 32" fill="none" xmlns="http://www.w3.org/2000/svg">
<path d="M26.8561 12.074C22.4847 8.6615 18.4741 4.26768 16.811 2.36739C16.3823 1.87754 15.6181 1.87754 15.1894 2.36739C13.5262 4.26763 9.51576 8.66145 5.14429 12.074C3.16089 13.6223 2.00015 15.9504 2.00015 18.4172C2.00015 22.7952 5.66589 26.3444 10.1878 26.3444C11.7171 26.3444 13.1082 25.7722 14.146 24.8373V26.3831C14.146 28.2649 12.7906 28.4983 11.7389 29.377C11.486 29.5884 11.6413 30 11.9716 30H20.001C20.3301 30 20.4856 29.5912 20.2354 29.3784C19.1945 28.4932 17.8543 28.2956 17.8543 26.3971V24.8372C18.8921 25.7722 20.2832 26.3443 21.8125 26.3443C26.3344 26.3443 30.0002 22.7952 30.0002 18.4171C30.0002 15.9504 28.8395 13.6223 26.8561 12.074Z" fill="#006BFF"/>
</svg>
