<svg width="32" height="32" viewBox="0 0 32 32" fill="none" xmlns="http://www.w3.org/2000/svg">
<path d="M5.33341 18.6671H14.6667V29.3337H8.66675C7.60588 29.3337 6.58847 28.9123 5.83832 28.1621C5.08818 27.412 4.66675 26.3946 4.66675 25.3337V18.6671C4.88815 18.694 5.11201 18.694 5.33341 18.6671Z" fill="#7772FC"/>
<path d="M27.3333 18.6671V25.3337C27.3333 26.3946 26.9118 27.412 26.1617 28.1621C25.4115 28.9123 24.3941 29.3337 23.3333 29.3337H17.3333V18.6671H26.6666C26.888 18.694 27.1118 18.694 27.3333 18.6671Z" fill="#7772FC"/>
<path d="M27.3334 10.6671H4.66675C3.56218 10.6671 2.66675 11.5625 2.66675 12.6671V15.3337C2.66675 16.4383 3.56218 17.3337 4.66675 17.3337H27.3334C28.438 17.3337 29.3334 16.4383 29.3334 15.3337V12.6671C29.3334 11.5625 28.438 10.6671 27.3334 10.6671Z" fill="#7772FC"/>
<path d="M16.333 12H15.9997C15.7841 11.9959 15.5728 11.9396 15.3837 11.8359C15.1947 11.7322 15.0336 11.5842 14.9143 11.4046C14.795 11.2251 14.7211 11.0192 14.6988 10.8048C14.6765 10.5903 14.7066 10.3736 14.7864 10.1733C15.253 9.00001 15.6664 7.81335 16.013 6.64001C16.333 5.68001 17.5464 2.64001 20.653 2.64001C21.8638 2.61136 23.0365 3.06413 23.9139 3.899C24.7912 4.73387 25.3016 5.88265 25.333 7.09335C25.333 9.89335 22.1464 11.0933 21.093 11.4267C19.5423 11.8462 17.939 12.0393 16.333 12ZM20.6264 5.33335C19.293 5.33335 18.7064 6.93335 18.5464 7.42668C18.3864 7.92001 18.1597 8.65335 17.933 9.28001C18.6906 9.25173 19.4423 9.13539 20.173 8.93335C20.7997 8.70668 22.6664 8.00002 22.6664 7.09335C22.6255 6.59092 22.3886 6.12474 22.0069 5.79545C21.6252 5.46616 21.1294 5.30018 20.6264 5.33335Z" fill="#7772FC"/>
<path d="M15.6401 12.0004C14.0566 12.0278 12.477 11.8348 10.9467 11.4271C7.26675 10.2271 6.66675 8.20039 6.66675 7.10705C6.67514 6.54096 6.79753 5.98237 7.02662 5.46464C7.2557 4.9469 7.58678 4.48065 8.00008 4.09372C8.90875 3.20009 10.1258 2.6894 11.4001 2.66705C13.8267 2.66705 15.0134 4.86705 15.8934 6.42705C16.439 7.67881 16.8848 8.97172 17.2267 10.2937C17.2844 10.4895 17.2964 10.6959 17.2617 10.897C17.227 11.0981 17.1466 11.2886 17.0267 11.4537C16.908 11.6165 16.754 11.7502 16.5762 11.8449C16.3984 11.9396 16.2014 11.9927 16.0001 12.0004H15.6401ZM11.2934 5.33372C10.749 5.36551 10.2359 5.59834 9.85341 5.98705C9.55301 6.26524 9.36753 6.64572 9.33341 7.05372C9.33341 7.70705 10.2534 8.38705 11.7734 8.89372C12.5565 9.11186 13.3615 9.24156 14.1734 9.28039C14.01 8.7495 13.8049 8.23234 13.5601 7.73372L14.6667 7.08039L13.5067 7.72039C12.7867 6.33372 12.1734 5.33372 11.3334 5.33372H11.2934Z" fill="#7772FC"/>
</svg>
