<svg width="32" height="32" viewBox="0 0 32 32" fill="none" xmlns="http://www.w3.org/2000/svg">
<g clip-path="url(#clip0_2498_797)">
<path d="M31.3059 14.5647C31.9358 13.9508 32.1581 13.0499 31.8865 12.2124C31.6141 11.3749 30.9048 10.7771 30.0333 10.6502L22.2852 9.5244C21.9552 9.47635 21.67 9.26938 21.5227 8.97014L18.0587 1.94987C17.6697 1.16109 16.8803 0.670898 16.0005 0.670898C15.1214 0.670898 14.3319 1.16109 13.943 1.94987L10.4784 8.97078C10.331 9.27002 10.0452 9.47699 9.71521 9.52504L1.96703 10.6509C1.09622 10.7771 0.386251 11.3756 0.113924 12.2131C-0.157762 13.0506 0.0645847 13.9515 0.694461 14.5653L6.30055 20.0298C6.53955 20.2631 6.64913 20.5988 6.59274 20.9269L5.27019 28.643C5.15293 29.3222 5.33106 29.9829 5.77063 30.5038C6.45369 31.3157 7.64616 31.563 8.59963 31.0619L15.5289 27.4185C15.8185 27.2667 16.1831 27.2679 16.4721 27.4185L23.402 31.0619C23.7391 31.2394 24.0985 31.3291 24.4696 31.3291C25.1468 31.3291 25.7889 31.028 26.2304 30.5038C26.6706 29.9829 26.8481 29.321 26.7308 28.643L25.4076 20.9269C25.3513 20.5982 25.4608 20.2631 25.6998 20.0298L31.3059 14.5647Z" fill="#FBBF15"/>
</g>
<defs>
<clipPath id="clip0_2498_797">
<rect width="32" height="32" fill="white"/>
</clipPath>
</defs>
</svg>
