<svg width="32" height="32" viewBox="0 0 32 32" fill="none" xmlns="http://www.w3.org/2000/svg">
<path d="M6.33033 3.20636C4.90671 3.20636 3.69557 4.09681 3.24675 5.33969C3.1583 5.5846 3.19683 5.85623 3.35012 6.06828C3.50342 6.28033 3.75224 6.40636 4.01763 6.40636H9.60001C9.60001 4.63905 8.13612 3.20636 6.33033 3.20636Z" fill="#33AB41"/>
<path d="M17.4949 25.6064C17.3303 26.8568 16.7819 27.9637 16 28.8064H25.5584C26.8995 28.8064 28.0731 28.0014 28.7019 26.8072C28.8323 26.5596 28.8327 26.2542 28.7029 26.0063C28.5731 25.7584 28.333 25.6064 28.0732 25.6064H17.4949V25.6064Z" fill="#33AB41"/>
<path d="M21.9473 3.20636H9.23454C9.72854 3.76871 11.1502 5.02516 9.91522 11.5495C9.10611 16.0303 7.4281 20.6643 7.46735 25.2086C7.54713 27.2044 9.14191 28.8064 11.1051 28.8064C13.1192 28.8064 14.7579 27.124 14.7579 25.0564C14.7579 24.6418 15.0846 24.3064 15.4884 24.3064H22.6928C22.8012 21.6001 23.469 18.8791 24.1168 16.2395C24.8561 13.2254 25.6 10.0782 25.6 6.95636C25.6 4.88871 23.9612 3.20636 21.9473 3.20636ZM20.4783 19.7064H11.2368C10.8333 19.7064 10.5062 19.3706 10.5062 18.9564C10.5062 18.5422 10.8333 18.2064 11.2368 18.2064H20.4783C20.8817 18.2064 21.2088 18.5422 21.2088 18.9564C21.2088 19.3706 20.8818 19.7064 20.4783 19.7064ZM21.1728 16.7064H11.9506C11.5472 16.7064 11.2201 16.3706 11.2201 15.9564C11.2201 15.5422 11.5472 15.2064 11.9506 15.2064H21.1728C21.5763 15.2064 21.9033 15.5422 21.9033 15.9564C21.9033 16.3706 21.5763 16.7064 21.1728 16.7064ZM21.8867 13.7064H12.6241C12.2207 13.7064 11.8936 13.3706 11.8936 12.9564C11.8936 12.5422 12.2207 12.2064 12.6241 12.2064H21.8867C22.2901 12.2064 22.6172 12.5422 22.6172 12.9564C22.6172 13.3706 22.2902 13.7064 21.8867 13.7064ZM22.444 10.7064H13.1298C12.7263 10.7064 12.3992 10.3706 12.3992 9.95636C12.3992 9.54216 12.7263 9.20636 13.1298 9.20636H22.444C22.8475 9.20636 23.1746 9.54216 23.1746 9.95636C23.1746 10.3706 22.8475 10.7064 22.444 10.7064Z" fill="#33AB41"/>
</svg>
