<svg width="20" height="21" viewBox="0 0 20 21" fill="none" xmlns="http://www.w3.org/2000/svg">
<g clip-path="url(#clip0_1_8495)">
<path d="M9.99577 12.4262L17.478 4.94426C17.6836 4.73825 17.9584 4.62491 18.2514 4.62491C18.5446 4.62491 18.8192 4.73825 19.025 4.94426L19.6803 5.59987C19.8865 5.80556 20 6.08052 20 6.37353C20 6.66654 19.8865 6.94117 19.6803 7.14703L10.772 16.0555C10.5655 16.2621 10.2896 16.3753 9.99626 16.3745C9.70163 16.3753 9.42602 16.2623 9.21935 16.0555L0.319675 7.15532C0.113497 6.94947 0 6.67483 0 6.38166C0 6.08865 0.113497 5.81402 0.319675 5.608L0.97496 4.95256C1.40146 4.52605 2.09577 4.52605 2.52211 4.95256L9.99577 12.4262Z" fill="white"/>
</g>
<defs>
<clipPath id="clip0_1_8495">
<rect width="20" height="20" fill="white" transform="matrix(0 -1 -1 0 20 20.5)"/>
</clipPath>
</defs>
</svg>
