<svg width="20" height="21" viewBox="0 0 20 21" fill="none" xmlns="http://www.w3.org/2000/svg">
<g clip-path="url(#clip0_1_3476)">
<path d="M9.99577 8.57379L17.478 16.0557C17.6836 16.2618 17.9584 16.3751 18.2514 16.3751C18.5446 16.3751 18.8192 16.2618 19.025 16.0557L19.6803 15.4001C19.8865 15.1944 20 14.9195 20 14.6265C20 14.3335 19.8865 14.0588 19.6803 13.853L10.772 4.94452C10.5655 4.73785 10.2896 4.62468 9.99626 4.62549C9.70163 4.62468 9.42602 4.73769 9.21935 4.94452L0.319675 13.8447C0.113497 14.0505 0 14.3252 0 14.6183C0 14.9113 0.113497 15.186 0.319675 15.392L0.97496 16.0474C1.40146 16.4739 2.09577 16.4739 2.52211 16.0474L9.99577 8.57379Z" fill="#FFFF5A"/>
</g>
<defs>
<clipPath id="clip0_1_3476">
<rect width="20" height="20" fill="white" transform="matrix(0 1 -1 0 20 0.5)"/>
</clipPath>
</defs>
</svg>
