<svg width="16" height="16" viewBox="0 0 16 16" fill="none" xmlns="http://www.w3.org/2000/svg">
<path d="M10.6472 8C10.6472 9.4625 9.46284 10.6469 8.00035 10.6469C6.53785 10.6469 5.35347 9.4625 5.35347 8C5.35347 6.53751 6.53785 5.35313 8.00035 5.35313C9.46284 5.35313 10.6472 6.53751 10.6472 8Z" fill="#BACED0"/>
<path d="M12.4719 0H3.52812C1.58125 0.003125 0.003125 1.58125 0 3.52813V12.4688C0.003125 14.4187 1.58125 15.9969 3.52812 16H12.4687C14.4156 15.9969 15.9969 14.4187 15.9969 12.4719V3.52813C15.9969 1.58125 14.4187 0.003125 12.4719 0ZM8 12.4125C5.56562 12.4125 3.5875 10.4344 3.5875 8C3.5875 5.56563 5.56562 3.5875 8 3.5875C10.4344 3.5875 12.4125 5.56563 12.4125 8C12.4125 10.4344 10.4344 12.4125 8 12.4125ZM13.0594 3.82188C12.5719 3.82188 12.1781 3.42812 12.1781 2.94062C12.1781 2.45312 12.5719 2.05938 13.0594 2.05938C13.5469 2.05938 13.9406 2.45312 13.9406 2.94062C13.9406 3.42812 13.5469 3.82188 13.0594 3.82188Z" fill="#BACED0"/>
</svg>
