<svg width="179" height="41" viewBox="0 0 179 41" fill="none" xmlns="http://www.w3.org/2000/svg">
<path d="M62.3411 27.304H46.6504V24.3556L56.0525 15.4277H46.7122V11.9638H62.2586V14.9123L52.4648 23.7989H62.3411V27.304Z" fill="white"/>
<path d="M74.036 27.5308C66.5102 27.5308 65.6443 22.8092 65.6443 19.7576V11.9638H69.8917V19.6546C69.8917 21.4071 70.3865 23.9226 74.2834 23.9226H74.3865C78.3041 23.9226 78.737 21.4071 78.737 19.6546V11.9638H82.9639V19.7576C82.9639 22.8298 81.8711 27.5308 74.634 27.5308H74.036Z" fill="white"/>
<path d="M90.8952 15.3453V18.603H96.8128C98.5447 18.603 99.0189 17.8607 99.0189 16.9741V16.9329C99.0189 16.0669 98.5447 15.3453 96.8128 15.3453H90.8952ZM100.235 19.9226C102.318 20.3968 103.576 21.6546 103.576 23.902V25.4896C103.576 26.6442 103.699 26.9535 103.823 27.2009V27.304H99.4313C99.3695 27.2009 99.287 26.9123 99.287 26.2319V24.9741C99.287 22.9948 98.5653 22.0875 96.421 22.0875H90.8952V27.304H86.6478V11.9638H96.9777C102.813 11.9638 103.473 14.3968 103.473 16.0669V16.2731C103.473 18.1906 102.153 19.4896 100.235 19.9226Z" fill="white"/>
<path d="M114.884 27.5721H114.286C107.09 27.5721 106.265 24.3143 106.265 22.4793V22.2525H110.884C110.946 22.9329 111.234 24.4587 114.492 24.4587H114.636C117.832 24.4587 118.245 23.4896 118.245 22.6236C118.245 21.7164 117.647 21.1185 115.111 21.036L113.069 20.9741C108.038 20.8298 106.43 18.8092 106.43 16.4999V16.3143C106.43 13.9432 107.709 11.7783 114.059 11.7783H114.76C121.544 11.7783 122.471 14.2525 122.471 16.2731V16.4999H117.915C117.812 15.8195 117.42 14.8092 114.471 14.8092H114.265C111.544 14.8092 110.904 15.3247 110.904 16.17C110.904 16.9535 111.461 17.5308 113.873 17.6339L115.997 17.7164C121.461 17.9226 122.781 19.7164 122.781 22.2113V22.4587C122.781 24.7061 121.75 27.5721 114.884 27.5721Z" fill="white"/>
<path d="M125.952 11.9638H130.199V23.6958H139.581V27.304H125.952V11.9638Z" fill="white"/>
<path d="M150.395 11.7164H151.302C158.477 11.7164 160.519 15.9432 160.519 19.2834V19.902C160.519 23.2009 158.477 27.5515 151.302 27.5515H150.395C143.22 27.5515 141.178 23.2009 141.178 19.902V19.2834C141.178 15.9432 143.22 11.7164 150.395 11.7164ZM156.106 19.4484C156.106 17.5515 155.178 15.2216 150.849 15.2216C146.56 15.2216 145.591 17.5515 145.591 19.4484V19.737C145.591 21.5927 146.622 24.0257 150.849 24.0257C155.158 24.0257 156.106 21.5927 156.106 19.737V19.4484Z" fill="white"/>
<path d="M168.091 27.304V15.469H162.153V11.9638H178.256V15.469H172.318V27.304H168.091Z" fill="white"/>
<g clip-path="url(#clip0_1_8054)">
<path d="M28.2812 0.5H11.7188C5.24666 0.5 0 5.74666 0 12.2188V28.7812C0 35.2533 5.24666 40.5 11.7188 40.5H28.2812C34.7533 40.5 40 35.2533 40 28.7812V12.2188C40 5.74666 34.7533 0.5 28.2812 0.5Z" fill="url(#paint0_linear_1_8054)"/>
<path d="M24.5148 9.31177L16.482 12.7227L9.85156 31.429L18.9227 40.5H28.2828C34.7547 40.5 40.0016 35.2532 40.0016 28.7813V24.7977L24.5156 9.31177H24.5148Z" fill="url(#paint1_linear_1_8054)"/>
<path d="M26.2891 31.9194C24.3992 31.9194 23.3781 31.6155 23.2266 31.0069L22.1516 26.8038H16.9711L16.0266 30.8437C15.8961 31.5179 14.8539 31.8538 12.8984 31.8538C11.8562 31.8538 11.0844 31.7944 10.5852 31.6741C10.0852 31.5554 9.83594 31.4624 9.83594 31.3976L15.6023 9.34053C15.6023 9.16709 17.0898 9.07959 20.0664 9.07959C23.043 9.07959 24.5297 9.16631 24.5297 9.34053L30.1664 31.4312C30.1664 31.5835 29.6664 31.703 28.668 31.7897C27.6688 31.8757 26.8758 31.9194 26.2891 31.9194ZM17.7852 22.6663H21.2062L19.7398 15.9218H19.5445L17.7852 22.6663Z" fill="white"/>
</g>
<defs>
<linearGradient id="paint0_linear_1_8054" x1="3.43203" y1="3.93203" x2="36.568" y2="37.068" gradientUnits="userSpaceOnUse">
<stop stop-color="#54BDFF"/>
<stop offset="1" stop-color="#0042C7"/>
</linearGradient>
<linearGradient id="paint1_linear_1_8054" x1="13.0086" y1="16.1961" x2="35.2242" y2="38.4118" gradientUnits="userSpaceOnUse">
<stop stop-opacity="0.5"/>
<stop offset="1" stop-opacity="0"/>
</linearGradient>
<clipPath id="clip0_1_8054">
<rect width="40" height="40" fill="white" transform="translate(0 0.5)"/>
</clipPath>
</defs>
</svg>
