<svg width="24" height="24" viewBox="0 0 24 24" fill="none" xmlns="http://www.w3.org/2000/svg">
<path d="M11.4209 2.34242C11.5297 2.12215 11.754 1.9827 11.9996 1.9827C12.2453 1.98265 12.4697 2.1221 12.5784 2.34238L15.0957 7.44217C15.3324 7.9217 15.7899 8.25415 16.3192 8.33102L21.9474 9.14918C22.1905 9.18454 22.3925 9.35479 22.4684 9.58844C22.5443 9.82205 22.481 10.0785 22.3051 10.25L18.2328 14.2201C17.8499 14.5934 17.6751 15.1313 17.7655 15.6583L18.7263 21.263C18.7678 21.5051 18.6683 21.7498 18.4696 21.894C18.2708 22.0385 18.0074 22.0575 17.79 21.9432L12.7558 19.2971C12.2825 19.0483 11.717 19.0483 11.2435 19.2972L6.20985 21.9431C5.99239 22.0574 5.72891 22.0383 5.5302 21.894C5.33144 21.7496 5.23196 21.5048 5.27346 21.2628L6.23477 15.6585C6.32522 15.1313 6.15046 14.5934 5.76743 14.22L1.69486 10.2501C1.51898 10.0786 1.45563 9.82209 1.53155 9.58849C1.60748 9.35488 1.80943 9.18462 2.05254 9.14922L7.6806 8.3311C8.20985 8.25415 8.6674 7.92174 8.90412 7.44213L11.4209 2.34242Z" fill="#F2F292"/>
</svg>
