<svg width="93" height="78" viewBox="0 0 93 78" fill="none" xmlns="http://www.w3.org/2000/svg">
<g filter="url(#filter0_f_2531_14661)">
<circle cx="46.5" cy="31.5" r="21.5" fill="#16A302" fill-opacity="0.37"/>
</g>
<path d="M56.0305 27.3544C51.9913 24.1857 48.2857 20.1057 46.7491 18.3411C46.353 17.8863 45.6468 17.8863 45.2507 18.3411C43.714 20.1057 40.0084 24.1856 35.9693 27.3544C34.1367 28.7921 33.0642 30.954 33.0642 33.2446C33.0642 37.3099 36.4512 40.6055 40.6293 40.6055C42.0424 40.6055 43.3278 40.0742 44.2866 39.2061V40.6415C44.2866 42.3889 43.0343 42.6056 42.0626 43.4215C41.8289 43.6178 41.9724 44 42.2775 44H49.6965C50.0006 44 50.1442 43.6204 49.9131 43.4229C48.9513 42.6009 47.713 42.4174 47.713 40.6545V39.206C48.6719 40.0742 49.9572 40.6055 51.3703 40.6055C55.5484 40.6055 58.9355 37.3099 58.9355 33.2445C58.9355 30.954 57.863 28.7921 56.0305 27.3544Z" fill="#16A302"/>
<defs>
<filter id="filter0_f_2531_14661" x="0" y="-15" width="93" height="93" filterUnits="userSpaceOnUse" color-interpolation-filters="sRGB">
<feFlood flood-opacity="0" result="BackgroundImageFix"/>
<feBlend mode="normal" in="SourceGraphic" in2="BackgroundImageFix" result="shape"/>
<feGaussianBlur stdDeviation="12.5" result="effect1_foregroundBlur_2531_14661"/>
</filter>
</defs>
</svg>
