<svg width="24" height="24" viewBox="0 0 24 24" fill="none" xmlns="http://www.w3.org/2000/svg">
<path d="M19.5229 9.26579C16.4935 6.88924 13.7143 3.82925 12.5618 2.50583C12.2647 2.16468 11.7351 2.16468 11.438 2.50583C10.2855 3.82921 7.50632 6.8892 4.47697 9.26579C3.10252 10.3441 2.29815 11.9655 2.29815 13.6834C2.29815 16.7324 4.83843 19.2041 7.97202 19.2041C9.03181 19.2041 9.99584 18.8057 10.715 18.1545V19.2311C10.715 20.5416 9.77573 20.7042 9.04694 21.3161C8.87166 21.4633 8.9793 21.75 9.20816 21.75H14.7724C15.0004 21.75 15.1082 21.4653 14.9348 21.3171C14.2135 20.7006 13.2848 20.563 13.2848 19.2408V18.1545C14.0039 18.8056 14.9679 19.2041 16.0277 19.2041C19.1613 19.2041 21.7016 16.7324 21.7016 13.6834C21.7016 11.9655 20.8973 10.3441 19.5229 9.26579Z" fill="#16A302"/>
</svg>
