<svg width="24" height="24" viewBox="0 0 24 24" fill="none" xmlns="http://www.w3.org/2000/svg">
<path d="M11.9999 6.125C12.9664 6.125 13.7499 5.3415 13.7499 4.375C13.7499 3.4085 12.9664 2.625 11.9999 2.625C11.0334 2.625 10.2499 3.4085 10.2499 4.375C10.2499 5.3415 11.0334 6.125 11.9999 6.125Z" fill="#C031CD"/>
<path d="M20.9999 9.125C21.9664 9.125 22.7499 8.3415 22.7499 7.375C22.7499 6.4085 21.9664 5.625 20.9999 5.625C20.0334 5.625 19.2499 6.4085 19.2499 7.375C19.2499 8.3415 20.0334 9.125 20.9999 9.125Z" fill="#C031CD"/>
<path d="M2.99988 9.125C3.96638 9.125 4.74988 8.3415 4.74988 7.375C4.74988 6.4085 3.96638 5.625 2.99988 5.625C2.03338 5.625 1.24988 6.4085 1.24988 7.375C1.24988 8.3415 2.03338 9.125 2.99988 9.125Z" fill="#C031CD"/>
<path fill-rule="evenodd" clip-rule="evenodd" d="M21.2349 8.522C21.2989 8.204 21.1509 7.882 20.8699 7.722C20.5879 7.563 20.2349 7.602 19.9949 7.82C19.9949 7.82 18.9489 8.771 17.7689 9.844C17.2169 10.346 16.4519 10.541 15.7269 10.366C15.0019 10.191 14.4109 9.668 14.1489 8.969L12.7019 5.112C12.5919 4.819 12.3129 4.625 11.9999 4.625C11.6869 4.625 11.4079 4.819 11.2979 5.112L9.85088 8.969C9.58888 9.668 8.99788 10.191 8.27288 10.366C7.54788 10.541 6.78288 10.346 6.23088 9.844C5.05088 8.771 4.00488 7.82 4.00488 7.82C3.76488 7.602 3.41188 7.563 3.12988 7.722C2.84888 7.882 2.70088 8.204 2.76488 8.522C2.76488 8.522 3.87788 14.087 4.44288 16.914C4.69988 18.2 5.82888 19.125 7.13988 19.125H16.8599C18.1709 19.125 19.2999 18.2 19.5569 16.914C20.1219 14.087 21.2349 8.522 21.2349 8.522Z" fill="#C031CD"/>
<path fill-rule="evenodd" clip-rule="evenodd" d="M17.9999 20.625H5.99988C5.58588 20.625 5.24988 20.961 5.24988 21.375C5.24988 21.789 5.58588 22.125 5.99988 22.125H17.9999C18.4139 22.125 18.7499 21.789 18.7499 21.375C18.7499 20.961 18.4139 20.625 17.9999 20.625Z" fill="#C031CD"/>
</svg>
