<svg width="24" height="24" viewBox="0 0 24 24" fill="none" xmlns="http://www.w3.org/2000/svg">
<path fill-rule="evenodd" clip-rule="evenodd" d="M7.01362 4.27028C7.01362 4.89392 7.21968 5.46942 7.56746 5.93245C6.64955 5.93233 5.90551 5.18818 5.90551 4.27028C5.90551 3.96428 5.65746 3.71622 5.35145 3.71622C5.04545 3.71622 4.7974 3.96428 4.7974 4.27028C4.7974 4.89392 5.00345 5.46942 5.35123 5.93245H4.7974C3.87941 5.93245 3.13523 6.6766 3.13523 7.59461V10.3649C3.13523 10.6709 3.38329 10.9189 3.68929 10.9189H20.311C20.617 10.9189 20.865 10.6709 20.865 10.3649V7.59461C20.865 6.6766 20.1209 5.93245 19.2028 5.93245H17.5409C17.8887 5.46942 18.0947 4.89392 18.0947 4.27028C18.0947 3.96428 17.8467 3.71622 17.5407 3.71622C17.2347 3.71622 16.9866 3.96428 16.9866 4.27028C16.9866 5.09632 16.384 5.78163 15.5945 5.91062C15.7753 5.58965 15.8785 5.21904 15.8785 4.82433C15.8785 3.60035 14.8863 2.60811 13.6623 2.60811C13.1434 2.60811 12.6662 2.78642 12.2886 3.0851C11.8444 2.14804 10.8898 1.5 9.7839 1.5C8.25393 1.5 7.01362 2.7403 7.01362 4.27028ZM14.2163 9.81083V7.04056H9.7839V9.81083H14.2163ZM9.7839 5.93245C8.86589 5.93245 8.12173 5.18829 8.12173 4.27028C8.12173 3.35229 8.86589 2.60811 9.7839 2.60811C10.7019 2.60811 11.4461 3.35229 11.4461 4.27028V5.93245H9.7839ZM12.5542 5.93245V4.82433C12.5542 4.21234 13.0503 3.71622 13.6623 3.71622C14.2743 3.71622 14.7704 4.21234 14.7704 4.82433C14.7704 5.43634 14.2743 5.93245 13.6623 5.93245H12.5542Z" fill="#0855C9"/>
<path fill-rule="evenodd" clip-rule="evenodd" d="M4.24348 20.3379V12.027H19.757V20.3379C19.757 21.2559 19.0129 22 18.0949 22H5.90564C4.98763 22 4.24348 21.2559 4.24348 20.3379ZM13.1084 20.8919V13.1351H10.8921V20.8919H13.1084Z" fill="#0855C9"/>
</svg>
