<svg width="24" height="24" viewBox="0 0 24 24" fill="none" xmlns="http://www.w3.org/2000/svg">
<path d="M21.75 11.25H2.25C2.05109 11.25 1.86032 11.329 1.71967 11.4697C1.57902 11.6103 1.5 11.8011 1.5 12C1.5 12.1989 1.57902 12.3897 1.71967 12.5303C1.86032 12.671 2.05109 12.75 2.25 12.75H3.0555L3.64605 20.4258C3.69184 20.9892 3.94735 21.5149 4.36207 21.899C4.7768 22.283 5.32053 22.4975 5.88578 22.5H18.1142C18.6795 22.4975 19.2232 22.283 19.6379 21.899C20.0526 21.5149 20.3082 20.9892 20.354 20.4258L20.9445 12.75H21.75C21.9489 12.75 22.1397 12.671 22.2803 12.5303C22.421 12.3897 22.5 12.1989 22.5 12C22.5 11.8011 22.421 11.6103 22.2803 11.4697C22.1397 11.329 21.9489 11.25 21.75 11.25ZM8.39722 19.485C8.34851 19.4948 8.29895 19.4998 8.24925 19.5C8.07603 19.4998 7.90821 19.4397 7.77429 19.3298C7.64038 19.2199 7.54863 19.0671 7.51462 18.8972L6.76462 15.1472C6.7438 15.0501 6.74248 14.9498 6.76075 14.8521C6.77902 14.7545 6.8165 14.6614 6.87103 14.5784C6.92556 14.4953 6.99605 14.4239 7.0784 14.3684C7.16074 14.3128 7.25331 14.2741 7.35073 14.2546C7.44814 14.2351 7.54846 14.2352 7.64586 14.2547C7.74325 14.2743 7.83579 14.3131 7.91809 14.3687C8.00038 14.4244 8.07081 14.4958 8.12526 14.5789C8.17972 14.662 8.21712 14.7551 8.2353 14.8528L8.9853 18.6028C9.02423 18.7977 8.98415 19.0002 8.87388 19.1656C8.76361 19.331 8.59216 19.4459 8.39722 19.485ZM12.75 18.75C12.75 18.9489 12.671 19.1397 12.5303 19.2803C12.3897 19.421 12.1989 19.5 12 19.5C11.8011 19.5 11.6103 19.421 11.4697 19.2803C11.329 19.1397 11.25 18.9489 11.25 18.75V15C11.25 14.8011 11.329 14.6103 11.4697 14.4697C11.6103 14.329 11.8011 14.25 12 14.25C12.1989 14.25 12.3897 14.329 12.5303 14.4697C12.671 14.6103 12.75 14.8011 12.75 15V18.75ZM16.485 18.8972C16.4668 18.9949 16.4294 19.088 16.375 19.1711C16.3205 19.2542 16.2501 19.3256 16.1678 19.3813C16.0855 19.4369 15.993 19.4757 15.8956 19.4953C15.7982 19.5148 15.6978 19.5149 15.6004 19.4954C15.503 19.4759 15.4104 19.4372 15.3281 19.3816C15.2457 19.3261 15.1753 19.2547 15.1207 19.1716C15.0662 19.0886 15.0287 18.9955 15.0105 18.8979C14.9922 18.8002 14.9935 18.6999 15.0143 18.6028L15.7643 14.8528C15.8056 14.66 15.9212 14.4913 16.086 14.383C16.2508 14.2748 16.4516 14.2359 16.6449 14.2746C16.8382 14.3133 17.0085 14.4265 17.119 14.5899C17.2294 14.7532 17.2711 14.9534 17.235 15.1472L16.485 18.8972Z" fill="#22C21A" fill-opacity="0.93"/>
<path d="M6.75 9.75V8.25C6.75 6.85761 7.30312 5.52226 8.28769 4.53769C9.27226 3.55312 10.6076 3 12 3C13.3924 3 14.7277 3.55312 15.7123 4.53769C16.6969 5.52226 17.25 6.85761 17.25 8.25V9.75H18.75V8.25C18.75 6.45979 18.0388 4.7429 16.773 3.47703C15.5071 2.21116 13.7902 1.5 12 1.5C10.2098 1.5 8.4929 2.21116 7.22703 3.47703C5.96116 4.7429 5.25 6.45979 5.25 8.25V9.75H6.75Z" fill="#22C21A" fill-opacity="0.93"/>
</svg>
