<svg width="20" height="20" viewBox="0 0 20 20" fill="none" xmlns="http://www.w3.org/2000/svg">
<rect width="20" height="20" rx="6" fill="url(#paint0_linear_115_11696)"/>
<path d="M10.2001 7.00001C10.3421 6.99983 10.4826 7.02996 10.6121 7.08838C10.7416 7.1468 10.8572 7.23218 10.951 7.3388L15.2124 12.1826C15.3471 12.3432 15.4137 12.55 15.3978 12.7589C15.382 12.9679 15.285 13.1623 15.1277 13.3007C14.9704 13.4391 14.7651 13.5104 14.5559 13.4994C14.3466 13.4885 14.15 13.3961 14.008 13.242L10.2817 9.00626C10.2715 8.99463 10.259 8.98531 10.2449 8.97893C10.2308 8.97255 10.2155 8.96925 10.2001 8.96925C10.1846 8.96925 10.1693 8.97255 10.1552 8.97893C10.1411 8.98531 10.1286 8.99463 10.1184 9.00626L6.39214 13.242C6.25013 13.3961 6.05348 13.4885 5.84423 13.4994C5.63498 13.5104 5.42975 13.4391 5.27241 13.3007C5.11508 13.1623 5.01813 12.9679 5.00229 12.7589C4.98646 12.55 5.053 12.3432 5.18769 12.1826L9.44777 7.34054C9.54182 7.23365 9.65755 7.148 9.78726 7.08929C9.91696 7.03058 10.0577 7.00014 10.2001 7.00001Z" fill="white"/>
<defs>
<linearGradient id="paint0_linear_115_11696" x1="0" y1="0" x2="20.4831" y2="0.507686" gradientUnits="userSpaceOnUse">
<stop stop-color="#E12151"/>
<stop offset="0.886518" stop-color="#FF646D"/>
</linearGradient>
</defs>
</svg>
