<svg width="11" height="11" viewBox="0 0 11 11" fill="none" xmlns="http://www.w3.org/2000/svg">
<path d="M5.49767 6.55958L9.61293 2.4445C9.72597 2.33119 9.87711 2.26886 10.0383 2.26886C10.1995 2.26886 10.3506 2.33119 10.4638 2.4445L10.8242 2.80509C10.9376 2.91822 11 3.06945 11 3.2306C11 3.39176 10.9376 3.5428 10.8242 3.65602L5.92462 8.55567C5.81104 8.66934 5.65928 8.73158 5.49794 8.73114C5.33589 8.73158 5.18431 8.66943 5.07064 8.55567L0.175822 3.66058C0.0624237 3.54737 0 3.39632 0 3.23507C0 3.07392 0.0624237 2.92287 0.175822 2.80956L0.536228 2.44906C0.770805 2.21449 1.15268 2.21449 1.38716 2.44906L5.49767 6.55958Z" fill="#FFFF5A"/>
</svg>
