<svg width="24" height="24" viewBox="0 0 24 24" fill="none" xmlns="http://www.w3.org/2000/svg">
<path d="M17 2H7C6.46957 2 5.96086 2.21071 5.58579 2.58579C5.21071 2.96086 5 3.46957 5 4V8.7065C4.98132 10.4257 5.57455 12.0955 6.67371 13.4176C7.77286 14.7396 9.30629 15.6278 11 15.9233V20H7C6.46957 20 5.96086 20.2107 5.58579 20.5858C5.21071 20.9609 5 21.4696 5 22H19C19 21.4696 18.7893 20.9609 18.4142 20.5858C18.0391 20.2107 17.5304 20 17 20H13V15.9209C14.6651 15.6814 16.1882 14.85 17.2901 13.5789C18.3921 12.3078 18.9991 10.6822 19 9V4C19 3.46957 18.7893 2.96086 18.4142 2.58579C18.0391 2.21071 17.5304 2 17 2ZM14.87 9.21L13.6573 9.8163C13.2934 9.99828 12.9984 10.2933 12.8164 10.6572L12.21 11.87C12.1904 11.9089 12.1604 11.9417 12.1234 11.9645C12.0863 11.9874 12.0436 11.9995 12 11.9995C11.9564 11.9995 11.9137 11.9874 11.8766 11.9645C11.8396 11.9417 11.8096 11.9089 11.79 11.87L11.1837 10.6573C11.0017 10.2934 10.7067 9.99837 10.3428 9.8164L9.13 9.21C9.09106 9.19044 9.05833 9.16045 9.03546 9.12337C9.01259 9.08628 9.00047 9.04357 9.00047 9C9.00047 8.95643 9.01259 8.91372 9.03546 8.87663C9.05833 8.83955 9.09106 8.80956 9.13 8.79L10.3427 8.1837C10.7066 8.00169 11.0016 7.7066 11.1836 7.3427L11.79 6.13C11.8096 6.09106 11.8396 6.05833 11.8766 6.03546C11.9137 6.01259 11.9564 6.00047 12 6.00047C12.0436 6.00047 12.0863 6.01259 12.1234 6.03546C12.1604 6.05833 12.1904 6.09106 12.21 6.13L12.8163 7.3426C12.9983 7.7065 13.2933 8.00159 13.6572 8.1836L14.87 8.79C14.9089 8.80956 14.9417 8.83955 14.9645 8.87663C14.9874 8.91372 14.9995 8.95643 14.9995 9C14.9995 9.04357 14.9874 9.08628 14.9645 9.12337C14.9417 9.16045 14.9089 9.19044 14.87 9.21ZM19.957 9.83C19.9854 9.55424 19.9997 9.27722 20 9V4H21C21.2652 4 21.5196 4.10536 21.7071 4.29289C21.8946 4.48043 22 4.73478 22 5V7C21.9987 7.62625 21.8009 8.23628 21.4343 8.74404C21.0677 9.2518 20.551 9.63165 19.957 9.83ZM4 4V8.7061C4.00293 9.08658 4.0317 9.46642 4.0861 9.843C3.48194 9.6514 2.9543 9.27276 2.57934 8.76176C2.20438 8.25075 2.00151 7.63381 2 7V5C2 4.73478 2.10536 4.48043 2.29289 4.29289C2.48043 4.10536 2.73478 4 3 4H4Z" fill="#FFA81C"/>
</svg>
